<?xml version="1.0" encoding="utf-8" standalone="no"?>
<!DOCTYPE svg PUBLIC "-//W3C//DTD SVG 1.1//EN"
  "http://www.w3.org/Graphics/SVG/1.1/DTD/svg11.dtd">
<!-- Created with matplotlib (https://matplotlib.org/) -->
<svg height="720pt" version="1.1" viewBox="0 0 720 720" width="720pt" xmlns="http://www.w3.org/2000/svg" xmlns:xlink="http://www.w3.org/1999/xlink">
 <defs>
  <style type="text/css">
*{stroke-linecap:butt;stroke-linejoin:round;}
  </style>
 </defs>
 <g id="figure_1">
  <g id="patch_1">
   <path d="M 0 720 
L 720 720 
L 720 0 
L 0 0 
z
" style="fill:#ffffff;"/>
  </g>
  <g id="axes_1">
   <g id="patch_2">
    <path d="M 90 249.458824 
L 648 249.458824 
L 648 86.4 
L 90 86.4 
z
" style="fill:#e5e5e5;"/>
   </g>
   <g id="matplotlib.axis_1">
    <g id="xtick_1">
     <g id="line2d_1">
      <path clip-path="url(#p3bfc2f971e)" d="M 90 249.458824 
L 90 86.4 
" style="fill:none;stroke:#ffffff;stroke-linecap:square;stroke-width:0.8;"/>
     </g>
     <g id="line2d_2">
      <defs>
       <path d="M 0 0 
L 0 3.5 
" id="m82fdf96827" style="stroke:#555555;stroke-width:0.8;"/>
      </defs>
      <g>
       <use style="fill:#555555;stroke:#555555;stroke-width:0.8;" x="90" xlink:href="#m82fdf96827" y="249.458824"/>
      </g>
     </g>
     <g id="text_1">
      <!-- 0 -->
      <defs>
       <path d="M 31.78125 66.40625 
Q 24.171875 66.40625 20.328125 58.90625 
Q 16.5 51.421875 16.5 36.375 
Q 16.5 21.390625 20.328125 13.890625 
Q 24.171875 6.390625 31.78125 6.390625 
Q 39.453125 6.390625 43.28125 13.890625 
Q 47.125 21.390625 47.125 36.375 
Q 47.125 51.421875 43.28125 58.90625 
Q 39.453125 66.40625 31.78125 66.40625 
z
M 31.78125 74.21875 
Q 44.046875 74.21875 50.515625 64.515625 
Q 56.984375 54.828125 56.984375 36.375 
Q 56.984375 17.96875 50.515625 8.265625 
Q 44.046875 -1.421875 31.78125 -1.421875 
Q 19.53125 -1.421875 13.0625 8.265625 
Q 6.59375 17.96875 6.59375 36.375 
Q 6.59375 54.828125 13.0625 64.515625 
Q 19.53125 74.21875 31.78125 74.21875 
z
" id="DejaVuSans-48"/>
      </defs>
      <g style="fill:#555555;" transform="translate(86.81875 264.057261)scale(0.1 -0.1)">
       <use xlink:href="#DejaVuSans-48"/>
      </g>
     </g>
    </g>
    <g id="xtick_2">
     <g id="line2d_3">
      <path clip-path="url(#p3bfc2f971e)" d="M 166.105154 249.458824 
L 166.105154 86.4 
" style="fill:none;stroke:#ffffff;stroke-linecap:square;stroke-width:0.8;"/>
     </g>
     <g id="line2d_4">
      <g>
       <use style="fill:#555555;stroke:#555555;stroke-width:0.8;" x="166.105154" xlink:href="#m82fdf96827" y="249.458824"/>
      </g>
     </g>
     <g id="text_2">
      <!-- 10 -->
      <defs>
       <path d="M 12.40625 8.296875 
L 28.515625 8.296875 
L 28.515625 63.921875 
L 10.984375 60.40625 
L 10.984375 69.390625 
L 28.421875 72.90625 
L 38.28125 72.90625 
L 38.28125 8.296875 
L 54.390625 8.296875 
L 54.390625 0 
L 12.40625 0 
z
" id="DejaVuSans-49"/>
      </defs>
      <g style="fill:#555555;" transform="translate(159.742654 264.057261)scale(0.1 -0.1)">
       <use xlink:href="#DejaVuSans-49"/>
       <use x="63.623047" xlink:href="#DejaVuSans-48"/>
      </g>
     </g>
    </g>
    <g id="xtick_3">
     <g id="line2d_5">
      <path clip-path="url(#p3bfc2f971e)" d="M 242.210308 249.458824 
L 242.210308 86.4 
" style="fill:none;stroke:#ffffff;stroke-linecap:square;stroke-width:0.8;"/>
     </g>
     <g id="line2d_6">
      <g>
       <use style="fill:#555555;stroke:#555555;stroke-width:0.8;" x="242.210308" xlink:href="#m82fdf96827" y="249.458824"/>
      </g>
     </g>
     <g id="text_3">
      <!-- 20 -->
      <defs>
       <path d="M 19.1875 8.296875 
L 53.609375 8.296875 
L 53.609375 0 
L 7.328125 0 
L 7.328125 8.296875 
Q 12.9375 14.109375 22.625 23.890625 
Q 32.328125 33.6875 34.8125 36.53125 
Q 39.546875 41.84375 41.421875 45.53125 
Q 43.3125 49.21875 43.3125 52.78125 
Q 43.3125 58.59375 39.234375 62.25 
Q 35.15625 65.921875 28.609375 65.921875 
Q 23.96875 65.921875 18.8125 64.3125 
Q 13.671875 62.703125 7.8125 59.421875 
L 7.8125 69.390625 
Q 13.765625 71.78125 18.9375 73 
Q 24.125 74.21875 28.421875 74.21875 
Q 39.75 74.21875 46.484375 68.546875 
Q 53.21875 62.890625 53.21875 53.421875 
Q 53.21875 48.921875 51.53125 44.890625 
Q 49.859375 40.875 45.40625 35.40625 
Q 44.1875 33.984375 37.640625 27.21875 
Q 31.109375 20.453125 19.1875 8.296875 
z
" id="DejaVuSans-50"/>
      </defs>
      <g style="fill:#555555;" transform="translate(235.847808 264.057261)scale(0.1 -0.1)">
       <use xlink:href="#DejaVuSans-50"/>
       <use x="63.623047" xlink:href="#DejaVuSans-48"/>
      </g>
     </g>
    </g>
    <g id="xtick_4">
     <g id="line2d_7">
      <path clip-path="url(#p3bfc2f971e)" d="M 318.315463 249.458824 
L 318.315463 86.4 
" style="fill:none;stroke:#ffffff;stroke-linecap:square;stroke-width:0.8;"/>
     </g>
     <g id="line2d_8">
      <g>
       <use style="fill:#555555;stroke:#555555;stroke-width:0.8;" x="318.315463" xlink:href="#m82fdf96827" y="249.458824"/>
      </g>
     </g>
     <g id="text_4">
      <!-- 30 -->
      <defs>
       <path d="M 40.578125 39.3125 
Q 47.65625 37.796875 51.625 33 
Q 55.609375 28.21875 55.609375 21.1875 
Q 55.609375 10.40625 48.1875 4.484375 
Q 40.765625 -1.421875 27.09375 -1.421875 
Q 22.515625 -1.421875 17.65625 -0.515625 
Q 12.796875 0.390625 7.625 2.203125 
L 7.625 11.71875 
Q 11.71875 9.328125 16.59375 8.109375 
Q 21.484375 6.890625 26.8125 6.890625 
Q 36.078125 6.890625 40.9375 10.546875 
Q 45.796875 14.203125 45.796875 21.1875 
Q 45.796875 27.640625 41.28125 31.265625 
Q 36.765625 34.90625 28.71875 34.90625 
L 20.21875 34.90625 
L 20.21875 43.015625 
L 29.109375 43.015625 
Q 36.375 43.015625 40.234375 45.921875 
Q 44.09375 48.828125 44.09375 54.296875 
Q 44.09375 59.90625 40.109375 62.90625 
Q 36.140625 65.921875 28.71875 65.921875 
Q 24.65625 65.921875 20.015625 65.03125 
Q 15.375 64.15625 9.8125 62.3125 
L 9.8125 71.09375 
Q 15.4375 72.65625 20.34375 73.4375 
Q 25.25 74.21875 29.59375 74.21875 
Q 40.828125 74.21875 47.359375 69.109375 
Q 53.90625 64.015625 53.90625 55.328125 
Q 53.90625 49.265625 50.4375 45.09375 
Q 46.96875 40.921875 40.578125 39.3125 
z
" id="DejaVuSans-51"/>
      </defs>
      <g style="fill:#555555;" transform="translate(311.952963 264.057261)scale(0.1 -0.1)">
       <use xlink:href="#DejaVuSans-51"/>
       <use x="63.623047" xlink:href="#DejaVuSans-48"/>
      </g>
     </g>
    </g>
    <g id="xtick_5">
     <g id="line2d_9">
      <path clip-path="url(#p3bfc2f971e)" d="M 394.420617 249.458824 
L 394.420617 86.4 
" style="fill:none;stroke:#ffffff;stroke-linecap:square;stroke-width:0.8;"/>
     </g>
     <g id="line2d_10">
      <g>
       <use style="fill:#555555;stroke:#555555;stroke-width:0.8;" x="394.420617" xlink:href="#m82fdf96827" y="249.458824"/>
      </g>
     </g>
     <g id="text_5">
      <!-- 40 -->
      <defs>
       <path d="M 37.796875 64.3125 
L 12.890625 25.390625 
L 37.796875 25.390625 
z
M 35.203125 72.90625 
L 47.609375 72.90625 
L 47.609375 25.390625 
L 58.015625 25.390625 
L 58.015625 17.1875 
L 47.609375 17.1875 
L 47.609375 0 
L 37.796875 0 
L 37.796875 17.1875 
L 4.890625 17.1875 
L 4.890625 26.703125 
z
" id="DejaVuSans-52"/>
      </defs>
      <g style="fill:#555555;" transform="translate(388.058117 264.057261)scale(0.1 -0.1)">
       <use xlink:href="#DejaVuSans-52"/>
       <use x="63.623047" xlink:href="#DejaVuSans-48"/>
      </g>
     </g>
    </g>
    <g id="xtick_6">
     <g id="line2d_11">
      <path clip-path="url(#p3bfc2f971e)" d="M 470.525771 249.458824 
L 470.525771 86.4 
" style="fill:none;stroke:#ffffff;stroke-linecap:square;stroke-width:0.8;"/>
     </g>
     <g id="line2d_12">
      <g>
       <use style="fill:#555555;stroke:#555555;stroke-width:0.8;" x="470.525771" xlink:href="#m82fdf96827" y="249.458824"/>
      </g>
     </g>
     <g id="text_6">
      <!-- 50 -->
      <defs>
       <path d="M 10.796875 72.90625 
L 49.515625 72.90625 
L 49.515625 64.59375 
L 19.828125 64.59375 
L 19.828125 46.734375 
Q 21.96875 47.46875 24.109375 47.828125 
Q 26.265625 48.1875 28.421875 48.1875 
Q 40.625 48.1875 47.75 41.5 
Q 54.890625 34.8125 54.890625 23.390625 
Q 54.890625 11.625 47.5625 5.09375 
Q 40.234375 -1.421875 26.90625 -1.421875 
Q 22.3125 -1.421875 17.546875 -0.640625 
Q 12.796875 0.140625 7.71875 1.703125 
L 7.71875 11.625 
Q 12.109375 9.234375 16.796875 8.0625 
Q 21.484375 6.890625 26.703125 6.890625 
Q 35.15625 6.890625 40.078125 11.328125 
Q 45.015625 15.765625 45.015625 23.390625 
Q 45.015625 31 40.078125 35.4375 
Q 35.15625 39.890625 26.703125 39.890625 
Q 22.75 39.890625 18.8125 39.015625 
Q 14.890625 38.140625 10.796875 36.28125 
z
" id="DejaVuSans-53"/>
      </defs>
      <g style="fill:#555555;" transform="translate(464.163271 264.057261)scale(0.1 -0.1)">
       <use xlink:href="#DejaVuSans-53"/>
       <use x="63.623047" xlink:href="#DejaVuSans-48"/>
      </g>
     </g>
    </g>
    <g id="xtick_7">
     <g id="line2d_13">
      <path clip-path="url(#p3bfc2f971e)" d="M 546.630925 249.458824 
L 546.630925 86.4 
" style="fill:none;stroke:#ffffff;stroke-linecap:square;stroke-width:0.8;"/>
     </g>
     <g id="line2d_14">
      <g>
       <use style="fill:#555555;stroke:#555555;stroke-width:0.8;" x="546.630925" xlink:href="#m82fdf96827" y="249.458824"/>
      </g>
     </g>
     <g id="text_7">
      <!-- 60 -->
      <defs>
       <path d="M 33.015625 40.375 
Q 26.375 40.375 22.484375 35.828125 
Q 18.609375 31.296875 18.609375 23.390625 
Q 18.609375 15.53125 22.484375 10.953125 
Q 26.375 6.390625 33.015625 6.390625 
Q 39.65625 6.390625 43.53125 10.953125 
Q 47.40625 15.53125 47.40625 23.390625 
Q 47.40625 31.296875 43.53125 35.828125 
Q 39.65625 40.375 33.015625 40.375 
z
M 52.59375 71.296875 
L 52.59375 62.3125 
Q 48.875 64.0625 45.09375 64.984375 
Q 41.3125 65.921875 37.59375 65.921875 
Q 27.828125 65.921875 22.671875 59.328125 
Q 17.53125 52.734375 16.796875 39.40625 
Q 19.671875 43.65625 24.015625 45.921875 
Q 28.375 48.1875 33.59375 48.1875 
Q 44.578125 48.1875 50.953125 41.515625 
Q 57.328125 34.859375 57.328125 23.390625 
Q 57.328125 12.15625 50.6875 5.359375 
Q 44.046875 -1.421875 33.015625 -1.421875 
Q 20.359375 -1.421875 13.671875 8.265625 
Q 6.984375 17.96875 6.984375 36.375 
Q 6.984375 53.65625 15.1875 63.9375 
Q 23.390625 74.21875 37.203125 74.21875 
Q 40.921875 74.21875 44.703125 73.484375 
Q 48.484375 72.75 52.59375 71.296875 
z
" id="DejaVuSans-54"/>
      </defs>
      <g style="fill:#555555;" transform="translate(540.268425 264.057261)scale(0.1 -0.1)">
       <use xlink:href="#DejaVuSans-54"/>
       <use x="63.623047" xlink:href="#DejaVuSans-48"/>
      </g>
     </g>
    </g>
    <g id="xtick_8">
     <g id="line2d_15">
      <path clip-path="url(#p3bfc2f971e)" d="M 622.736079 249.458824 
L 622.736079 86.4 
" style="fill:none;stroke:#ffffff;stroke-linecap:square;stroke-width:0.8;"/>
     </g>
     <g id="line2d_16">
      <g>
       <use style="fill:#555555;stroke:#555555;stroke-width:0.8;" x="622.736079" xlink:href="#m82fdf96827" y="249.458824"/>
      </g>
     </g>
     <g id="text_8">
      <!-- 70 -->
      <defs>
       <path d="M 8.203125 72.90625 
L 55.078125 72.90625 
L 55.078125 68.703125 
L 28.609375 0 
L 18.3125 0 
L 43.21875 64.59375 
L 8.203125 64.59375 
z
" id="DejaVuSans-55"/>
      </defs>
      <g style="fill:#555555;" transform="translate(616.373579 264.057261)scale(0.1 -0.1)">
       <use xlink:href="#DejaVuSans-55"/>
       <use x="63.623047" xlink:href="#DejaVuSans-48"/>
      </g>
     </g>
    </g>
   </g>
   <g id="matplotlib.axis_2">
    <g id="ytick_1">
     <g id="line2d_17">
      <path clip-path="url(#p3bfc2f971e)" d="M 90 232.635294 
L 648 232.635294 
" style="fill:none;stroke:#ffffff;stroke-linecap:square;stroke-width:0.8;"/>
     </g>
     <g id="line2d_18">
      <defs>
       <path d="M 0 0 
L -3.5 0 
" id="m45176dbcc9" style="stroke:#555555;stroke-width:0.8;"/>
      </defs>
      <g>
       <use style="fill:#555555;stroke:#555555;stroke-width:0.8;" x="90" xlink:href="#m45176dbcc9" y="232.635294"/>
      </g>
     </g>
     <g id="text_9">
      <!-- Age -->
      <defs>
       <path d="M 34.1875 63.1875 
L 20.796875 26.90625 
L 47.609375 26.90625 
z
M 28.609375 72.90625 
L 39.796875 72.90625 
L 67.578125 0 
L 57.328125 0 
L 50.6875 18.703125 
L 17.828125 18.703125 
L 11.1875 0 
L 0.78125 0 
z
" id="DejaVuSans-65"/>
       <path d="M 45.40625 27.984375 
Q 45.40625 37.75 41.375 43.109375 
Q 37.359375 48.484375 30.078125 48.484375 
Q 22.859375 48.484375 18.828125 43.109375 
Q 14.796875 37.75 14.796875 27.984375 
Q 14.796875 18.265625 18.828125 12.890625 
Q 22.859375 7.515625 30.078125 7.515625 
Q 37.359375 7.515625 41.375 12.890625 
Q 45.40625 18.265625 45.40625 27.984375 
z
M 54.390625 6.78125 
Q 54.390625 -7.171875 48.1875 -13.984375 
Q 42 -20.796875 29.203125 -20.796875 
Q 24.46875 -20.796875 20.265625 -20.09375 
Q 16.0625 -19.390625 12.109375 -17.921875 
L 12.109375 -9.1875 
Q 16.0625 -11.328125 19.921875 -12.34375 
Q 23.78125 -13.375 27.78125 -13.375 
Q 36.625 -13.375 41.015625 -8.765625 
Q 45.40625 -4.15625 45.40625 5.171875 
L 45.40625 9.625 
Q 42.625 4.78125 38.28125 2.390625 
Q 33.9375 0 27.875 0 
Q 17.828125 0 11.671875 7.65625 
Q 5.515625 15.328125 5.515625 27.984375 
Q 5.515625 40.671875 11.671875 48.328125 
Q 17.828125 56 27.875 56 
Q 33.9375 56 38.28125 53.609375 
Q 42.625 51.21875 45.40625 46.390625 
L 45.40625 54.6875 
L 54.390625 54.6875 
z
" id="DejaVuSans-103"/>
       <path d="M 56.203125 29.59375 
L 56.203125 25.203125 
L 14.890625 25.203125 
Q 15.484375 15.921875 20.484375 11.0625 
Q 25.484375 6.203125 34.421875 6.203125 
Q 39.59375 6.203125 44.453125 7.46875 
Q 49.3125 8.734375 54.109375 11.28125 
L 54.109375 2.78125 
Q 49.265625 0.734375 44.1875 -0.34375 
Q 39.109375 -1.421875 33.890625 -1.421875 
Q 20.796875 -1.421875 13.15625 6.1875 
Q 5.515625 13.8125 5.515625 26.8125 
Q 5.515625 40.234375 12.765625 48.109375 
Q 20.015625 56 32.328125 56 
Q 43.359375 56 49.78125 48.890625 
Q 56.203125 41.796875 56.203125 29.59375 
z
M 47.21875 32.234375 
Q 47.125 39.59375 43.09375 43.984375 
Q 39.0625 48.390625 32.421875 48.390625 
Q 24.90625 48.390625 20.390625 44.140625 
Q 15.875 39.890625 15.1875 32.171875 
z
" id="DejaVuSans-101"/>
      </defs>
      <g style="fill:#555555;" transform="translate(72.487598 243.219266)rotate(-45)scale(0.0694 -0.0694)">
       <use xlink:href="#DejaVuSans-65"/>
       <use x="68.408203" xlink:href="#DejaVuSans-103"/>
       <use x="131.884766" xlink:href="#DejaVuSans-101"/>
      </g>
     </g>
    </g>
    <g id="ytick_2">
     <g id="line2d_19">
      <path clip-path="url(#p3bfc2f971e)" d="M 90 206.752941 
L 648 206.752941 
" style="fill:none;stroke:#ffffff;stroke-linecap:square;stroke-width:0.8;"/>
     </g>
     <g id="line2d_20">
      <g>
       <use style="fill:#555555;stroke:#555555;stroke-width:0.8;" x="90" xlink:href="#m45176dbcc9" y="206.752941"/>
      </g>
     </g>
     <g id="text_10">
      <!-- Tonnage -->
      <defs>
       <path d="M -0.296875 72.90625 
L 61.375 72.90625 
L 61.375 64.59375 
L 35.5 64.59375 
L 35.5 0 
L 25.59375 0 
L 25.59375 64.59375 
L -0.296875 64.59375 
z
" id="DejaVuSans-84"/>
       <path d="M 30.609375 48.390625 
Q 23.390625 48.390625 19.1875 42.75 
Q 14.984375 37.109375 14.984375 27.296875 
Q 14.984375 17.484375 19.15625 11.84375 
Q 23.34375 6.203125 30.609375 6.203125 
Q 37.796875 6.203125 41.984375 11.859375 
Q 46.1875 17.53125 46.1875 27.296875 
Q 46.1875 37.015625 41.984375 42.703125 
Q 37.796875 48.390625 30.609375 48.390625 
z
M 30.609375 56 
Q 42.328125 56 49.015625 48.375 
Q 55.71875 40.765625 55.71875 27.296875 
Q 55.71875 13.875 49.015625 6.21875 
Q 42.328125 -1.421875 30.609375 -1.421875 
Q 18.84375 -1.421875 12.171875 6.21875 
Q 5.515625 13.875 5.515625 27.296875 
Q 5.515625 40.765625 12.171875 48.375 
Q 18.84375 56 30.609375 56 
z
" id="DejaVuSans-111"/>
       <path d="M 54.890625 33.015625 
L 54.890625 0 
L 45.90625 0 
L 45.90625 32.71875 
Q 45.90625 40.484375 42.875 44.328125 
Q 39.84375 48.1875 33.796875 48.1875 
Q 26.515625 48.1875 22.3125 43.546875 
Q 18.109375 38.921875 18.109375 30.90625 
L 18.109375 0 
L 9.078125 0 
L 9.078125 54.6875 
L 18.109375 54.6875 
L 18.109375 46.1875 
Q 21.34375 51.125 25.703125 53.5625 
Q 30.078125 56 35.796875 56 
Q 45.21875 56 50.046875 50.171875 
Q 54.890625 44.34375 54.890625 33.015625 
z
" id="DejaVuSans-110"/>
       <path d="M 34.28125 27.484375 
Q 23.390625 27.484375 19.1875 25 
Q 14.984375 22.515625 14.984375 16.5 
Q 14.984375 11.71875 18.140625 8.90625 
Q 21.296875 6.109375 26.703125 6.109375 
Q 34.1875 6.109375 38.703125 11.40625 
Q 43.21875 16.703125 43.21875 25.484375 
L 43.21875 27.484375 
z
M 52.203125 31.203125 
L 52.203125 0 
L 43.21875 0 
L 43.21875 8.296875 
Q 40.140625 3.328125 35.546875 0.953125 
Q 30.953125 -1.421875 24.3125 -1.421875 
Q 15.921875 -1.421875 10.953125 3.296875 
Q 6 8.015625 6 15.921875 
Q 6 25.140625 12.171875 29.828125 
Q 18.359375 34.515625 30.609375 34.515625 
L 43.21875 34.515625 
L 43.21875 35.40625 
Q 43.21875 41.609375 39.140625 45 
Q 35.0625 48.390625 27.6875 48.390625 
Q 23 48.390625 18.546875 47.265625 
Q 14.109375 46.140625 10.015625 43.890625 
L 10.015625 52.203125 
Q 14.9375 54.109375 19.578125 55.046875 
Q 24.21875 56 28.609375 56 
Q 40.484375 56 46.34375 49.84375 
Q 52.203125 43.703125 52.203125 31.203125 
z
" id="DejaVuSans-97"/>
      </defs>
      <g style="fill:#555555;" transform="translate(60.630284 229.194228)rotate(-45)scale(0.0694 -0.0694)">
       <use xlink:href="#DejaVuSans-84"/>
       <use x="60.818359" xlink:href="#DejaVuSans-111"/>
       <use x="122" xlink:href="#DejaVuSans-110"/>
       <use x="185.378906" xlink:href="#DejaVuSans-110"/>
       <use x="248.757812" xlink:href="#DejaVuSans-97"/>
       <use x="310.037109" xlink:href="#DejaVuSans-103"/>
       <use x="373.513672" xlink:href="#DejaVuSans-101"/>
      </g>
     </g>
    </g>
    <g id="ytick_3">
     <g id="line2d_21">
      <path clip-path="url(#p3bfc2f971e)" d="M 90 180.870588 
L 648 180.870588 
" style="fill:none;stroke:#ffffff;stroke-linecap:square;stroke-width:0.8;"/>
     </g>
     <g id="line2d_22">
      <g>
       <use style="fill:#555555;stroke:#555555;stroke-width:0.8;" x="90" xlink:href="#m45176dbcc9" y="180.870588"/>
      </g>
     </g>
     <g id="text_11">
      <!-- passenger_density -->
      <defs>
       <path d="M 18.109375 8.203125 
L 18.109375 -20.796875 
L 9.078125 -20.796875 
L 9.078125 54.6875 
L 18.109375 54.6875 
L 18.109375 46.390625 
Q 20.953125 51.265625 25.265625 53.625 
Q 29.59375 56 35.59375 56 
Q 45.5625 56 51.78125 48.09375 
Q 58.015625 40.1875 58.015625 27.296875 
Q 58.015625 14.40625 51.78125 6.484375 
Q 45.5625 -1.421875 35.59375 -1.421875 
Q 29.59375 -1.421875 25.265625 0.953125 
Q 20.953125 3.328125 18.109375 8.203125 
z
M 48.6875 27.296875 
Q 48.6875 37.203125 44.609375 42.84375 
Q 40.53125 48.484375 33.40625 48.484375 
Q 26.265625 48.484375 22.1875 42.84375 
Q 18.109375 37.203125 18.109375 27.296875 
Q 18.109375 17.390625 22.1875 11.75 
Q 26.265625 6.109375 33.40625 6.109375 
Q 40.53125 6.109375 44.609375 11.75 
Q 48.6875 17.390625 48.6875 27.296875 
z
" id="DejaVuSans-112"/>
       <path d="M 44.28125 53.078125 
L 44.28125 44.578125 
Q 40.484375 46.53125 36.375 47.5 
Q 32.28125 48.484375 27.875 48.484375 
Q 21.1875 48.484375 17.84375 46.4375 
Q 14.5 44.390625 14.5 40.28125 
Q 14.5 37.15625 16.890625 35.375 
Q 19.28125 33.59375 26.515625 31.984375 
L 29.59375 31.296875 
Q 39.15625 29.25 43.1875 25.515625 
Q 47.21875 21.78125 47.21875 15.09375 
Q 47.21875 7.46875 41.1875 3.015625 
Q 35.15625 -1.421875 24.609375 -1.421875 
Q 20.21875 -1.421875 15.453125 -0.5625 
Q 10.6875 0.296875 5.421875 2 
L 5.421875 11.28125 
Q 10.40625 8.6875 15.234375 7.390625 
Q 20.0625 6.109375 24.8125 6.109375 
Q 31.15625 6.109375 34.5625 8.28125 
Q 37.984375 10.453125 37.984375 14.40625 
Q 37.984375 18.0625 35.515625 20.015625 
Q 33.0625 21.96875 24.703125 23.78125 
L 21.578125 24.515625 
Q 13.234375 26.265625 9.515625 29.90625 
Q 5.8125 33.546875 5.8125 39.890625 
Q 5.8125 47.609375 11.28125 51.796875 
Q 16.75 56 26.8125 56 
Q 31.78125 56 36.171875 55.265625 
Q 40.578125 54.546875 44.28125 53.078125 
z
" id="DejaVuSans-115"/>
       <path d="M 41.109375 46.296875 
Q 39.59375 47.171875 37.8125 47.578125 
Q 36.03125 48 33.890625 48 
Q 26.265625 48 22.1875 43.046875 
Q 18.109375 38.09375 18.109375 28.8125 
L 18.109375 0 
L 9.078125 0 
L 9.078125 54.6875 
L 18.109375 54.6875 
L 18.109375 46.1875 
Q 20.953125 51.171875 25.484375 53.578125 
Q 30.03125 56 36.53125 56 
Q 37.453125 56 38.578125 55.875 
Q 39.703125 55.765625 41.0625 55.515625 
z
" id="DejaVuSans-114"/>
       <path d="M 50.984375 -16.609375 
L 50.984375 -23.578125 
L -0.984375 -23.578125 
L -0.984375 -16.609375 
z
" id="DejaVuSans-95"/>
       <path d="M 45.40625 46.390625 
L 45.40625 75.984375 
L 54.390625 75.984375 
L 54.390625 0 
L 45.40625 0 
L 45.40625 8.203125 
Q 42.578125 3.328125 38.25 0.953125 
Q 33.9375 -1.421875 27.875 -1.421875 
Q 17.96875 -1.421875 11.734375 6.484375 
Q 5.515625 14.40625 5.515625 27.296875 
Q 5.515625 40.1875 11.734375 48.09375 
Q 17.96875 56 27.875 56 
Q 33.9375 56 38.25 53.625 
Q 42.578125 51.265625 45.40625 46.390625 
z
M 14.796875 27.296875 
Q 14.796875 17.390625 18.875 11.75 
Q 22.953125 6.109375 30.078125 6.109375 
Q 37.203125 6.109375 41.296875 11.75 
Q 45.40625 17.390625 45.40625 27.296875 
Q 45.40625 37.203125 41.296875 42.84375 
Q 37.203125 48.484375 30.078125 48.484375 
Q 22.953125 48.484375 18.875 42.84375 
Q 14.796875 37.203125 14.796875 27.296875 
z
" id="DejaVuSans-100"/>
       <path d="M 9.421875 54.6875 
L 18.40625 54.6875 
L 18.40625 0 
L 9.421875 0 
z
M 9.421875 75.984375 
L 18.40625 75.984375 
L 18.40625 64.59375 
L 9.421875 64.59375 
z
" id="DejaVuSans-105"/>
       <path d="M 18.3125 70.21875 
L 18.3125 54.6875 
L 36.8125 54.6875 
L 36.8125 47.703125 
L 18.3125 47.703125 
L 18.3125 18.015625 
Q 18.3125 11.328125 20.140625 9.421875 
Q 21.96875 7.515625 27.59375 7.515625 
L 36.8125 7.515625 
L 36.8125 0 
L 27.59375 0 
Q 17.1875 0 13.234375 3.875 
Q 9.28125 7.765625 9.28125 18.015625 
L 9.28125 47.703125 
L 2.6875 47.703125 
L 2.6875 54.6875 
L 9.28125 54.6875 
L 9.28125 70.21875 
z
" id="DejaVuSans-116"/>
       <path d="M 32.171875 -5.078125 
Q 28.375 -14.84375 24.75 -17.8125 
Q 21.140625 -20.796875 15.09375 -20.796875 
L 7.90625 -20.796875 
L 7.90625 -13.28125 
L 13.1875 -13.28125 
Q 16.890625 -13.28125 18.9375 -11.515625 
Q 21 -9.765625 23.484375 -3.21875 
L 25.09375 0.875 
L 2.984375 54.6875 
L 12.5 54.6875 
L 29.59375 11.921875 
L 46.6875 54.6875 
L 56.203125 54.6875 
z
" id="DejaVuSans-121"/>
      </defs>
      <g style="fill:#555555;" transform="translate(35.878983 227.92669)rotate(-45)scale(0.0694 -0.0694)">
       <use xlink:href="#DejaVuSans-112"/>
       <use x="63.476562" xlink:href="#DejaVuSans-97"/>
       <use x="124.755859" xlink:href="#DejaVuSans-115"/>
       <use x="176.855469" xlink:href="#DejaVuSans-115"/>
       <use x="228.955078" xlink:href="#DejaVuSans-101"/>
       <use x="290.478516" xlink:href="#DejaVuSans-110"/>
       <use x="353.857422" xlink:href="#DejaVuSans-103"/>
       <use x="417.333984" xlink:href="#DejaVuSans-101"/>
       <use x="478.857422" xlink:href="#DejaVuSans-114"/>
       <use x="519.970703" xlink:href="#DejaVuSans-95"/>
       <use x="569.970703" xlink:href="#DejaVuSans-100"/>
       <use x="633.447266" xlink:href="#DejaVuSans-101"/>
       <use x="694.970703" xlink:href="#DejaVuSans-110"/>
       <use x="758.349609" xlink:href="#DejaVuSans-115"/>
       <use x="810.449219" xlink:href="#DejaVuSans-105"/>
       <use x="838.232422" xlink:href="#DejaVuSans-116"/>
       <use x="877.441406" xlink:href="#DejaVuSans-121"/>
      </g>
     </g>
    </g>
    <g id="ytick_4">
     <g id="line2d_23">
      <path clip-path="url(#p3bfc2f971e)" d="M 90 154.988235 
L 648 154.988235 
" style="fill:none;stroke:#ffffff;stroke-linecap:square;stroke-width:0.8;"/>
     </g>
     <g id="line2d_24">
      <g>
       <use style="fill:#555555;stroke:#555555;stroke-width:0.8;" x="90" xlink:href="#m45176dbcc9" y="154.988235"/>
      </g>
     </g>
     <g id="text_12">
      <!-- length -->
      <defs>
       <path d="M 9.421875 75.984375 
L 18.40625 75.984375 
L 18.40625 0 
L 9.421875 0 
z
" id="DejaVuSans-108"/>
       <path d="M 54.890625 33.015625 
L 54.890625 0 
L 45.90625 0 
L 45.90625 32.71875 
Q 45.90625 40.484375 42.875 44.328125 
Q 39.84375 48.1875 33.796875 48.1875 
Q 26.515625 48.1875 22.3125 43.546875 
Q 18.109375 38.921875 18.109375 30.90625 
L 18.109375 0 
L 9.078125 0 
L 9.078125 75.984375 
L 18.109375 75.984375 
L 18.109375 46.1875 
Q 21.34375 51.125 25.703125 53.5625 
Q 30.078125 56 35.796875 56 
Q 45.21875 56 50.046875 50.171875 
Q 54.890625 44.34375 54.890625 33.015625 
z
" id="DejaVuSans-104"/>
      </defs>
      <g style="fill:#555555;" transform="translate(66.337345 171.722461)rotate(-45)scale(0.0694 -0.0694)">
       <use xlink:href="#DejaVuSans-108"/>
       <use x="27.783203" xlink:href="#DejaVuSans-101"/>
       <use x="89.306641" xlink:href="#DejaVuSans-110"/>
       <use x="152.685547" xlink:href="#DejaVuSans-103"/>
       <use x="216.162109" xlink:href="#DejaVuSans-116"/>
       <use x="255.371094" xlink:href="#DejaVuSans-104"/>
      </g>
     </g>
    </g>
    <g id="ytick_5">
     <g id="line2d_25">
      <path clip-path="url(#p3bfc2f971e)" d="M 90 129.105882 
L 648 129.105882 
" style="fill:none;stroke:#ffffff;stroke-linecap:square;stroke-width:0.8;"/>
     </g>
     <g id="line2d_26">
      <g>
       <use style="fill:#555555;stroke:#555555;stroke-width:0.8;" x="90" xlink:href="#m45176dbcc9" y="129.105882"/>
      </g>
     </g>
     <g id="text_13">
      <!-- passengers -->
      <g style="fill:#555555;" transform="translate(53.90572 158.271732)rotate(-45)scale(0.0694 -0.0694)">
       <use xlink:href="#DejaVuSans-112"/>
       <use x="63.476562" xlink:href="#DejaVuSans-97"/>
       <use x="124.755859" xlink:href="#DejaVuSans-115"/>
       <use x="176.855469" xlink:href="#DejaVuSans-115"/>
       <use x="228.955078" xlink:href="#DejaVuSans-101"/>
       <use x="290.478516" xlink:href="#DejaVuSans-110"/>
       <use x="353.857422" xlink:href="#DejaVuSans-103"/>
       <use x="417.333984" xlink:href="#DejaVuSans-101"/>
       <use x="478.857422" xlink:href="#DejaVuSans-114"/>
       <use x="519.970703" xlink:href="#DejaVuSans-115"/>
      </g>
     </g>
    </g>
    <g id="ytick_6">
     <g id="line2d_27">
      <path clip-path="url(#p3bfc2f971e)" d="M 90 103.223529 
L 648 103.223529 
" style="fill:none;stroke:#ffffff;stroke-linecap:square;stroke-width:0.8;"/>
     </g>
     <g id="line2d_28">
      <g>
       <use style="fill:#555555;stroke:#555555;stroke-width:0.8;" x="90" xlink:href="#m45176dbcc9" y="103.223529"/>
      </g>
     </g>
     <g id="text_14">
      <!-- cabins -->
      <defs>
       <path d="M 48.78125 52.59375 
L 48.78125 44.1875 
Q 44.96875 46.296875 41.140625 47.34375 
Q 37.3125 48.390625 33.40625 48.390625 
Q 24.65625 48.390625 19.8125 42.84375 
Q 14.984375 37.3125 14.984375 27.296875 
Q 14.984375 17.28125 19.8125 11.734375 
Q 24.65625 6.203125 33.40625 6.203125 
Q 37.3125 6.203125 41.140625 7.25 
Q 44.96875 8.296875 48.78125 10.40625 
L 48.78125 2.09375 
Q 45.015625 0.34375 40.984375 -0.53125 
Q 36.96875 -1.421875 32.421875 -1.421875 
Q 20.0625 -1.421875 12.78125 6.34375 
Q 5.515625 14.109375 5.515625 27.296875 
Q 5.515625 40.671875 12.859375 48.328125 
Q 20.21875 56 33.015625 56 
Q 37.15625 56 41.109375 55.140625 
Q 45.0625 54.296875 48.78125 52.59375 
z
" id="DejaVuSans-99"/>
       <path d="M 48.6875 27.296875 
Q 48.6875 37.203125 44.609375 42.84375 
Q 40.53125 48.484375 33.40625 48.484375 
Q 26.265625 48.484375 22.1875 42.84375 
Q 18.109375 37.203125 18.109375 27.296875 
Q 18.109375 17.390625 22.1875 11.75 
Q 26.265625 6.109375 33.40625 6.109375 
Q 40.53125 6.109375 44.609375 11.75 
Q 48.6875 17.390625 48.6875 27.296875 
z
M 18.109375 46.390625 
Q 20.953125 51.265625 25.265625 53.625 
Q 29.59375 56 35.59375 56 
Q 45.5625 56 51.78125 48.09375 
Q 58.015625 40.1875 58.015625 27.296875 
Q 58.015625 14.40625 51.78125 6.484375 
Q 45.5625 -1.421875 35.59375 -1.421875 
Q 29.59375 -1.421875 25.265625 0.953125 
Q 20.953125 3.328125 18.109375 8.203125 
L 18.109375 0 
L 9.078125 0 
L 9.078125 75.984375 
L 18.109375 75.984375 
z
" id="DejaVuSans-98"/>
      </defs>
      <g style="fill:#555555;" transform="translate(66.128784 120.166316)rotate(-45)scale(0.0694 -0.0694)">
       <use xlink:href="#DejaVuSans-99"/>
       <use x="54.980469" xlink:href="#DejaVuSans-97"/>
       <use x="116.259766" xlink:href="#DejaVuSans-98"/>
       <use x="179.736328" xlink:href="#DejaVuSans-105"/>
       <use x="207.519531" xlink:href="#DejaVuSans-110"/>
       <use x="270.898438" xlink:href="#DejaVuSans-115"/>
      </g>
     </g>
    </g>
    <g id="text_15">
     <!-- variable -->
     <defs>
      <path d="M 2.984375 54.6875 
L 12.5 54.6875 
L 29.59375 8.796875 
L 46.6875 54.6875 
L 56.203125 54.6875 
L 35.6875 0 
L 23.484375 0 
z
" id="DejaVuSans-118"/>
     </defs>
     <g style="fill:#555555;" transform="translate(25.654561 192.135662)rotate(-90)scale(0.12 -0.12)">
      <use xlink:href="#DejaVuSans-118"/>
      <use x="59.179688" xlink:href="#DejaVuSans-97"/>
      <use x="120.458984" xlink:href="#DejaVuSans-114"/>
      <use x="161.572266" xlink:href="#DejaVuSans-105"/>
      <use x="189.355469" xlink:href="#DejaVuSans-97"/>
      <use x="250.634766" xlink:href="#DejaVuSans-98"/>
      <use x="314.111328" xlink:href="#DejaVuSans-108"/>
      <use x="341.894531" xlink:href="#DejaVuSans-101"/>
     </g>
    </g>
   </g>
   <g id="patch_3">
    <path clip-path="url(#p3bfc2f971e)" d="M 90 242.988235 
L 97.769894 242.988235 
L 97.769894 222.282353 
L 90 222.282353 
z
" style="fill:#db5f57;"/>
   </g>
   <g id="patch_4">
    <path clip-path="url(#p3bfc2f971e)" d="M 90 217.105882 
L 98.193324 217.105882 
L 98.193324 196.4 
L 90 196.4 
z
" style="fill:#db5f57;"/>
   </g>
   <g id="patch_5">
    <path clip-path="url(#p3bfc2f971e)" d="M 90 191.223529 
L 98.309629 191.223529 
L 98.309629 170.517647 
L 90 170.517647 
z
" style="fill:#db5f57;"/>
   </g>
   <g id="patch_6">
    <path clip-path="url(#p3bfc2f971e)" d="M 90 165.341176 
L 124.846702 165.341176 
L 124.846702 144.635294 
L 90 144.635294 
z
" style="fill:#db5f57;"/>
   </g>
   <g id="patch_7">
    <path clip-path="url(#p3bfc2f971e)" d="M 90 139.458824 
L 147.825919 139.458824 
L 147.825919 118.752941 
L 90 118.752941 
z
" style="fill:#db5f57;"/>
   </g>
   <g id="patch_8">
    <path clip-path="url(#p3bfc2f971e)" d="M 90 113.576471 
L 621.428571 113.576471 
L 621.428571 92.870588 
L 90 92.870588 
z
" style="fill:#db5f57;"/>
   </g>
   <g id="line2d_29">
    <path clip-path="url(#p3bfc2f971e)" d="M 97.753998 249.458824 
L 97.753998 86.4 
" style="fill:none;stroke:#e24a33;stroke-linecap:square;stroke-width:1.5;"/>
   </g>
   <g id="patch_9">
    <path d="M 90 249.458824 
L 90 86.4 
" style="fill:none;stroke:#ffffff;stroke-linecap:square;stroke-linejoin:miter;"/>
   </g>
   <g id="patch_10">
    <path d="M 648 249.458824 
L 648 86.4 
" style="fill:none;stroke:#ffffff;stroke-linecap:square;stroke-linejoin:miter;"/>
   </g>
   <g id="patch_11">
    <path d="M 90 249.458824 
L 648 249.458824 
" style="fill:none;stroke:#ffffff;stroke-linecap:square;stroke-linejoin:miter;"/>
   </g>
   <g id="patch_12">
    <path d="M 90 86.4 
L 648 86.4 
" style="fill:none;stroke:#ffffff;stroke-linecap:square;stroke-linejoin:miter;"/>
   </g>
   <g id="patch_13">
    <path d="M 102.443167 162.923758 
Q 101.539849 177.666972 100.636531 192.410186 
L 104.629044 192.654808 
Q 101.267703 198.460496 97.906362 204.266184 
Q 95.278933 198.093563 92.651505 191.920943 
L 96.644018 192.165565 
Q 97.547336 177.42235 98.450654 162.679136 
L 102.443167 162.923758 
z
" style="stroke:#eeeeee;stroke-linecap:round;stroke-width:0.5;"/>
   </g>
   <g id="text_16">
    <g id="patch_14">
     <path d="M 97.798204 160.067923 
L 145.684142 160.067923 
L 145.684142 144.389798 
L 97.798204 144.389798 
z
" style="fill:#ffffff;stroke:#eeeeee;stroke-linejoin:miter;stroke-width:0.5;"/>
    </g>
    <!-- baseline -->
    <g transform="translate(100.798204 154.988235)scale(0.1 -0.1)">
     <use xlink:href="#DejaVuSans-98"/>
     <use x="63.476562" xlink:href="#DejaVuSans-97"/>
     <use x="124.755859" xlink:href="#DejaVuSans-115"/>
     <use x="176.855469" xlink:href="#DejaVuSans-101"/>
     <use x="238.378906" xlink:href="#DejaVuSans-108"/>
     <use x="266.162109" xlink:href="#DejaVuSans-105"/>
     <use x="293.945312" xlink:href="#DejaVuSans-110"/>
     <use x="357.324219" xlink:href="#DejaVuSans-101"/>
    </g>
   </g>
   <g id="text_17">
    <!-- lm -->
    <defs>
     <path d="M 52 44.1875 
Q 55.375 50.25 60.0625 53.125 
Q 64.75 56 71.09375 56 
Q 79.640625 56 84.28125 50.015625 
Q 88.921875 44.046875 88.921875 33.015625 
L 88.921875 0 
L 79.890625 0 
L 79.890625 32.71875 
Q 79.890625 40.578125 77.09375 44.375 
Q 74.3125 48.1875 68.609375 48.1875 
Q 61.625 48.1875 57.5625 43.546875 
Q 53.515625 38.921875 53.515625 30.90625 
L 53.515625 0 
L 44.484375 0 
L 44.484375 32.71875 
Q 44.484375 40.625 41.703125 44.40625 
Q 38.921875 48.1875 33.109375 48.1875 
Q 26.21875 48.1875 22.15625 43.53125 
Q 18.109375 38.875 18.109375 30.90625 
L 18.109375 0 
L 9.078125 0 
L 9.078125 54.6875 
L 18.109375 54.6875 
L 18.109375 46.1875 
Q 21.1875 51.21875 25.484375 53.609375 
Q 29.78125 56 35.6875 56 
Q 41.65625 56 45.828125 52.96875 
Q 50 49.953125 52 44.1875 
z
" id="DejaVuSans-109"/>
    </defs>
    <g transform="translate(359.9865 80.4)scale(0.144 -0.144)">
     <use xlink:href="#DejaVuSans-108"/>
     <use x="27.783203" xlink:href="#DejaVuSans-109"/>
    </g>
   </g>
   <g id="legend_1">
    <g id="patch_15">
     <path d="M 551.865625 244.458824 
L 641 244.458824 
Q 643 244.458824 643 242.458824 
L 643 228.780699 
Q 643 226.780699 641 226.780699 
L 551.865625 226.780699 
Q 549.865625 226.780699 549.865625 228.780699 
L 549.865625 242.458824 
Q 549.865625 244.458824 551.865625 244.458824 
z
" style="fill:#e5e5e5;opacity:0.8;stroke:#cccccc;stroke-linejoin:miter;stroke-width:0.5;"/>
    </g>
    <g id="patch_16">
     <path d="M 553.865625 238.379136 
L 573.865625 238.379136 
L 573.865625 231.379136 
L 553.865625 231.379136 
z
" style="fill:#db5f57;"/>
    </g>
    <g id="text_18">
     <!-- importance -->
     <g transform="translate(581.865625 238.379136)scale(0.1 -0.1)">
      <use xlink:href="#DejaVuSans-105"/>
      <use x="27.783203" xlink:href="#DejaVuSans-109"/>
      <use x="125.195312" xlink:href="#DejaVuSans-112"/>
      <use x="188.671875" xlink:href="#DejaVuSans-111"/>
      <use x="249.853516" xlink:href="#DejaVuSans-114"/>
      <use x="290.966797" xlink:href="#DejaVuSans-116"/>
      <use x="330.175781" xlink:href="#DejaVuSans-97"/>
      <use x="391.455078" xlink:href="#DejaVuSans-110"/>
      <use x="454.833984" xlink:href="#DejaVuSans-99"/>
      <use x="509.814453" xlink:href="#DejaVuSans-101"/>
     </g>
    </g>
   </g>
  </g>
  <g id="axes_2">
   <g id="patch_17">
    <path d="M 90 445.129412 
L 648 445.129412 
L 648 282.070588 
L 90 282.070588 
z
" style="fill:#e5e5e5;"/>
   </g>
   <g id="matplotlib.axis_3">
    <g id="xtick_9">
     <g id="line2d_30">
      <path clip-path="url(#pd1b71a9d47)" d="M 90 445.129412 
L 90 282.070588 
" style="fill:none;stroke:#ffffff;stroke-linecap:square;stroke-width:0.8;"/>
     </g>
     <g id="line2d_31">
      <g>
       <use style="fill:#555555;stroke:#555555;stroke-width:0.8;" x="90" xlink:href="#m82fdf96827" y="445.129412"/>
      </g>
     </g>
     <g id="text_19">
      <!-- 0.0 -->
      <defs>
       <path d="M 10.6875 12.40625 
L 21 12.40625 
L 21 0 
L 10.6875 0 
z
" id="DejaVuSans-46"/>
      </defs>
      <g style="fill:#555555;" transform="translate(82.048438 459.727849)scale(0.1 -0.1)">
       <use xlink:href="#DejaVuSans-48"/>
       <use x="63.623047" xlink:href="#DejaVuSans-46"/>
       <use x="95.410156" xlink:href="#DejaVuSans-48"/>
      </g>
     </g>
    </g>
    <g id="xtick_10">
     <g id="line2d_32">
      <path clip-path="url(#pd1b71a9d47)" d="M 156.392612 445.129412 
L 156.392612 282.070588 
" style="fill:none;stroke:#ffffff;stroke-linecap:square;stroke-width:0.8;"/>
     </g>
     <g id="line2d_33">
      <g>
       <use style="fill:#555555;stroke:#555555;stroke-width:0.8;" x="156.392612" xlink:href="#m82fdf96827" y="445.129412"/>
      </g>
     </g>
     <g id="text_20">
      <!-- 2.5 -->
      <g style="fill:#555555;" transform="translate(148.441049 459.727849)scale(0.1 -0.1)">
       <use xlink:href="#DejaVuSans-50"/>
       <use x="63.623047" xlink:href="#DejaVuSans-46"/>
       <use x="95.410156" xlink:href="#DejaVuSans-53"/>
      </g>
     </g>
    </g>
    <g id="xtick_11">
     <g id="line2d_34">
      <path clip-path="url(#pd1b71a9d47)" d="M 222.785224 445.129412 
L 222.785224 282.070588 
" style="fill:none;stroke:#ffffff;stroke-linecap:square;stroke-width:0.8;"/>
     </g>
     <g id="line2d_35">
      <g>
       <use style="fill:#555555;stroke:#555555;stroke-width:0.8;" x="222.785224" xlink:href="#m82fdf96827" y="445.129412"/>
      </g>
     </g>
     <g id="text_21">
      <!-- 5.0 -->
      <g style="fill:#555555;" transform="translate(214.833661 459.727849)scale(0.1 -0.1)">
       <use xlink:href="#DejaVuSans-53"/>
       <use x="63.623047" xlink:href="#DejaVuSans-46"/>
       <use x="95.410156" xlink:href="#DejaVuSans-48"/>
      </g>
     </g>
    </g>
    <g id="xtick_12">
     <g id="line2d_36">
      <path clip-path="url(#pd1b71a9d47)" d="M 289.177836 445.129412 
L 289.177836 282.070588 
" style="fill:none;stroke:#ffffff;stroke-linecap:square;stroke-width:0.8;"/>
     </g>
     <g id="line2d_37">
      <g>
       <use style="fill:#555555;stroke:#555555;stroke-width:0.8;" x="289.177836" xlink:href="#m82fdf96827" y="445.129412"/>
      </g>
     </g>
     <g id="text_22">
      <!-- 7.5 -->
      <g style="fill:#555555;" transform="translate(281.226273 459.727849)scale(0.1 -0.1)">
       <use xlink:href="#DejaVuSans-55"/>
       <use x="63.623047" xlink:href="#DejaVuSans-46"/>
       <use x="95.410156" xlink:href="#DejaVuSans-53"/>
      </g>
     </g>
    </g>
    <g id="xtick_13">
     <g id="line2d_38">
      <path clip-path="url(#pd1b71a9d47)" d="M 355.570448 445.129412 
L 355.570448 282.070588 
" style="fill:none;stroke:#ffffff;stroke-linecap:square;stroke-width:0.8;"/>
     </g>
     <g id="line2d_39">
      <g>
       <use style="fill:#555555;stroke:#555555;stroke-width:0.8;" x="355.570448" xlink:href="#m82fdf96827" y="445.129412"/>
      </g>
     </g>
     <g id="text_23">
      <!-- 10.0 -->
      <g style="fill:#555555;" transform="translate(344.437635 459.727849)scale(0.1 -0.1)">
       <use xlink:href="#DejaVuSans-49"/>
       <use x="63.623047" xlink:href="#DejaVuSans-48"/>
       <use x="127.246094" xlink:href="#DejaVuSans-46"/>
       <use x="159.033203" xlink:href="#DejaVuSans-48"/>
      </g>
     </g>
    </g>
    <g id="xtick_14">
     <g id="line2d_40">
      <path clip-path="url(#pd1b71a9d47)" d="M 421.96306 445.129412 
L 421.96306 282.070588 
" style="fill:none;stroke:#ffffff;stroke-linecap:square;stroke-width:0.8;"/>
     </g>
     <g id="line2d_41">
      <g>
       <use style="fill:#555555;stroke:#555555;stroke-width:0.8;" x="421.96306" xlink:href="#m82fdf96827" y="445.129412"/>
      </g>
     </g>
     <g id="text_24">
      <!-- 12.5 -->
      <g style="fill:#555555;" transform="translate(410.830247 459.727849)scale(0.1 -0.1)">
       <use xlink:href="#DejaVuSans-49"/>
       <use x="63.623047" xlink:href="#DejaVuSans-50"/>
       <use x="127.246094" xlink:href="#DejaVuSans-46"/>
       <use x="159.033203" xlink:href="#DejaVuSans-53"/>
      </g>
     </g>
    </g>
    <g id="xtick_15">
     <g id="line2d_42">
      <path clip-path="url(#pd1b71a9d47)" d="M 488.355672 445.129412 
L 488.355672 282.070588 
" style="fill:none;stroke:#ffffff;stroke-linecap:square;stroke-width:0.8;"/>
     </g>
     <g id="line2d_43">
      <g>
       <use style="fill:#555555;stroke:#555555;stroke-width:0.8;" x="488.355672" xlink:href="#m82fdf96827" y="445.129412"/>
      </g>
     </g>
     <g id="text_25">
      <!-- 15.0 -->
      <g style="fill:#555555;" transform="translate(477.222859 459.727849)scale(0.1 -0.1)">
       <use xlink:href="#DejaVuSans-49"/>
       <use x="63.623047" xlink:href="#DejaVuSans-53"/>
       <use x="127.246094" xlink:href="#DejaVuSans-46"/>
       <use x="159.033203" xlink:href="#DejaVuSans-48"/>
      </g>
     </g>
    </g>
    <g id="xtick_16">
     <g id="line2d_44">
      <path clip-path="url(#pd1b71a9d47)" d="M 554.748284 445.129412 
L 554.748284 282.070588 
" style="fill:none;stroke:#ffffff;stroke-linecap:square;stroke-width:0.8;"/>
     </g>
     <g id="line2d_45">
      <g>
       <use style="fill:#555555;stroke:#555555;stroke-width:0.8;" x="554.748284" xlink:href="#m82fdf96827" y="445.129412"/>
      </g>
     </g>
     <g id="text_26">
      <!-- 17.5 -->
      <g style="fill:#555555;" transform="translate(543.615471 459.727849)scale(0.1 -0.1)">
       <use xlink:href="#DejaVuSans-49"/>
       <use x="63.623047" xlink:href="#DejaVuSans-55"/>
       <use x="127.246094" xlink:href="#DejaVuSans-46"/>
       <use x="159.033203" xlink:href="#DejaVuSans-53"/>
      </g>
     </g>
    </g>
    <g id="xtick_17">
     <g id="line2d_46">
      <path clip-path="url(#pd1b71a9d47)" d="M 621.140896 445.129412 
L 621.140896 282.070588 
" style="fill:none;stroke:#ffffff;stroke-linecap:square;stroke-width:0.8;"/>
     </g>
     <g id="line2d_47">
      <g>
       <use style="fill:#555555;stroke:#555555;stroke-width:0.8;" x="621.140896" xlink:href="#m82fdf96827" y="445.129412"/>
      </g>
     </g>
     <g id="text_27">
      <!-- 20.0 -->
      <g style="fill:#555555;" transform="translate(610.008083 459.727849)scale(0.1 -0.1)">
       <use xlink:href="#DejaVuSans-50"/>
       <use x="63.623047" xlink:href="#DejaVuSans-48"/>
       <use x="127.246094" xlink:href="#DejaVuSans-46"/>
       <use x="159.033203" xlink:href="#DejaVuSans-48"/>
      </g>
     </g>
    </g>
   </g>
   <g id="matplotlib.axis_4">
    <g id="ytick_7">
     <g id="line2d_48">
      <path clip-path="url(#pd1b71a9d47)" d="M 90 428.305882 
L 648 428.305882 
" style="fill:none;stroke:#ffffff;stroke-linecap:square;stroke-width:0.8;"/>
     </g>
     <g id="line2d_49">
      <g>
       <use style="fill:#555555;stroke:#555555;stroke-width:0.8;" x="90" xlink:href="#m45176dbcc9" y="428.305882"/>
      </g>
     </g>
     <g id="text_28">
      <!-- Age -->
      <g style="fill:#555555;" transform="translate(72.487598 438.889854)rotate(-45)scale(0.0694 -0.0694)">
       <use xlink:href="#DejaVuSans-65"/>
       <use x="68.408203" xlink:href="#DejaVuSans-103"/>
       <use x="131.884766" xlink:href="#DejaVuSans-101"/>
      </g>
     </g>
    </g>
    <g id="ytick_8">
     <g id="line2d_50">
      <path clip-path="url(#pd1b71a9d47)" d="M 90 402.423529 
L 648 402.423529 
" style="fill:none;stroke:#ffffff;stroke-linecap:square;stroke-width:0.8;"/>
     </g>
     <g id="line2d_51">
      <g>
       <use style="fill:#555555;stroke:#555555;stroke-width:0.8;" x="90" xlink:href="#m45176dbcc9" y="402.423529"/>
      </g>
     </g>
     <g id="text_29">
      <!-- cabins -->
      <g style="fill:#555555;" transform="translate(66.128784 419.366316)rotate(-45)scale(0.0694 -0.0694)">
       <use xlink:href="#DejaVuSans-99"/>
       <use x="54.980469" xlink:href="#DejaVuSans-97"/>
       <use x="116.259766" xlink:href="#DejaVuSans-98"/>
       <use x="179.736328" xlink:href="#DejaVuSans-105"/>
       <use x="207.519531" xlink:href="#DejaVuSans-110"/>
       <use x="270.898438" xlink:href="#DejaVuSans-115"/>
      </g>
     </g>
    </g>
    <g id="ytick_9">
     <g id="line2d_52">
      <path clip-path="url(#pd1b71a9d47)" d="M 90 376.541176 
L 648 376.541176 
" style="fill:none;stroke:#ffffff;stroke-linecap:square;stroke-width:0.8;"/>
     </g>
     <g id="line2d_53">
      <g>
       <use style="fill:#555555;stroke:#555555;stroke-width:0.8;" x="90" xlink:href="#m45176dbcc9" y="376.541176"/>
      </g>
     </g>
     <g id="text_30">
      <!-- length -->
      <g style="fill:#555555;" transform="translate(66.337345 393.275402)rotate(-45)scale(0.0694 -0.0694)">
       <use xlink:href="#DejaVuSans-108"/>
       <use x="27.783203" xlink:href="#DejaVuSans-101"/>
       <use x="89.306641" xlink:href="#DejaVuSans-110"/>
       <use x="152.685547" xlink:href="#DejaVuSans-103"/>
       <use x="216.162109" xlink:href="#DejaVuSans-116"/>
       <use x="255.371094" xlink:href="#DejaVuSans-104"/>
      </g>
     </g>
    </g>
    <g id="ytick_10">
     <g id="line2d_54">
      <path clip-path="url(#pd1b71a9d47)" d="M 90 350.658824 
L 648 350.658824 
" style="fill:none;stroke:#ffffff;stroke-linecap:square;stroke-width:0.8;"/>
     </g>
     <g id="line2d_55">
      <g>
       <use style="fill:#555555;stroke:#555555;stroke-width:0.8;" x="90" xlink:href="#m45176dbcc9" y="350.658824"/>
      </g>
     </g>
     <g id="text_31">
      <!-- passengers -->
      <g style="fill:#555555;" transform="translate(53.90572 379.824673)rotate(-45)scale(0.0694 -0.0694)">
       <use xlink:href="#DejaVuSans-112"/>
       <use x="63.476562" xlink:href="#DejaVuSans-97"/>
       <use x="124.755859" xlink:href="#DejaVuSans-115"/>
       <use x="176.855469" xlink:href="#DejaVuSans-115"/>
       <use x="228.955078" xlink:href="#DejaVuSans-101"/>
       <use x="290.478516" xlink:href="#DejaVuSans-110"/>
       <use x="353.857422" xlink:href="#DejaVuSans-103"/>
       <use x="417.333984" xlink:href="#DejaVuSans-101"/>
       <use x="478.857422" xlink:href="#DejaVuSans-114"/>
       <use x="519.970703" xlink:href="#DejaVuSans-115"/>
      </g>
     </g>
    </g>
    <g id="ytick_11">
     <g id="line2d_56">
      <path clip-path="url(#pd1b71a9d47)" d="M 90 324.776471 
L 648 324.776471 
" style="fill:none;stroke:#ffffff;stroke-linecap:square;stroke-width:0.8;"/>
     </g>
     <g id="line2d_57">
      <g>
       <use style="fill:#555555;stroke:#555555;stroke-width:0.8;" x="90" xlink:href="#m45176dbcc9" y="324.776471"/>
      </g>
     </g>
     <g id="text_32">
      <!-- passenger_density -->
      <g style="fill:#555555;" transform="translate(35.878983 371.832573)rotate(-45)scale(0.0694 -0.0694)">
       <use xlink:href="#DejaVuSans-112"/>
       <use x="63.476562" xlink:href="#DejaVuSans-97"/>
       <use x="124.755859" xlink:href="#DejaVuSans-115"/>
       <use x="176.855469" xlink:href="#DejaVuSans-115"/>
       <use x="228.955078" xlink:href="#DejaVuSans-101"/>
       <use x="290.478516" xlink:href="#DejaVuSans-110"/>
       <use x="353.857422" xlink:href="#DejaVuSans-103"/>
       <use x="417.333984" xlink:href="#DejaVuSans-101"/>
       <use x="478.857422" xlink:href="#DejaVuSans-114"/>
       <use x="519.970703" xlink:href="#DejaVuSans-95"/>
       <use x="569.970703" xlink:href="#DejaVuSans-100"/>
       <use x="633.447266" xlink:href="#DejaVuSans-101"/>
       <use x="694.970703" xlink:href="#DejaVuSans-110"/>
       <use x="758.349609" xlink:href="#DejaVuSans-115"/>
       <use x="810.449219" xlink:href="#DejaVuSans-105"/>
       <use x="838.232422" xlink:href="#DejaVuSans-116"/>
       <use x="877.441406" xlink:href="#DejaVuSans-121"/>
      </g>
     </g>
    </g>
    <g id="ytick_12">
     <g id="line2d_58">
      <path clip-path="url(#pd1b71a9d47)" d="M 90 298.894118 
L 648 298.894118 
" style="fill:none;stroke:#ffffff;stroke-linecap:square;stroke-width:0.8;"/>
     </g>
     <g id="line2d_59">
      <g>
       <use style="fill:#555555;stroke:#555555;stroke-width:0.8;" x="90" xlink:href="#m45176dbcc9" y="298.894118"/>
      </g>
     </g>
     <g id="text_33">
      <!-- Tonnage -->
      <g style="fill:#555555;" transform="translate(60.630284 321.335404)rotate(-45)scale(0.0694 -0.0694)">
       <use xlink:href="#DejaVuSans-84"/>
       <use x="60.818359" xlink:href="#DejaVuSans-111"/>
       <use x="122" xlink:href="#DejaVuSans-110"/>
       <use x="185.378906" xlink:href="#DejaVuSans-110"/>
       <use x="248.757812" xlink:href="#DejaVuSans-97"/>
       <use x="310.037109" xlink:href="#DejaVuSans-103"/>
       <use x="373.513672" xlink:href="#DejaVuSans-101"/>
      </g>
     </g>
    </g>
    <g id="text_34">
     <!-- variable -->
     <g style="fill:#555555;" transform="translate(25.654561 387.80625)rotate(-90)scale(0.12 -0.12)">
      <use xlink:href="#DejaVuSans-118"/>
      <use x="59.179688" xlink:href="#DejaVuSans-97"/>
      <use x="120.458984" xlink:href="#DejaVuSans-114"/>
      <use x="161.572266" xlink:href="#DejaVuSans-105"/>
      <use x="189.355469" xlink:href="#DejaVuSans-97"/>
      <use x="250.634766" xlink:href="#DejaVuSans-98"/>
      <use x="314.111328" xlink:href="#DejaVuSans-108"/>
      <use x="341.894531" xlink:href="#DejaVuSans-101"/>
     </g>
    </g>
   </g>
   <g id="patch_18">
    <path clip-path="url(#pd1b71a9d47)" d="M 90 438.658824 
L 115.168069 438.658824 
L 115.168069 417.952941 
L 90 417.952941 
z
" style="fill:#57d3db;"/>
   </g>
   <g id="patch_19">
    <path clip-path="url(#pd1b71a9d47)" d="M 90 412.776471 
L 116.480612 412.776471 
L 116.480612 392.070588 
L 90 392.070588 
z
" style="fill:#57d3db;"/>
   </g>
   <g id="patch_20">
    <path clip-path="url(#pd1b71a9d47)" d="M 90 386.894118 
L 116.651251 386.894118 
L 116.651251 366.188235 
L 90 366.188235 
z
" style="fill:#57d3db;"/>
   </g>
   <g id="patch_21">
    <path clip-path="url(#pd1b71a9d47)" d="M 90 361.011765 
L 121.226526 361.011765 
L 121.226526 340.305882 
L 90 340.305882 
z
" style="fill:#57d3db;"/>
   </g>
   <g id="patch_22">
    <path clip-path="url(#pd1b71a9d47)" d="M 90 335.129412 
L 124.809353 335.129412 
L 124.809353 314.423529 
L 90 314.423529 
z
" style="fill:#57d3db;"/>
   </g>
   <g id="patch_23">
    <path clip-path="url(#pd1b71a9d47)" d="M 90 309.247059 
L 621.428571 309.247059 
L 621.428571 288.541176 
L 90 288.541176 
z
" style="fill:#57d3db;"/>
   </g>
   <g id="line2d_60">
    <path clip-path="url(#pd1b71a9d47)" d="M 124.697567 445.129412 
L 124.697567 282.070588 
" style="fill:none;stroke:#e24a33;stroke-linecap:square;stroke-width:1.5;"/>
   </g>
   <g id="patch_24">
    <path d="M 90 445.129412 
L 90 282.070588 
" style="fill:none;stroke:#ffffff;stroke-linecap:square;stroke-linejoin:miter;"/>
   </g>
   <g id="patch_25">
    <path d="M 648 445.129412 
L 648 282.070588 
" style="fill:none;stroke:#ffffff;stroke-linecap:square;stroke-linejoin:miter;"/>
   </g>
   <g id="patch_26">
    <path d="M 90 445.129412 
L 648 445.129412 
" style="fill:none;stroke:#ffffff;stroke-linecap:square;stroke-linejoin:miter;"/>
   </g>
   <g id="patch_27">
    <path d="M 90 282.070588 
L 648 282.070588 
" style="fill:none;stroke:#ffffff;stroke-linecap:square;stroke-linejoin:miter;"/>
   </g>
   <g id="patch_28">
    <path d="M 136.050337 358.890191 
Q 132.872218 373.754884 129.694098 388.619577 
L 133.605694 389.455889 
Q 129.417469 394.69633 125.229244 399.936772 
Q 123.550075 393.441863 121.870906 386.946953 
L 125.782502 387.783265 
Q 128.960622 372.918572 132.138741 358.053879 
L 136.050337 358.890191 
z
" style="stroke:#eeeeee;stroke-linecap:round;stroke-width:0.5;"/>
   </g>
   <g id="text_35">
    <g id="patch_29">
     <path d="M 132.320385 355.738511 
L 180.206323 355.738511 
L 180.206323 340.060386 
L 132.320385 340.060386 
z
" style="fill:#ffffff;stroke:#eeeeee;stroke-linejoin:miter;stroke-width:0.5;"/>
    </g>
    <!-- baseline -->
    <g transform="translate(135.320385 350.658824)scale(0.1 -0.1)">
     <use xlink:href="#DejaVuSans-98"/>
     <use x="63.476562" xlink:href="#DejaVuSans-97"/>
     <use x="124.755859" xlink:href="#DejaVuSans-115"/>
     <use x="176.855469" xlink:href="#DejaVuSans-101"/>
     <use x="238.378906" xlink:href="#DejaVuSans-108"/>
     <use x="266.162109" xlink:href="#DejaVuSans-105"/>
     <use x="293.945312" xlink:href="#DejaVuSans-110"/>
     <use x="357.324219" xlink:href="#DejaVuSans-101"/>
    </g>
   </g>
   <g id="text_36">
    <!-- knn -->
    <defs>
     <path d="M 9.078125 75.984375 
L 18.109375 75.984375 
L 18.109375 31.109375 
L 44.921875 54.6875 
L 56.390625 54.6875 
L 27.390625 29.109375 
L 57.625 0 
L 45.90625 0 
L 18.109375 26.703125 
L 18.109375 0 
L 9.078125 0 
z
" id="DejaVuSans-107"/>
    </defs>
    <g transform="translate(355.70475 276.070588)scale(0.144 -0.144)">
     <use xlink:href="#DejaVuSans-107"/>
     <use x="57.910156" xlink:href="#DejaVuSans-110"/>
     <use x="121.289062" xlink:href="#DejaVuSans-110"/>
    </g>
   </g>
   <g id="legend_2">
    <g id="patch_30">
     <path d="M 551.865625 440.129412 
L 641 440.129412 
Q 643 440.129412 643 438.129412 
L 643 424.451287 
Q 643 422.451287 641 422.451287 
L 551.865625 422.451287 
Q 549.865625 422.451287 549.865625 424.451287 
L 549.865625 438.129412 
Q 549.865625 440.129412 551.865625 440.129412 
z
" style="fill:#e5e5e5;opacity:0.8;stroke:#cccccc;stroke-linejoin:miter;stroke-width:0.5;"/>
    </g>
    <g id="patch_31">
     <path d="M 553.865625 434.049724 
L 573.865625 434.049724 
L 573.865625 427.049724 
L 553.865625 427.049724 
z
" style="fill:#57d3db;"/>
    </g>
    <g id="text_37">
     <!-- importance -->
     <g transform="translate(581.865625 434.049724)scale(0.1 -0.1)">
      <use xlink:href="#DejaVuSans-105"/>
      <use x="27.783203" xlink:href="#DejaVuSans-109"/>
      <use x="125.195312" xlink:href="#DejaVuSans-112"/>
      <use x="188.671875" xlink:href="#DejaVuSans-111"/>
      <use x="249.853516" xlink:href="#DejaVuSans-114"/>
      <use x="290.966797" xlink:href="#DejaVuSans-116"/>
      <use x="330.175781" xlink:href="#DejaVuSans-97"/>
      <use x="391.455078" xlink:href="#DejaVuSans-110"/>
      <use x="454.833984" xlink:href="#DejaVuSans-99"/>
      <use x="509.814453" xlink:href="#DejaVuSans-101"/>
     </g>
    </g>
   </g>
  </g>
  <g id="axes_3">
   <g id="patch_32">
    <path d="M 90 640.8 
L 648 640.8 
L 648 477.741176 
L 90 477.741176 
z
" style="fill:#e5e5e5;"/>
   </g>
   <g id="matplotlib.axis_5">
    <g id="xtick_18">
     <g id="line2d_61">
      <path clip-path="url(#p9747fc6045)" d="M 90 640.8 
L 90 477.741176 
" style="fill:none;stroke:#ffffff;stroke-linecap:square;stroke-width:0.8;"/>
     </g>
     <g id="line2d_62">
      <g>
       <use style="fill:#555555;stroke:#555555;stroke-width:0.8;" x="90" xlink:href="#m82fdf96827" y="640.8"/>
      </g>
     </g>
     <g id="text_38">
      <!-- 0 -->
      <g style="fill:#555555;" transform="translate(86.81875 655.398438)scale(0.1 -0.1)">
       <use xlink:href="#DejaVuSans-48"/>
      </g>
     </g>
    </g>
    <g id="xtick_19">
     <g id="line2d_63">
      <path clip-path="url(#p9747fc6045)" d="M 204.603962 640.8 
L 204.603962 477.741176 
" style="fill:none;stroke:#ffffff;stroke-linecap:square;stroke-width:0.8;"/>
     </g>
     <g id="line2d_64">
      <g>
       <use style="fill:#555555;stroke:#555555;stroke-width:0.8;" x="204.603962" xlink:href="#m82fdf96827" y="640.8"/>
      </g>
     </g>
     <g id="text_39">
      <!-- 5 -->
      <g style="fill:#555555;" transform="translate(201.422712 655.398438)scale(0.1 -0.1)">
       <use xlink:href="#DejaVuSans-53"/>
      </g>
     </g>
    </g>
    <g id="xtick_20">
     <g id="line2d_65">
      <path clip-path="url(#p9747fc6045)" d="M 319.207924 640.8 
L 319.207924 477.741176 
" style="fill:none;stroke:#ffffff;stroke-linecap:square;stroke-width:0.8;"/>
     </g>
     <g id="line2d_66">
      <g>
       <use style="fill:#555555;stroke:#555555;stroke-width:0.8;" x="319.207924" xlink:href="#m82fdf96827" y="640.8"/>
      </g>
     </g>
     <g id="text_40">
      <!-- 10 -->
      <g style="fill:#555555;" transform="translate(312.845424 655.398438)scale(0.1 -0.1)">
       <use xlink:href="#DejaVuSans-49"/>
       <use x="63.623047" xlink:href="#DejaVuSans-48"/>
      </g>
     </g>
    </g>
    <g id="xtick_21">
     <g id="line2d_67">
      <path clip-path="url(#p9747fc6045)" d="M 433.811886 640.8 
L 433.811886 477.741176 
" style="fill:none;stroke:#ffffff;stroke-linecap:square;stroke-width:0.8;"/>
     </g>
     <g id="line2d_68">
      <g>
       <use style="fill:#555555;stroke:#555555;stroke-width:0.8;" x="433.811886" xlink:href="#m82fdf96827" y="640.8"/>
      </g>
     </g>
     <g id="text_41">
      <!-- 15 -->
      <g style="fill:#555555;" transform="translate(427.449386 655.398438)scale(0.1 -0.1)">
       <use xlink:href="#DejaVuSans-49"/>
       <use x="63.623047" xlink:href="#DejaVuSans-53"/>
      </g>
     </g>
    </g>
    <g id="xtick_22">
     <g id="line2d_69">
      <path clip-path="url(#p9747fc6045)" d="M 548.415848 640.8 
L 548.415848 477.741176 
" style="fill:none;stroke:#ffffff;stroke-linecap:square;stroke-width:0.8;"/>
     </g>
     <g id="line2d_70">
      <g>
       <use style="fill:#555555;stroke:#555555;stroke-width:0.8;" x="548.415848" xlink:href="#m82fdf96827" y="640.8"/>
      </g>
     </g>
     <g id="text_42">
      <!-- 20 -->
      <g style="fill:#555555;" transform="translate(542.053348 655.398438)scale(0.1 -0.1)">
       <use xlink:href="#DejaVuSans-50"/>
       <use x="63.623047" xlink:href="#DejaVuSans-48"/>
      </g>
     </g>
    </g>
   </g>
   <g id="matplotlib.axis_6">
    <g id="ytick_13">
     <g id="line2d_71">
      <path clip-path="url(#p9747fc6045)" d="M 90 623.976471 
L 648 623.976471 
" style="fill:none;stroke:#ffffff;stroke-linecap:square;stroke-width:0.8;"/>
     </g>
     <g id="line2d_72">
      <g>
       <use style="fill:#555555;stroke:#555555;stroke-width:0.8;" x="90" xlink:href="#m45176dbcc9" y="623.976471"/>
      </g>
     </g>
     <g id="text_43">
      <!-- Age -->
      <g style="fill:#555555;" transform="translate(72.487598 634.560442)rotate(-45)scale(0.0694 -0.0694)">
       <use xlink:href="#DejaVuSans-65"/>
       <use x="68.408203" xlink:href="#DejaVuSans-103"/>
       <use x="131.884766" xlink:href="#DejaVuSans-101"/>
      </g>
     </g>
    </g>
    <g id="ytick_14">
     <g id="line2d_73">
      <path clip-path="url(#p9747fc6045)" d="M 90 598.094118 
L 648 598.094118 
" style="fill:none;stroke:#ffffff;stroke-linecap:square;stroke-width:0.8;"/>
     </g>
     <g id="line2d_74">
      <g>
       <use style="fill:#555555;stroke:#555555;stroke-width:0.8;" x="90" xlink:href="#m45176dbcc9" y="598.094118"/>
      </g>
     </g>
     <g id="text_44">
      <!-- passenger_density -->
      <g style="fill:#555555;" transform="translate(35.878983 645.15022)rotate(-45)scale(0.0694 -0.0694)">
       <use xlink:href="#DejaVuSans-112"/>
       <use x="63.476562" xlink:href="#DejaVuSans-97"/>
       <use x="124.755859" xlink:href="#DejaVuSans-115"/>
       <use x="176.855469" xlink:href="#DejaVuSans-115"/>
       <use x="228.955078" xlink:href="#DejaVuSans-101"/>
       <use x="290.478516" xlink:href="#DejaVuSans-110"/>
       <use x="353.857422" xlink:href="#DejaVuSans-103"/>
       <use x="417.333984" xlink:href="#DejaVuSans-101"/>
       <use x="478.857422" xlink:href="#DejaVuSans-114"/>
       <use x="519.970703" xlink:href="#DejaVuSans-95"/>
       <use x="569.970703" xlink:href="#DejaVuSans-100"/>
       <use x="633.447266" xlink:href="#DejaVuSans-101"/>
       <use x="694.970703" xlink:href="#DejaVuSans-110"/>
       <use x="758.349609" xlink:href="#DejaVuSans-115"/>
       <use x="810.449219" xlink:href="#DejaVuSans-105"/>
       <use x="838.232422" xlink:href="#DejaVuSans-116"/>
       <use x="877.441406" xlink:href="#DejaVuSans-121"/>
      </g>
     </g>
    </g>
    <g id="ytick_15">
     <g id="line2d_75">
      <path clip-path="url(#p9747fc6045)" d="M 90 572.211765 
L 648 572.211765 
" style="fill:none;stroke:#ffffff;stroke-linecap:square;stroke-width:0.8;"/>
     </g>
     <g id="line2d_76">
      <g>
       <use style="fill:#555555;stroke:#555555;stroke-width:0.8;" x="90" xlink:href="#m45176dbcc9" y="572.211765"/>
      </g>
     </g>
     <g id="text_45">
      <!-- length -->
      <g style="fill:#555555;" transform="translate(66.337345 588.94599)rotate(-45)scale(0.0694 -0.0694)">
       <use xlink:href="#DejaVuSans-108"/>
       <use x="27.783203" xlink:href="#DejaVuSans-101"/>
       <use x="89.306641" xlink:href="#DejaVuSans-110"/>
       <use x="152.685547" xlink:href="#DejaVuSans-103"/>
       <use x="216.162109" xlink:href="#DejaVuSans-116"/>
       <use x="255.371094" xlink:href="#DejaVuSans-104"/>
      </g>
     </g>
    </g>
    <g id="ytick_16">
     <g id="line2d_77">
      <path clip-path="url(#p9747fc6045)" d="M 90 546.329412 
L 648 546.329412 
" style="fill:none;stroke:#ffffff;stroke-linecap:square;stroke-width:0.8;"/>
     </g>
     <g id="line2d_78">
      <g>
       <use style="fill:#555555;stroke:#555555;stroke-width:0.8;" x="90" xlink:href="#m45176dbcc9" y="546.329412"/>
      </g>
     </g>
     <g id="text_46">
      <!-- passengers -->
      <g style="fill:#555555;" transform="translate(53.90572 575.495262)rotate(-45)scale(0.0694 -0.0694)">
       <use xlink:href="#DejaVuSans-112"/>
       <use x="63.476562" xlink:href="#DejaVuSans-97"/>
       <use x="124.755859" xlink:href="#DejaVuSans-115"/>
       <use x="176.855469" xlink:href="#DejaVuSans-115"/>
       <use x="228.955078" xlink:href="#DejaVuSans-101"/>
       <use x="290.478516" xlink:href="#DejaVuSans-110"/>
       <use x="353.857422" xlink:href="#DejaVuSans-103"/>
       <use x="417.333984" xlink:href="#DejaVuSans-101"/>
       <use x="478.857422" xlink:href="#DejaVuSans-114"/>
       <use x="519.970703" xlink:href="#DejaVuSans-115"/>
      </g>
     </g>
    </g>
    <g id="ytick_17">
     <g id="line2d_79">
      <path clip-path="url(#p9747fc6045)" d="M 90 520.447059 
L 648 520.447059 
" style="fill:none;stroke:#ffffff;stroke-linecap:square;stroke-width:0.8;"/>
     </g>
     <g id="line2d_80">
      <g>
       <use style="fill:#555555;stroke:#555555;stroke-width:0.8;" x="90" xlink:href="#m45176dbcc9" y="520.447059"/>
      </g>
     </g>
     <g id="text_47">
      <!-- Tonnage -->
      <g style="fill:#555555;" transform="translate(60.630284 542.888345)rotate(-45)scale(0.0694 -0.0694)">
       <use xlink:href="#DejaVuSans-84"/>
       <use x="60.818359" xlink:href="#DejaVuSans-111"/>
       <use x="122" xlink:href="#DejaVuSans-110"/>
       <use x="185.378906" xlink:href="#DejaVuSans-110"/>
       <use x="248.757812" xlink:href="#DejaVuSans-97"/>
       <use x="310.037109" xlink:href="#DejaVuSans-103"/>
       <use x="373.513672" xlink:href="#DejaVuSans-101"/>
      </g>
     </g>
    </g>
    <g id="ytick_18">
     <g id="line2d_81">
      <path clip-path="url(#p9747fc6045)" d="M 90 494.564706 
L 648 494.564706 
" style="fill:none;stroke:#ffffff;stroke-linecap:square;stroke-width:0.8;"/>
     </g>
     <g id="line2d_82">
      <g>
       <use style="fill:#555555;stroke:#555555;stroke-width:0.8;" x="90" xlink:href="#m45176dbcc9" y="494.564706"/>
      </g>
     </g>
     <g id="text_48">
      <!-- cabins -->
      <g style="fill:#555555;" transform="translate(66.128784 511.507492)rotate(-45)scale(0.0694 -0.0694)">
       <use xlink:href="#DejaVuSans-99"/>
       <use x="54.980469" xlink:href="#DejaVuSans-97"/>
       <use x="116.259766" xlink:href="#DejaVuSans-98"/>
       <use x="179.736328" xlink:href="#DejaVuSans-105"/>
       <use x="207.519531" xlink:href="#DejaVuSans-110"/>
       <use x="270.898438" xlink:href="#DejaVuSans-115"/>
      </g>
     </g>
    </g>
    <g id="text_49">
     <!-- variable -->
     <g style="fill:#555555;" transform="translate(25.654561 583.476838)rotate(-90)scale(0.12 -0.12)">
      <use xlink:href="#DejaVuSans-118"/>
      <use x="59.179688" xlink:href="#DejaVuSans-97"/>
      <use x="120.458984" xlink:href="#DejaVuSans-114"/>
      <use x="161.572266" xlink:href="#DejaVuSans-105"/>
      <use x="189.355469" xlink:href="#DejaVuSans-97"/>
      <use x="250.634766" xlink:href="#DejaVuSans-98"/>
      <use x="314.111328" xlink:href="#DejaVuSans-108"/>
      <use x="341.894531" xlink:href="#DejaVuSans-101"/>
     </g>
    </g>
   </g>
   <g id="patch_33">
    <path clip-path="url(#p9747fc6045)" d="M 90 634.329412 
L 118.083748 634.329412 
L 118.083748 613.623529 
L 90 613.623529 
z
" style="fill:#5f57db;"/>
   </g>
   <g id="patch_34">
    <path clip-path="url(#p9747fc6045)" d="M 90 608.447059 
L 125.085051 608.447059 
L 125.085051 587.741176 
L 90 587.741176 
z
" style="fill:#5f57db;"/>
   </g>
   <g id="patch_35">
    <path clip-path="url(#p9747fc6045)" d="M 90 582.564706 
L 129.410839 582.564706 
L 129.410839 561.858824 
L 90 561.858824 
z
" style="fill:#5f57db;"/>
   </g>
   <g id="patch_36">
    <path clip-path="url(#p9747fc6045)" d="M 90 556.682353 
L 129.646896 556.682353 
L 129.646896 535.976471 
L 90 535.976471 
z
" style="fill:#5f57db;"/>
   </g>
   <g id="patch_37">
    <path clip-path="url(#p9747fc6045)" d="M 90 530.8 
L 362.951766 530.8 
L 362.951766 510.094118 
L 90 510.094118 
z
" style="fill:#5f57db;"/>
   </g>
   <g id="patch_38">
    <path clip-path="url(#p9747fc6045)" d="M 90 504.917647 
L 621.428571 504.917647 
L 621.428571 484.211765 
L 90 484.211765 
z
" style="fill:#5f57db;"/>
   </g>
   <g id="line2d_83">
    <path clip-path="url(#p9747fc6045)" d="M 124.873743 640.8 
L 124.873743 477.741176 
" style="fill:none;stroke:#e24a33;stroke-linecap:square;stroke-width:1.5;"/>
   </g>
   <g id="patch_39">
    <path d="M 90 640.8 
L 90 477.741176 
" style="fill:none;stroke:#ffffff;stroke-linecap:square;stroke-linejoin:miter;"/>
   </g>
   <g id="patch_40">
    <path d="M 648 640.8 
L 648 477.741176 
" style="fill:none;stroke:#ffffff;stroke-linecap:square;stroke-linejoin:miter;"/>
   </g>
   <g id="patch_41">
    <path d="M 90 640.8 
L 648 640.8 
" style="fill:none;stroke:#ffffff;stroke-linecap:square;stroke-linejoin:miter;"/>
   </g>
   <g id="patch_42">
    <path d="M 90 477.741176 
L 648 477.741176 
" style="fill:none;stroke:#ffffff;stroke-linecap:square;stroke-linejoin:miter;"/>
   </g>
   <g id="patch_43">
    <path d="M 134.950855 554.505554 
Q 132.213962 569.337346 129.477069 584.169139 
L 133.410658 584.894999 
Q 129.37164 590.25118 125.332622 595.60736 
Q 123.471256 589.162389 121.60989 582.717418 
L 125.543479 583.443278 
Q 128.280372 568.611486 131.017265 553.779693 
L 134.950855 554.505554 
z
" style="stroke:#eeeeee;stroke-linecap:round;stroke-width:0.5;"/>
   </g>
   <g id="text_50">
    <g id="patch_44">
     <path d="M 131.04206 551.409099 
L 178.927998 551.409099 
L 178.927998 535.730974 
L 131.04206 535.730974 
z
" style="fill:#ffffff;stroke:#eeeeee;stroke-linejoin:miter;stroke-width:0.5;"/>
    </g>
    <!-- baseline -->
    <g transform="translate(134.04206 546.329412)scale(0.1 -0.1)">
     <use xlink:href="#DejaVuSans-98"/>
     <use x="63.476562" xlink:href="#DejaVuSans-97"/>
     <use x="124.755859" xlink:href="#DejaVuSans-115"/>
     <use x="176.855469" xlink:href="#DejaVuSans-101"/>
     <use x="238.378906" xlink:href="#DejaVuSans-108"/>
     <use x="266.162109" xlink:href="#DejaVuSans-105"/>
     <use x="293.945312" xlink:href="#DejaVuSans-110"/>
     <use x="357.324219" xlink:href="#DejaVuSans-101"/>
    </g>
   </g>
   <g id="text_51">
    <!-- rf -->
    <defs>
     <path d="M 37.109375 75.984375 
L 37.109375 68.5 
L 28.515625 68.5 
Q 23.6875 68.5 21.796875 66.546875 
Q 19.921875 64.59375 19.921875 59.515625 
L 19.921875 54.6875 
L 34.71875 54.6875 
L 34.71875 47.703125 
L 19.921875 47.703125 
L 19.921875 0 
L 10.890625 0 
L 10.890625 47.703125 
L 2.296875 47.703125 
L 2.296875 54.6875 
L 10.890625 54.6875 
L 10.890625 58.5 
Q 10.890625 67.625 15.140625 71.796875 
Q 19.390625 75.984375 28.609375 75.984375 
z
" id="DejaVuSans-102"/>
    </defs>
    <g transform="translate(363.5055 471.741176)scale(0.144 -0.144)">
     <use xlink:href="#DejaVuSans-114"/>
     <use x="41.113281" xlink:href="#DejaVuSans-102"/>
    </g>
   </g>
   <g id="legend_3">
    <g id="patch_45">
     <path d="M 551.865625 635.8 
L 641 635.8 
Q 643 635.8 643 633.8 
L 643 620.121875 
Q 643 618.121875 641 618.121875 
L 551.865625 618.121875 
Q 549.865625 618.121875 549.865625 620.121875 
L 549.865625 633.8 
Q 549.865625 635.8 551.865625 635.8 
z
" style="fill:#e5e5e5;opacity:0.8;stroke:#cccccc;stroke-linejoin:miter;stroke-width:0.5;"/>
    </g>
    <g id="patch_46">
     <path d="M 553.865625 629.720312 
L 573.865625 629.720312 
L 573.865625 622.720312 
L 553.865625 622.720312 
z
" style="fill:#5f57db;"/>
    </g>
    <g id="text_52">
     <!-- importance -->
     <g transform="translate(581.865625 629.720312)scale(0.1 -0.1)">
      <use xlink:href="#DejaVuSans-105"/>
      <use x="27.783203" xlink:href="#DejaVuSans-109"/>
      <use x="125.195312" xlink:href="#DejaVuSans-112"/>
      <use x="188.671875" xlink:href="#DejaVuSans-111"/>
      <use x="249.853516" xlink:href="#DejaVuSans-114"/>
      <use x="290.966797" xlink:href="#DejaVuSans-116"/>
      <use x="330.175781" xlink:href="#DejaVuSans-97"/>
      <use x="391.455078" xlink:href="#DejaVuSans-110"/>
      <use x="454.833984" xlink:href="#DejaVuSans-99"/>
      <use x="509.814453" xlink:href="#DejaVuSans-101"/>
     </g>
    </g>
   </g>
  </g>
 </g>
 <defs>
  <clipPath id="p3bfc2f971e">
   <rect height="163.058824" width="558" x="90" y="86.4"/>
  </clipPath>
  <clipPath id="pd1b71a9d47">
   <rect height="163.058824" width="558" x="90" y="282.070588"/>
  </clipPath>
  <clipPath id="p9747fc6045">
   <rect height="163.058824" width="558" x="90" y="477.741176"/>
  </clipPath>
 </defs>
</svg>
