<?xml version="1.0" encoding="utf-8" standalone="no"?>
<!DOCTYPE svg PUBLIC "-//W3C//DTD SVG 1.1//EN"
  "http://www.w3.org/Graphics/SVG/1.1/DTD/svg11.dtd">
<!-- Created with matplotlib (https://matplotlib.org/) -->
<svg height="720pt" version="1.1" viewBox="0 0 720 720" width="720pt" xmlns="http://www.w3.org/2000/svg" xmlns:xlink="http://www.w3.org/1999/xlink">
 <defs>
  <style type="text/css">
*{stroke-linecap:butt;stroke-linejoin:round;}
  </style>
 </defs>
 <g id="figure_1">
  <g id="patch_1">
   <path d="M 0 720 
L 720 720 
L 720 0 
L 0 0 
z
" style="fill:#ffffff;"/>
  </g>
  <g id="axes_1">
   <g id="patch_2">
    <path d="M 90 308.16 
L 229.5 308.16 
L 229.5 86.4 
L 90 86.4 
z
" style="fill:#ffffff;"/>
   </g>
   <g id="matplotlib.axis_1">
    <g id="xtick_1">
     <g id="line2d_1">
      <path clip-path="url(#pbee94638a0)" d="M 145.117133 308.16 
L 145.117133 86.4 
" style="fill:none;stroke:#cccccc;stroke-linecap:round;stroke-width:0.8;"/>
     </g>
     <g id="line2d_2"/>
     <g id="text_1">
      <!-- 20 -->
      <defs>
       <path d="M 5.03125 0 
L 5.03125 6.203125 
Q 7.515625 11.921875 11.109375 16.28125 
Q 14.703125 20.65625 18.65625 24.1875 
Q 22.609375 27.734375 26.484375 30.765625 
Q 30.375 33.796875 33.5 36.8125 
Q 36.625 39.84375 38.546875 43.15625 
Q 40.484375 46.484375 40.484375 50.6875 
Q 40.484375 56.34375 37.15625 59.46875 
Q 33.84375 62.59375 27.9375 62.59375 
Q 22.3125 62.59375 18.671875 59.546875 
Q 15.046875 56.5 14.40625 50.984375 
L 5.421875 51.8125 
Q 6.390625 60.0625 12.421875 64.9375 
Q 18.453125 69.828125 27.9375 69.828125 
Q 38.328125 69.828125 43.921875 64.921875 
Q 49.515625 60.015625 49.515625 50.984375 
Q 49.515625 46.96875 47.671875 43.015625 
Q 45.84375 39.0625 42.234375 35.109375 
Q 38.625 31.15625 28.421875 22.859375 
Q 22.796875 18.265625 19.46875 14.578125 
Q 16.15625 10.890625 14.703125 7.46875 
L 50.59375 7.46875 
L 50.59375 0 
z
" id="LiberationSans-50"/>
       <path d="M 51.703125 34.421875 
Q 51.703125 17.1875 45.625 8.09375 
Q 39.546875 -0.984375 27.6875 -0.984375 
Q 15.828125 -0.984375 9.859375 8.046875 
Q 3.90625 17.09375 3.90625 34.421875 
Q 3.90625 52.15625 9.6875 60.984375 
Q 15.484375 69.828125 27.984375 69.828125 
Q 40.140625 69.828125 45.921875 60.890625 
Q 51.703125 51.953125 51.703125 34.421875 
z
M 42.78125 34.421875 
Q 42.78125 49.3125 39.328125 56 
Q 35.890625 62.703125 27.984375 62.703125 
Q 19.875 62.703125 16.328125 56.109375 
Q 12.796875 49.515625 12.796875 34.421875 
Q 12.796875 19.78125 16.375 12.984375 
Q 19.96875 6.203125 27.78125 6.203125 
Q 35.546875 6.203125 39.15625 13.125 
Q 42.78125 20.0625 42.78125 34.421875 
z
" id="LiberationSans-48"/>
      </defs>
      <g style="fill:#262626;" transform="translate(139.556195 318.906875)scale(0.1 -0.1)">
       <use xlink:href="#LiberationSans-50"/>
       <use x="55.615234" xlink:href="#LiberationSans-48"/>
      </g>
     </g>
    </g>
    <g id="xtick_2">
     <g id="line2d_3">
      <path clip-path="url(#pbee94638a0)" d="M 210.152098 308.16 
L 210.152098 86.4 
" style="fill:none;stroke:#cccccc;stroke-linecap:round;stroke-width:0.8;"/>
     </g>
     <g id="line2d_4"/>
     <g id="text_2">
      <!-- 40 -->
      <defs>
       <path d="M 43.015625 15.578125 
L 43.015625 0 
L 34.71875 0 
L 34.71875 15.578125 
L 2.296875 15.578125 
L 2.296875 22.40625 
L 33.796875 68.796875 
L 43.015625 68.796875 
L 43.015625 22.515625 
L 52.6875 22.515625 
L 52.6875 15.578125 
z
M 34.71875 58.890625 
Q 34.625 58.59375 33.34375 56.296875 
Q 32.078125 54 31.453125 53.078125 
L 13.8125 27.09375 
L 11.1875 23.484375 
L 10.40625 22.515625 
L 34.71875 22.515625 
z
" id="LiberationSans-52"/>
      </defs>
      <g style="fill:#262626;" transform="translate(204.59116 318.906875)scale(0.1 -0.1)">
       <use xlink:href="#LiberationSans-52"/>
       <use x="55.615234" xlink:href="#LiberationSans-48"/>
      </g>
     </g>
    </g>
    <g id="text_3">
     <!-- Value -->
     <defs>
      <path d="M 38.1875 0 
L 28.515625 0 
L 0.4375 68.796875 
L 10.25 68.796875 
L 29.296875 20.359375 
L 33.40625 8.203125 
L 37.5 20.359375 
L 56.453125 68.796875 
L 66.265625 68.796875 
z
" id="LiberationSans-86"/>
      <path d="M 20.21875 -0.984375 
Q 12.25 -0.984375 8.25 3.21875 
Q 4.25 7.421875 4.25 14.75 
Q 4.25 22.953125 9.640625 27.34375 
Q 15.046875 31.734375 27.046875 32.03125 
L 38.921875 32.234375 
L 38.921875 35.109375 
Q 38.921875 41.546875 36.1875 44.328125 
Q 33.453125 47.125 27.59375 47.125 
Q 21.6875 47.125 19 45.109375 
Q 16.3125 43.109375 15.765625 38.71875 
L 6.59375 39.546875 
Q 8.84375 53.8125 27.78125 53.8125 
Q 37.75 53.8125 42.765625 49.234375 
Q 47.796875 44.671875 47.796875 36.03125 
L 47.796875 13.28125 
Q 47.796875 9.375 48.828125 7.390625 
Q 49.859375 5.421875 52.734375 5.421875 
Q 54 5.421875 55.609375 5.765625 
L 55.609375 0.296875 
Q 52.296875 -0.484375 48.828125 -0.484375 
Q 43.953125 -0.484375 41.71875 2.078125 
Q 39.5 4.640625 39.203125 10.109375 
L 38.921875 10.109375 
Q 35.546875 4.046875 31.078125 1.53125 
Q 26.609375 -0.984375 20.21875 -0.984375 
z
M 22.21875 5.609375 
Q 27.046875 5.609375 30.8125 7.8125 
Q 34.578125 10.015625 36.75 13.84375 
Q 38.921875 17.671875 38.921875 21.734375 
L 38.921875 26.078125 
L 29.296875 25.875 
Q 23.09375 25.78125 19.890625 24.609375 
Q 16.703125 23.4375 14.984375 21 
Q 13.28125 18.5625 13.28125 14.59375 
Q 13.28125 10.296875 15.59375 7.953125 
Q 17.921875 5.609375 22.21875 5.609375 
z
" id="LiberationSans-97"/>
      <path d="M 6.734375 0 
L 6.734375 72.46875 
L 15.53125 72.46875 
L 15.53125 0 
z
" id="LiberationSans-108"/>
      <path d="M 15.328125 52.828125 
L 15.328125 19.34375 
Q 15.328125 14.109375 16.359375 11.21875 
Q 17.390625 8.34375 19.625 7.078125 
Q 21.875 5.8125 26.21875 5.8125 
Q 32.5625 5.8125 36.21875 10.15625 
Q 39.890625 14.5 39.890625 22.21875 
L 39.890625 52.828125 
L 48.6875 52.828125 
L 48.6875 11.28125 
Q 48.6875 2.046875 48.96875 0 
L 40.671875 0 
Q 40.625 0.25 40.578125 1.3125 
Q 40.53125 2.390625 40.453125 3.78125 
Q 40.375 5.171875 40.28125 9.03125 
L 40.140625 9.03125 
Q 37.109375 3.5625 33.125 1.28125 
Q 29.15625 -0.984375 23.25 -0.984375 
Q 14.546875 -0.984375 10.515625 3.34375 
Q 6.5 7.671875 6.5 17.625 
L 6.5 52.828125 
z
" id="LiberationSans-117"/>
      <path d="M 13.484375 24.5625 
Q 13.484375 15.484375 17.234375 10.546875 
Q 21 5.609375 28.21875 5.609375 
Q 33.9375 5.609375 37.375 7.90625 
Q 40.828125 10.203125 42.046875 13.71875 
L 49.75 11.53125 
Q 45.015625 -0.984375 28.21875 -0.984375 
Q 16.5 -0.984375 10.375 6 
Q 4.25 12.984375 4.25 26.765625 
Q 4.25 39.84375 10.375 46.828125 
Q 16.5 53.8125 27.875 53.8125 
Q 51.171875 53.8125 51.171875 25.734375 
L 51.171875 24.5625 
z
M 42.09375 31.296875 
Q 41.359375 39.65625 37.84375 43.484375 
Q 34.328125 47.3125 27.734375 47.3125 
Q 21.34375 47.3125 17.609375 43.03125 
Q 13.875 38.765625 13.578125 31.296875 
z
" id="LiberationSans-101"/>
     </defs>
     <g style="fill:#262626;" transform="translate(144.411563 333.678125)scale(0.12 -0.12)">
      <use xlink:href="#LiberationSans-86"/>
      <use x="66.589844" xlink:href="#LiberationSans-97"/>
      <use x="122.205078" xlink:href="#LiberationSans-108"/>
      <use x="144.421875" xlink:href="#LiberationSans-117"/>
      <use x="200.037109" xlink:href="#LiberationSans-101"/>
     </g>
    </g>
   </g>
   <g id="matplotlib.axis_2">
    <g id="ytick_1">
     <g id="line2d_5">
      <path clip-path="url(#pbee94638a0)" d="M 90 277.528328 
L 229.5 277.528328 
" style="fill:none;stroke:#cccccc;stroke-linecap:round;stroke-width:0.8;"/>
     </g>
     <g id="line2d_6"/>
     <g id="text_4">
      <!-- 2 -->
      <g style="fill:#262626;" transform="translate(80.939063 281.151766)scale(0.1 -0.1)">
       <use xlink:href="#LiberationSans-50"/>
      </g>
     </g>
    </g>
    <g id="ytick_2">
     <g id="line2d_7">
      <path clip-path="url(#pbee94638a0)" d="M 90 243.633485 
L 229.5 243.633485 
" style="fill:none;stroke:#cccccc;stroke-linecap:round;stroke-width:0.8;"/>
     </g>
     <g id="line2d_8"/>
     <g id="text_5">
      <!-- 4 -->
      <g style="fill:#262626;" transform="translate(80.939063 247.256923)scale(0.1 -0.1)">
       <use xlink:href="#LiberationSans-52"/>
      </g>
     </g>
    </g>
    <g id="ytick_3">
     <g id="line2d_9">
      <path clip-path="url(#pbee94638a0)" d="M 90 209.738643 
L 229.5 209.738643 
" style="fill:none;stroke:#cccccc;stroke-linecap:round;stroke-width:0.8;"/>
     </g>
     <g id="line2d_10"/>
     <g id="text_6">
      <!-- 6 -->
      <defs>
       <path d="M 51.21875 22.515625 
Q 51.21875 11.625 45.3125 5.3125 
Q 39.40625 -0.984375 29 -0.984375 
Q 17.390625 -0.984375 11.234375 7.65625 
Q 5.078125 16.3125 5.078125 32.8125 
Q 5.078125 50.6875 11.46875 60.25 
Q 17.875 69.828125 29.6875 69.828125 
Q 45.265625 69.828125 49.3125 55.8125 
L 40.921875 54.296875 
Q 38.328125 62.703125 29.59375 62.703125 
Q 22.078125 62.703125 17.9375 55.6875 
Q 13.8125 48.6875 13.8125 35.40625 
Q 16.21875 39.84375 20.5625 42.15625 
Q 24.90625 44.484375 30.515625 44.484375 
Q 40.046875 44.484375 45.625 38.515625 
Q 51.21875 32.5625 51.21875 22.515625 
z
M 42.28125 22.125 
Q 42.28125 29.59375 38.625 33.640625 
Q 34.96875 37.703125 28.421875 37.703125 
Q 22.265625 37.703125 18.484375 34.109375 
Q 14.703125 30.515625 14.703125 24.21875 
Q 14.703125 16.265625 18.625 11.1875 
Q 22.5625 6.109375 28.71875 6.109375 
Q 35.0625 6.109375 38.671875 10.375 
Q 42.28125 14.65625 42.28125 22.125 
z
" id="LiberationSans-54"/>
      </defs>
      <g style="fill:#262626;" transform="translate(80.939063 213.36208)scale(0.1 -0.1)">
       <use xlink:href="#LiberationSans-54"/>
      </g>
     </g>
    </g>
    <g id="ytick_4">
     <g id="line2d_11">
      <path clip-path="url(#pbee94638a0)" d="M 90 175.8438 
L 229.5 175.8438 
" style="fill:none;stroke:#cccccc;stroke-linecap:round;stroke-width:0.8;"/>
     </g>
     <g id="line2d_12"/>
     <g id="text_7">
      <!-- 8 -->
      <defs>
       <path d="M 51.265625 19.1875 
Q 51.265625 9.671875 45.203125 4.34375 
Q 39.15625 -0.984375 27.828125 -0.984375 
Q 16.796875 -0.984375 10.5625 4.234375 
Q 4.34375 9.46875 4.34375 19.09375 
Q 4.34375 25.828125 8.203125 30.421875 
Q 12.0625 35.015625 18.0625 35.984375 
L 18.0625 36.1875 
Q 12.453125 37.5 9.203125 41.890625 
Q 5.953125 46.296875 5.953125 52.203125 
Q 5.953125 60.0625 11.828125 64.9375 
Q 17.71875 69.828125 27.640625 69.828125 
Q 37.796875 69.828125 43.671875 65.03125 
Q 49.5625 60.25 49.5625 52.09375 
Q 49.5625 46.1875 46.28125 41.796875 
Q 43.015625 37.40625 37.359375 36.28125 
L 37.359375 36.078125 
Q 43.953125 35.015625 47.609375 30.5 
Q 51.265625 25.984375 51.265625 19.1875 
z
M 40.4375 51.609375 
Q 40.4375 63.28125 27.640625 63.28125 
Q 21.4375 63.28125 18.1875 60.34375 
Q 14.9375 57.421875 14.9375 51.609375 
Q 14.9375 45.703125 18.28125 42.59375 
Q 21.625 39.5 27.734375 39.5 
Q 33.9375 39.5 37.1875 42.359375 
Q 40.4375 45.21875 40.4375 51.609375 
z
M 42.140625 20.015625 
Q 42.140625 26.421875 38.328125 29.65625 
Q 34.515625 32.90625 27.640625 32.90625 
Q 20.953125 32.90625 17.1875 29.40625 
Q 13.421875 25.921875 13.421875 19.828125 
Q 13.421875 5.609375 27.9375 5.609375 
Q 35.109375 5.609375 38.625 9.046875 
Q 42.140625 12.5 42.140625 20.015625 
z
" id="LiberationSans-56"/>
      </defs>
      <g style="fill:#262626;" transform="translate(80.939063 179.467237)scale(0.1 -0.1)">
       <use xlink:href="#LiberationSans-56"/>
      </g>
     </g>
    </g>
    <g id="ytick_5">
     <g id="line2d_13">
      <path clip-path="url(#pbee94638a0)" d="M 90 141.948957 
L 229.5 141.948957 
" style="fill:none;stroke:#cccccc;stroke-linecap:round;stroke-width:0.8;"/>
     </g>
     <g id="line2d_14"/>
     <g id="text_8">
      <!-- 10 -->
      <defs>
       <path d="M 7.625 0 
L 7.625 7.46875 
L 25.140625 7.46875 
L 25.140625 60.40625 
L 9.625 49.3125 
L 9.625 57.625 
L 25.875 68.796875 
L 33.984375 68.796875 
L 33.984375 7.46875 
L 50.734375 7.46875 
L 50.734375 0 
z
" id="LiberationSans-49"/>
      </defs>
      <g style="fill:#262626;" transform="translate(75.378125 145.572395)scale(0.1 -0.1)">
       <use xlink:href="#LiberationSans-49"/>
       <use x="55.615234" xlink:href="#LiberationSans-48"/>
      </g>
     </g>
    </g>
    <g id="ytick_6">
     <g id="line2d_15">
      <path clip-path="url(#pbee94638a0)" d="M 90 108.054114 
L 229.5 108.054114 
" style="fill:none;stroke:#cccccc;stroke-linecap:round;stroke-width:0.8;"/>
     </g>
     <g id="line2d_16"/>
     <g id="text_9">
      <!-- 12 -->
      <g style="fill:#262626;" transform="translate(75.378125 111.677552)scale(0.1 -0.1)">
       <use xlink:href="#LiberationSans-49"/>
       <use x="55.615234" xlink:href="#LiberationSans-50"/>
      </g>
     </g>
    </g>
    <g id="text_10">
     <!-- Average Prediction -->
     <defs>
      <path d="M 56.984375 0 
L 49.125 20.125 
L 17.78125 20.125 
L 9.859375 0 
L 0.203125 0 
L 28.265625 68.796875 
L 38.875 68.796875 
L 66.5 0 
z
M 33.453125 61.765625 
L 33.015625 60.40625 
Q 31.78125 56.34375 29.390625 50 
L 20.609375 27.390625 
L 46.34375 27.390625 
L 37.5 50.09375 
Q 36.140625 53.46875 34.765625 57.71875 
z
" id="LiberationSans-65"/>
      <path d="M 29.9375 0 
L 19.53125 0 
L 0.34375 52.828125 
L 9.71875 52.828125 
L 21.34375 18.453125 
Q 21.96875 16.5 24.703125 6.890625 
L 26.421875 12.59375 
L 28.328125 18.359375 
L 40.328125 52.828125 
L 49.65625 52.828125 
z
" id="LiberationSans-118"/>
      <path d="M 6.9375 0 
L 6.9375 40.53125 
Q 6.9375 46.09375 6.640625 52.828125 
L 14.9375 52.828125 
Q 15.328125 43.84375 15.328125 42.046875 
L 15.53125 42.046875 
Q 17.625 48.828125 20.359375 51.3125 
Q 23.09375 53.8125 28.078125 53.8125 
Q 29.828125 53.8125 31.640625 53.328125 
L 31.640625 45.265625 
Q 29.890625 45.75 26.953125 45.75 
Q 21.484375 45.75 18.59375 41.03125 
Q 15.71875 36.328125 15.71875 27.546875 
L 15.71875 0 
z
" id="LiberationSans-114"/>
      <path d="M 26.765625 -20.75 
Q 18.109375 -20.75 12.984375 -17.359375 
Q 7.859375 -13.96875 6.390625 -7.71875 
L 15.234375 -6.453125 
Q 16.109375 -10.109375 19.109375 -12.078125 
Q 22.125 -14.0625 27 -14.0625 
Q 40.140625 -14.0625 40.140625 1.3125 
L 40.140625 9.8125 
L 40.046875 9.8125 
Q 37.546875 4.734375 33.203125 2.171875 
Q 28.859375 -0.390625 23.046875 -0.390625 
Q 13.328125 -0.390625 8.765625 6.046875 
Q 4.203125 12.5 4.203125 26.3125 
Q 4.203125 40.328125 9.109375 46.984375 
Q 14.015625 53.65625 24.03125 53.65625 
Q 29.640625 53.65625 33.765625 51.09375 
Q 37.890625 48.53125 40.140625 43.796875 
L 40.234375 43.796875 
Q 40.234375 45.265625 40.421875 48.875 
Q 40.625 52.484375 40.828125 52.828125 
L 49.171875 52.828125 
Q 48.875 50.203125 48.875 41.890625 
L 48.875 1.515625 
Q 48.875 -20.75 26.765625 -20.75 
z
M 40.140625 26.421875 
Q 40.140625 32.859375 38.375 37.515625 
Q 36.625 42.1875 33.421875 44.65625 
Q 30.21875 47.125 26.171875 47.125 
Q 19.4375 47.125 16.359375 42.234375 
Q 13.28125 37.359375 13.28125 26.421875 
Q 13.28125 15.578125 16.15625 10.84375 
Q 19.046875 6.109375 26.03125 6.109375 
Q 30.171875 6.109375 33.390625 8.546875 
Q 36.625 10.984375 38.375 15.546875 
Q 40.140625 20.125 40.140625 26.421875 
z
" id="LiberationSans-103"/>
      <path id="LiberationSans-32"/>
      <path d="M 61.421875 48.09375 
Q 61.421875 38.328125 55.046875 32.5625 
Q 48.6875 26.8125 37.75 26.8125 
L 17.53125 26.8125 
L 17.53125 0 
L 8.203125 0 
L 8.203125 68.796875 
L 37.15625 68.796875 
Q 48.734375 68.796875 55.078125 63.375 
Q 61.421875 57.953125 61.421875 48.09375 
z
M 52.046875 48 
Q 52.046875 61.328125 36.03125 61.328125 
L 17.53125 61.328125 
L 17.53125 34.1875 
L 36.421875 34.1875 
Q 52.046875 34.1875 52.046875 48 
z
" id="LiberationSans-80"/>
      <path d="M 40.09375 8.5 
Q 37.640625 3.421875 33.609375 1.21875 
Q 29.59375 -0.984375 23.640625 -0.984375 
Q 13.625 -0.984375 8.90625 5.75 
Q 4.203125 12.5 4.203125 26.171875 
Q 4.203125 53.8125 23.640625 53.8125 
Q 29.640625 53.8125 33.640625 51.609375 
Q 37.640625 49.421875 40.09375 44.625 
L 40.1875 44.625 
L 40.09375 50.53125 
L 40.09375 72.46875 
L 48.875 72.46875 
L 48.875 10.890625 
Q 48.875 2.640625 49.171875 0 
L 40.765625 0 
Q 40.625 0.78125 40.453125 3.609375 
Q 40.28125 6.453125 40.28125 8.5 
z
M 13.421875 26.46875 
Q 13.421875 15.375 16.34375 10.59375 
Q 19.28125 5.8125 25.875 5.8125 
Q 33.34375 5.8125 36.71875 10.984375 
Q 40.09375 16.15625 40.09375 27.046875 
Q 40.09375 37.546875 36.71875 42.421875 
Q 33.34375 47.3125 25.984375 47.3125 
Q 19.34375 47.3125 16.375 42.40625 
Q 13.421875 37.5 13.421875 26.46875 
z
" id="LiberationSans-100"/>
      <path d="M 6.6875 64.0625 
L 6.6875 72.46875 
L 15.484375 72.46875 
L 15.484375 64.0625 
z
M 6.6875 0 
L 6.6875 52.828125 
L 15.484375 52.828125 
L 15.484375 0 
z
" id="LiberationSans-105"/>
      <path d="M 13.421875 26.65625 
Q 13.421875 16.109375 16.734375 11.03125 
Q 20.0625 5.953125 26.765625 5.953125 
Q 31.453125 5.953125 34.59375 8.484375 
Q 37.75 11.03125 38.484375 16.3125 
L 47.359375 15.71875 
Q 46.34375 8.109375 40.875 3.5625 
Q 35.40625 -0.984375 27 -0.984375 
Q 15.921875 -0.984375 10.078125 6.015625 
Q 4.25 13.03125 4.25 26.46875 
Q 4.25 39.796875 10.109375 46.796875 
Q 15.96875 53.8125 26.90625 53.8125 
Q 35.015625 53.8125 40.359375 49.609375 
Q 45.703125 45.40625 47.078125 38.03125 
L 38.03125 37.359375 
Q 37.359375 41.75 34.5625 44.328125 
Q 31.78125 46.921875 26.65625 46.921875 
Q 19.671875 46.921875 16.546875 42.28125 
Q 13.421875 37.640625 13.421875 26.65625 
z
" id="LiberationSans-99"/>
      <path d="M 27.046875 0.390625 
Q 22.703125 -0.78125 18.171875 -0.78125 
Q 7.625 -0.78125 7.625 11.1875 
L 7.625 46.4375 
L 1.515625 46.4375 
L 1.515625 52.828125 
L 7.953125 52.828125 
L 10.546875 64.65625 
L 16.40625 64.65625 
L 16.40625 52.828125 
L 26.171875 52.828125 
L 26.171875 46.4375 
L 16.40625 46.4375 
L 16.40625 13.09375 
Q 16.40625 9.28125 17.640625 7.734375 
Q 18.890625 6.203125 21.96875 6.203125 
Q 23.734375 6.203125 27.046875 6.890625 
z
" id="LiberationSans-116"/>
      <path d="M 51.421875 26.46875 
Q 51.421875 12.59375 45.3125 5.796875 
Q 39.203125 -0.984375 27.59375 -0.984375 
Q 16.015625 -0.984375 10.109375 6.078125 
Q 4.203125 13.140625 4.203125 26.46875 
Q 4.203125 53.8125 27.875 53.8125 
Q 39.984375 53.8125 45.703125 47.140625 
Q 51.421875 40.484375 51.421875 26.46875 
z
M 42.1875 26.46875 
Q 42.1875 37.40625 38.9375 42.359375 
Q 35.6875 47.3125 28.03125 47.3125 
Q 20.3125 47.3125 16.859375 42.25 
Q 13.421875 37.203125 13.421875 26.46875 
Q 13.421875 16.015625 16.8125 10.765625 
Q 20.21875 5.515625 27.484375 5.515625 
Q 35.40625 5.515625 38.796875 10.59375 
Q 42.1875 15.671875 42.1875 26.46875 
z
" id="LiberationSans-111"/>
      <path d="M 40.28125 0 
L 40.28125 33.5 
Q 40.28125 38.71875 39.25 41.59375 
Q 38.234375 44.484375 35.984375 45.75 
Q 33.734375 47.015625 29.390625 47.015625 
Q 23.046875 47.015625 19.375 42.671875 
Q 15.71875 38.328125 15.71875 30.609375 
L 15.71875 0 
L 6.9375 0 
L 6.9375 41.546875 
Q 6.9375 50.78125 6.640625 52.828125 
L 14.9375 52.828125 
Q 14.984375 52.59375 15.03125 51.515625 
Q 15.09375 50.4375 15.15625 49.046875 
Q 15.234375 47.65625 15.328125 43.796875 
L 15.484375 43.796875 
Q 18.5 49.265625 22.484375 51.53125 
Q 26.46875 53.8125 32.375 53.8125 
Q 41.0625 53.8125 45.09375 49.484375 
Q 49.125 45.171875 49.125 35.203125 
L 49.125 0 
z
" id="LiberationSans-110"/>
     </defs>
     <g style="fill:#262626;" transform="translate(68.888125 247.971562)rotate(-90)scale(0.12 -0.12)">
      <use xlink:href="#LiberationSans-65"/>
      <use x="66.683594" xlink:href="#LiberationSans-118"/>
      <use x="116.683594" xlink:href="#LiberationSans-101"/>
      <use x="172.298828" xlink:href="#LiberationSans-114"/>
      <use x="205.599609" xlink:href="#LiberationSans-97"/>
      <use x="261.214844" xlink:href="#LiberationSans-103"/>
      <use x="316.830078" xlink:href="#LiberationSans-101"/>
      <use x="372.445312" xlink:href="#LiberationSans-32"/>
      <use x="400.228516" xlink:href="#LiberationSans-80"/>
      <use x="466.927734" xlink:href="#LiberationSans-114"/>
      <use x="500.228516" xlink:href="#LiberationSans-101"/>
      <use x="555.84375" xlink:href="#LiberationSans-100"/>
      <use x="611.458984" xlink:href="#LiberationSans-105"/>
      <use x="633.675781" xlink:href="#LiberationSans-99"/>
      <use x="683.675781" xlink:href="#LiberationSans-116"/>
      <use x="711.458984" xlink:href="#LiberationSans-105"/>
      <use x="733.675781" xlink:href="#LiberationSans-111"/>
      <use x="789.291016" xlink:href="#LiberationSans-110"/>
     </g>
    </g>
   </g>
   <g id="PolyCollection_1">
    <path clip-path="url(#pbee94638a0)" d="M 99.592657 102.311481 
L 99.592657 135.135034 
L 102.844406 161.588561 
L 109.347902 298.08 
L 115.851399 247.719466 
L 119.103147 215.795376 
L 122.354895 234.814852 
L 125.606643 220.855346 
L 128.858392 219.540438 
L 132.11014 245.728992 
L 132.11014 160.507824 
L 132.11014 160.507824 
L 128.858392 140.596044 
L 125.606643 142.908859 
L 122.354895 115.783558 
L 119.103147 142.201707 
L 115.851399 157.584775 
L 109.347902 147.892121 
L 102.844406 147.892121 
L 99.592657 102.311481 
z
" style="fill:#db5f57;fill-opacity:0.2;stroke:#db5f57;stroke-opacity:0.2;stroke-width:0.5;"/>
    <path clip-path="url(#pbee94638a0)" d="M 148.368881 96.48 
L 148.368881 278.958521 
L 151.620629 274.846187 
L 161.375874 158.904174 
L 161.375874 155.364282 
L 161.375874 155.364282 
L 151.620629 229.069888 
L 148.368881 96.48 
z
" style="fill:#db5f57;fill-opacity:0.2;stroke:#db5f57;stroke-opacity:0.2;stroke-width:0.5;"/>
   </g>
   <g id="line2d_17">
    <path clip-path="url(#pbee94638a0)" d="M 96.340909 248.826175 
L 99.592657 123.022303 
L 102.844406 154.740341 
L 109.347902 197.954747 
L 115.851399 202.652121 
L 119.103147 178.998541 
L 122.354895 175.299205 
L 125.606643 181.882103 
L 128.858392 180.068241 
L 132.11014 201.478159 
L 141.865385 245.728992 
L 148.368881 163.278064 
L 151.620629 250.764551 
L 161.375874 157.676757 
L 167.879371 175.25297 
L 174.382867 276.308749 
L 197.145105 258.446718 
L 223.159091 297.244492 
" style="fill:none;stroke:#db5f57;stroke-linecap:round;stroke-width:1.5;"/>
   </g>
   <g id="patch_3">
    <path d="M 90 308.16 
L 90 86.4 
" style="fill:none;stroke:#cccccc;stroke-linecap:square;stroke-linejoin:miter;"/>
   </g>
   <g id="patch_4">
    <path d="M 229.5 308.16 
L 229.5 86.4 
" style="fill:none;stroke:#cccccc;stroke-linecap:square;stroke-linejoin:miter;"/>
   </g>
   <g id="patch_5">
    <path d="M 90 308.16 
L 229.5 308.16 
" style="fill:none;stroke:#cccccc;stroke-linecap:square;stroke-linejoin:miter;"/>
   </g>
   <g id="patch_6">
    <path d="M 90 86.4 
L 229.5 86.4 
" style="fill:none;stroke:#cccccc;stroke-linecap:square;stroke-linejoin:miter;"/>
   </g>
   <g id="text_11">
    <!-- Age -->
    <g style="fill:#262626;" transform="translate(146.939625 80.4)scale(0.144 -0.144)">
     <use xlink:href="#LiberationSans-65"/>
     <use x="66.699219" xlink:href="#LiberationSans-103"/>
     <use x="122.314453" xlink:href="#LiberationSans-101"/>
    </g>
   </g>
  </g>
  <g id="axes_2">
   <g id="patch_7">
    <path d="M 299.25 308.16 
L 438.75 308.16 
L 438.75 86.4 
L 299.25 86.4 
z
" style="fill:#ffffff;"/>
   </g>
   <g id="matplotlib.axis_3">
    <g id="xtick_3">
     <g id="line2d_18">
      <path clip-path="url(#pb81d335324)" d="M 303.339195 308.16 
L 303.339195 86.4 
" style="fill:none;stroke:#cccccc;stroke-linecap:round;stroke-width:0.8;"/>
     </g>
     <g id="line2d_19"/>
     <g id="text_12">
      <!-- 0 -->
      <g style="fill:#262626;" transform="translate(300.558727 318.906875)scale(0.1 -0.1)">
       <use xlink:href="#LiberationSans-48"/>
      </g>
     </g>
    </g>
    <g id="xtick_4">
     <g id="line2d_20">
      <path clip-path="url(#pb81d335324)" d="M 351.67998 308.16 
L 351.67998 86.4 
" style="fill:none;stroke:#cccccc;stroke-linecap:round;stroke-width:0.8;"/>
     </g>
     <g id="line2d_21"/>
     <g id="text_13">
      <!-- 50 -->
      <defs>
       <path d="M 51.421875 22.40625 
Q 51.421875 11.53125 44.953125 5.265625 
Q 38.484375 -0.984375 27 -0.984375 
Q 17.390625 -0.984375 11.46875 3.21875 
Q 5.5625 7.421875 4 15.375 
L 12.890625 16.40625 
Q 15.671875 6.203125 27.203125 6.203125 
Q 34.28125 6.203125 38.28125 10.46875 
Q 42.28125 14.75 42.28125 22.21875 
Q 42.28125 28.71875 38.25 32.71875 
Q 34.234375 36.71875 27.390625 36.71875 
Q 23.828125 36.71875 20.75 35.59375 
Q 17.671875 34.46875 14.59375 31.78125 
L 6 31.78125 
L 8.296875 68.796875 
L 47.40625 68.796875 
L 47.40625 61.328125 
L 16.3125 61.328125 
L 14.984375 39.5 
Q 20.703125 43.890625 29.203125 43.890625 
Q 39.359375 43.890625 45.390625 37.9375 
Q 51.421875 31.984375 51.421875 22.40625 
z
" id="LiberationSans-53"/>
      </defs>
      <g style="fill:#262626;" transform="translate(346.119043 318.906875)scale(0.1 -0.1)">
       <use xlink:href="#LiberationSans-53"/>
       <use x="55.615234" xlink:href="#LiberationSans-48"/>
      </g>
     </g>
    </g>
    <g id="xtick_5">
     <g id="line2d_22">
      <path clip-path="url(#pb81d335324)" d="M 400.020765 308.16 
L 400.020765 86.4 
" style="fill:none;stroke:#cccccc;stroke-linecap:round;stroke-width:0.8;"/>
     </g>
     <g id="line2d_23"/>
     <g id="text_14">
      <!-- 100 -->
      <g style="fill:#262626;" transform="translate(391.679359 318.906875)scale(0.1 -0.1)">
       <use xlink:href="#LiberationSans-49"/>
       <use x="55.615234" xlink:href="#LiberationSans-48"/>
       <use x="111.230469" xlink:href="#LiberationSans-48"/>
      </g>
     </g>
    </g>
    <g id="text_15">
     <!-- Value -->
     <g style="fill:#262626;" transform="translate(353.661563 333.678125)scale(0.12 -0.12)">
      <use xlink:href="#LiberationSans-86"/>
      <use x="66.589844" xlink:href="#LiberationSans-97"/>
      <use x="122.205078" xlink:href="#LiberationSans-108"/>
      <use x="144.421875" xlink:href="#LiberationSans-117"/>
      <use x="200.037109" xlink:href="#LiberationSans-101"/>
     </g>
    </g>
   </g>
   <g id="matplotlib.axis_4">
    <g id="ytick_7">
     <g id="line2d_24">
      <path clip-path="url(#pb81d335324)" d="M 299.25 292.1315 
L 438.75 292.1315 
" style="fill:none;stroke:#cccccc;stroke-linecap:round;stroke-width:0.8;"/>
     </g>
     <g id="line2d_25"/>
     <g id="text_16">
      <!-- 4 -->
      <g style="fill:#262626;" transform="translate(290.189062 295.754937)scale(0.1 -0.1)">
       <use xlink:href="#LiberationSans-52"/>
      </g>
     </g>
    </g>
    <g id="ytick_8">
     <g id="line2d_26">
      <path clip-path="url(#pb81d335324)" d="M 299.25 261.119443 
L 438.75 261.119443 
" style="fill:none;stroke:#cccccc;stroke-linecap:round;stroke-width:0.8;"/>
     </g>
     <g id="line2d_27"/>
     <g id="text_17">
      <!-- 5 -->
      <g style="fill:#262626;" transform="translate(290.189062 264.742881)scale(0.1 -0.1)">
       <use xlink:href="#LiberationSans-53"/>
      </g>
     </g>
    </g>
    <g id="ytick_9">
     <g id="line2d_28">
      <path clip-path="url(#pb81d335324)" d="M 299.25 230.107386 
L 438.75 230.107386 
" style="fill:none;stroke:#cccccc;stroke-linecap:round;stroke-width:0.8;"/>
     </g>
     <g id="line2d_29"/>
     <g id="text_18">
      <!-- 6 -->
      <g style="fill:#262626;" transform="translate(290.189062 233.730824)scale(0.1 -0.1)">
       <use xlink:href="#LiberationSans-54"/>
      </g>
     </g>
    </g>
    <g id="ytick_10">
     <g id="line2d_30">
      <path clip-path="url(#pb81d335324)" d="M 299.25 199.09533 
L 438.75 199.09533 
" style="fill:none;stroke:#cccccc;stroke-linecap:round;stroke-width:0.8;"/>
     </g>
     <g id="line2d_31"/>
     <g id="text_19">
      <!-- 7 -->
      <defs>
       <path d="M 50.59375 61.671875 
Q 40.046875 45.5625 35.6875 36.421875 
Q 31.34375 27.296875 29.171875 18.40625 
Q 27 9.515625 27 0 
L 17.828125 0 
Q 17.828125 13.1875 23.40625 27.75 
Q 29 42.328125 42.09375 61.328125 
L 5.125 61.328125 
L 5.125 68.796875 
L 50.59375 68.796875 
z
" id="LiberationSans-55"/>
      </defs>
      <g style="fill:#262626;" transform="translate(290.189062 202.718767)scale(0.1 -0.1)">
       <use xlink:href="#LiberationSans-55"/>
      </g>
     </g>
    </g>
    <g id="ytick_11">
     <g id="line2d_32">
      <path clip-path="url(#pb81d335324)" d="M 299.25 168.083273 
L 438.75 168.083273 
" style="fill:none;stroke:#cccccc;stroke-linecap:round;stroke-width:0.8;"/>
     </g>
     <g id="line2d_33"/>
     <g id="text_20">
      <!-- 8 -->
      <g style="fill:#262626;" transform="translate(290.189062 171.70671)scale(0.1 -0.1)">
       <use xlink:href="#LiberationSans-56"/>
      </g>
     </g>
    </g>
    <g id="ytick_12">
     <g id="line2d_34">
      <path clip-path="url(#pb81d335324)" d="M 299.25 137.071216 
L 438.75 137.071216 
" style="fill:none;stroke:#cccccc;stroke-linecap:round;stroke-width:0.8;"/>
     </g>
     <g id="line2d_35"/>
     <g id="text_21">
      <!-- 9 -->
      <defs>
       <path d="M 50.875 35.796875 
Q 50.875 18.0625 44.40625 8.53125 
Q 37.9375 -0.984375 25.984375 -0.984375 
Q 17.921875 -0.984375 13.0625 2.40625 
Q 8.203125 5.8125 6.109375 13.375 
L 14.5 14.703125 
Q 17.140625 6.109375 26.125 6.109375 
Q 33.6875 6.109375 37.84375 13.140625 
Q 42 20.171875 42.1875 33.203125 
Q 40.234375 28.8125 35.5 26.140625 
Q 30.765625 23.484375 25.09375 23.484375 
Q 15.828125 23.484375 10.25 29.828125 
Q 4.6875 36.1875 4.6875 46.6875 
Q 4.6875 57.46875 10.734375 63.640625 
Q 16.796875 69.828125 27.59375 69.828125 
Q 39.0625 69.828125 44.96875 61.328125 
Q 50.875 52.828125 50.875 35.796875 
z
M 41.3125 44.28125 
Q 41.3125 52.59375 37.5 57.640625 
Q 33.6875 62.703125 27.296875 62.703125 
Q 20.953125 62.703125 17.28125 58.375 
Q 13.625 54.046875 13.625 46.6875 
Q 13.625 39.15625 17.28125 34.78125 
Q 20.953125 30.421875 27.203125 30.421875 
Q 31 30.421875 34.265625 32.15625 
Q 37.546875 33.890625 39.421875 37.0625 
Q 41.3125 40.234375 41.3125 44.28125 
z
" id="LiberationSans-57"/>
      </defs>
      <g style="fill:#262626;" transform="translate(290.189062 140.694653)scale(0.1 -0.1)">
       <use xlink:href="#LiberationSans-57"/>
      </g>
     </g>
    </g>
    <g id="ytick_13">
     <g id="line2d_36">
      <path clip-path="url(#pb81d335324)" d="M 299.25 106.059159 
L 438.75 106.059159 
" style="fill:none;stroke:#cccccc;stroke-linecap:round;stroke-width:0.8;"/>
     </g>
     <g id="line2d_37"/>
     <g id="text_22">
      <!-- 10 -->
      <g style="fill:#262626;" transform="translate(284.628125 109.682597)scale(0.1 -0.1)">
       <use xlink:href="#LiberationSans-49"/>
       <use x="55.615234" xlink:href="#LiberationSans-48"/>
      </g>
     </g>
    </g>
    <g id="text_23">
     <!-- Average Prediction -->
     <g style="fill:#262626;" transform="translate(278.138125 247.971562)rotate(-90)scale(0.12 -0.12)">
      <use xlink:href="#LiberationSans-65"/>
      <use x="66.683594" xlink:href="#LiberationSans-118"/>
      <use x="116.683594" xlink:href="#LiberationSans-101"/>
      <use x="172.298828" xlink:href="#LiberationSans-114"/>
      <use x="205.599609" xlink:href="#LiberationSans-97"/>
      <use x="261.214844" xlink:href="#LiberationSans-103"/>
      <use x="316.830078" xlink:href="#LiberationSans-101"/>
      <use x="372.445312" xlink:href="#LiberationSans-32"/>
      <use x="400.228516" xlink:href="#LiberationSans-80"/>
      <use x="466.927734" xlink:href="#LiberationSans-114"/>
      <use x="500.228516" xlink:href="#LiberationSans-101"/>
      <use x="555.84375" xlink:href="#LiberationSans-100"/>
      <use x="611.458984" xlink:href="#LiberationSans-105"/>
      <use x="633.675781" xlink:href="#LiberationSans-99"/>
      <use x="683.675781" xlink:href="#LiberationSans-116"/>
      <use x="711.458984" xlink:href="#LiberationSans-105"/>
      <use x="733.675781" xlink:href="#LiberationSans-111"/>
      <use x="789.291016" xlink:href="#LiberationSans-110"/>
     </g>
    </g>
   </g>
   <g id="PolyCollection_2">
    <path clip-path="url(#pb81d335324)" d="M 332.611474 123.817826 
L 332.611474 293.987416 
L 332.611474 123.817826 
L 332.611474 123.817826 
z
" style="fill:#57d3db;fill-opacity:0.2;stroke:#57d3db;stroke-opacity:0.2;stroke-width:0.5;"/>
    <path clip-path="url(#pb81d335324)" d="M 391.319424 262.010807 
L 391.319424 286.632209 
L 391.319424 262.010807 
L 391.319424 262.010807 
z
" style="fill:#57d3db;fill-opacity:0.2;stroke:#57d3db;stroke-opacity:0.2;stroke-width:0.5;"/>
    <path clip-path="url(#pb81d335324)" d="M 401.47969 123.803018 
L 401.47969 137.709754 
L 401.47969 123.803018 
L 401.47969 123.803018 
z
" style="fill:#57d3db;fill-opacity:0.2;stroke:#57d3db;stroke-opacity:0.2;stroke-width:0.5;"/>
   </g>
   <g id="line2d_38">
    <path clip-path="url(#pb81d335324)" d="M 305.590909 265.889175 
L 306.569327 125.771585 
L 315.424392 117.162483 
L 319.581699 113.01842 
L 319.631973 117.243425 
L 321.798607 148.863938 
L 321.902057 114.964736 
L 330.825766 115.105299 
L 332.611474 226.789949 
L 335.244113 236.03224 
L 336.133584 108.420262 
L 336.452633 143.696554 
L 340.078192 237.827993 
L 343.945455 237.092154 
L 351.67998 96.48 
L 354.508883 109.679507 
L 361.011685 264.032948 
L 371.332443 243.769515 
L 374.10237 109.563677 
L 374.826515 104.102919 
L 378.473344 243.511883 
L 379.225526 132.921803 
L 381.651267 218.432742 
L 386.116989 263.115534 
L 389.965882 263.971777 
L 390.352608 117.676818 
L 390.439621 118.782863 
L 391.319424 275.099161 
L 393.253055 286.058254 
L 401.47969 130.756386 
L 404.854844 137.806124 
L 408.591586 155.943991 
L 409.919991 287.268732 
L 415.489816 264.619851 
L 432.409091 298.08 
" style="fill:none;stroke:#57d3db;stroke-linecap:round;stroke-width:1.5;"/>
   </g>
   <g id="patch_8">
    <path d="M 299.25 308.16 
L 299.25 86.4 
" style="fill:none;stroke:#cccccc;stroke-linecap:square;stroke-linejoin:miter;"/>
   </g>
   <g id="patch_9">
    <path d="M 438.75 308.16 
L 438.75 86.4 
" style="fill:none;stroke:#cccccc;stroke-linecap:square;stroke-linejoin:miter;"/>
   </g>
   <g id="patch_10">
    <path d="M 299.25 308.16 
L 438.75 308.16 
" style="fill:none;stroke:#cccccc;stroke-linecap:square;stroke-linejoin:miter;"/>
   </g>
   <g id="patch_11">
    <path d="M 299.25 86.4 
L 438.75 86.4 
" style="fill:none;stroke:#cccccc;stroke-linecap:square;stroke-linejoin:miter;"/>
   </g>
   <g id="text_24">
    <!-- Tonnage -->
    <defs>
     <path d="M 35.15625 61.1875 
L 35.15625 0 
L 25.875 0 
L 25.875 61.1875 
L 2.25 61.1875 
L 2.25 68.796875 
L 58.796875 68.796875 
L 58.796875 61.1875 
z
" id="LiberationSans-84"/>
    </defs>
    <g style="fill:#262626;" transform="translate(340.5915 80.4)scale(0.144 -0.144)">
     <use xlink:href="#LiberationSans-84"/>
     <use x="60.912109" xlink:href="#LiberationSans-111"/>
     <use x="116.527344" xlink:href="#LiberationSans-110"/>
     <use x="172.142578" xlink:href="#LiberationSans-110"/>
     <use x="227.757812" xlink:href="#LiberationSans-97"/>
     <use x="283.373047" xlink:href="#LiberationSans-103"/>
     <use x="338.988281" xlink:href="#LiberationSans-101"/>
    </g>
   </g>
  </g>
  <g id="axes_3">
   <g id="patch_12">
    <path d="M 508.5 308.16 
L 648 308.16 
L 648 86.4 
L 508.5 86.4 
z
" style="fill:#ffffff;"/>
   </g>
   <g id="matplotlib.axis_5">
    <g id="xtick_6">
     <g id="line2d_39">
      <path clip-path="url(#p2dcc9884b2)" d="M 512.690896 308.16 
L 512.690896 86.4 
" style="fill:none;stroke:#cccccc;stroke-linecap:round;stroke-width:0.8;"/>
     </g>
     <g id="line2d_40"/>
     <g id="text_25">
      <!-- 0 -->
      <g style="fill:#262626;" transform="translate(509.910427 318.906875)scale(0.1 -0.1)">
       <use xlink:href="#LiberationSans-48"/>
      </g>
     </g>
    </g>
    <g id="xtick_7">
     <g id="line2d_41">
      <path clip-path="url(#p2dcc9884b2)" d="M 577.842801 308.16 
L 577.842801 86.4 
" style="fill:none;stroke:#cccccc;stroke-linecap:round;stroke-width:0.8;"/>
     </g>
     <g id="line2d_42"/>
     <g id="text_26">
      <!-- 20 -->
      <g style="fill:#262626;" transform="translate(572.281863 318.906875)scale(0.1 -0.1)">
       <use xlink:href="#LiberationSans-50"/>
       <use x="55.615234" xlink:href="#LiberationSans-48"/>
      </g>
     </g>
    </g>
    <g id="xtick_8">
     <g id="line2d_43">
      <path clip-path="url(#p2dcc9884b2)" d="M 642.994705 308.16 
L 642.994705 86.4 
" style="fill:none;stroke:#cccccc;stroke-linecap:round;stroke-width:0.8;"/>
     </g>
     <g id="line2d_44"/>
     <g id="text_27">
      <!-- 40 -->
      <g style="fill:#262626;" transform="translate(637.433767 318.906875)scale(0.1 -0.1)">
       <use xlink:href="#LiberationSans-52"/>
       <use x="55.615234" xlink:href="#LiberationSans-48"/>
      </g>
     </g>
    </g>
    <g id="text_28">
     <!-- Value -->
     <g style="fill:#262626;" transform="translate(562.911562 333.678125)scale(0.12 -0.12)">
      <use xlink:href="#LiberationSans-86"/>
      <use x="66.589844" xlink:href="#LiberationSans-97"/>
      <use x="122.205078" xlink:href="#LiberationSans-108"/>
      <use x="144.421875" xlink:href="#LiberationSans-117"/>
      <use x="200.037109" xlink:href="#LiberationSans-101"/>
     </g>
    </g>
   </g>
   <g id="matplotlib.axis_6">
    <g id="ytick_14">
     <g id="line2d_45">
      <path clip-path="url(#p2dcc9884b2)" d="M 508.5 298.650117 
L 648 298.650117 
" style="fill:none;stroke:#cccccc;stroke-linecap:round;stroke-width:0.8;"/>
     </g>
     <g id="line2d_46"/>
     <g id="text_29">
      <!-- 2 -->
      <g style="fill:#262626;" transform="translate(499.439063 302.273555)scale(0.1 -0.1)">
       <use xlink:href="#LiberationSans-50"/>
      </g>
     </g>
    </g>
    <g id="ytick_15">
     <g id="line2d_47">
      <path clip-path="url(#p2dcc9884b2)" d="M 508.5 260.784296 
L 648 260.784296 
" style="fill:none;stroke:#cccccc;stroke-linecap:round;stroke-width:0.8;"/>
     </g>
     <g id="line2d_48"/>
     <g id="text_30">
      <!-- 4 -->
      <g style="fill:#262626;" transform="translate(499.439063 264.407733)scale(0.1 -0.1)">
       <use xlink:href="#LiberationSans-52"/>
      </g>
     </g>
    </g>
    <g id="ytick_16">
     <g id="line2d_49">
      <path clip-path="url(#p2dcc9884b2)" d="M 508.5 222.918474 
L 648 222.918474 
" style="fill:none;stroke:#cccccc;stroke-linecap:round;stroke-width:0.8;"/>
     </g>
     <g id="line2d_50"/>
     <g id="text_31">
      <!-- 6 -->
      <g style="fill:#262626;" transform="translate(499.439063 226.541912)scale(0.1 -0.1)">
       <use xlink:href="#LiberationSans-54"/>
      </g>
     </g>
    </g>
    <g id="ytick_17">
     <g id="line2d_51">
      <path clip-path="url(#p2dcc9884b2)" d="M 508.5 185.052653 
L 648 185.052653 
" style="fill:none;stroke:#cccccc;stroke-linecap:round;stroke-width:0.8;"/>
     </g>
     <g id="line2d_52"/>
     <g id="text_32">
      <!-- 8 -->
      <g style="fill:#262626;" transform="translate(499.439063 188.67609)scale(0.1 -0.1)">
       <use xlink:href="#LiberationSans-56"/>
      </g>
     </g>
    </g>
    <g id="ytick_18">
     <g id="line2d_53">
      <path clip-path="url(#p2dcc9884b2)" d="M 508.5 147.186831 
L 648 147.186831 
" style="fill:none;stroke:#cccccc;stroke-linecap:round;stroke-width:0.8;"/>
     </g>
     <g id="line2d_54"/>
     <g id="text_33">
      <!-- 10 -->
      <g style="fill:#262626;" transform="translate(493.878125 150.810269)scale(0.1 -0.1)">
       <use xlink:href="#LiberationSans-49"/>
       <use x="55.615234" xlink:href="#LiberationSans-48"/>
      </g>
     </g>
    </g>
    <g id="ytick_19">
     <g id="line2d_55">
      <path clip-path="url(#p2dcc9884b2)" d="M 508.5 109.32101 
L 648 109.32101 
" style="fill:none;stroke:#cccccc;stroke-linecap:round;stroke-width:0.8;"/>
     </g>
     <g id="line2d_56"/>
     <g id="text_34">
      <!-- 12 -->
      <g style="fill:#262626;" transform="translate(493.878125 112.944448)scale(0.1 -0.1)">
       <use xlink:href="#LiberationSans-49"/>
       <use x="55.615234" xlink:href="#LiberationSans-50"/>
      </g>
     </g>
    </g>
    <g id="text_35">
     <!-- Average Prediction -->
     <g style="fill:#262626;" transform="translate(487.388125 247.971562)rotate(-90)scale(0.12 -0.12)">
      <use xlink:href="#LiberationSans-65"/>
      <use x="66.683594" xlink:href="#LiberationSans-118"/>
      <use x="116.683594" xlink:href="#LiberationSans-101"/>
      <use x="172.298828" xlink:href="#LiberationSans-114"/>
      <use x="205.599609" xlink:href="#LiberationSans-97"/>
      <use x="261.214844" xlink:href="#LiberationSans-103"/>
      <use x="316.830078" xlink:href="#LiberationSans-101"/>
      <use x="372.445312" xlink:href="#LiberationSans-32"/>
      <use x="400.228516" xlink:href="#LiberationSans-80"/>
      <use x="466.927734" xlink:href="#LiberationSans-114"/>
      <use x="500.228516" xlink:href="#LiberationSans-101"/>
      <use x="555.84375" xlink:href="#LiberationSans-100"/>
      <use x="611.458984" xlink:href="#LiberationSans-105"/>
      <use x="633.675781" xlink:href="#LiberationSans-99"/>
      <use x="683.675781" xlink:href="#LiberationSans-116"/>
      <use x="711.458984" xlink:href="#LiberationSans-105"/>
      <use x="733.675781" xlink:href="#LiberationSans-111"/>
      <use x="789.291016" xlink:href="#LiberationSans-110"/>
     </g>
    </g>
   </g>
   <g id="PolyCollection_3">
    <path clip-path="url(#p2dcc9884b2)" d="M 534.972848 155.165491 
L 534.972848 155.837136 
L 534.972848 155.165491 
L 534.972848 155.165491 
z
" style="fill:#5f57db;fill-opacity:0.2;stroke:#5f57db;stroke-opacity:0.2;stroke-width:0.5;"/>
    <path clip-path="url(#p2dcc9884b2)" d="M 578.885231 143.490275 
L 578.885231 231.553728 
L 578.885231 143.490275 
L 578.885231 143.490275 
z
" style="fill:#5f57db;fill-opacity:0.2;stroke:#5f57db;stroke-opacity:0.2;stroke-width:0.5;"/>
    <path clip-path="url(#p2dcc9884b2)" d="M 602.535372 158.88614 
L 602.535372 173.702231 
L 602.535372 158.88614 
L 602.535372 158.88614 
z
" style="fill:#5f57db;fill-opacity:0.2;stroke:#5f57db;stroke-opacity:0.2;stroke-width:0.5;"/>
   </g>
   <g id="line2d_57">
    <path clip-path="url(#p2dcc9884b2)" d="M 514.840909 266.514673 
L 515.753036 118.764462 
L 522.333378 145.080498 
L 523.115201 140.334443 
L 525.525821 156.727551 
L 528.653113 168.95007 
L 534.972848 155.501314 
L 535.298607 298.08 
L 535.494063 264.256592 
L 538.751658 163.96087 
L 539.012266 224.303133 
L 543.703203 138.302279 
L 546.960798 167.497206 
L 547.091102 233.987317 
L 552.238102 225.109959 
L 555.104786 96.48 
L 555.691153 149.240816 
L 561.685128 278.95653 
L 571.034427 234.125953 
L 573.998838 152.273111 
L 578.885231 181.390539 
L 581.556459 212.809767 
L 582.533738 262.965225 
L 585.661029 263.628256 
L 590.677726 113.122076 
L 592.01334 122.298763 
L 594.163353 293.767083 
L 595.759574 238.40569 
L 601.297486 254.217842 
L 602.079309 283.88292 
L 602.535372 168.621695 
L 605.597512 180.936165 
L 613.676348 284.98936 
L 633.221919 276.433625 
L 641.659091 297.907569 
" style="fill:none;stroke:#5f57db;stroke-linecap:round;stroke-width:1.5;"/>
   </g>
   <g id="patch_13">
    <path d="M 508.5 308.16 
L 508.5 86.4 
" style="fill:none;stroke:#cccccc;stroke-linecap:square;stroke-linejoin:miter;"/>
   </g>
   <g id="patch_14">
    <path d="M 648 308.16 
L 648 86.4 
" style="fill:none;stroke:#cccccc;stroke-linecap:square;stroke-linejoin:miter;"/>
   </g>
   <g id="patch_15">
    <path d="M 508.5 308.16 
L 648 308.16 
" style="fill:none;stroke:#cccccc;stroke-linecap:square;stroke-linejoin:miter;"/>
   </g>
   <g id="patch_16">
    <path d="M 508.5 86.4 
L 648 86.4 
" style="fill:none;stroke:#cccccc;stroke-linecap:square;stroke-linejoin:miter;"/>
   </g>
   <g id="text_36">
    <!-- passengers -->
    <defs>
     <path d="M 51.421875 26.65625 
Q 51.421875 -0.984375 31.984375 -0.984375 
Q 19.78125 -0.984375 15.578125 8.203125 
L 15.328125 8.203125 
Q 15.53125 7.8125 15.53125 -0.09375 
L 15.53125 -20.75 
L 6.734375 -20.75 
L 6.734375 42.046875 
Q 6.734375 50.203125 6.453125 52.828125 
L 14.9375 52.828125 
Q 14.984375 52.640625 15.078125 51.4375 
Q 15.1875 50.25 15.3125 47.75 
Q 15.4375 45.265625 15.4375 44.34375 
L 15.625 44.34375 
Q 17.96875 49.21875 21.828125 51.484375 
Q 25.6875 53.765625 31.984375 53.765625 
Q 41.75 53.765625 46.578125 47.21875 
Q 51.421875 40.671875 51.421875 26.65625 
z
M 42.1875 26.46875 
Q 42.1875 37.5 39.203125 42.234375 
Q 36.234375 46.96875 29.734375 46.96875 
Q 24.515625 46.96875 21.5625 44.765625 
Q 18.609375 42.578125 17.0625 37.90625 
Q 15.53125 33.25 15.53125 25.78125 
Q 15.53125 15.375 18.84375 10.4375 
Q 22.171875 5.515625 29.640625 5.515625 
Q 36.1875 5.515625 39.1875 10.328125 
Q 42.1875 15.140625 42.1875 26.46875 
z
" id="LiberationSans-112"/>
     <path d="M 46.390625 14.59375 
Q 46.390625 7.125 40.75 3.0625 
Q 35.109375 -0.984375 24.953125 -0.984375 
Q 15.09375 -0.984375 9.734375 2.265625 
Q 4.390625 5.515625 2.78125 12.40625 
L 10.546875 13.921875 
Q 11.671875 9.671875 15.1875 7.6875 
Q 18.703125 5.71875 24.953125 5.71875 
Q 31.640625 5.71875 34.734375 7.765625 
Q 37.84375 9.8125 37.84375 13.921875 
Q 37.84375 17.046875 35.6875 19 
Q 33.546875 20.953125 28.765625 22.21875 
L 22.46875 23.875 
Q 14.890625 25.828125 11.6875 27.703125 
Q 8.5 29.59375 6.6875 32.28125 
Q 4.890625 34.96875 4.890625 38.875 
Q 4.890625 46.09375 10.03125 49.875 
Q 15.1875 53.65625 25.046875 53.65625 
Q 33.796875 53.65625 38.9375 50.578125 
Q 44.09375 47.515625 45.453125 40.71875 
L 37.546875 39.75 
Q 36.8125 43.265625 33.609375 45.140625 
Q 30.421875 47.015625 25.046875 47.015625 
Q 19.09375 47.015625 16.25 45.203125 
Q 13.421875 43.40625 13.421875 39.75 
Q 13.421875 37.5 14.59375 36.03125 
Q 15.765625 34.578125 18.0625 33.546875 
Q 20.359375 32.515625 27.734375 30.71875 
Q 34.71875 28.953125 37.796875 27.46875 
Q 40.875 25.984375 42.65625 24.171875 
Q 44.4375 22.359375 45.40625 19.984375 
Q 46.390625 17.625 46.390625 14.59375 
z
" id="LiberationSans-115"/>
    </defs>
    <g style="fill:#262626;" transform="translate(541.029375 80.4)scale(0.144 -0.144)">
     <use xlink:href="#LiberationSans-112"/>
     <use x="55.615234" xlink:href="#LiberationSans-97"/>
     <use x="111.230469" xlink:href="#LiberationSans-115"/>
     <use x="161.230469" xlink:href="#LiberationSans-115"/>
     <use x="211.230469" xlink:href="#LiberationSans-101"/>
     <use x="266.845703" xlink:href="#LiberationSans-110"/>
     <use x="322.460938" xlink:href="#LiberationSans-103"/>
     <use x="378.076172" xlink:href="#LiberationSans-101"/>
     <use x="433.691406" xlink:href="#LiberationSans-114"/>
     <use x="466.992188" xlink:href="#LiberationSans-115"/>
    </g>
   </g>
  </g>
  <g id="axes_4">
   <g id="patch_17">
    <path d="M 90 640.8 
L 229.5 640.8 
L 229.5 419.04 
L 90 419.04 
z
" style="fill:#ffffff;"/>
   </g>
   <g id="matplotlib.axis_7">
    <g id="xtick_9">
     <g id="line2d_58">
      <path clip-path="url(#pe1e0298a41)" d="M 91.822817 640.8 
L 91.822817 419.04 
" style="fill:none;stroke:#cccccc;stroke-linecap:round;stroke-width:0.8;"/>
     </g>
     <g id="line2d_59"/>
     <g id="text_37">
      <!-- 2.5 -->
      <defs>
       <path d="M 9.125 0 
L 9.125 10.6875 
L 18.65625 10.6875 
L 18.65625 0 
z
" id="LiberationSans-46"/>
      </defs>
      <g style="fill:#262626;" transform="translate(84.872817 651.546875)scale(0.1 -0.1)">
       <use xlink:href="#LiberationSans-50"/>
       <use x="55.615234" xlink:href="#LiberationSans-46"/>
       <use x="83.398438" xlink:href="#LiberationSans-53"/>
      </g>
     </g>
    </g>
    <g id="xtick_10">
     <g id="line2d_60">
      <path clip-path="url(#pe1e0298a41)" d="M 130.77189 640.8 
L 130.77189 419.04 
" style="fill:none;stroke:#cccccc;stroke-linecap:round;stroke-width:0.8;"/>
     </g>
     <g id="line2d_61"/>
     <g id="text_38">
      <!-- 5.0 -->
      <g style="fill:#262626;" transform="translate(123.82189 651.546875)scale(0.1 -0.1)">
       <use xlink:href="#LiberationSans-53"/>
       <use x="55.615234" xlink:href="#LiberationSans-46"/>
       <use x="83.398438" xlink:href="#LiberationSans-48"/>
      </g>
     </g>
    </g>
    <g id="xtick_11">
     <g id="line2d_62">
      <path clip-path="url(#pe1e0298a41)" d="M 169.720963 640.8 
L 169.720963 419.04 
" style="fill:none;stroke:#cccccc;stroke-linecap:round;stroke-width:0.8;"/>
     </g>
     <g id="line2d_63"/>
     <g id="text_39">
      <!-- 7.5 -->
      <g style="fill:#262626;" transform="translate(162.770963 651.546875)scale(0.1 -0.1)">
       <use xlink:href="#LiberationSans-55"/>
       <use x="55.615234" xlink:href="#LiberationSans-46"/>
       <use x="83.398438" xlink:href="#LiberationSans-53"/>
      </g>
     </g>
    </g>
    <g id="xtick_12">
     <g id="line2d_64">
      <path clip-path="url(#pe1e0298a41)" d="M 208.670036 640.8 
L 208.670036 419.04 
" style="fill:none;stroke:#cccccc;stroke-linecap:round;stroke-width:0.8;"/>
     </g>
     <g id="line2d_65"/>
     <g id="text_40">
      <!-- 10.0 -->
      <g style="fill:#262626;" transform="translate(198.939567 651.546875)scale(0.1 -0.1)">
       <use xlink:href="#LiberationSans-49"/>
       <use x="55.615234" xlink:href="#LiberationSans-48"/>
       <use x="111.230469" xlink:href="#LiberationSans-46"/>
       <use x="139.013672" xlink:href="#LiberationSans-48"/>
      </g>
     </g>
    </g>
    <g id="text_41">
     <!-- Value -->
     <g style="fill:#262626;" transform="translate(144.411563 666.318125)scale(0.12 -0.12)">
      <use xlink:href="#LiberationSans-86"/>
      <use x="66.589844" xlink:href="#LiberationSans-97"/>
      <use x="122.205078" xlink:href="#LiberationSans-108"/>
      <use x="144.421875" xlink:href="#LiberationSans-117"/>
      <use x="200.037109" xlink:href="#LiberationSans-101"/>
     </g>
    </g>
   </g>
   <g id="matplotlib.axis_8">
    <g id="ytick_20">
     <g id="line2d_66">
      <path clip-path="url(#pe1e0298a41)" d="M 90 619.889971 
L 229.5 619.889971 
" style="fill:none;stroke:#cccccc;stroke-linecap:round;stroke-width:0.8;"/>
     </g>
     <g id="line2d_67"/>
     <g id="text_42">
      <!-- 2 -->
      <g style="fill:#262626;" transform="translate(80.939063 623.513409)scale(0.1 -0.1)">
       <use xlink:href="#LiberationSans-50"/>
      </g>
     </g>
    </g>
    <g id="ytick_21">
     <g id="line2d_68">
      <path clip-path="url(#pe1e0298a41)" d="M 90 583.66096 
L 229.5 583.66096 
" style="fill:none;stroke:#cccccc;stroke-linecap:round;stroke-width:0.8;"/>
     </g>
     <g id="line2d_69"/>
     <g id="text_43">
      <!-- 4 -->
      <g style="fill:#262626;" transform="translate(80.939063 587.284398)scale(0.1 -0.1)">
       <use xlink:href="#LiberationSans-52"/>
      </g>
     </g>
    </g>
    <g id="ytick_22">
     <g id="line2d_70">
      <path clip-path="url(#pe1e0298a41)" d="M 90 547.431949 
L 229.5 547.431949 
" style="fill:none;stroke:#cccccc;stroke-linecap:round;stroke-width:0.8;"/>
     </g>
     <g id="line2d_71"/>
     <g id="text_44">
      <!-- 6 -->
      <g style="fill:#262626;" transform="translate(80.939063 551.055387)scale(0.1 -0.1)">
       <use xlink:href="#LiberationSans-54"/>
      </g>
     </g>
    </g>
    <g id="ytick_23">
     <g id="line2d_72">
      <path clip-path="url(#pe1e0298a41)" d="M 90 511.202938 
L 229.5 511.202938 
" style="fill:none;stroke:#cccccc;stroke-linecap:round;stroke-width:0.8;"/>
     </g>
     <g id="line2d_73"/>
     <g id="text_45">
      <!-- 8 -->
      <g style="fill:#262626;" transform="translate(80.939063 514.826376)scale(0.1 -0.1)">
       <use xlink:href="#LiberationSans-56"/>
      </g>
     </g>
    </g>
    <g id="ytick_24">
     <g id="line2d_74">
      <path clip-path="url(#pe1e0298a41)" d="M 90 474.973927 
L 229.5 474.973927 
" style="fill:none;stroke:#cccccc;stroke-linecap:round;stroke-width:0.8;"/>
     </g>
     <g id="line2d_75"/>
     <g id="text_46">
      <!-- 10 -->
      <g style="fill:#262626;" transform="translate(75.378125 478.597365)scale(0.1 -0.1)">
       <use xlink:href="#LiberationSans-49"/>
       <use x="55.615234" xlink:href="#LiberationSans-48"/>
      </g>
     </g>
    </g>
    <g id="ytick_25">
     <g id="line2d_76">
      <path clip-path="url(#pe1e0298a41)" d="M 90 438.744916 
L 229.5 438.744916 
" style="fill:none;stroke:#cccccc;stroke-linecap:round;stroke-width:0.8;"/>
     </g>
     <g id="line2d_77"/>
     <g id="text_47">
      <!-- 12 -->
      <g style="fill:#262626;" transform="translate(75.378125 442.368354)scale(0.1 -0.1)">
       <use xlink:href="#LiberationSans-49"/>
       <use x="55.615234" xlink:href="#LiberationSans-50"/>
      </g>
     </g>
    </g>
    <g id="text_48">
     <!-- Average Prediction -->
     <g style="fill:#262626;" transform="translate(68.888125 580.611562)rotate(-90)scale(0.12 -0.12)">
      <use xlink:href="#LiberationSans-65"/>
      <use x="66.683594" xlink:href="#LiberationSans-118"/>
      <use x="116.683594" xlink:href="#LiberationSans-101"/>
      <use x="172.298828" xlink:href="#LiberationSans-114"/>
      <use x="205.599609" xlink:href="#LiberationSans-97"/>
      <use x="261.214844" xlink:href="#LiberationSans-103"/>
      <use x="316.830078" xlink:href="#LiberationSans-101"/>
      <use x="372.445312" xlink:href="#LiberationSans-32"/>
      <use x="400.228516" xlink:href="#LiberationSans-80"/>
      <use x="466.927734" xlink:href="#LiberationSans-114"/>
      <use x="500.228516" xlink:href="#LiberationSans-101"/>
      <use x="555.84375" xlink:href="#LiberationSans-100"/>
      <use x="611.458984" xlink:href="#LiberationSans-105"/>
      <use x="633.675781" xlink:href="#LiberationSans-99"/>
      <use x="683.675781" xlink:href="#LiberationSans-116"/>
      <use x="711.458984" xlink:href="#LiberationSans-105"/>
      <use x="733.675781" xlink:href="#LiberationSans-111"/>
      <use x="789.291016" xlink:href="#LiberationSans-110"/>
     </g>
    </g>
   </g>
   <g id="PolyCollection_4">
    <path clip-path="url(#pe1e0298a41)" d="M 145.416741 490.014356 
L 145.416741 585.128779 
L 145.416741 490.014356 
L 145.416741 490.014356 
z
" style="fill:#a157db;fill-opacity:0.2;stroke:#a157db;stroke-opacity:0.2;stroke-width:0.5;"/>
    <path clip-path="url(#pe1e0298a41)" d="M 189.974481 473.251102 
L 189.974481 481.400229 
L 189.974481 473.251102 
L 189.974481 473.251102 
z
" style="fill:#a157db;fill-opacity:0.2;stroke:#a157db;stroke-opacity:0.2;stroke-width:0.5;"/>
    <path clip-path="url(#pe1e0298a41)" d="M 191.999832 489.184077 
L 191.999832 534.895624 
L 191.999832 489.184077 
L 191.999832 489.184077 
z
" style="fill:#a157db;fill-opacity:0.2;stroke:#a157db;stroke-opacity:0.2;stroke-width:0.5;"/>
    <path clip-path="url(#pe1e0298a41)" d="M 201.036017 429.12 
L 201.036017 613.74458 
L 201.036017 429.12 
L 201.036017 429.12 
z
" style="fill:#a157db;fill-opacity:0.2;stroke:#a157db;stroke-opacity:0.2;stroke-width:0.5;"/>
    <path clip-path="url(#pe1e0298a41)" d="M 203.217166 498.153583 
L 203.217166 585.340338 
L 203.217166 498.153583 
L 203.217166 498.153583 
z
" style="fill:#a157db;fill-opacity:0.2;stroke:#a157db;stroke-opacity:0.2;stroke-width:0.5;"/>
   </g>
   <g id="line2d_78">
    <path clip-path="url(#pe1e0298a41)" d="M 96.340909 587.19347 
L 98.989446 434.110818 
L 120.800927 465.684265 
L 132.797241 461.311016 
L 132.953038 488.280118 
L 136.536352 500.03838 
L 137.159538 487.561289 
L 140.119667 487.5266 
L 141.210241 630.042291 
L 145.416741 540.843069 
L 148.688463 457.588666 
L 148.84426 502.78164 
L 162.554333 559.74542 
L 163.177518 547.672872 
L 163.333315 436.9341 
L 164.735481 478.900427 
L 173.927463 592.82133 
L 187.793333 557.707312 
L 189.974481 477.325665 
L 191.532444 555.552999 
L 191.999832 512.039851 
L 195.427351 583.129209 
L 196.362129 583.843056 
L 201.036017 492.326748 
L 201.970795 567.61178 
L 202.59398 585.059536 
L 202.749777 610.87968 
L 202.905573 484.194392 
L 203.217166 540.694866 
L 223.159091 630.72 
" style="fill:none;stroke:#a157db;stroke-linecap:round;stroke-width:1.5;"/>
   </g>
   <g id="patch_18">
    <path d="M 90 640.8 
L 90 419.04 
" style="fill:none;stroke:#cccccc;stroke-linecap:square;stroke-linejoin:miter;"/>
   </g>
   <g id="patch_19">
    <path d="M 229.5 640.8 
L 229.5 419.04 
" style="fill:none;stroke:#cccccc;stroke-linecap:square;stroke-linejoin:miter;"/>
   </g>
   <g id="patch_20">
    <path d="M 90 640.8 
L 229.5 640.8 
" style="fill:none;stroke:#cccccc;stroke-linecap:square;stroke-linejoin:miter;"/>
   </g>
   <g id="patch_21">
    <path d="M 90 419.04 
L 229.5 419.04 
" style="fill:none;stroke:#cccccc;stroke-linecap:square;stroke-linejoin:miter;"/>
   </g>
   <g id="text_49">
    <!-- length -->
    <defs>
     <path d="M 15.484375 43.796875 
Q 18.3125 48.96875 22.28125 51.390625 
Q 26.265625 53.8125 32.375 53.8125 
Q 40.96875 53.8125 45.046875 49.53125 
Q 49.125 45.265625 49.125 35.203125 
L 49.125 0 
L 40.28125 0 
L 40.28125 33.5 
Q 40.28125 39.0625 39.25 41.765625 
Q 38.234375 44.484375 35.890625 45.75 
Q 33.546875 47.015625 29.390625 47.015625 
Q 23.1875 47.015625 19.453125 42.71875 
Q 15.71875 38.421875 15.71875 31.15625 
L 15.71875 0 
L 6.9375 0 
L 6.9375 72.46875 
L 15.71875 72.46875 
L 15.71875 53.609375 
Q 15.71875 50.640625 15.546875 47.453125 
Q 15.375 44.28125 15.328125 43.796875 
z
" id="LiberationSans-104"/>
    </defs>
    <g style="fill:#262626;" transform="translate(140.1345 413.04)scale(0.144 -0.144)">
     <use xlink:href="#LiberationSans-108"/>
     <use x="22.216797" xlink:href="#LiberationSans-101"/>
     <use x="77.832031" xlink:href="#LiberationSans-110"/>
     <use x="133.447266" xlink:href="#LiberationSans-103"/>
     <use x="189.0625" xlink:href="#LiberationSans-116"/>
     <use x="216.845703" xlink:href="#LiberationSans-104"/>
    </g>
   </g>
  </g>
  <g id="axes_5">
   <g id="patch_22">
    <path d="M 299.25 640.8 
L 438.75 640.8 
L 438.75 419.04 
L 299.25 419.04 
z
" style="fill:#ffffff;"/>
   </g>
   <g id="matplotlib.axis_9">
    <g id="xtick_13">
     <g id="line2d_79">
      <path clip-path="url(#pd31c8f92a3)" d="M 302.981807 640.8 
L 302.981807 419.04 
" style="fill:none;stroke:#cccccc;stroke-linecap:round;stroke-width:0.8;"/>
     </g>
     <g id="line2d_80"/>
     <g id="text_50">
      <!-- 0 -->
      <g style="fill:#262626;" transform="translate(300.201338 651.546875)scale(0.1 -0.1)">
       <use xlink:href="#LiberationSans-48"/>
      </g>
     </g>
    </g>
    <g id="xtick_14">
     <g id="line2d_81">
      <path clip-path="url(#pd31c8f92a3)" d="M 342.513659 640.8 
L 342.513659 419.04 
" style="fill:none;stroke:#cccccc;stroke-linecap:round;stroke-width:0.8;"/>
     </g>
     <g id="line2d_82"/>
     <g id="text_51">
      <!-- 5 -->
      <g style="fill:#262626;" transform="translate(339.73319 651.546875)scale(0.1 -0.1)">
       <use xlink:href="#LiberationSans-53"/>
      </g>
     </g>
    </g>
    <g id="xtick_15">
     <g id="line2d_83">
      <path clip-path="url(#pd31c8f92a3)" d="M 382.045511 640.8 
L 382.045511 419.04 
" style="fill:none;stroke:#cccccc;stroke-linecap:round;stroke-width:0.8;"/>
     </g>
     <g id="line2d_84"/>
     <g id="text_52">
      <!-- 10 -->
      <g style="fill:#262626;" transform="translate(376.484574 651.546875)scale(0.1 -0.1)">
       <use xlink:href="#LiberationSans-49"/>
       <use x="55.615234" xlink:href="#LiberationSans-48"/>
      </g>
     </g>
    </g>
    <g id="xtick_16">
     <g id="line2d_85">
      <path clip-path="url(#pd31c8f92a3)" d="M 421.577363 640.8 
L 421.577363 419.04 
" style="fill:none;stroke:#cccccc;stroke-linecap:round;stroke-width:0.8;"/>
     </g>
     <g id="line2d_86"/>
     <g id="text_53">
      <!-- 15 -->
      <g style="fill:#262626;" transform="translate(416.016426 651.546875)scale(0.1 -0.1)">
       <use xlink:href="#LiberationSans-49"/>
       <use x="55.615234" xlink:href="#LiberationSans-53"/>
      </g>
     </g>
    </g>
    <g id="text_54">
     <!-- Value -->
     <g style="fill:#262626;" transform="translate(353.661563 666.318125)scale(0.12 -0.12)">
      <use xlink:href="#LiberationSans-86"/>
      <use x="66.589844" xlink:href="#LiberationSans-97"/>
      <use x="122.205078" xlink:href="#LiberationSans-108"/>
      <use x="144.421875" xlink:href="#LiberationSans-117"/>
      <use x="200.037109" xlink:href="#LiberationSans-101"/>
     </g>
    </g>
   </g>
   <g id="matplotlib.axis_10">
    <g id="ytick_26">
     <g id="line2d_87">
      <path clip-path="url(#pd31c8f92a3)" d="M 299.25 619.526738 
L 438.75 619.526738 
" style="fill:none;stroke:#cccccc;stroke-linecap:round;stroke-width:0.8;"/>
     </g>
     <g id="line2d_88"/>
     <g id="text_55">
      <!-- 5 -->
      <g style="fill:#262626;" transform="translate(290.189062 623.150176)scale(0.1 -0.1)">
       <use xlink:href="#LiberationSans-53"/>
      </g>
     </g>
    </g>
    <g id="ytick_27">
     <g id="line2d_89">
      <path clip-path="url(#pd31c8f92a3)" d="M 299.25 580.92995 
L 438.75 580.92995 
" style="fill:none;stroke:#cccccc;stroke-linecap:round;stroke-width:0.8;"/>
     </g>
     <g id="line2d_90"/>
     <g id="text_56">
      <!-- 6 -->
      <g style="fill:#262626;" transform="translate(290.189062 584.553387)scale(0.1 -0.1)">
       <use xlink:href="#LiberationSans-54"/>
      </g>
     </g>
    </g>
    <g id="ytick_28">
     <g id="line2d_91">
      <path clip-path="url(#pd31c8f92a3)" d="M 299.25 542.333161 
L 438.75 542.333161 
" style="fill:none;stroke:#cccccc;stroke-linecap:round;stroke-width:0.8;"/>
     </g>
     <g id="line2d_92"/>
     <g id="text_57">
      <!-- 7 -->
      <g style="fill:#262626;" transform="translate(290.189062 545.956599)scale(0.1 -0.1)">
       <use xlink:href="#LiberationSans-55"/>
      </g>
     </g>
    </g>
    <g id="ytick_29">
     <g id="line2d_93">
      <path clip-path="url(#pd31c8f92a3)" d="M 299.25 503.736373 
L 438.75 503.736373 
" style="fill:none;stroke:#cccccc;stroke-linecap:round;stroke-width:0.8;"/>
     </g>
     <g id="line2d_94"/>
     <g id="text_58">
      <!-- 8 -->
      <g style="fill:#262626;" transform="translate(290.189062 507.35981)scale(0.1 -0.1)">
       <use xlink:href="#LiberationSans-56"/>
      </g>
     </g>
    </g>
    <g id="ytick_30">
     <g id="line2d_95">
      <path clip-path="url(#pd31c8f92a3)" d="M 299.25 465.139584 
L 438.75 465.139584 
" style="fill:none;stroke:#cccccc;stroke-linecap:round;stroke-width:0.8;"/>
     </g>
     <g id="line2d_96"/>
     <g id="text_59">
      <!-- 9 -->
      <g style="fill:#262626;" transform="translate(290.189062 468.763022)scale(0.1 -0.1)">
       <use xlink:href="#LiberationSans-57"/>
      </g>
     </g>
    </g>
    <g id="ytick_31">
     <g id="line2d_97">
      <path clip-path="url(#pd31c8f92a3)" d="M 299.25 426.542796 
L 438.75 426.542796 
" style="fill:none;stroke:#cccccc;stroke-linecap:round;stroke-width:0.8;"/>
     </g>
     <g id="line2d_98"/>
     <g id="text_60">
      <!-- 10 -->
      <g style="fill:#262626;" transform="translate(284.628125 430.166233)scale(0.1 -0.1)">
       <use xlink:href="#LiberationSans-49"/>
       <use x="55.615234" xlink:href="#LiberationSans-48"/>
      </g>
     </g>
    </g>
    <g id="text_61">
     <!-- Average Prediction -->
     <g style="fill:#262626;" transform="translate(278.138125 580.611562)rotate(-90)scale(0.12 -0.12)">
      <use xlink:href="#LiberationSans-65"/>
      <use x="66.683594" xlink:href="#LiberationSans-118"/>
      <use x="116.683594" xlink:href="#LiberationSans-101"/>
      <use x="172.298828" xlink:href="#LiberationSans-114"/>
      <use x="205.599609" xlink:href="#LiberationSans-97"/>
      <use x="261.214844" xlink:href="#LiberationSans-103"/>
      <use x="316.830078" xlink:href="#LiberationSans-101"/>
      <use x="372.445312" xlink:href="#LiberationSans-32"/>
      <use x="400.228516" xlink:href="#LiberationSans-80"/>
      <use x="466.927734" xlink:href="#LiberationSans-114"/>
      <use x="500.228516" xlink:href="#LiberationSans-101"/>
      <use x="555.84375" xlink:href="#LiberationSans-100"/>
      <use x="611.458984" xlink:href="#LiberationSans-105"/>
      <use x="633.675781" xlink:href="#LiberationSans-99"/>
      <use x="683.675781" xlink:href="#LiberationSans-116"/>
      <use x="711.458984" xlink:href="#LiberationSans-105"/>
      <use x="733.675781" xlink:href="#LiberationSans-111"/>
      <use x="789.291016" xlink:href="#LiberationSans-110"/>
     </g>
    </g>
   </g>
   <g id="PolyCollection_5">
    <path clip-path="url(#pd31c8f92a3)" d="M 330.021594 482.507367 
L 330.021594 483.175574 
L 330.021594 482.507367 
L 330.021594 482.507367 
z
" style="fill:#c957db;fill-opacity:0.2;stroke:#c957db;stroke-opacity:0.2;stroke-width:0.5;"/>
    <path clip-path="url(#pd31c8f92a3)" d="M 380.068919 474.661798 
L 380.068919 558.045142 
L 380.068919 474.661798 
L 380.068919 474.661798 
z
" style="fill:#c957db;fill-opacity:0.2;stroke:#c957db;stroke-opacity:0.2;stroke-width:0.5;"/>
   </g>
   <g id="line2d_99">
    <path clip-path="url(#pd31c8f92a3)" d="M 305.590909 583.024405 
L 306.539674 456.558264 
L 309.939413 481.260788 
L 314.683235 480.673923 
L 315.632 481.465061 
L 322.352414 505.602914 
L 330.021594 482.841471 
L 330.970358 630.72 
L 331.049422 589.324365 
L 333.263206 501.27274 
L 334.607289 545.696679 
L 335.397926 471.257079 
L 344.569315 498.819625 
L 344.727443 565.515454 
L 350.973475 543.627987 
L 354.68947 429.12 
L 355.163852 500.709323 
L 362.437713 604.163576 
L 376.90637 562.793415 
L 378.092326 482.910897 
L 380.068919 512.604371 
L 382.045511 548.496586 
L 386.473079 581.149276 
L 387.738098 580.88016 
L 389.477499 447.24978 
L 391.533156 446.974102 
L 392.956302 618.586038 
L 396.039787 551.141624 
L 397.621061 574.54469 
L 403.78803 608.773963 
L 405.764623 499.411506 
L 407.42496 507.002916 
L 410.19219 507.32105 
L 412.010655 517.320899 
L 420.549535 611.107331 
L 426.083995 604.085321 
L 432.409091 629.253997 
" style="fill:none;stroke:#c957db;stroke-linecap:round;stroke-width:1.5;"/>
   </g>
   <g id="patch_23">
    <path d="M 299.25 640.8 
L 299.25 419.04 
" style="fill:none;stroke:#cccccc;stroke-linecap:square;stroke-linejoin:miter;"/>
   </g>
   <g id="patch_24">
    <path d="M 438.75 640.8 
L 438.75 419.04 
" style="fill:none;stroke:#cccccc;stroke-linecap:square;stroke-linejoin:miter;"/>
   </g>
   <g id="patch_25">
    <path d="M 299.25 640.8 
L 438.75 640.8 
" style="fill:none;stroke:#cccccc;stroke-linecap:square;stroke-linejoin:miter;"/>
   </g>
   <g id="patch_26">
    <path d="M 299.25 419.04 
L 438.75 419.04 
" style="fill:none;stroke:#cccccc;stroke-linecap:square;stroke-linejoin:miter;"/>
   </g>
   <g id="text_62">
    <!-- cabins -->
    <defs>
     <path d="M 51.421875 26.65625 
Q 51.421875 -0.984375 31.984375 -0.984375 
Q 25.984375 -0.984375 22 1.1875 
Q 18.015625 3.375 15.53125 8.203125 
L 15.4375 8.203125 
Q 15.4375 6.6875 15.234375 3.578125 
Q 15.046875 0.484375 14.9375 0 
L 6.453125 0 
Q 6.734375 2.640625 6.734375 10.890625 
L 6.734375 72.46875 
L 15.53125 72.46875 
L 15.53125 51.8125 
Q 15.53125 48.640625 15.328125 44.34375 
L 15.53125 44.34375 
Q 17.96875 49.421875 22 51.609375 
Q 26.03125 53.8125 31.984375 53.8125 
Q 42 53.8125 46.703125 47.0625 
Q 51.421875 40.328125 51.421875 26.65625 
z
M 42.1875 26.375 
Q 42.1875 37.453125 39.25 42.234375 
Q 36.328125 47.015625 29.734375 47.015625 
Q 22.3125 47.015625 18.921875 41.9375 
Q 15.53125 36.859375 15.53125 25.828125 
Q 15.53125 15.4375 18.84375 10.46875 
Q 22.171875 5.515625 29.640625 5.515625 
Q 36.28125 5.515625 39.234375 10.421875 
Q 42.1875 15.328125 42.1875 26.375 
z
" id="LiberationSans-98"/>
    </defs>
    <g style="fill:#262626;" transform="translate(348.188625 413.04)scale(0.144 -0.144)">
     <use xlink:href="#LiberationSans-99"/>
     <use x="50" xlink:href="#LiberationSans-97"/>
     <use x="105.615234" xlink:href="#LiberationSans-98"/>
     <use x="161.230469" xlink:href="#LiberationSans-105"/>
     <use x="183.447266" xlink:href="#LiberationSans-110"/>
     <use x="239.0625" xlink:href="#LiberationSans-115"/>
    </g>
   </g>
  </g>
  <g id="axes_6">
   <g id="patch_27">
    <path d="M 508.5 640.8 
L 648 640.8 
L 648 419.04 
L 508.5 419.04 
z
" style="fill:#ffffff;"/>
   </g>
   <g id="matplotlib.axis_11">
    <g id="xtick_17">
     <g id="line2d_100">
      <path clip-path="url(#p13548a6b17)" d="M 520.269568 640.8 
L 520.269568 419.04 
" style="fill:none;stroke:#cccccc;stroke-linecap:round;stroke-width:0.8;"/>
     </g>
     <g id="line2d_101"/>
     <g id="text_63">
      <!-- 20 -->
      <g style="fill:#262626;" transform="translate(514.70863 651.546875)scale(0.1 -0.1)">
       <use xlink:href="#LiberationSans-50"/>
       <use x="55.615234" xlink:href="#LiberationSans-48"/>
      </g>
     </g>
    </g>
    <g id="xtick_18">
     <g id="line2d_102">
      <path clip-path="url(#p13548a6b17)" d="M 567.475293 640.8 
L 567.475293 419.04 
" style="fill:none;stroke:#cccccc;stroke-linecap:round;stroke-width:0.8;"/>
     </g>
     <g id="line2d_103"/>
     <g id="text_64">
      <!-- 40 -->
      <g style="fill:#262626;" transform="translate(561.914356 651.546875)scale(0.1 -0.1)">
       <use xlink:href="#LiberationSans-52"/>
       <use x="55.615234" xlink:href="#LiberationSans-48"/>
      </g>
     </g>
    </g>
    <g id="xtick_19">
     <g id="line2d_104">
      <path clip-path="url(#p13548a6b17)" d="M 614.681019 640.8 
L 614.681019 419.04 
" style="fill:none;stroke:#cccccc;stroke-linecap:round;stroke-width:0.8;"/>
     </g>
     <g id="line2d_105"/>
     <g id="text_65">
      <!-- 60 -->
      <g style="fill:#262626;" transform="translate(609.120081 651.546875)scale(0.1 -0.1)">
       <use xlink:href="#LiberationSans-54"/>
       <use x="55.615234" xlink:href="#LiberationSans-48"/>
      </g>
     </g>
    </g>
    <g id="text_66">
     <!-- Value -->
     <g style="fill:#262626;" transform="translate(562.911562 666.318125)scale(0.12 -0.12)">
      <use xlink:href="#LiberationSans-86"/>
      <use x="66.589844" xlink:href="#LiberationSans-97"/>
      <use x="122.205078" xlink:href="#LiberationSans-108"/>
      <use x="144.421875" xlink:href="#LiberationSans-117"/>
      <use x="200.037109" xlink:href="#LiberationSans-101"/>
     </g>
    </g>
   </g>
   <g id="matplotlib.axis_12">
    <g id="ytick_32">
     <g id="line2d_106">
      <path clip-path="url(#p13548a6b17)" d="M 508.5 609.872756 
L 648 609.872756 
" style="fill:none;stroke:#cccccc;stroke-linecap:round;stroke-width:0.8;"/>
     </g>
     <g id="line2d_107"/>
     <g id="text_67">
      <!-- 2 -->
      <g style="fill:#262626;" transform="translate(499.439063 613.496194)scale(0.1 -0.1)">
       <use xlink:href="#LiberationSans-50"/>
      </g>
     </g>
    </g>
    <g id="ytick_33">
     <g id="line2d_108">
      <path clip-path="url(#p13548a6b17)" d="M 508.5 575.98396 
L 648 575.98396 
" style="fill:none;stroke:#cccccc;stroke-linecap:round;stroke-width:0.8;"/>
     </g>
     <g id="line2d_109"/>
     <g id="text_68">
      <!-- 4 -->
      <g style="fill:#262626;" transform="translate(499.439063 579.607398)scale(0.1 -0.1)">
       <use xlink:href="#LiberationSans-52"/>
      </g>
     </g>
    </g>
    <g id="ytick_34">
     <g id="line2d_110">
      <path clip-path="url(#p13548a6b17)" d="M 508.5 542.095164 
L 648 542.095164 
" style="fill:none;stroke:#cccccc;stroke-linecap:round;stroke-width:0.8;"/>
     </g>
     <g id="line2d_111"/>
     <g id="text_69">
      <!-- 6 -->
      <g style="fill:#262626;" transform="translate(499.439063 545.718602)scale(0.1 -0.1)">
       <use xlink:href="#LiberationSans-54"/>
      </g>
     </g>
    </g>
    <g id="ytick_35">
     <g id="line2d_112">
      <path clip-path="url(#p13548a6b17)" d="M 508.5 508.206368 
L 648 508.206368 
" style="fill:none;stroke:#cccccc;stroke-linecap:round;stroke-width:0.8;"/>
     </g>
     <g id="line2d_113"/>
     <g id="text_70">
      <!-- 8 -->
      <g style="fill:#262626;" transform="translate(499.439063 511.829806)scale(0.1 -0.1)">
       <use xlink:href="#LiberationSans-56"/>
      </g>
     </g>
    </g>
    <g id="ytick_36">
     <g id="line2d_114">
      <path clip-path="url(#p13548a6b17)" d="M 508.5 474.317572 
L 648 474.317572 
" style="fill:none;stroke:#cccccc;stroke-linecap:round;stroke-width:0.8;"/>
     </g>
     <g id="line2d_115"/>
     <g id="text_71">
      <!-- 10 -->
      <g style="fill:#262626;" transform="translate(493.878125 477.94101)scale(0.1 -0.1)">
       <use xlink:href="#LiberationSans-49"/>
       <use x="55.615234" xlink:href="#LiberationSans-48"/>
      </g>
     </g>
    </g>
    <g id="ytick_37">
     <g id="line2d_116">
      <path clip-path="url(#p13548a6b17)" d="M 508.5 440.428776 
L 648 440.428776 
" style="fill:none;stroke:#cccccc;stroke-linecap:round;stroke-width:0.8;"/>
     </g>
     <g id="line2d_117"/>
     <g id="text_72">
      <!-- 12 -->
      <g style="fill:#262626;" transform="translate(493.878125 444.052213)scale(0.1 -0.1)">
       <use xlink:href="#LiberationSans-49"/>
       <use x="55.615234" xlink:href="#LiberationSans-50"/>
      </g>
     </g>
    </g>
    <g id="text_73">
     <!-- Average Prediction -->
     <g style="fill:#262626;" transform="translate(487.388125 580.611562)rotate(-90)scale(0.12 -0.12)">
      <use xlink:href="#LiberationSans-65"/>
      <use x="66.683594" xlink:href="#LiberationSans-118"/>
      <use x="116.683594" xlink:href="#LiberationSans-101"/>
      <use x="172.298828" xlink:href="#LiberationSans-114"/>
      <use x="205.599609" xlink:href="#LiberationSans-97"/>
      <use x="261.214844" xlink:href="#LiberationSans-103"/>
      <use x="316.830078" xlink:href="#LiberationSans-101"/>
      <use x="372.445312" xlink:href="#LiberationSans-32"/>
      <use x="400.228516" xlink:href="#LiberationSans-80"/>
      <use x="466.927734" xlink:href="#LiberationSans-114"/>
      <use x="500.228516" xlink:href="#LiberationSans-101"/>
      <use x="555.84375" xlink:href="#LiberationSans-100"/>
      <use x="611.458984" xlink:href="#LiberationSans-105"/>
      <use x="633.675781" xlink:href="#LiberationSans-99"/>
      <use x="683.675781" xlink:href="#LiberationSans-116"/>
      <use x="711.458984" xlink:href="#LiberationSans-105"/>
      <use x="733.675781" xlink:href="#LiberationSans-111"/>
      <use x="789.291016" xlink:href="#LiberationSans-110"/>
     </g>
    </g>
   </g>
   <g id="PolyCollection_6">
    <path clip-path="url(#p13548a6b17)" d="M 559.94598 429.12 
L 559.94598 471.307273 
L 559.94598 429.12 
L 559.94598 429.12 
z
" style="fill:#db57d3;fill-opacity:0.2;stroke:#db57d3;stroke-opacity:0.2;stroke-width:0.5;"/>
    <path clip-path="url(#p13548a6b17)" d="M 577.530113 559.998742 
L 577.530113 612.38112 
L 578.757462 606.855722 
L 578.757462 480.204776 
L 578.757462 480.204776 
L 577.530113 559.998742 
z
" style="fill:#db57d3;fill-opacity:0.2;stroke:#db57d3;stroke-opacity:0.2;stroke-width:0.5;"/>
   </g>
   <g id="line2d_118">
    <path clip-path="url(#p13548a6b17)" d="M 514.840909 582.117155 
L 529.403875 446.10049 
L 531.551736 467.694981 
L 533.628788 463.949295 
L 538.986638 482.710005 
L 539.010241 498.594997 
L 543.37677 481.652039 
L 546.091099 481.703508 
L 547.955726 629.861936 
L 549.135869 579.818096 
L 549.914763 489.859694 
L 552.652695 541.364141 
L 556.004302 463.568215 
L 556.122316 498.569581 
L 557.986942 555.65297 
L 558.081354 542.684787 
L 559.94598 450.213636 
L 561.385755 591.39256 
L 562.235458 556.038667 
L 564.170892 477.499306 
L 564.760964 472.085359 
L 565.752284 553.189085 
L 566.224341 487.493197 
L 567.900145 531.853758 
L 568.655436 578.826383 
L 569.009479 579.549062 
L 570.520062 441.009249 
L 573.706449 439.353315 
L 577.530113 586.189931 
L 578.757462 555.009662 
L 579.725179 489.066061 
L 592.541533 489.028021 
L 607.033691 502.963348 
L 614.681019 609.138344 
L 632.029123 590.714276 
L 641.659091 630.72 
" style="fill:none;stroke:#db57d3;stroke-linecap:round;stroke-width:1.5;"/>
   </g>
   <g id="patch_28">
    <path d="M 508.5 640.8 
L 508.5 419.04 
" style="fill:none;stroke:#cccccc;stroke-linecap:square;stroke-linejoin:miter;"/>
   </g>
   <g id="patch_29">
    <path d="M 648 640.8 
L 648 419.04 
" style="fill:none;stroke:#cccccc;stroke-linecap:square;stroke-linejoin:miter;"/>
   </g>
   <g id="patch_30">
    <path d="M 508.5 640.8 
L 648 640.8 
" style="fill:none;stroke:#cccccc;stroke-linecap:square;stroke-linejoin:miter;"/>
   </g>
   <g id="patch_31">
    <path d="M 508.5 419.04 
L 648 419.04 
" style="fill:none;stroke:#cccccc;stroke-linecap:square;stroke-linejoin:miter;"/>
   </g>
   <g id="text_74">
    <!-- passenger_density -->
    <defs>
     <path d="M -1.515625 -19.875 
L -1.515625 -13.53125 
L 56.734375 -13.53125 
L 56.734375 -19.875 
z
" id="LiberationSans-95"/>
     <path d="M 9.328125 -20.75 
Q 5.71875 -20.75 3.265625 -20.21875 
L 3.265625 -13.625 
Q 5.125 -13.921875 7.375 -13.921875 
Q 15.578125 -13.921875 20.359375 -1.859375 
L 21.1875 0.25 
L 0.25 52.828125 
L 9.625 52.828125 
L 20.75 23.640625 
Q 21 22.953125 21.34375 22 
Q 21.6875 21.046875 23.53125 15.625 
Q 25.390625 10.203125 25.53125 9.578125 
L 28.953125 19.1875 
L 40.53125 52.828125 
L 49.8125 52.828125 
L 29.5 0 
Q 26.21875 -8.453125 23.390625 -12.578125 
Q 20.5625 -16.703125 17.109375 -18.71875 
Q 13.671875 -20.75 9.328125 -20.75 
z
" id="LiberationSans-121"/>
    </defs>
    <g style="fill:#262626;" transform="translate(517.813875 413.04)scale(0.144 -0.144)">
     <use xlink:href="#LiberationSans-112"/>
     <use x="55.615234" xlink:href="#LiberationSans-97"/>
     <use x="111.230469" xlink:href="#LiberationSans-115"/>
     <use x="161.230469" xlink:href="#LiberationSans-115"/>
     <use x="211.230469" xlink:href="#LiberationSans-101"/>
     <use x="266.845703" xlink:href="#LiberationSans-110"/>
     <use x="322.460938" xlink:href="#LiberationSans-103"/>
     <use x="378.076172" xlink:href="#LiberationSans-101"/>
     <use x="433.691406" xlink:href="#LiberationSans-114"/>
     <use x="466.992188" xlink:href="#LiberationSans-95"/>
     <use x="522.607422" xlink:href="#LiberationSans-100"/>
     <use x="578.222656" xlink:href="#LiberationSans-101"/>
     <use x="633.837891" xlink:href="#LiberationSans-110"/>
     <use x="689.453125" xlink:href="#LiberationSans-115"/>
     <use x="739.453125" xlink:href="#LiberationSans-105"/>
     <use x="761.669922" xlink:href="#LiberationSans-116"/>
     <use x="789.453125" xlink:href="#LiberationSans-121"/>
    </g>
   </g>
  </g>
 </g>
 <defs>
  <clipPath id="pbee94638a0">
   <rect height="221.76" width="139.5" x="90" y="86.4"/>
  </clipPath>
  <clipPath id="pb81d335324">
   <rect height="221.76" width="139.5" x="299.25" y="86.4"/>
  </clipPath>
  <clipPath id="p2dcc9884b2">
   <rect height="221.76" width="139.5" x="508.5" y="86.4"/>
  </clipPath>
  <clipPath id="pe1e0298a41">
   <rect height="221.76" width="139.5" x="90" y="419.04"/>
  </clipPath>
  <clipPath id="pd31c8f92a3">
   <rect height="221.76" width="139.5" x="299.25" y="419.04"/>
  </clipPath>
  <clipPath id="p13548a6b17">
   <rect height="221.76" width="139.5" x="508.5" y="419.04"/>
  </clipPath>
 </defs>
</svg>
