<?xml version="1.0" encoding="utf-8" standalone="no"?>
<!DOCTYPE svg PUBLIC "-//W3C//DTD SVG 1.1//EN"
  "http://www.w3.org/Graphics/SVG/1.1/DTD/svg11.dtd">
<!-- Created with matplotlib (https://matplotlib.org/) -->
<svg height="720pt" version="1.1" viewBox="0 0 720 720" width="720pt" xmlns="http://www.w3.org/2000/svg" xmlns:xlink="http://www.w3.org/1999/xlink">
 <defs>
  <style type="text/css">
*{stroke-linecap:butt;stroke-linejoin:round;}
  </style>
 </defs>
 <g id="figure_1">
  <g id="patch_1">
   <path d="M 0 720 
L 720 720 
L 720 0 
L 0 0 
z
" style="fill:#ffffff;"/>
  </g>
  <g id="axes_1">
   <g id="patch_2">
    <path d="M 90 249.458824 
L 648 249.458824 
L 648 86.4 
L 90 86.4 
z
" style="fill:#e5e5e5;"/>
   </g>
   <g id="matplotlib.axis_1">
    <g id="xtick_1">
     <g id="line2d_1">
      <path clip-path="url(#p9785af62a7)" d="M 90 249.458824 
L 90 86.4 
" style="fill:none;stroke:#ffffff;stroke-linecap:round;stroke-width:0.8;"/>
     </g>
     <g id="line2d_2"/>
     <g id="text_1">
      <!-- 0 -->
      <defs>
       <path d="M 51.703125 34.421875 
Q 51.703125 17.1875 45.625 8.09375 
Q 39.546875 -0.984375 27.6875 -0.984375 
Q 15.828125 -0.984375 9.859375 8.046875 
Q 3.90625 17.09375 3.90625 34.421875 
Q 3.90625 52.15625 9.6875 60.984375 
Q 15.484375 69.828125 27.984375 69.828125 
Q 40.140625 69.828125 45.921875 60.890625 
Q 51.703125 51.953125 51.703125 34.421875 
z
M 42.78125 34.421875 
Q 42.78125 49.3125 39.328125 56 
Q 35.890625 62.703125 27.984375 62.703125 
Q 19.875 62.703125 16.328125 56.109375 
Q 12.796875 49.515625 12.796875 34.421875 
Q 12.796875 19.78125 16.375 12.984375 
Q 19.96875 6.203125 27.78125 6.203125 
Q 35.546875 6.203125 39.15625 13.125 
Q 42.78125 20.0625 42.78125 34.421875 
z
" id="LiberationSans-48"/>
      </defs>
      <g style="fill:#555555;" transform="translate(87.219531 260.205699)scale(0.1 -0.1)">
       <use xlink:href="#LiberationSans-48"/>
      </g>
     </g>
    </g>
    <g id="xtick_2">
     <g id="line2d_3">
      <path clip-path="url(#p9785af62a7)" d="M 162.643292 249.458824 
L 162.643292 86.4 
" style="fill:none;stroke:#ffffff;stroke-linecap:round;stroke-width:0.8;"/>
     </g>
     <g id="line2d_4"/>
     <g id="text_2">
      <!-- 10 -->
      <defs>
       <path d="M 7.625 0 
L 7.625 7.46875 
L 25.140625 7.46875 
L 25.140625 60.40625 
L 9.625 49.3125 
L 9.625 57.625 
L 25.875 68.796875 
L 33.984375 68.796875 
L 33.984375 7.46875 
L 50.734375 7.46875 
L 50.734375 0 
z
" id="LiberationSans-49"/>
      </defs>
      <g style="fill:#555555;" transform="translate(157.082354 260.205699)scale(0.1 -0.1)">
       <use xlink:href="#LiberationSans-49"/>
       <use x="55.615234" xlink:href="#LiberationSans-48"/>
      </g>
     </g>
    </g>
    <g id="xtick_3">
     <g id="line2d_5">
      <path clip-path="url(#p9785af62a7)" d="M 235.286583 249.458824 
L 235.286583 86.4 
" style="fill:none;stroke:#ffffff;stroke-linecap:round;stroke-width:0.8;"/>
     </g>
     <g id="line2d_6"/>
     <g id="text_3">
      <!-- 20 -->
      <defs>
       <path d="M 5.03125 0 
L 5.03125 6.203125 
Q 7.515625 11.921875 11.109375 16.28125 
Q 14.703125 20.65625 18.65625 24.1875 
Q 22.609375 27.734375 26.484375 30.765625 
Q 30.375 33.796875 33.5 36.8125 
Q 36.625 39.84375 38.546875 43.15625 
Q 40.484375 46.484375 40.484375 50.6875 
Q 40.484375 56.34375 37.15625 59.46875 
Q 33.84375 62.59375 27.9375 62.59375 
Q 22.3125 62.59375 18.671875 59.546875 
Q 15.046875 56.5 14.40625 50.984375 
L 5.421875 51.8125 
Q 6.390625 60.0625 12.421875 64.9375 
Q 18.453125 69.828125 27.9375 69.828125 
Q 38.328125 69.828125 43.921875 64.921875 
Q 49.515625 60.015625 49.515625 50.984375 
Q 49.515625 46.96875 47.671875 43.015625 
Q 45.84375 39.0625 42.234375 35.109375 
Q 38.625 31.15625 28.421875 22.859375 
Q 22.796875 18.265625 19.46875 14.578125 
Q 16.15625 10.890625 14.703125 7.46875 
L 50.59375 7.46875 
L 50.59375 0 
z
" id="LiberationSans-50"/>
      </defs>
      <g style="fill:#555555;" transform="translate(229.725646 260.205699)scale(0.1 -0.1)">
       <use xlink:href="#LiberationSans-50"/>
       <use x="55.615234" xlink:href="#LiberationSans-48"/>
      </g>
     </g>
    </g>
    <g id="xtick_4">
     <g id="line2d_7">
      <path clip-path="url(#p9785af62a7)" d="M 307.929875 249.458824 
L 307.929875 86.4 
" style="fill:none;stroke:#ffffff;stroke-linecap:round;stroke-width:0.8;"/>
     </g>
     <g id="line2d_8"/>
     <g id="text_4">
      <!-- 30 -->
      <defs>
       <path d="M 51.21875 19 
Q 51.21875 9.46875 45.15625 4.234375 
Q 39.109375 -0.984375 27.875 -0.984375 
Q 17.4375 -0.984375 11.203125 3.734375 
Q 4.984375 8.453125 3.8125 17.671875 
L 12.890625 18.5 
Q 14.65625 6.296875 27.875 6.296875 
Q 34.515625 6.296875 38.296875 9.5625 
Q 42.09375 12.84375 42.09375 19.28125 
Q 42.09375 24.90625 37.765625 28.046875 
Q 33.453125 31.203125 25.296875 31.203125 
L 20.3125 31.203125 
L 20.3125 38.8125 
L 25.09375 38.8125 
Q 32.328125 38.8125 36.296875 41.96875 
Q 40.28125 45.125 40.28125 50.6875 
Q 40.28125 56.203125 37.03125 59.390625 
Q 33.796875 62.59375 27.390625 62.59375 
Q 21.578125 62.59375 17.984375 59.609375 
Q 14.40625 56.640625 13.8125 51.21875 
L 4.984375 51.90625 
Q 5.953125 60.359375 11.984375 65.09375 
Q 18.015625 69.828125 27.484375 69.828125 
Q 37.84375 69.828125 43.578125 65.015625 
Q 49.3125 60.203125 49.3125 51.609375 
Q 49.3125 45.015625 45.625 40.890625 
Q 41.9375 36.765625 34.90625 35.296875 
L 34.90625 35.109375 
Q 42.625 34.28125 46.921875 29.9375 
Q 51.21875 25.59375 51.21875 19 
z
" id="LiberationSans-51"/>
      </defs>
      <g style="fill:#555555;" transform="translate(302.368937 260.205699)scale(0.1 -0.1)">
       <use xlink:href="#LiberationSans-51"/>
       <use x="55.615234" xlink:href="#LiberationSans-48"/>
      </g>
     </g>
    </g>
    <g id="xtick_5">
     <g id="line2d_9">
      <path clip-path="url(#p9785af62a7)" d="M 380.573166 249.458824 
L 380.573166 86.4 
" style="fill:none;stroke:#ffffff;stroke-linecap:round;stroke-width:0.8;"/>
     </g>
     <g id="line2d_10"/>
     <g id="text_5">
      <!-- 40 -->
      <defs>
       <path d="M 43.015625 15.578125 
L 43.015625 0 
L 34.71875 0 
L 34.71875 15.578125 
L 2.296875 15.578125 
L 2.296875 22.40625 
L 33.796875 68.796875 
L 43.015625 68.796875 
L 43.015625 22.515625 
L 52.6875 22.515625 
L 52.6875 15.578125 
z
M 34.71875 58.890625 
Q 34.625 58.59375 33.34375 56.296875 
Q 32.078125 54 31.453125 53.078125 
L 13.8125 27.09375 
L 11.1875 23.484375 
L 10.40625 22.515625 
L 34.71875 22.515625 
z
" id="LiberationSans-52"/>
      </defs>
      <g style="fill:#555555;" transform="translate(375.012229 260.205699)scale(0.1 -0.1)">
       <use xlink:href="#LiberationSans-52"/>
       <use x="55.615234" xlink:href="#LiberationSans-48"/>
      </g>
     </g>
    </g>
    <g id="xtick_6">
     <g id="line2d_11">
      <path clip-path="url(#p9785af62a7)" d="M 453.216458 249.458824 
L 453.216458 86.4 
" style="fill:none;stroke:#ffffff;stroke-linecap:round;stroke-width:0.8;"/>
     </g>
     <g id="line2d_12"/>
     <g id="text_6">
      <!-- 50 -->
      <defs>
       <path d="M 51.421875 22.40625 
Q 51.421875 11.53125 44.953125 5.265625 
Q 38.484375 -0.984375 27 -0.984375 
Q 17.390625 -0.984375 11.46875 3.21875 
Q 5.5625 7.421875 4 15.375 
L 12.890625 16.40625 
Q 15.671875 6.203125 27.203125 6.203125 
Q 34.28125 6.203125 38.28125 10.46875 
Q 42.28125 14.75 42.28125 22.21875 
Q 42.28125 28.71875 38.25 32.71875 
Q 34.234375 36.71875 27.390625 36.71875 
Q 23.828125 36.71875 20.75 35.59375 
Q 17.671875 34.46875 14.59375 31.78125 
L 6 31.78125 
L 8.296875 68.796875 
L 47.40625 68.796875 
L 47.40625 61.328125 
L 16.3125 61.328125 
L 14.984375 39.5 
Q 20.703125 43.890625 29.203125 43.890625 
Q 39.359375 43.890625 45.390625 37.9375 
Q 51.421875 31.984375 51.421875 22.40625 
z
" id="LiberationSans-53"/>
      </defs>
      <g style="fill:#555555;" transform="translate(447.65552 260.205699)scale(0.1 -0.1)">
       <use xlink:href="#LiberationSans-53"/>
       <use x="55.615234" xlink:href="#LiberationSans-48"/>
      </g>
     </g>
    </g>
    <g id="xtick_7">
     <g id="line2d_13">
      <path clip-path="url(#p9785af62a7)" d="M 525.859749 249.458824 
L 525.859749 86.4 
" style="fill:none;stroke:#ffffff;stroke-linecap:round;stroke-width:0.8;"/>
     </g>
     <g id="line2d_14"/>
     <g id="text_7">
      <!-- 60 -->
      <defs>
       <path d="M 51.21875 22.515625 
Q 51.21875 11.625 45.3125 5.3125 
Q 39.40625 -0.984375 29 -0.984375 
Q 17.390625 -0.984375 11.234375 7.65625 
Q 5.078125 16.3125 5.078125 32.8125 
Q 5.078125 50.6875 11.46875 60.25 
Q 17.875 69.828125 29.6875 69.828125 
Q 45.265625 69.828125 49.3125 55.8125 
L 40.921875 54.296875 
Q 38.328125 62.703125 29.59375 62.703125 
Q 22.078125 62.703125 17.9375 55.6875 
Q 13.8125 48.6875 13.8125 35.40625 
Q 16.21875 39.84375 20.5625 42.15625 
Q 24.90625 44.484375 30.515625 44.484375 
Q 40.046875 44.484375 45.625 38.515625 
Q 51.21875 32.5625 51.21875 22.515625 
z
M 42.28125 22.125 
Q 42.28125 29.59375 38.625 33.640625 
Q 34.96875 37.703125 28.421875 37.703125 
Q 22.265625 37.703125 18.484375 34.109375 
Q 14.703125 30.515625 14.703125 24.21875 
Q 14.703125 16.265625 18.625 11.1875 
Q 22.5625 6.109375 28.71875 6.109375 
Q 35.0625 6.109375 38.671875 10.375 
Q 42.28125 14.65625 42.28125 22.125 
z
" id="LiberationSans-54"/>
      </defs>
      <g style="fill:#555555;" transform="translate(520.298812 260.205699)scale(0.1 -0.1)">
       <use xlink:href="#LiberationSans-54"/>
       <use x="55.615234" xlink:href="#LiberationSans-48"/>
      </g>
     </g>
    </g>
    <g id="xtick_8">
     <g id="line2d_15">
      <path clip-path="url(#p9785af62a7)" d="M 598.503041 249.458824 
L 598.503041 86.4 
" style="fill:none;stroke:#ffffff;stroke-linecap:round;stroke-width:0.8;"/>
     </g>
     <g id="line2d_16"/>
     <g id="text_8">
      <!-- 70 -->
      <defs>
       <path d="M 50.59375 61.671875 
Q 40.046875 45.5625 35.6875 36.421875 
Q 31.34375 27.296875 29.171875 18.40625 
Q 27 9.515625 27 0 
L 17.828125 0 
Q 17.828125 13.1875 23.40625 27.75 
Q 29 42.328125 42.09375 61.328125 
L 5.125 61.328125 
L 5.125 68.796875 
L 50.59375 68.796875 
z
" id="LiberationSans-55"/>
      </defs>
      <g style="fill:#555555;" transform="translate(592.942103 260.205699)scale(0.1 -0.1)">
       <use xlink:href="#LiberationSans-55"/>
       <use x="55.615234" xlink:href="#LiberationSans-48"/>
      </g>
     </g>
    </g>
   </g>
   <g id="matplotlib.axis_2">
    <g id="ytick_1">
     <g id="line2d_17">
      <path clip-path="url(#p9785af62a7)" d="M 90 232.635294 
L 648 232.635294 
" style="fill:none;stroke:#ffffff;stroke-linecap:round;stroke-width:0.8;"/>
     </g>
     <g id="line2d_18"/>
     <g id="text_9">
      <!-- Age -->
      <defs>
       <path d="M 56.984375 0 
L 49.125 20.125 
L 17.78125 20.125 
L 9.859375 0 
L 0.203125 0 
L 28.265625 68.796875 
L 38.875 68.796875 
L 66.5 0 
z
M 33.453125 61.765625 
L 33.015625 60.40625 
Q 31.78125 56.34375 29.390625 50 
L 20.609375 27.390625 
L 46.34375 27.390625 
L 37.5 50.09375 
Q 36.140625 53.46875 34.765625 57.71875 
z
" id="LiberationSans-65"/>
       <path d="M 26.765625 -20.75 
Q 18.109375 -20.75 12.984375 -17.359375 
Q 7.859375 -13.96875 6.390625 -7.71875 
L 15.234375 -6.453125 
Q 16.109375 -10.109375 19.109375 -12.078125 
Q 22.125 -14.0625 27 -14.0625 
Q 40.140625 -14.0625 40.140625 1.3125 
L 40.140625 9.8125 
L 40.046875 9.8125 
Q 37.546875 4.734375 33.203125 2.171875 
Q 28.859375 -0.390625 23.046875 -0.390625 
Q 13.328125 -0.390625 8.765625 6.046875 
Q 4.203125 12.5 4.203125 26.3125 
Q 4.203125 40.328125 9.109375 46.984375 
Q 14.015625 53.65625 24.03125 53.65625 
Q 29.640625 53.65625 33.765625 51.09375 
Q 37.890625 48.53125 40.140625 43.796875 
L 40.234375 43.796875 
Q 40.234375 45.265625 40.421875 48.875 
Q 40.625 52.484375 40.828125 52.828125 
L 49.171875 52.828125 
Q 48.875 50.203125 48.875 41.890625 
L 48.875 1.515625 
Q 48.875 -20.75 26.765625 -20.75 
z
M 40.140625 26.421875 
Q 40.140625 32.859375 38.375 37.515625 
Q 36.625 42.1875 33.421875 44.65625 
Q 30.21875 47.125 26.171875 47.125 
Q 19.4375 47.125 16.359375 42.234375 
Q 13.28125 37.359375 13.28125 26.421875 
Q 13.28125 15.578125 16.15625 10.84375 
Q 19.046875 6.109375 26.03125 6.109375 
Q 30.171875 6.109375 33.390625 8.546875 
Q 36.625 10.984375 38.375 15.546875 
Q 40.140625 20.125 40.140625 26.421875 
z
" id="LiberationSans-103"/>
       <path d="M 13.484375 24.5625 
Q 13.484375 15.484375 17.234375 10.546875 
Q 21 5.609375 28.21875 5.609375 
Q 33.9375 5.609375 37.375 7.90625 
Q 40.828125 10.203125 42.046875 13.71875 
L 49.75 11.53125 
Q 45.015625 -0.984375 28.21875 -0.984375 
Q 16.5 -0.984375 10.375 6 
Q 4.25 12.984375 4.25 26.765625 
Q 4.25 39.84375 10.375 46.828125 
Q 16.5 53.8125 27.875 53.8125 
Q 51.171875 53.8125 51.171875 25.734375 
L 51.171875 24.5625 
z
M 42.09375 31.296875 
Q 41.359375 39.65625 37.84375 43.484375 
Q 34.328125 47.3125 27.734375 47.3125 
Q 21.34375 47.3125 17.609375 43.03125 
Q 13.875 38.765625 13.578125 31.296875 
z
" id="LiberationSans-101"/>
      </defs>
      <g style="fill:#555555;" transform="translate(76.750533 242.4081)rotate(-45)scale(0.0694 -0.0694)">
       <use xlink:href="#LiberationSans-65"/>
       <use x="66.699219" xlink:href="#LiberationSans-103"/>
       <use x="122.314453" xlink:href="#LiberationSans-101"/>
      </g>
     </g>
    </g>
    <g id="ytick_2">
     <g id="line2d_19">
      <path clip-path="url(#p9785af62a7)" d="M 90 206.752941 
L 648 206.752941 
" style="fill:none;stroke:#ffffff;stroke-linecap:round;stroke-width:0.8;"/>
     </g>
     <g id="line2d_20"/>
     <g id="text_10">
      <!-- Tonnage -->
      <defs>
       <path d="M 35.15625 61.1875 
L 35.15625 0 
L 25.875 0 
L 25.875 61.1875 
L 2.25 61.1875 
L 2.25 68.796875 
L 58.796875 68.796875 
L 58.796875 61.1875 
z
" id="LiberationSans-84"/>
       <path d="M 51.421875 26.46875 
Q 51.421875 12.59375 45.3125 5.796875 
Q 39.203125 -0.984375 27.59375 -0.984375 
Q 16.015625 -0.984375 10.109375 6.078125 
Q 4.203125 13.140625 4.203125 26.46875 
Q 4.203125 53.8125 27.875 53.8125 
Q 39.984375 53.8125 45.703125 47.140625 
Q 51.421875 40.484375 51.421875 26.46875 
z
M 42.1875 26.46875 
Q 42.1875 37.40625 38.9375 42.359375 
Q 35.6875 47.3125 28.03125 47.3125 
Q 20.3125 47.3125 16.859375 42.25 
Q 13.421875 37.203125 13.421875 26.46875 
Q 13.421875 16.015625 16.8125 10.765625 
Q 20.21875 5.515625 27.484375 5.515625 
Q 35.40625 5.515625 38.796875 10.59375 
Q 42.1875 15.671875 42.1875 26.46875 
z
" id="LiberationSans-111"/>
       <path d="M 40.28125 0 
L 40.28125 33.5 
Q 40.28125 38.71875 39.25 41.59375 
Q 38.234375 44.484375 35.984375 45.75 
Q 33.734375 47.015625 29.390625 47.015625 
Q 23.046875 47.015625 19.375 42.671875 
Q 15.71875 38.328125 15.71875 30.609375 
L 15.71875 0 
L 6.9375 0 
L 6.9375 41.546875 
Q 6.9375 50.78125 6.640625 52.828125 
L 14.9375 52.828125 
Q 14.984375 52.59375 15.03125 51.515625 
Q 15.09375 50.4375 15.15625 49.046875 
Q 15.234375 47.65625 15.328125 43.796875 
L 15.484375 43.796875 
Q 18.5 49.265625 22.484375 51.53125 
Q 26.46875 53.8125 32.375 53.8125 
Q 41.0625 53.8125 45.09375 49.484375 
Q 49.125 45.171875 49.125 35.203125 
L 49.125 0 
z
" id="LiberationSans-110"/>
       <path d="M 20.21875 -0.984375 
Q 12.25 -0.984375 8.25 3.21875 
Q 4.25 7.421875 4.25 14.75 
Q 4.25 22.953125 9.640625 27.34375 
Q 15.046875 31.734375 27.046875 32.03125 
L 38.921875 32.234375 
L 38.921875 35.109375 
Q 38.921875 41.546875 36.1875 44.328125 
Q 33.453125 47.125 27.59375 47.125 
Q 21.6875 47.125 19 45.109375 
Q 16.3125 43.109375 15.765625 38.71875 
L 6.59375 39.546875 
Q 8.84375 53.8125 27.78125 53.8125 
Q 37.75 53.8125 42.765625 49.234375 
Q 47.796875 44.671875 47.796875 36.03125 
L 47.796875 13.28125 
Q 47.796875 9.375 48.828125 7.390625 
Q 49.859375 5.421875 52.734375 5.421875 
Q 54 5.421875 55.609375 5.765625 
L 55.609375 0.296875 
Q 52.296875 -0.484375 48.828125 -0.484375 
Q 43.953125 -0.484375 41.71875 2.078125 
Q 39.5 4.640625 39.203125 10.109375 
L 38.921875 10.109375 
Q 35.546875 4.046875 31.078125 1.53125 
Q 26.609375 -0.984375 20.21875 -0.984375 
z
M 22.21875 5.609375 
Q 27.046875 5.609375 30.8125 7.8125 
Q 34.578125 10.015625 36.75 13.84375 
Q 38.921875 17.671875 38.921875 21.734375 
L 38.921875 26.078125 
L 29.296875 25.875 
Q 23.09375 25.78125 19.890625 24.609375 
Q 16.703125 23.4375 14.984375 21 
Q 13.28125 18.5625 13.28125 14.59375 
Q 13.28125 10.296875 15.59375 7.953125 
Q 17.921875 5.609375 22.21875 5.609375 
z
" id="LiberationSans-97"/>
      </defs>
      <g style="fill:#555555;" transform="translate(66.119282 227.156998)rotate(-45)scale(0.0694 -0.0694)">
       <use xlink:href="#LiberationSans-84"/>
       <use x="60.912109" xlink:href="#LiberationSans-111"/>
       <use x="116.527344" xlink:href="#LiberationSans-110"/>
       <use x="172.142578" xlink:href="#LiberationSans-110"/>
       <use x="227.757812" xlink:href="#LiberationSans-97"/>
       <use x="283.373047" xlink:href="#LiberationSans-103"/>
       <use x="338.988281" xlink:href="#LiberationSans-101"/>
      </g>
     </g>
    </g>
    <g id="ytick_3">
     <g id="line2d_21">
      <path clip-path="url(#p9785af62a7)" d="M 90 180.870588 
L 648 180.870588 
" style="fill:none;stroke:#ffffff;stroke-linecap:round;stroke-width:0.8;"/>
     </g>
     <g id="line2d_22"/>
     <g id="text_11">
      <!-- passenger_density -->
      <defs>
       <path d="M 51.421875 26.65625 
Q 51.421875 -0.984375 31.984375 -0.984375 
Q 19.78125 -0.984375 15.578125 8.203125 
L 15.328125 8.203125 
Q 15.53125 7.8125 15.53125 -0.09375 
L 15.53125 -20.75 
L 6.734375 -20.75 
L 6.734375 42.046875 
Q 6.734375 50.203125 6.453125 52.828125 
L 14.9375 52.828125 
Q 14.984375 52.640625 15.078125 51.4375 
Q 15.1875 50.25 15.3125 47.75 
Q 15.4375 45.265625 15.4375 44.34375 
L 15.625 44.34375 
Q 17.96875 49.21875 21.828125 51.484375 
Q 25.6875 53.765625 31.984375 53.765625 
Q 41.75 53.765625 46.578125 47.21875 
Q 51.421875 40.671875 51.421875 26.65625 
z
M 42.1875 26.46875 
Q 42.1875 37.5 39.203125 42.234375 
Q 36.234375 46.96875 29.734375 46.96875 
Q 24.515625 46.96875 21.5625 44.765625 
Q 18.609375 42.578125 17.0625 37.90625 
Q 15.53125 33.25 15.53125 25.78125 
Q 15.53125 15.375 18.84375 10.4375 
Q 22.171875 5.515625 29.640625 5.515625 
Q 36.1875 5.515625 39.1875 10.328125 
Q 42.1875 15.140625 42.1875 26.46875 
z
" id="LiberationSans-112"/>
       <path d="M 46.390625 14.59375 
Q 46.390625 7.125 40.75 3.0625 
Q 35.109375 -0.984375 24.953125 -0.984375 
Q 15.09375 -0.984375 9.734375 2.265625 
Q 4.390625 5.515625 2.78125 12.40625 
L 10.546875 13.921875 
Q 11.671875 9.671875 15.1875 7.6875 
Q 18.703125 5.71875 24.953125 5.71875 
Q 31.640625 5.71875 34.734375 7.765625 
Q 37.84375 9.8125 37.84375 13.921875 
Q 37.84375 17.046875 35.6875 19 
Q 33.546875 20.953125 28.765625 22.21875 
L 22.46875 23.875 
Q 14.890625 25.828125 11.6875 27.703125 
Q 8.5 29.59375 6.6875 32.28125 
Q 4.890625 34.96875 4.890625 38.875 
Q 4.890625 46.09375 10.03125 49.875 
Q 15.1875 53.65625 25.046875 53.65625 
Q 33.796875 53.65625 38.9375 50.578125 
Q 44.09375 47.515625 45.453125 40.71875 
L 37.546875 39.75 
Q 36.8125 43.265625 33.609375 45.140625 
Q 30.421875 47.015625 25.046875 47.015625 
Q 19.09375 47.015625 16.25 45.203125 
Q 13.421875 43.40625 13.421875 39.75 
Q 13.421875 37.5 14.59375 36.03125 
Q 15.765625 34.578125 18.0625 33.546875 
Q 20.359375 32.515625 27.734375 30.71875 
Q 34.71875 28.953125 37.796875 27.46875 
Q 40.875 25.984375 42.65625 24.171875 
Q 44.4375 22.359375 45.40625 19.984375 
Q 46.390625 17.625 46.390625 14.59375 
z
" id="LiberationSans-115"/>
       <path d="M 6.9375 0 
L 6.9375 40.53125 
Q 6.9375 46.09375 6.640625 52.828125 
L 14.9375 52.828125 
Q 15.328125 43.84375 15.328125 42.046875 
L 15.53125 42.046875 
Q 17.625 48.828125 20.359375 51.3125 
Q 23.09375 53.8125 28.078125 53.8125 
Q 29.828125 53.8125 31.640625 53.328125 
L 31.640625 45.265625 
Q 29.890625 45.75 26.953125 45.75 
Q 21.484375 45.75 18.59375 41.03125 
Q 15.71875 36.328125 15.71875 27.546875 
L 15.71875 0 
z
" id="LiberationSans-114"/>
       <path d="M -1.515625 -19.875 
L -1.515625 -13.53125 
L 56.734375 -13.53125 
L 56.734375 -19.875 
z
" id="LiberationSans-95"/>
       <path d="M 40.09375 8.5 
Q 37.640625 3.421875 33.609375 1.21875 
Q 29.59375 -0.984375 23.640625 -0.984375 
Q 13.625 -0.984375 8.90625 5.75 
Q 4.203125 12.5 4.203125 26.171875 
Q 4.203125 53.8125 23.640625 53.8125 
Q 29.640625 53.8125 33.640625 51.609375 
Q 37.640625 49.421875 40.09375 44.625 
L 40.1875 44.625 
L 40.09375 50.53125 
L 40.09375 72.46875 
L 48.875 72.46875 
L 48.875 10.890625 
Q 48.875 2.640625 49.171875 0 
L 40.765625 0 
Q 40.625 0.78125 40.453125 3.609375 
Q 40.28125 6.453125 40.28125 8.5 
z
M 13.421875 26.46875 
Q 13.421875 15.375 16.34375 10.59375 
Q 19.28125 5.8125 25.875 5.8125 
Q 33.34375 5.8125 36.71875 10.984375 
Q 40.09375 16.15625 40.09375 27.046875 
Q 40.09375 37.546875 36.71875 42.421875 
Q 33.34375 47.3125 25.984375 47.3125 
Q 19.34375 47.3125 16.375 42.40625 
Q 13.421875 37.5 13.421875 26.46875 
z
" id="LiberationSans-100"/>
       <path d="M 6.6875 64.0625 
L 6.6875 72.46875 
L 15.484375 72.46875 
L 15.484375 64.0625 
z
M 6.6875 0 
L 6.6875 52.828125 
L 15.484375 52.828125 
L 15.484375 0 
z
" id="LiberationSans-105"/>
       <path d="M 27.046875 0.390625 
Q 22.703125 -0.78125 18.171875 -0.78125 
Q 7.625 -0.78125 7.625 11.1875 
L 7.625 46.4375 
L 1.515625 46.4375 
L 1.515625 52.828125 
L 7.953125 52.828125 
L 10.546875 64.65625 
L 16.40625 64.65625 
L 16.40625 52.828125 
L 26.171875 52.828125 
L 26.171875 46.4375 
L 16.40625 46.4375 
L 16.40625 13.09375 
Q 16.40625 9.28125 17.640625 7.734375 
Q 18.890625 6.203125 21.96875 6.203125 
Q 23.734375 6.203125 27.046875 6.890625 
z
" id="LiberationSans-116"/>
       <path d="M 9.328125 -20.75 
Q 5.71875 -20.75 3.265625 -20.21875 
L 3.265625 -13.625 
Q 5.125 -13.921875 7.375 -13.921875 
Q 15.578125 -13.921875 20.359375 -1.859375 
L 21.1875 0.25 
L 0.25 52.828125 
L 9.625 52.828125 
L 20.75 23.640625 
Q 21 22.953125 21.34375 22 
Q 21.6875 21.046875 23.53125 15.625 
Q 25.390625 10.203125 25.53125 9.578125 
L 28.953125 19.1875 
L 40.53125 52.828125 
L 49.8125 52.828125 
L 29.5 0 
Q 26.21875 -8.453125 23.390625 -12.578125 
Q 20.5625 -16.703125 17.109375 -18.71875 
Q 13.671875 -20.75 9.328125 -20.75 
z
" id="LiberationSans-121"/>
      </defs>
      <g style="fill:#555555;" transform="translate(44.290138 223.10379)rotate(-45)scale(0.0694 -0.0694)">
       <use xlink:href="#LiberationSans-112"/>
       <use x="55.615234" xlink:href="#LiberationSans-97"/>
       <use x="111.230469" xlink:href="#LiberationSans-115"/>
       <use x="161.230469" xlink:href="#LiberationSans-115"/>
       <use x="211.230469" xlink:href="#LiberationSans-101"/>
       <use x="266.845703" xlink:href="#LiberationSans-110"/>
       <use x="322.460938" xlink:href="#LiberationSans-103"/>
       <use x="378.076172" xlink:href="#LiberationSans-101"/>
       <use x="433.691406" xlink:href="#LiberationSans-114"/>
       <use x="466.992188" xlink:href="#LiberationSans-95"/>
       <use x="522.607422" xlink:href="#LiberationSans-100"/>
       <use x="578.222656" xlink:href="#LiberationSans-101"/>
       <use x="633.837891" xlink:href="#LiberationSans-110"/>
       <use x="689.453125" xlink:href="#LiberationSans-115"/>
       <use x="739.453125" xlink:href="#LiberationSans-105"/>
       <use x="761.669922" xlink:href="#LiberationSans-116"/>
       <use x="789.453125" xlink:href="#LiberationSans-121"/>
      </g>
     </g>
    </g>
    <g id="ytick_4">
     <g id="line2d_23">
      <path clip-path="url(#p9785af62a7)" d="M 90 154.988235 
L 648 154.988235 
" style="fill:none;stroke:#ffffff;stroke-linecap:round;stroke-width:0.8;"/>
     </g>
     <g id="line2d_24"/>
     <g id="text_12">
      <!-- length -->
      <defs>
       <path d="M 6.734375 0 
L 6.734375 72.46875 
L 15.53125 72.46875 
L 15.53125 0 
z
" id="LiberationSans-108"/>
       <path d="M 15.484375 43.796875 
Q 18.3125 48.96875 22.28125 51.390625 
Q 26.265625 53.8125 32.375 53.8125 
Q 40.96875 53.8125 45.046875 49.53125 
Q 49.125 45.265625 49.125 35.203125 
L 49.125 0 
L 40.28125 0 
L 40.28125 33.5 
Q 40.28125 39.0625 39.25 41.765625 
Q 38.234375 44.484375 35.890625 45.75 
Q 33.546875 47.015625 29.390625 47.015625 
Q 23.1875 47.015625 19.453125 42.71875 
Q 15.71875 38.421875 15.71875 31.15625 
L 15.71875 0 
L 6.9375 0 
L 6.9375 72.46875 
L 15.71875 72.46875 
L 15.71875 53.609375 
Q 15.71875 50.640625 15.546875 47.453125 
Q 15.375 44.28125 15.328125 43.796875 
z
" id="LiberationSans-104"/>
      </defs>
      <g style="fill:#555555;" transform="translate(72.112348 169.399227)rotate(-45)scale(0.0694 -0.0694)">
       <use xlink:href="#LiberationSans-108"/>
       <use x="22.216797" xlink:href="#LiberationSans-101"/>
       <use x="77.832031" xlink:href="#LiberationSans-110"/>
       <use x="133.447266" xlink:href="#LiberationSans-103"/>
       <use x="189.0625" xlink:href="#LiberationSans-116"/>
       <use x="216.845703" xlink:href="#LiberationSans-104"/>
      </g>
     </g>
    </g>
    <g id="ytick_5">
     <g id="line2d_25">
      <path clip-path="url(#p9785af62a7)" d="M 90 129.105882 
L 648 129.105882 
" style="fill:none;stroke:#ffffff;stroke-linecap:round;stroke-width:0.8;"/>
     </g>
     <g id="line2d_26"/>
     <g id="text_13">
      <!-- passengers -->
      <g style="fill:#555555;" transform="translate(60.113181 155.516041)rotate(-45)scale(0.0694 -0.0694)">
       <use xlink:href="#LiberationSans-112"/>
       <use x="55.615234" xlink:href="#LiberationSans-97"/>
       <use x="111.230469" xlink:href="#LiberationSans-115"/>
       <use x="161.230469" xlink:href="#LiberationSans-115"/>
       <use x="211.230469" xlink:href="#LiberationSans-101"/>
       <use x="266.845703" xlink:href="#LiberationSans-110"/>
       <use x="322.460938" xlink:href="#LiberationSans-103"/>
       <use x="378.076172" xlink:href="#LiberationSans-101"/>
       <use x="433.691406" xlink:href="#LiberationSans-114"/>
       <use x="466.992188" xlink:href="#LiberationSans-115"/>
      </g>
     </g>
    </g>
    <g id="ytick_6">
     <g id="line2d_27">
      <path clip-path="url(#p9785af62a7)" d="M 90 103.223529 
L 648 103.223529 
" style="fill:none;stroke:#ffffff;stroke-linecap:round;stroke-width:0.8;"/>
     </g>
     <g id="line2d_28"/>
     <g id="text_14">
      <!-- cabins -->
      <defs>
       <path d="M 13.421875 26.65625 
Q 13.421875 16.109375 16.734375 11.03125 
Q 20.0625 5.953125 26.765625 5.953125 
Q 31.453125 5.953125 34.59375 8.484375 
Q 37.75 11.03125 38.484375 16.3125 
L 47.359375 15.71875 
Q 46.34375 8.109375 40.875 3.5625 
Q 35.40625 -0.984375 27 -0.984375 
Q 15.921875 -0.984375 10.078125 6.015625 
Q 4.25 13.03125 4.25 26.46875 
Q 4.25 39.796875 10.109375 46.796875 
Q 15.96875 53.8125 26.90625 53.8125 
Q 35.015625 53.8125 40.359375 49.609375 
Q 45.703125 45.40625 47.078125 38.03125 
L 38.03125 37.359375 
Q 37.359375 41.75 34.5625 44.328125 
Q 31.78125 46.921875 26.65625 46.921875 
Q 19.671875 46.921875 16.546875 42.28125 
Q 13.421875 37.640625 13.421875 26.65625 
z
" id="LiberationSans-99"/>
       <path d="M 51.421875 26.65625 
Q 51.421875 -0.984375 31.984375 -0.984375 
Q 25.984375 -0.984375 22 1.1875 
Q 18.015625 3.375 15.53125 8.203125 
L 15.4375 8.203125 
Q 15.4375 6.6875 15.234375 3.578125 
Q 15.046875 0.484375 14.9375 0 
L 6.453125 0 
Q 6.734375 2.640625 6.734375 10.890625 
L 6.734375 72.46875 
L 15.53125 72.46875 
L 15.53125 51.8125 
Q 15.53125 48.640625 15.328125 44.34375 
L 15.53125 44.34375 
Q 17.96875 49.421875 22 51.609375 
Q 26.03125 53.8125 31.984375 53.8125 
Q 42 53.8125 46.703125 47.0625 
Q 51.421875 40.328125 51.421875 26.65625 
z
M 42.1875 26.375 
Q 42.1875 37.453125 39.25 42.234375 
Q 36.328125 47.015625 29.734375 47.015625 
Q 22.3125 47.015625 18.921875 41.9375 
Q 15.53125 36.859375 15.53125 25.828125 
Q 15.53125 15.4375 18.84375 10.46875 
Q 22.171875 5.515625 29.640625 5.515625 
Q 36.28125 5.515625 39.234375 10.421875 
Q 42.1875 15.328125 42.1875 26.375 
z
" id="LiberationSans-98"/>
      </defs>
      <g style="fill:#555555;" transform="translate(71.297273 118.449596)rotate(-45)scale(0.0694 -0.0694)">
       <use xlink:href="#LiberationSans-99"/>
       <use x="50" xlink:href="#LiberationSans-97"/>
       <use x="105.615234" xlink:href="#LiberationSans-98"/>
       <use x="161.230469" xlink:href="#LiberationSans-105"/>
       <use x="183.447266" xlink:href="#LiberationSans-110"/>
       <use x="239.0625" xlink:href="#LiberationSans-115"/>
      </g>
     </g>
    </g>
    <g id="text_15">
     <!-- variable -->
     <defs>
      <path d="M 29.9375 0 
L 19.53125 0 
L 0.34375 52.828125 
L 9.71875 52.828125 
L 21.34375 18.453125 
Q 21.96875 16.5 24.703125 6.890625 
L 26.421875 12.59375 
L 28.328125 18.359375 
L 40.328125 52.828125 
L 49.65625 52.828125 
z
" id="LiberationSans-118"/>
     </defs>
     <g style="fill:#555555;" transform="translate(34.243864 188.939724)rotate(-90)scale(0.12 -0.12)">
      <use xlink:href="#LiberationSans-118"/>
      <use x="50" xlink:href="#LiberationSans-97"/>
      <use x="105.615234" xlink:href="#LiberationSans-114"/>
      <use x="138.916016" xlink:href="#LiberationSans-105"/>
      <use x="161.132812" xlink:href="#LiberationSans-97"/>
      <use x="216.748047" xlink:href="#LiberationSans-98"/>
      <use x="272.363281" xlink:href="#LiberationSans-108"/>
      <use x="294.580078" xlink:href="#LiberationSans-101"/>
     </g>
    </g>
   </g>
   <g id="patch_3">
    <path clip-path="url(#p9785af62a7)" d="M 90 242.988235 
L 97.586925 242.988235 
L 97.586925 222.282353 
L 90 222.282353 
z
" style="fill:#db5f57;"/>
   </g>
   <g id="patch_4">
    <path clip-path="url(#p9785af62a7)" d="M 90 217.105882 
L 97.618492 217.105882 
L 97.618492 196.4 
L 90 196.4 
z
" style="fill:#db5f57;"/>
   </g>
   <g id="patch_5">
    <path clip-path="url(#p9785af62a7)" d="M 90 191.223529 
L 98.418583 191.223529 
L 98.418583 170.517647 
L 90 170.517647 
z
" style="fill:#db5f57;"/>
   </g>
   <g id="patch_6">
    <path clip-path="url(#p9785af62a7)" d="M 90 165.341176 
L 120.971902 165.341176 
L 120.971902 144.635294 
L 90 144.635294 
z
" style="fill:#db5f57;"/>
   </g>
   <g id="patch_7">
    <path clip-path="url(#p9785af62a7)" d="M 90 139.458824 
L 143.089117 139.458824 
L 143.089117 118.752941 
L 90 118.752941 
z
" style="fill:#db5f57;"/>
   </g>
   <g id="patch_8">
    <path clip-path="url(#p9785af62a7)" d="M 90 113.576471 
L 621.428571 113.576471 
L 621.428571 92.870588 
L 90 92.870588 
z
" style="fill:#db5f57;"/>
   </g>
   <g id="line2d_29">
    <path clip-path="url(#p9785af62a7)" d="M 97.564573 249.458824 
L 97.564573 86.4 
" style="fill:none;stroke:#e24a33;stroke-linecap:round;stroke-width:1.5;"/>
   </g>
   <g id="patch_9">
    <path d="M 90 249.458824 
L 90 86.4 
" style="fill:none;stroke:#ffffff;stroke-linecap:square;stroke-linejoin:miter;"/>
   </g>
   <g id="patch_10">
    <path d="M 648 249.458824 
L 648 86.4 
" style="fill:none;stroke:#ffffff;stroke-linecap:square;stroke-linejoin:miter;"/>
   </g>
   <g id="patch_11">
    <path d="M 90 249.458824 
L 648 249.458824 
" style="fill:none;stroke:#ffffff;stroke-linecap:square;stroke-linejoin:miter;"/>
   </g>
   <g id="patch_12">
    <path d="M 90 86.4 
L 648 86.4 
" style="fill:none;stroke:#ffffff;stroke-linecap:square;stroke-linejoin:miter;"/>
   </g>
   <g id="patch_13">
    <path d="M 102.13158 162.914056 
Q 101.269351 177.658661 100.407123 192.403267 
L 104.400301 192.636778 
Q 101.055154 198.451363 97.710006 204.265949 
Q 95.065386 198.101097 92.420767 191.936244 
L 96.413945 192.169755 
Q 97.276173 177.42515 98.138401 162.680545 
L 102.13158 162.914056 
z
" style="stroke:#eeeeee;stroke-linecap:round;stroke-width:0.5;"/>
   </g>
   <g id="text_16">
    <g id="patch_14">
     <path d="M 97.470304 160.063235 
L 140.718742 160.063235 
L 140.718742 144.74136 
L 97.470304 144.74136 
z
" style="fill:#ffffff;stroke:#eeeeee;stroke-linejoin:miter;stroke-width:0.5;"/>
    </g>
    <!-- baseline -->
    <g style="fill:#262626;" transform="translate(100.470304 154.988235)scale(0.1 -0.1)">
     <use xlink:href="#LiberationSans-98"/>
     <use x="55.615234" xlink:href="#LiberationSans-97"/>
     <use x="111.230469" xlink:href="#LiberationSans-115"/>
     <use x="161.230469" xlink:href="#LiberationSans-101"/>
     <use x="216.845703" xlink:href="#LiberationSans-108"/>
     <use x="239.0625" xlink:href="#LiberationSans-105"/>
     <use x="261.279297" xlink:href="#LiberationSans-110"/>
     <use x="316.894531" xlink:href="#LiberationSans-101"/>
    </g>
   </g>
   <g id="text_17">
    <!-- lm -->
    <defs>
     <path d="M 37.5 0 
L 37.5 33.5 
Q 37.5 41.15625 35.390625 44.078125 
Q 33.296875 47.015625 27.828125 47.015625 
Q 22.21875 47.015625 18.9375 42.71875 
Q 15.671875 38.421875 15.671875 30.609375 
L 15.671875 0 
L 6.9375 0 
L 6.9375 41.546875 
Q 6.9375 50.78125 6.640625 52.828125 
L 14.9375 52.828125 
Q 14.984375 52.59375 15.03125 51.515625 
Q 15.09375 50.4375 15.15625 49.046875 
Q 15.234375 47.65625 15.328125 43.796875 
L 15.484375 43.796875 
Q 18.3125 49.421875 21.96875 51.609375 
Q 25.640625 53.8125 30.90625 53.8125 
Q 36.921875 53.8125 40.40625 51.421875 
Q 43.890625 49.03125 45.265625 43.796875 
L 45.40625 43.796875 
Q 48.140625 49.125 52.015625 51.46875 
Q 55.90625 53.8125 61.421875 53.8125 
Q 69.4375 53.8125 73.0625 49.46875 
Q 76.703125 45.125 76.703125 35.203125 
L 76.703125 0 
L 68.015625 0 
L 68.015625 33.5 
Q 68.015625 41.15625 65.90625 44.078125 
Q 63.8125 47.015625 58.34375 47.015625 
Q 52.59375 47.015625 49.390625 42.75 
Q 46.1875 38.484375 46.1875 30.609375 
L 46.1875 0 
z
" id="LiberationSans-109"/>
    </defs>
    <g style="fill:#262626;" transform="translate(361.402875 80.4)scale(0.144 -0.144)">
     <use xlink:href="#LiberationSans-108"/>
     <use x="22.216797" xlink:href="#LiberationSans-109"/>
    </g>
   </g>
   <g id="legend_1">
    <g id="patch_15">
     <path d="M 561.535938 238.383824 
L 581.535938 238.383824 
L 581.535938 231.383824 
L 561.535938 231.383824 
z
" style="fill:#db5f57;"/>
    </g>
    <g id="text_18">
     <!-- importance -->
     <g style="fill:#262626;" transform="translate(589.535938 238.383824)scale(0.1 -0.1)">
      <use xlink:href="#LiberationSans-105"/>
      <use x="22.216797" xlink:href="#LiberationSans-109"/>
      <use x="105.517578" xlink:href="#LiberationSans-112"/>
      <use x="161.132812" xlink:href="#LiberationSans-111"/>
      <use x="216.748047" xlink:href="#LiberationSans-114"/>
      <use x="250.048828" xlink:href="#LiberationSans-116"/>
      <use x="277.832031" xlink:href="#LiberationSans-97"/>
      <use x="333.447266" xlink:href="#LiberationSans-110"/>
      <use x="389.0625" xlink:href="#LiberationSans-99"/>
      <use x="439.0625" xlink:href="#LiberationSans-101"/>
     </g>
    </g>
   </g>
  </g>
  <g id="axes_2">
   <g id="patch_16">
    <path d="M 90 445.129412 
L 648 445.129412 
L 648 282.070588 
L 90 282.070588 
z
" style="fill:#e5e5e5;"/>
   </g>
   <g id="matplotlib.axis_3">
    <g id="xtick_9">
     <g id="line2d_30">
      <path clip-path="url(#p6f4fe9a9e5)" d="M 90 445.129412 
L 90 282.070588 
" style="fill:none;stroke:#ffffff;stroke-linecap:round;stroke-width:0.8;"/>
     </g>
     <g id="line2d_31"/>
     <g id="text_19">
      <!-- 0.0 -->
      <defs>
       <path d="M 9.125 0 
L 9.125 10.6875 
L 18.65625 10.6875 
L 18.65625 0 
z
" id="LiberationSans-46"/>
      </defs>
      <g style="fill:#555555;" transform="translate(83.05 455.876287)scale(0.1 -0.1)">
       <use xlink:href="#LiberationSans-48"/>
       <use x="55.615234" xlink:href="#LiberationSans-46"/>
       <use x="83.398438" xlink:href="#LiberationSans-48"/>
      </g>
     </g>
    </g>
    <g id="xtick_10">
     <g id="line2d_32">
      <path clip-path="url(#p6f4fe9a9e5)" d="M 156.77046 445.129412 
L 156.77046 282.070588 
" style="fill:none;stroke:#ffffff;stroke-linecap:round;stroke-width:0.8;"/>
     </g>
     <g id="line2d_33"/>
     <g id="text_20">
      <!-- 2.5 -->
      <g style="fill:#555555;" transform="translate(149.82046 455.876287)scale(0.1 -0.1)">
       <use xlink:href="#LiberationSans-50"/>
       <use x="55.615234" xlink:href="#LiberationSans-46"/>
       <use x="83.398438" xlink:href="#LiberationSans-53"/>
      </g>
     </g>
    </g>
    <g id="xtick_11">
     <g id="line2d_34">
      <path clip-path="url(#p6f4fe9a9e5)" d="M 223.540919 445.129412 
L 223.540919 282.070588 
" style="fill:none;stroke:#ffffff;stroke-linecap:round;stroke-width:0.8;"/>
     </g>
     <g id="line2d_35"/>
     <g id="text_21">
      <!-- 5.0 -->
      <g style="fill:#555555;" transform="translate(216.590919 455.876287)scale(0.1 -0.1)">
       <use xlink:href="#LiberationSans-53"/>
       <use x="55.615234" xlink:href="#LiberationSans-46"/>
       <use x="83.398438" xlink:href="#LiberationSans-48"/>
      </g>
     </g>
    </g>
    <g id="xtick_12">
     <g id="line2d_36">
      <path clip-path="url(#p6f4fe9a9e5)" d="M 290.311379 445.129412 
L 290.311379 282.070588 
" style="fill:none;stroke:#ffffff;stroke-linecap:round;stroke-width:0.8;"/>
     </g>
     <g id="line2d_37"/>
     <g id="text_22">
      <!-- 7.5 -->
      <g style="fill:#555555;" transform="translate(283.361379 455.876287)scale(0.1 -0.1)">
       <use xlink:href="#LiberationSans-55"/>
       <use x="55.615234" xlink:href="#LiberationSans-46"/>
       <use x="83.398438" xlink:href="#LiberationSans-53"/>
      </g>
     </g>
    </g>
    <g id="xtick_13">
     <g id="line2d_38">
      <path clip-path="url(#p6f4fe9a9e5)" d="M 357.081839 445.129412 
L 357.081839 282.070588 
" style="fill:none;stroke:#ffffff;stroke-linecap:round;stroke-width:0.8;"/>
     </g>
     <g id="line2d_39"/>
     <g id="text_23">
      <!-- 10.0 -->
      <g style="fill:#555555;" transform="translate(347.35137 455.876287)scale(0.1 -0.1)">
       <use xlink:href="#LiberationSans-49"/>
       <use x="55.615234" xlink:href="#LiberationSans-48"/>
       <use x="111.230469" xlink:href="#LiberationSans-46"/>
       <use x="139.013672" xlink:href="#LiberationSans-48"/>
      </g>
     </g>
    </g>
    <g id="xtick_14">
     <g id="line2d_40">
      <path clip-path="url(#p6f4fe9a9e5)" d="M 423.852299 445.129412 
L 423.852299 282.070588 
" style="fill:none;stroke:#ffffff;stroke-linecap:round;stroke-width:0.8;"/>
     </g>
     <g id="line2d_41"/>
     <g id="text_24">
      <!-- 12.5 -->
      <g style="fill:#555555;" transform="translate(414.12183 455.876287)scale(0.1 -0.1)">
       <use xlink:href="#LiberationSans-49"/>
       <use x="55.615234" xlink:href="#LiberationSans-50"/>
       <use x="111.230469" xlink:href="#LiberationSans-46"/>
       <use x="139.013672" xlink:href="#LiberationSans-53"/>
      </g>
     </g>
    </g>
    <g id="xtick_15">
     <g id="line2d_42">
      <path clip-path="url(#p6f4fe9a9e5)" d="M 490.622758 445.129412 
L 490.622758 282.070588 
" style="fill:none;stroke:#ffffff;stroke-linecap:round;stroke-width:0.8;"/>
     </g>
     <g id="line2d_43"/>
     <g id="text_25">
      <!-- 15.0 -->
      <g style="fill:#555555;" transform="translate(480.89229 455.876287)scale(0.1 -0.1)">
       <use xlink:href="#LiberationSans-49"/>
       <use x="55.615234" xlink:href="#LiberationSans-53"/>
       <use x="111.230469" xlink:href="#LiberationSans-46"/>
       <use x="139.013672" xlink:href="#LiberationSans-48"/>
      </g>
     </g>
    </g>
    <g id="xtick_16">
     <g id="line2d_44">
      <path clip-path="url(#p6f4fe9a9e5)" d="M 557.393218 445.129412 
L 557.393218 282.070588 
" style="fill:none;stroke:#ffffff;stroke-linecap:round;stroke-width:0.8;"/>
     </g>
     <g id="line2d_45"/>
     <g id="text_26">
      <!-- 17.5 -->
      <g style="fill:#555555;" transform="translate(547.662749 455.876287)scale(0.1 -0.1)">
       <use xlink:href="#LiberationSans-49"/>
       <use x="55.615234" xlink:href="#LiberationSans-55"/>
       <use x="111.230469" xlink:href="#LiberationSans-46"/>
       <use x="139.013672" xlink:href="#LiberationSans-53"/>
      </g>
     </g>
    </g>
    <g id="xtick_17">
     <g id="line2d_46">
      <path clip-path="url(#p6f4fe9a9e5)" d="M 624.163678 445.129412 
L 624.163678 282.070588 
" style="fill:none;stroke:#ffffff;stroke-linecap:round;stroke-width:0.8;"/>
     </g>
     <g id="line2d_47"/>
     <g id="text_27">
      <!-- 20.0 -->
      <g style="fill:#555555;" transform="translate(614.433209 455.876287)scale(0.1 -0.1)">
       <use xlink:href="#LiberationSans-50"/>
       <use x="55.615234" xlink:href="#LiberationSans-48"/>
       <use x="111.230469" xlink:href="#LiberationSans-46"/>
       <use x="139.013672" xlink:href="#LiberationSans-48"/>
      </g>
     </g>
    </g>
   </g>
   <g id="matplotlib.axis_4">
    <g id="ytick_7">
     <g id="line2d_48">
      <path clip-path="url(#p6f4fe9a9e5)" d="M 90 428.305882 
L 648 428.305882 
" style="fill:none;stroke:#ffffff;stroke-linecap:round;stroke-width:0.8;"/>
     </g>
     <g id="line2d_49"/>
     <g id="text_28">
      <!-- cabins -->
      <g style="fill:#555555;" transform="translate(71.297273 443.531949)rotate(-45)scale(0.0694 -0.0694)">
       <use xlink:href="#LiberationSans-99"/>
       <use x="50" xlink:href="#LiberationSans-97"/>
       <use x="105.615234" xlink:href="#LiberationSans-98"/>
       <use x="161.230469" xlink:href="#LiberationSans-105"/>
       <use x="183.447266" xlink:href="#LiberationSans-110"/>
       <use x="239.0625" xlink:href="#LiberationSans-115"/>
      </g>
     </g>
    </g>
    <g id="ytick_8">
     <g id="line2d_50">
      <path clip-path="url(#p6f4fe9a9e5)" d="M 90 402.423529 
L 648 402.423529 
" style="fill:none;stroke:#ffffff;stroke-linecap:round;stroke-width:0.8;"/>
     </g>
     <g id="line2d_51"/>
     <g id="text_29">
      <!-- Age -->
      <g style="fill:#555555;" transform="translate(76.750533 412.196336)rotate(-45)scale(0.0694 -0.0694)">
       <use xlink:href="#LiberationSans-65"/>
       <use x="66.699219" xlink:href="#LiberationSans-103"/>
       <use x="122.314453" xlink:href="#LiberationSans-101"/>
      </g>
     </g>
    </g>
    <g id="ytick_9">
     <g id="line2d_52">
      <path clip-path="url(#p6f4fe9a9e5)" d="M 90 376.541176 
L 648 376.541176 
" style="fill:none;stroke:#ffffff;stroke-linecap:round;stroke-width:0.8;"/>
     </g>
     <g id="line2d_53"/>
     <g id="text_30">
      <!-- length -->
      <g style="fill:#555555;" transform="translate(72.112348 390.952168)rotate(-45)scale(0.0694 -0.0694)">
       <use xlink:href="#LiberationSans-108"/>
       <use x="22.216797" xlink:href="#LiberationSans-101"/>
       <use x="77.832031" xlink:href="#LiberationSans-110"/>
       <use x="133.447266" xlink:href="#LiberationSans-103"/>
       <use x="189.0625" xlink:href="#LiberationSans-116"/>
       <use x="216.845703" xlink:href="#LiberationSans-104"/>
      </g>
     </g>
    </g>
    <g id="ytick_10">
     <g id="line2d_54">
      <path clip-path="url(#p6f4fe9a9e5)" d="M 90 350.658824 
L 648 350.658824 
" style="fill:none;stroke:#ffffff;stroke-linecap:round;stroke-width:0.8;"/>
     </g>
     <g id="line2d_55"/>
     <g id="text_31">
      <!-- passengers -->
      <g style="fill:#555555;" transform="translate(60.113181 377.068982)rotate(-45)scale(0.0694 -0.0694)">
       <use xlink:href="#LiberationSans-112"/>
       <use x="55.615234" xlink:href="#LiberationSans-97"/>
       <use x="111.230469" xlink:href="#LiberationSans-115"/>
       <use x="161.230469" xlink:href="#LiberationSans-115"/>
       <use x="211.230469" xlink:href="#LiberationSans-101"/>
       <use x="266.845703" xlink:href="#LiberationSans-110"/>
       <use x="322.460938" xlink:href="#LiberationSans-103"/>
       <use x="378.076172" xlink:href="#LiberationSans-101"/>
       <use x="433.691406" xlink:href="#LiberationSans-114"/>
       <use x="466.992188" xlink:href="#LiberationSans-115"/>
      </g>
     </g>
    </g>
    <g id="ytick_11">
     <g id="line2d_56">
      <path clip-path="url(#p6f4fe9a9e5)" d="M 90 324.776471 
L 648 324.776471 
" style="fill:none;stroke:#ffffff;stroke-linecap:round;stroke-width:0.8;"/>
     </g>
     <g id="line2d_57"/>
     <g id="text_32">
      <!-- passenger_density -->
      <g style="fill:#555555;" transform="translate(44.290138 367.009672)rotate(-45)scale(0.0694 -0.0694)">
       <use xlink:href="#LiberationSans-112"/>
       <use x="55.615234" xlink:href="#LiberationSans-97"/>
       <use x="111.230469" xlink:href="#LiberationSans-115"/>
       <use x="161.230469" xlink:href="#LiberationSans-115"/>
       <use x="211.230469" xlink:href="#LiberationSans-101"/>
       <use x="266.845703" xlink:href="#LiberationSans-110"/>
       <use x="322.460938" xlink:href="#LiberationSans-103"/>
       <use x="378.076172" xlink:href="#LiberationSans-101"/>
       <use x="433.691406" xlink:href="#LiberationSans-114"/>
       <use x="466.992188" xlink:href="#LiberationSans-95"/>
       <use x="522.607422" xlink:href="#LiberationSans-100"/>
       <use x="578.222656" xlink:href="#LiberationSans-101"/>
       <use x="633.837891" xlink:href="#LiberationSans-110"/>
       <use x="689.453125" xlink:href="#LiberationSans-115"/>
       <use x="739.453125" xlink:href="#LiberationSans-105"/>
       <use x="761.669922" xlink:href="#LiberationSans-116"/>
       <use x="789.453125" xlink:href="#LiberationSans-121"/>
      </g>
     </g>
    </g>
    <g id="ytick_12">
     <g id="line2d_58">
      <path clip-path="url(#p6f4fe9a9e5)" d="M 90 298.894118 
L 648 298.894118 
" style="fill:none;stroke:#ffffff;stroke-linecap:round;stroke-width:0.8;"/>
     </g>
     <g id="line2d_59"/>
     <g id="text_33">
      <!-- Tonnage -->
      <g style="fill:#555555;" transform="translate(66.119282 319.298175)rotate(-45)scale(0.0694 -0.0694)">
       <use xlink:href="#LiberationSans-84"/>
       <use x="60.912109" xlink:href="#LiberationSans-111"/>
       <use x="116.527344" xlink:href="#LiberationSans-110"/>
       <use x="172.142578" xlink:href="#LiberationSans-110"/>
       <use x="227.757812" xlink:href="#LiberationSans-97"/>
       <use x="283.373047" xlink:href="#LiberationSans-103"/>
       <use x="338.988281" xlink:href="#LiberationSans-101"/>
      </g>
     </g>
    </g>
    <g id="text_34">
     <!-- variable -->
     <g style="fill:#555555;" transform="translate(34.243864 384.610313)rotate(-90)scale(0.12 -0.12)">
      <use xlink:href="#LiberationSans-118"/>
      <use x="50" xlink:href="#LiberationSans-97"/>
      <use x="105.615234" xlink:href="#LiberationSans-114"/>
      <use x="138.916016" xlink:href="#LiberationSans-105"/>
      <use x="161.132812" xlink:href="#LiberationSans-97"/>
      <use x="216.748047" xlink:href="#LiberationSans-98"/>
      <use x="272.363281" xlink:href="#LiberationSans-108"/>
      <use x="294.580078" xlink:href="#LiberationSans-101"/>
     </g>
    </g>
   </g>
   <g id="patch_17">
    <path clip-path="url(#p6f4fe9a9e5)" d="M 90 438.658824 
L 116.156242 438.658824 
L 116.156242 417.952941 
L 90 417.952941 
z
" style="fill:#57d3db;"/>
   </g>
   <g id="patch_18">
    <path clip-path="url(#p6f4fe9a9e5)" d="M 90 412.776471 
L 116.28136 412.776471 
L 116.28136 392.070588 
L 90 392.070588 
z
" style="fill:#57d3db;"/>
   </g>
   <g id="patch_19">
    <path clip-path="url(#p6f4fe9a9e5)" d="M 90 386.894118 
L 116.709596 386.894118 
L 116.709596 366.188235 
L 90 366.188235 
z
" style="fill:#57d3db;"/>
   </g>
   <g id="patch_20">
    <path clip-path="url(#p6f4fe9a9e5)" d="M 90 361.011765 
L 122.100615 361.011765 
L 122.100615 340.305882 
L 90 340.305882 
z
" style="fill:#57d3db;"/>
   </g>
   <g id="patch_21">
    <path clip-path="url(#p6f4fe9a9e5)" d="M 90 335.129412 
L 126.091869 335.129412 
L 126.091869 314.423529 
L 90 314.423529 
z
" style="fill:#57d3db;"/>
   </g>
   <g id="patch_22">
    <path clip-path="url(#p6f4fe9a9e5)" d="M 90 309.247059 
L 621.428571 309.247059 
L 621.428571 288.541176 
L 90 288.541176 
z
" style="fill:#57d3db;"/>
   </g>
   <g id="line2d_60">
    <path clip-path="url(#p6f4fe9a9e5)" d="M 124.077667 445.129412 
L 124.077667 282.070588 
" style="fill:none;stroke:#e24a33;stroke-linecap:round;stroke-width:1.5;"/>
   </g>
   <g id="patch_23">
    <path d="M 90 445.129412 
L 90 282.070588 
" style="fill:none;stroke:#ffffff;stroke-linecap:square;stroke-linejoin:miter;"/>
   </g>
   <g id="patch_24">
    <path d="M 648 445.129412 
L 648 282.070588 
" style="fill:none;stroke:#ffffff;stroke-linecap:square;stroke-linejoin:miter;"/>
   </g>
   <g id="patch_25">
    <path d="M 90 445.129412 
L 648 445.129412 
" style="fill:none;stroke:#ffffff;stroke-linecap:square;stroke-linejoin:miter;"/>
   </g>
   <g id="patch_26">
    <path d="M 90 282.070588 
L 648 282.070588 
" style="fill:none;stroke:#ffffff;stroke-linecap:square;stroke-linejoin:miter;"/>
   </g>
   <g id="patch_27">
    <path d="M 135.483436 358.888281 
Q 132.286685 373.756908 129.089935 388.625535 
L 133.000571 389.46632 
Q 128.80647 394.701429 124.612369 399.936537 
Q 122.940515 393.44025 121.268661 386.943963 
L 125.179298 387.784749 
Q 128.376049 372.916122 131.5728 358.047496 
L 135.483436 358.888281 
z
" style="stroke:#eeeeee;stroke-linecap:round;stroke-width:0.5;"/>
   </g>
   <g id="text_35">
    <g id="patch_28">
     <path d="M 131.76094 355.733824 
L 175.009378 355.733824 
L 175.009378 340.411949 
L 131.76094 340.411949 
z
" style="fill:#ffffff;stroke:#eeeeee;stroke-linejoin:miter;stroke-width:0.5;"/>
    </g>
    <!-- baseline -->
    <g style="fill:#262626;" transform="translate(134.76094 350.658824)scale(0.1 -0.1)">
     <use xlink:href="#LiberationSans-98"/>
     <use x="55.615234" xlink:href="#LiberationSans-97"/>
     <use x="111.230469" xlink:href="#LiberationSans-115"/>
     <use x="161.230469" xlink:href="#LiberationSans-101"/>
     <use x="216.845703" xlink:href="#LiberationSans-108"/>
     <use x="239.0625" xlink:href="#LiberationSans-105"/>
     <use x="261.279297" xlink:href="#LiberationSans-110"/>
     <use x="316.894531" xlink:href="#LiberationSans-101"/>
    </g>
   </g>
   <g id="text_36">
    <!-- knn -->
    <defs>
     <path d="M 39.84375 0 
L 21.96875 24.125 
L 15.53125 18.796875 
L 15.53125 0 
L 6.734375 0 
L 6.734375 72.46875 
L 15.53125 72.46875 
L 15.53125 27.203125 
L 38.71875 52.828125 
L 49.03125 52.828125 
L 27.59375 30.125 
L 50.140625 0 
z
" id="LiberationSans-107"/>
    </defs>
    <g style="fill:#262626;" transform="translate(357.39225 276.070588)scale(0.144 -0.144)">
     <use xlink:href="#LiberationSans-107"/>
     <use x="50" xlink:href="#LiberationSans-110"/>
     <use x="105.615234" xlink:href="#LiberationSans-110"/>
    </g>
   </g>
   <g id="legend_2">
    <g id="patch_29">
     <path d="M 561.535938 434.054412 
L 581.535938 434.054412 
L 581.535938 427.054412 
L 561.535938 427.054412 
z
" style="fill:#57d3db;"/>
    </g>
    <g id="text_37">
     <!-- importance -->
     <g style="fill:#262626;" transform="translate(589.535938 434.054412)scale(0.1 -0.1)">
      <use xlink:href="#LiberationSans-105"/>
      <use x="22.216797" xlink:href="#LiberationSans-109"/>
      <use x="105.517578" xlink:href="#LiberationSans-112"/>
      <use x="161.132812" xlink:href="#LiberationSans-111"/>
      <use x="216.748047" xlink:href="#LiberationSans-114"/>
      <use x="250.048828" xlink:href="#LiberationSans-116"/>
      <use x="277.832031" xlink:href="#LiberationSans-97"/>
      <use x="333.447266" xlink:href="#LiberationSans-110"/>
      <use x="389.0625" xlink:href="#LiberationSans-99"/>
      <use x="439.0625" xlink:href="#LiberationSans-101"/>
     </g>
    </g>
   </g>
  </g>
  <g id="axes_3">
   <g id="patch_30">
    <path d="M 90 640.8 
L 648 640.8 
L 648 477.741176 
L 90 477.741176 
z
" style="fill:#e5e5e5;"/>
   </g>
   <g id="matplotlib.axis_5">
    <g id="xtick_18">
     <g id="line2d_61">
      <path clip-path="url(#p46f72cf5b7)" d="M 90 640.8 
L 90 477.741176 
" style="fill:none;stroke:#ffffff;stroke-linecap:round;stroke-width:0.8;"/>
     </g>
     <g id="line2d_62"/>
     <g id="text_38">
      <!-- 0 -->
      <g style="fill:#555555;" transform="translate(87.219531 651.546875)scale(0.1 -0.1)">
       <use xlink:href="#LiberationSans-48"/>
      </g>
     </g>
    </g>
    <g id="xtick_19">
     <g id="line2d_63">
      <path clip-path="url(#p46f72cf5b7)" d="M 212.41483 640.8 
L 212.41483 477.741176 
" style="fill:none;stroke:#ffffff;stroke-linecap:round;stroke-width:0.8;"/>
     </g>
     <g id="line2d_64"/>
     <g id="text_39">
      <!-- 5 -->
      <g style="fill:#555555;" transform="translate(209.634361 651.546875)scale(0.1 -0.1)">
       <use xlink:href="#LiberationSans-53"/>
      </g>
     </g>
    </g>
    <g id="xtick_20">
     <g id="line2d_65">
      <path clip-path="url(#p46f72cf5b7)" d="M 334.82966 640.8 
L 334.82966 477.741176 
" style="fill:none;stroke:#ffffff;stroke-linecap:round;stroke-width:0.8;"/>
     </g>
     <g id="line2d_66"/>
     <g id="text_40">
      <!-- 10 -->
      <g style="fill:#555555;" transform="translate(329.268722 651.546875)scale(0.1 -0.1)">
       <use xlink:href="#LiberationSans-49"/>
       <use x="55.615234" xlink:href="#LiberationSans-48"/>
      </g>
     </g>
    </g>
    <g id="xtick_21">
     <g id="line2d_67">
      <path clip-path="url(#p46f72cf5b7)" d="M 457.244489 640.8 
L 457.244489 477.741176 
" style="fill:none;stroke:#ffffff;stroke-linecap:round;stroke-width:0.8;"/>
     </g>
     <g id="line2d_68"/>
     <g id="text_41">
      <!-- 15 -->
      <g style="fill:#555555;" transform="translate(451.683552 651.546875)scale(0.1 -0.1)">
       <use xlink:href="#LiberationSans-49"/>
       <use x="55.615234" xlink:href="#LiberationSans-53"/>
      </g>
     </g>
    </g>
    <g id="xtick_22">
     <g id="line2d_69">
      <path clip-path="url(#p46f72cf5b7)" d="M 579.659319 640.8 
L 579.659319 477.741176 
" style="fill:none;stroke:#ffffff;stroke-linecap:round;stroke-width:0.8;"/>
     </g>
     <g id="line2d_70"/>
     <g id="text_42">
      <!-- 20 -->
      <g style="fill:#555555;" transform="translate(574.098382 651.546875)scale(0.1 -0.1)">
       <use xlink:href="#LiberationSans-50"/>
       <use x="55.615234" xlink:href="#LiberationSans-48"/>
      </g>
     </g>
    </g>
   </g>
   <g id="matplotlib.axis_6">
    <g id="ytick_13">
     <g id="line2d_71">
      <path clip-path="url(#p46f72cf5b7)" d="M 90 623.976471 
L 648 623.976471 
" style="fill:none;stroke:#ffffff;stroke-linecap:round;stroke-width:0.8;"/>
     </g>
     <g id="line2d_72"/>
     <g id="text_43">
      <!-- Age -->
      <g style="fill:#555555;" transform="translate(76.750533 633.749277)rotate(-45)scale(0.0694 -0.0694)">
       <use xlink:href="#LiberationSans-65"/>
       <use x="66.699219" xlink:href="#LiberationSans-103"/>
       <use x="122.314453" xlink:href="#LiberationSans-101"/>
      </g>
     </g>
    </g>
    <g id="ytick_14">
     <g id="line2d_73">
      <path clip-path="url(#p46f72cf5b7)" d="M 90 598.094118 
L 648 598.094118 
" style="fill:none;stroke:#ffffff;stroke-linecap:round;stroke-width:0.8;"/>
     </g>
     <g id="line2d_74"/>
     <g id="text_44">
      <!-- passenger_density -->
      <g style="fill:#555555;" transform="translate(44.290138 640.327319)rotate(-45)scale(0.0694 -0.0694)">
       <use xlink:href="#LiberationSans-112"/>
       <use x="55.615234" xlink:href="#LiberationSans-97"/>
       <use x="111.230469" xlink:href="#LiberationSans-115"/>
       <use x="161.230469" xlink:href="#LiberationSans-115"/>
       <use x="211.230469" xlink:href="#LiberationSans-101"/>
       <use x="266.845703" xlink:href="#LiberationSans-110"/>
       <use x="322.460938" xlink:href="#LiberationSans-103"/>
       <use x="378.076172" xlink:href="#LiberationSans-101"/>
       <use x="433.691406" xlink:href="#LiberationSans-114"/>
       <use x="466.992188" xlink:href="#LiberationSans-95"/>
       <use x="522.607422" xlink:href="#LiberationSans-100"/>
       <use x="578.222656" xlink:href="#LiberationSans-101"/>
       <use x="633.837891" xlink:href="#LiberationSans-110"/>
       <use x="689.453125" xlink:href="#LiberationSans-115"/>
       <use x="739.453125" xlink:href="#LiberationSans-105"/>
       <use x="761.669922" xlink:href="#LiberationSans-116"/>
       <use x="789.453125" xlink:href="#LiberationSans-121"/>
      </g>
     </g>
    </g>
    <g id="ytick_15">
     <g id="line2d_75">
      <path clip-path="url(#p46f72cf5b7)" d="M 90 572.211765 
L 648 572.211765 
" style="fill:none;stroke:#ffffff;stroke-linecap:round;stroke-width:0.8;"/>
     </g>
     <g id="line2d_76"/>
     <g id="text_45">
      <!-- passengers -->
      <g style="fill:#555555;" transform="translate(60.113181 598.621923)rotate(-45)scale(0.0694 -0.0694)">
       <use xlink:href="#LiberationSans-112"/>
       <use x="55.615234" xlink:href="#LiberationSans-97"/>
       <use x="111.230469" xlink:href="#LiberationSans-115"/>
       <use x="161.230469" xlink:href="#LiberationSans-115"/>
       <use x="211.230469" xlink:href="#LiberationSans-101"/>
       <use x="266.845703" xlink:href="#LiberationSans-110"/>
       <use x="322.460938" xlink:href="#LiberationSans-103"/>
       <use x="378.076172" xlink:href="#LiberationSans-101"/>
       <use x="433.691406" xlink:href="#LiberationSans-114"/>
       <use x="466.992188" xlink:href="#LiberationSans-115"/>
      </g>
     </g>
    </g>
    <g id="ytick_16">
     <g id="line2d_77">
      <path clip-path="url(#p46f72cf5b7)" d="M 90 546.329412 
L 648 546.329412 
" style="fill:none;stroke:#ffffff;stroke-linecap:round;stroke-width:0.8;"/>
     </g>
     <g id="line2d_78"/>
     <g id="text_46">
      <!-- length -->
      <g style="fill:#555555;" transform="translate(72.112348 560.740403)rotate(-45)scale(0.0694 -0.0694)">
       <use xlink:href="#LiberationSans-108"/>
       <use x="22.216797" xlink:href="#LiberationSans-101"/>
       <use x="77.832031" xlink:href="#LiberationSans-110"/>
       <use x="133.447266" xlink:href="#LiberationSans-103"/>
       <use x="189.0625" xlink:href="#LiberationSans-116"/>
       <use x="216.845703" xlink:href="#LiberationSans-104"/>
      </g>
     </g>
    </g>
    <g id="ytick_17">
     <g id="line2d_79">
      <path clip-path="url(#p46f72cf5b7)" d="M 90 520.447059 
L 648 520.447059 
" style="fill:none;stroke:#ffffff;stroke-linecap:round;stroke-width:0.8;"/>
     </g>
     <g id="line2d_80"/>
     <g id="text_47">
      <!-- Tonnage -->
      <g style="fill:#555555;" transform="translate(66.119282 540.851116)rotate(-45)scale(0.0694 -0.0694)">
       <use xlink:href="#LiberationSans-84"/>
       <use x="60.912109" xlink:href="#LiberationSans-111"/>
       <use x="116.527344" xlink:href="#LiberationSans-110"/>
       <use x="172.142578" xlink:href="#LiberationSans-110"/>
       <use x="227.757812" xlink:href="#LiberationSans-97"/>
       <use x="283.373047" xlink:href="#LiberationSans-103"/>
       <use x="338.988281" xlink:href="#LiberationSans-101"/>
      </g>
     </g>
    </g>
    <g id="ytick_18">
     <g id="line2d_81">
      <path clip-path="url(#p46f72cf5b7)" d="M 90 494.564706 
L 648 494.564706 
" style="fill:none;stroke:#ffffff;stroke-linecap:round;stroke-width:0.8;"/>
     </g>
     <g id="line2d_82"/>
     <g id="text_48">
      <!-- cabins -->
      <g style="fill:#555555;" transform="translate(71.297273 509.790773)rotate(-45)scale(0.0694 -0.0694)">
       <use xlink:href="#LiberationSans-99"/>
       <use x="50" xlink:href="#LiberationSans-97"/>
       <use x="105.615234" xlink:href="#LiberationSans-98"/>
       <use x="161.230469" xlink:href="#LiberationSans-105"/>
       <use x="183.447266" xlink:href="#LiberationSans-110"/>
       <use x="239.0625" xlink:href="#LiberationSans-115"/>
      </g>
     </g>
    </g>
    <g id="text_49">
     <!-- variable -->
     <g style="fill:#555555;" transform="translate(34.243864 580.280901)rotate(-90)scale(0.12 -0.12)">
      <use xlink:href="#LiberationSans-118"/>
      <use x="50" xlink:href="#LiberationSans-97"/>
      <use x="105.615234" xlink:href="#LiberationSans-114"/>
      <use x="138.916016" xlink:href="#LiberationSans-105"/>
      <use x="161.132812" xlink:href="#LiberationSans-97"/>
      <use x="216.748047" xlink:href="#LiberationSans-98"/>
      <use x="272.363281" xlink:href="#LiberationSans-108"/>
      <use x="294.580078" xlink:href="#LiberationSans-101"/>
     </g>
    </g>
   </g>
   <g id="patch_31">
    <path clip-path="url(#p46f72cf5b7)" d="M 90 634.329412 
L 119.36943 634.329412 
L 119.36943 613.623529 
L 90 613.623529 
z
" style="fill:#5f57db;"/>
   </g>
   <g id="patch_32">
    <path clip-path="url(#p46f72cf5b7)" d="M 90 608.447059 
L 124.645383 608.447059 
L 124.645383 587.741176 
L 90 587.741176 
z
" style="fill:#5f57db;"/>
   </g>
   <g id="patch_33">
    <path clip-path="url(#p46f72cf5b7)" d="M 90 582.564706 
L 132.315506 582.564706 
L 132.315506 561.858824 
L 90 561.858824 
z
" style="fill:#5f57db;"/>
   </g>
   <g id="patch_34">
    <path clip-path="url(#p46f72cf5b7)" d="M 90 556.682353 
L 138.08126 556.682353 
L 138.08126 535.976471 
L 90 535.976471 
z
" style="fill:#5f57db;"/>
   </g>
   <g id="patch_35">
    <path clip-path="url(#p46f72cf5b7)" d="M 90 530.8 
L 402.309134 530.8 
L 402.309134 510.094118 
L 90 510.094118 
z
" style="fill:#5f57db;"/>
   </g>
   <g id="patch_36">
    <path clip-path="url(#p46f72cf5b7)" d="M 90 504.917647 
L 621.428571 504.917647 
L 621.428571 484.211765 
L 90 484.211765 
z
" style="fill:#5f57db;"/>
   </g>
   <g id="line2d_83">
    <path clip-path="url(#p46f72cf5b7)" d="M 140.943132 640.8 
L 140.943132 477.741176 
" style="fill:none;stroke:#e24a33;stroke-linecap:round;stroke-width:1.5;"/>
   </g>
   <g id="patch_37">
    <path d="M 90 640.8 
L 90 477.741176 
" style="fill:none;stroke:#ffffff;stroke-linecap:square;stroke-linejoin:miter;"/>
   </g>
   <g id="patch_38">
    <path d="M 648 640.8 
L 648 477.741176 
" style="fill:none;stroke:#ffffff;stroke-linecap:square;stroke-linejoin:miter;"/>
   </g>
   <g id="patch_39">
    <path d="M 90 640.8 
L 648 640.8 
" style="fill:none;stroke:#ffffff;stroke-linecap:square;stroke-linejoin:miter;"/>
   </g>
   <g id="patch_40">
    <path d="M 90 477.741176 
L 648 477.741176 
" style="fill:none;stroke:#ffffff;stroke-linecap:square;stroke-linejoin:miter;"/>
   </g>
   <g id="patch_41">
    <path d="M 151.568463 554.525211 
Q 148.642043 569.373589 145.715624 584.221967 
L 149.64013 584.995436 
Q 145.536708 590.301281 141.433286 595.607126 
Q 139.649949 589.141078 137.866612 582.67503 
L 141.791118 583.448499 
Q 144.717538 568.600121 147.643957 553.751743 
L 151.568463 554.525211 
z
" style="stroke:#eeeeee;stroke-linecap:round;stroke-width:0.5;"/>
   </g>
   <g id="text_50">
    <g id="patch_42">
     <path d="M 147.736319 551.404412 
L 190.984756 551.404412 
L 190.984756 536.082537 
L 147.736319 536.082537 
z
" style="fill:#ffffff;stroke:#eeeeee;stroke-linejoin:miter;stroke-width:0.5;"/>
    </g>
    <!-- baseline -->
    <g style="fill:#262626;" transform="translate(150.736319 546.329412)scale(0.1 -0.1)">
     <use xlink:href="#LiberationSans-98"/>
     <use x="55.615234" xlink:href="#LiberationSans-97"/>
     <use x="111.230469" xlink:href="#LiberationSans-115"/>
     <use x="161.230469" xlink:href="#LiberationSans-101"/>
     <use x="216.845703" xlink:href="#LiberationSans-108"/>
     <use x="239.0625" xlink:href="#LiberationSans-105"/>
     <use x="261.279297" xlink:href="#LiberationSans-110"/>
     <use x="316.894531" xlink:href="#LiberationSans-101"/>
    </g>
   </g>
   <g id="text_51">
    <!-- rf -->
    <defs>
     <path d="M 17.625 46.4375 
L 17.625 0 
L 8.84375 0 
L 8.84375 46.4375 
L 1.421875 46.4375 
L 1.421875 52.828125 
L 8.84375 52.828125 
L 8.84375 58.796875 
Q 8.84375 66.015625 12.015625 69.1875 
Q 15.1875 72.359375 21.734375 72.359375 
Q 25.390625 72.359375 27.9375 71.78125 
L 27.9375 65.09375 
Q 25.734375 65.484375 24.03125 65.484375 
Q 20.65625 65.484375 19.140625 63.765625 
Q 17.625 62.0625 17.625 57.5625 
L 17.625 52.828125 
L 27.9375 52.828125 
L 27.9375 46.4375 
z
" id="LiberationSans-102"/>
    </defs>
    <g style="fill:#262626;" transform="translate(364.602375 471.741176)scale(0.144 -0.144)">
     <use xlink:href="#LiberationSans-114"/>
     <use x="33.300781" xlink:href="#LiberationSans-102"/>
    </g>
   </g>
   <g id="legend_3">
    <g id="patch_43">
     <path d="M 561.535938 629.725 
L 581.535938 629.725 
L 581.535938 622.725 
L 561.535938 622.725 
z
" style="fill:#5f57db;"/>
    </g>
    <g id="text_52">
     <!-- importance -->
     <g style="fill:#262626;" transform="translate(589.535938 629.725)scale(0.1 -0.1)">
      <use xlink:href="#LiberationSans-105"/>
      <use x="22.216797" xlink:href="#LiberationSans-109"/>
      <use x="105.517578" xlink:href="#LiberationSans-112"/>
      <use x="161.132812" xlink:href="#LiberationSans-111"/>
      <use x="216.748047" xlink:href="#LiberationSans-114"/>
      <use x="250.048828" xlink:href="#LiberationSans-116"/>
      <use x="277.832031" xlink:href="#LiberationSans-97"/>
      <use x="333.447266" xlink:href="#LiberationSans-110"/>
      <use x="389.0625" xlink:href="#LiberationSans-99"/>
      <use x="439.0625" xlink:href="#LiberationSans-101"/>
     </g>
    </g>
   </g>
  </g>
 </g>
 <defs>
  <clipPath id="p9785af62a7">
   <rect height="163.058824" width="558" x="90" y="86.4"/>
  </clipPath>
  <clipPath id="p6f4fe9a9e5">
   <rect height="163.058824" width="558" x="90" y="282.070588"/>
  </clipPath>
  <clipPath id="p46f72cf5b7">
   <rect height="163.058824" width="558" x="90" y="477.741176"/>
  </clipPath>
 </defs>
</svg>
