<?xml version="1.0" encoding="utf-8" standalone="no"?>
<!DOCTYPE svg PUBLIC "-//W3C//DTD SVG 1.1//EN"
  "http://www.w3.org/Graphics/SVG/1.1/DTD/svg11.dtd">
<!-- Created with matplotlib (https://matplotlib.org/) -->
<svg height="720pt" version="1.1" viewBox="0 0 720 720" width="720pt" xmlns="http://www.w3.org/2000/svg" xmlns:xlink="http://www.w3.org/1999/xlink">
 <defs>
  <style type="text/css">
*{stroke-linecap:butt;stroke-linejoin:round;}
  </style>
 </defs>
 <g id="figure_1">
  <g id="patch_1">
   <path d="M 0 720 
L 720 720 
L 720 0 
L 0 0 
z
" style="fill:#ffffff;"/>
  </g>
  <g id="axes_1">
   <g id="patch_2">
    <path d="M 90 308.16 
L 229.5 308.16 
L 229.5 86.4 
L 90 86.4 
z
" style="fill:#ffffff;"/>
   </g>
   <g id="matplotlib.axis_1">
    <g id="xtick_1">
     <g id="line2d_1">
      <path clip-path="url(#p7cdb8532bb)" d="M 145.117133 308.16 
L 145.117133 86.4 
" style="fill:none;stroke:#cccccc;stroke-linecap:round;stroke-width:0.8;"/>
     </g>
     <g id="line2d_2"/>
     <g id="text_1">
      <!-- 20 -->
      <defs>
       <path d="M 5.03125 0 
L 5.03125 6.203125 
Q 7.515625 11.921875 11.109375 16.28125 
Q 14.703125 20.65625 18.65625 24.1875 
Q 22.609375 27.734375 26.484375 30.765625 
Q 30.375 33.796875 33.5 36.8125 
Q 36.625 39.84375 38.546875 43.15625 
Q 40.484375 46.484375 40.484375 50.6875 
Q 40.484375 56.34375 37.15625 59.46875 
Q 33.84375 62.59375 27.9375 62.59375 
Q 22.3125 62.59375 18.671875 59.546875 
Q 15.046875 56.5 14.40625 50.984375 
L 5.421875 51.8125 
Q 6.390625 60.0625 12.421875 64.9375 
Q 18.453125 69.828125 27.9375 69.828125 
Q 38.328125 69.828125 43.921875 64.921875 
Q 49.515625 60.015625 49.515625 50.984375 
Q 49.515625 46.96875 47.671875 43.015625 
Q 45.84375 39.0625 42.234375 35.109375 
Q 38.625 31.15625 28.421875 22.859375 
Q 22.796875 18.265625 19.46875 14.578125 
Q 16.15625 10.890625 14.703125 7.46875 
L 50.59375 7.46875 
L 50.59375 0 
z
" id="LiberationSans-50"/>
       <path d="M 51.703125 34.421875 
Q 51.703125 17.1875 45.625 8.09375 
Q 39.546875 -0.984375 27.6875 -0.984375 
Q 15.828125 -0.984375 9.859375 8.046875 
Q 3.90625 17.09375 3.90625 34.421875 
Q 3.90625 52.15625 9.6875 60.984375 
Q 15.484375 69.828125 27.984375 69.828125 
Q 40.140625 69.828125 45.921875 60.890625 
Q 51.703125 51.953125 51.703125 34.421875 
z
M 42.78125 34.421875 
Q 42.78125 49.3125 39.328125 56 
Q 35.890625 62.703125 27.984375 62.703125 
Q 19.875 62.703125 16.328125 56.109375 
Q 12.796875 49.515625 12.796875 34.421875 
Q 12.796875 19.78125 16.375 12.984375 
Q 19.96875 6.203125 27.78125 6.203125 
Q 35.546875 6.203125 39.15625 13.125 
Q 42.78125 20.0625 42.78125 34.421875 
z
" id="LiberationSans-48"/>
      </defs>
      <g style="fill:#262626;" transform="translate(139.556195 318.906875)scale(0.1 -0.1)">
       <use xlink:href="#LiberationSans-50"/>
       <use x="55.615234" xlink:href="#LiberationSans-48"/>
      </g>
     </g>
    </g>
    <g id="xtick_2">
     <g id="line2d_3">
      <path clip-path="url(#p7cdb8532bb)" d="M 210.152098 308.16 
L 210.152098 86.4 
" style="fill:none;stroke:#cccccc;stroke-linecap:round;stroke-width:0.8;"/>
     </g>
     <g id="line2d_4"/>
     <g id="text_2">
      <!-- 40 -->
      <defs>
       <path d="M 43.015625 15.578125 
L 43.015625 0 
L 34.71875 0 
L 34.71875 15.578125 
L 2.296875 15.578125 
L 2.296875 22.40625 
L 33.796875 68.796875 
L 43.015625 68.796875 
L 43.015625 22.515625 
L 52.6875 22.515625 
L 52.6875 15.578125 
z
M 34.71875 58.890625 
Q 34.625 58.59375 33.34375 56.296875 
Q 32.078125 54 31.453125 53.078125 
L 13.8125 27.09375 
L 11.1875 23.484375 
L 10.40625 22.515625 
L 34.71875 22.515625 
z
" id="LiberationSans-52"/>
      </defs>
      <g style="fill:#262626;" transform="translate(204.59116 318.906875)scale(0.1 -0.1)">
       <use xlink:href="#LiberationSans-52"/>
       <use x="55.615234" xlink:href="#LiberationSans-48"/>
      </g>
     </g>
    </g>
    <g id="text_3">
     <!-- Value -->
     <defs>
      <path d="M 38.1875 0 
L 28.515625 0 
L 0.4375 68.796875 
L 10.25 68.796875 
L 29.296875 20.359375 
L 33.40625 8.203125 
L 37.5 20.359375 
L 56.453125 68.796875 
L 66.265625 68.796875 
z
" id="LiberationSans-86"/>
      <path d="M 20.21875 -0.984375 
Q 12.25 -0.984375 8.25 3.21875 
Q 4.25 7.421875 4.25 14.75 
Q 4.25 22.953125 9.640625 27.34375 
Q 15.046875 31.734375 27.046875 32.03125 
L 38.921875 32.234375 
L 38.921875 35.109375 
Q 38.921875 41.546875 36.1875 44.328125 
Q 33.453125 47.125 27.59375 47.125 
Q 21.6875 47.125 19 45.109375 
Q 16.3125 43.109375 15.765625 38.71875 
L 6.59375 39.546875 
Q 8.84375 53.8125 27.78125 53.8125 
Q 37.75 53.8125 42.765625 49.234375 
Q 47.796875 44.671875 47.796875 36.03125 
L 47.796875 13.28125 
Q 47.796875 9.375 48.828125 7.390625 
Q 49.859375 5.421875 52.734375 5.421875 
Q 54 5.421875 55.609375 5.765625 
L 55.609375 0.296875 
Q 52.296875 -0.484375 48.828125 -0.484375 
Q 43.953125 -0.484375 41.71875 2.078125 
Q 39.5 4.640625 39.203125 10.109375 
L 38.921875 10.109375 
Q 35.546875 4.046875 31.078125 1.53125 
Q 26.609375 -0.984375 20.21875 -0.984375 
z
M 22.21875 5.609375 
Q 27.046875 5.609375 30.8125 7.8125 
Q 34.578125 10.015625 36.75 13.84375 
Q 38.921875 17.671875 38.921875 21.734375 
L 38.921875 26.078125 
L 29.296875 25.875 
Q 23.09375 25.78125 19.890625 24.609375 
Q 16.703125 23.4375 14.984375 21 
Q 13.28125 18.5625 13.28125 14.59375 
Q 13.28125 10.296875 15.59375 7.953125 
Q 17.921875 5.609375 22.21875 5.609375 
z
" id="LiberationSans-97"/>
      <path d="M 6.734375 0 
L 6.734375 72.46875 
L 15.53125 72.46875 
L 15.53125 0 
z
" id="LiberationSans-108"/>
      <path d="M 15.328125 52.828125 
L 15.328125 19.34375 
Q 15.328125 14.109375 16.359375 11.21875 
Q 17.390625 8.34375 19.625 7.078125 
Q 21.875 5.8125 26.21875 5.8125 
Q 32.5625 5.8125 36.21875 10.15625 
Q 39.890625 14.5 39.890625 22.21875 
L 39.890625 52.828125 
L 48.6875 52.828125 
L 48.6875 11.28125 
Q 48.6875 2.046875 48.96875 0 
L 40.671875 0 
Q 40.625 0.25 40.578125 1.3125 
Q 40.53125 2.390625 40.453125 3.78125 
Q 40.375 5.171875 40.28125 9.03125 
L 40.140625 9.03125 
Q 37.109375 3.5625 33.125 1.28125 
Q 29.15625 -0.984375 23.25 -0.984375 
Q 14.546875 -0.984375 10.515625 3.34375 
Q 6.5 7.671875 6.5 17.625 
L 6.5 52.828125 
z
" id="LiberationSans-117"/>
      <path d="M 13.484375 24.5625 
Q 13.484375 15.484375 17.234375 10.546875 
Q 21 5.609375 28.21875 5.609375 
Q 33.9375 5.609375 37.375 7.90625 
Q 40.828125 10.203125 42.046875 13.71875 
L 49.75 11.53125 
Q 45.015625 -0.984375 28.21875 -0.984375 
Q 16.5 -0.984375 10.375 6 
Q 4.25 12.984375 4.25 26.765625 
Q 4.25 39.84375 10.375 46.828125 
Q 16.5 53.8125 27.875 53.8125 
Q 51.171875 53.8125 51.171875 25.734375 
L 51.171875 24.5625 
z
M 42.09375 31.296875 
Q 41.359375 39.65625 37.84375 43.484375 
Q 34.328125 47.3125 27.734375 47.3125 
Q 21.34375 47.3125 17.609375 43.03125 
Q 13.875 38.765625 13.578125 31.296875 
z
" id="LiberationSans-101"/>
     </defs>
     <g style="fill:#262626;" transform="translate(144.411563 333.678125)scale(0.12 -0.12)">
      <use xlink:href="#LiberationSans-86"/>
      <use x="66.589844" xlink:href="#LiberationSans-97"/>
      <use x="122.205078" xlink:href="#LiberationSans-108"/>
      <use x="144.421875" xlink:href="#LiberationSans-117"/>
      <use x="200.037109" xlink:href="#LiberationSans-101"/>
     </g>
    </g>
   </g>
   <g id="matplotlib.axis_2">
    <g id="ytick_1">
     <g id="line2d_5">
      <path clip-path="url(#p7cdb8532bb)" d="M 90 277.897876 
L 229.5 277.897876 
" style="fill:none;stroke:#cccccc;stroke-linecap:round;stroke-width:0.8;"/>
     </g>
     <g id="line2d_6"/>
     <g id="text_4">
      <!-- 2 -->
      <g style="fill:#262626;" transform="translate(80.939063 281.521314)scale(0.1 -0.1)">
       <use xlink:href="#LiberationSans-50"/>
      </g>
     </g>
    </g>
    <g id="ytick_2">
     <g id="line2d_7">
      <path clip-path="url(#p7cdb8532bb)" d="M 90 244.153372 
L 229.5 244.153372 
" style="fill:none;stroke:#cccccc;stroke-linecap:round;stroke-width:0.8;"/>
     </g>
     <g id="line2d_8"/>
     <g id="text_5">
      <!-- 4 -->
      <g style="fill:#262626;" transform="translate(80.939063 247.77681)scale(0.1 -0.1)">
       <use xlink:href="#LiberationSans-52"/>
      </g>
     </g>
    </g>
    <g id="ytick_3">
     <g id="line2d_9">
      <path clip-path="url(#p7cdb8532bb)" d="M 90 210.408869 
L 229.5 210.408869 
" style="fill:none;stroke:#cccccc;stroke-linecap:round;stroke-width:0.8;"/>
     </g>
     <g id="line2d_10"/>
     <g id="text_6">
      <!-- 6 -->
      <defs>
       <path d="M 51.21875 22.515625 
Q 51.21875 11.625 45.3125 5.3125 
Q 39.40625 -0.984375 29 -0.984375 
Q 17.390625 -0.984375 11.234375 7.65625 
Q 5.078125 16.3125 5.078125 32.8125 
Q 5.078125 50.6875 11.46875 60.25 
Q 17.875 69.828125 29.6875 69.828125 
Q 45.265625 69.828125 49.3125 55.8125 
L 40.921875 54.296875 
Q 38.328125 62.703125 29.59375 62.703125 
Q 22.078125 62.703125 17.9375 55.6875 
Q 13.8125 48.6875 13.8125 35.40625 
Q 16.21875 39.84375 20.5625 42.15625 
Q 24.90625 44.484375 30.515625 44.484375 
Q 40.046875 44.484375 45.625 38.515625 
Q 51.21875 32.5625 51.21875 22.515625 
z
M 42.28125 22.125 
Q 42.28125 29.59375 38.625 33.640625 
Q 34.96875 37.703125 28.421875 37.703125 
Q 22.265625 37.703125 18.484375 34.109375 
Q 14.703125 30.515625 14.703125 24.21875 
Q 14.703125 16.265625 18.625 11.1875 
Q 22.5625 6.109375 28.71875 6.109375 
Q 35.0625 6.109375 38.671875 10.375 
Q 42.28125 14.65625 42.28125 22.125 
z
" id="LiberationSans-54"/>
      </defs>
      <g style="fill:#262626;" transform="translate(80.939063 214.032306)scale(0.1 -0.1)">
       <use xlink:href="#LiberationSans-54"/>
      </g>
     </g>
    </g>
    <g id="ytick_4">
     <g id="line2d_11">
      <path clip-path="url(#p7cdb8532bb)" d="M 90 176.664365 
L 229.5 176.664365 
" style="fill:none;stroke:#cccccc;stroke-linecap:round;stroke-width:0.8;"/>
     </g>
     <g id="line2d_12"/>
     <g id="text_7">
      <!-- 8 -->
      <defs>
       <path d="M 51.265625 19.1875 
Q 51.265625 9.671875 45.203125 4.34375 
Q 39.15625 -0.984375 27.828125 -0.984375 
Q 16.796875 -0.984375 10.5625 4.234375 
Q 4.34375 9.46875 4.34375 19.09375 
Q 4.34375 25.828125 8.203125 30.421875 
Q 12.0625 35.015625 18.0625 35.984375 
L 18.0625 36.1875 
Q 12.453125 37.5 9.203125 41.890625 
Q 5.953125 46.296875 5.953125 52.203125 
Q 5.953125 60.0625 11.828125 64.9375 
Q 17.71875 69.828125 27.640625 69.828125 
Q 37.796875 69.828125 43.671875 65.03125 
Q 49.5625 60.25 49.5625 52.09375 
Q 49.5625 46.1875 46.28125 41.796875 
Q 43.015625 37.40625 37.359375 36.28125 
L 37.359375 36.078125 
Q 43.953125 35.015625 47.609375 30.5 
Q 51.265625 25.984375 51.265625 19.1875 
z
M 40.4375 51.609375 
Q 40.4375 63.28125 27.640625 63.28125 
Q 21.4375 63.28125 18.1875 60.34375 
Q 14.9375 57.421875 14.9375 51.609375 
Q 14.9375 45.703125 18.28125 42.59375 
Q 21.625 39.5 27.734375 39.5 
Q 33.9375 39.5 37.1875 42.359375 
Q 40.4375 45.21875 40.4375 51.609375 
z
M 42.140625 20.015625 
Q 42.140625 26.421875 38.328125 29.65625 
Q 34.515625 32.90625 27.640625 32.90625 
Q 20.953125 32.90625 17.1875 29.40625 
Q 13.421875 25.921875 13.421875 19.828125 
Q 13.421875 5.609375 27.9375 5.609375 
Q 35.109375 5.609375 38.625 9.046875 
Q 42.140625 12.5 42.140625 20.015625 
z
" id="LiberationSans-56"/>
      </defs>
      <g style="fill:#262626;" transform="translate(80.939063 180.287802)scale(0.1 -0.1)">
       <use xlink:href="#LiberationSans-56"/>
      </g>
     </g>
    </g>
    <g id="ytick_5">
     <g id="line2d_13">
      <path clip-path="url(#p7cdb8532bb)" d="M 90 142.919861 
L 229.5 142.919861 
" style="fill:none;stroke:#cccccc;stroke-linecap:round;stroke-width:0.8;"/>
     </g>
     <g id="line2d_14"/>
     <g id="text_8">
      <!-- 10 -->
      <defs>
       <path d="M 7.625 0 
L 7.625 7.46875 
L 25.140625 7.46875 
L 25.140625 60.40625 
L 9.625 49.3125 
L 9.625 57.625 
L 25.875 68.796875 
L 33.984375 68.796875 
L 33.984375 7.46875 
L 50.734375 7.46875 
L 50.734375 0 
z
" id="LiberationSans-49"/>
      </defs>
      <g style="fill:#262626;" transform="translate(75.378125 146.543299)scale(0.1 -0.1)">
       <use xlink:href="#LiberationSans-49"/>
       <use x="55.615234" xlink:href="#LiberationSans-48"/>
      </g>
     </g>
    </g>
    <g id="ytick_6">
     <g id="line2d_15">
      <path clip-path="url(#p7cdb8532bb)" d="M 90 109.175357 
L 229.5 109.175357 
" style="fill:none;stroke:#cccccc;stroke-linecap:round;stroke-width:0.8;"/>
     </g>
     <g id="line2d_16"/>
     <g id="text_9">
      <!-- 12 -->
      <g style="fill:#262626;" transform="translate(75.378125 112.798795)scale(0.1 -0.1)">
       <use xlink:href="#LiberationSans-49"/>
       <use x="55.615234" xlink:href="#LiberationSans-50"/>
      </g>
     </g>
    </g>
    <g id="text_10">
     <!-- Average Prediction -->
     <defs>
      <path d="M 56.984375 0 
L 49.125 20.125 
L 17.78125 20.125 
L 9.859375 0 
L 0.203125 0 
L 28.265625 68.796875 
L 38.875 68.796875 
L 66.5 0 
z
M 33.453125 61.765625 
L 33.015625 60.40625 
Q 31.78125 56.34375 29.390625 50 
L 20.609375 27.390625 
L 46.34375 27.390625 
L 37.5 50.09375 
Q 36.140625 53.46875 34.765625 57.71875 
z
" id="LiberationSans-65"/>
      <path d="M 29.9375 0 
L 19.53125 0 
L 0.34375 52.828125 
L 9.71875 52.828125 
L 21.34375 18.453125 
Q 21.96875 16.5 24.703125 6.890625 
L 26.421875 12.59375 
L 28.328125 18.359375 
L 40.328125 52.828125 
L 49.65625 52.828125 
z
" id="LiberationSans-118"/>
      <path d="M 6.9375 0 
L 6.9375 40.53125 
Q 6.9375 46.09375 6.640625 52.828125 
L 14.9375 52.828125 
Q 15.328125 43.84375 15.328125 42.046875 
L 15.53125 42.046875 
Q 17.625 48.828125 20.359375 51.3125 
Q 23.09375 53.8125 28.078125 53.8125 
Q 29.828125 53.8125 31.640625 53.328125 
L 31.640625 45.265625 
Q 29.890625 45.75 26.953125 45.75 
Q 21.484375 45.75 18.59375 41.03125 
Q 15.71875 36.328125 15.71875 27.546875 
L 15.71875 0 
z
" id="LiberationSans-114"/>
      <path d="M 26.765625 -20.75 
Q 18.109375 -20.75 12.984375 -17.359375 
Q 7.859375 -13.96875 6.390625 -7.71875 
L 15.234375 -6.453125 
Q 16.109375 -10.109375 19.109375 -12.078125 
Q 22.125 -14.0625 27 -14.0625 
Q 40.140625 -14.0625 40.140625 1.3125 
L 40.140625 9.8125 
L 40.046875 9.8125 
Q 37.546875 4.734375 33.203125 2.171875 
Q 28.859375 -0.390625 23.046875 -0.390625 
Q 13.328125 -0.390625 8.765625 6.046875 
Q 4.203125 12.5 4.203125 26.3125 
Q 4.203125 40.328125 9.109375 46.984375 
Q 14.015625 53.65625 24.03125 53.65625 
Q 29.640625 53.65625 33.765625 51.09375 
Q 37.890625 48.53125 40.140625 43.796875 
L 40.234375 43.796875 
Q 40.234375 45.265625 40.421875 48.875 
Q 40.625 52.484375 40.828125 52.828125 
L 49.171875 52.828125 
Q 48.875 50.203125 48.875 41.890625 
L 48.875 1.515625 
Q 48.875 -20.75 26.765625 -20.75 
z
M 40.140625 26.421875 
Q 40.140625 32.859375 38.375 37.515625 
Q 36.625 42.1875 33.421875 44.65625 
Q 30.21875 47.125 26.171875 47.125 
Q 19.4375 47.125 16.359375 42.234375 
Q 13.28125 37.359375 13.28125 26.421875 
Q 13.28125 15.578125 16.15625 10.84375 
Q 19.046875 6.109375 26.03125 6.109375 
Q 30.171875 6.109375 33.390625 8.546875 
Q 36.625 10.984375 38.375 15.546875 
Q 40.140625 20.125 40.140625 26.421875 
z
" id="LiberationSans-103"/>
      <path id="LiberationSans-32"/>
      <path d="M 61.421875 48.09375 
Q 61.421875 38.328125 55.046875 32.5625 
Q 48.6875 26.8125 37.75 26.8125 
L 17.53125 26.8125 
L 17.53125 0 
L 8.203125 0 
L 8.203125 68.796875 
L 37.15625 68.796875 
Q 48.734375 68.796875 55.078125 63.375 
Q 61.421875 57.953125 61.421875 48.09375 
z
M 52.046875 48 
Q 52.046875 61.328125 36.03125 61.328125 
L 17.53125 61.328125 
L 17.53125 34.1875 
L 36.421875 34.1875 
Q 52.046875 34.1875 52.046875 48 
z
" id="LiberationSans-80"/>
      <path d="M 40.09375 8.5 
Q 37.640625 3.421875 33.609375 1.21875 
Q 29.59375 -0.984375 23.640625 -0.984375 
Q 13.625 -0.984375 8.90625 5.75 
Q 4.203125 12.5 4.203125 26.171875 
Q 4.203125 53.8125 23.640625 53.8125 
Q 29.640625 53.8125 33.640625 51.609375 
Q 37.640625 49.421875 40.09375 44.625 
L 40.1875 44.625 
L 40.09375 50.53125 
L 40.09375 72.46875 
L 48.875 72.46875 
L 48.875 10.890625 
Q 48.875 2.640625 49.171875 0 
L 40.765625 0 
Q 40.625 0.78125 40.453125 3.609375 
Q 40.28125 6.453125 40.28125 8.5 
z
M 13.421875 26.46875 
Q 13.421875 15.375 16.34375 10.59375 
Q 19.28125 5.8125 25.875 5.8125 
Q 33.34375 5.8125 36.71875 10.984375 
Q 40.09375 16.15625 40.09375 27.046875 
Q 40.09375 37.546875 36.71875 42.421875 
Q 33.34375 47.3125 25.984375 47.3125 
Q 19.34375 47.3125 16.375 42.40625 
Q 13.421875 37.5 13.421875 26.46875 
z
" id="LiberationSans-100"/>
      <path d="M 6.6875 64.0625 
L 6.6875 72.46875 
L 15.484375 72.46875 
L 15.484375 64.0625 
z
M 6.6875 0 
L 6.6875 52.828125 
L 15.484375 52.828125 
L 15.484375 0 
z
" id="LiberationSans-105"/>
      <path d="M 13.421875 26.65625 
Q 13.421875 16.109375 16.734375 11.03125 
Q 20.0625 5.953125 26.765625 5.953125 
Q 31.453125 5.953125 34.59375 8.484375 
Q 37.75 11.03125 38.484375 16.3125 
L 47.359375 15.71875 
Q 46.34375 8.109375 40.875 3.5625 
Q 35.40625 -0.984375 27 -0.984375 
Q 15.921875 -0.984375 10.078125 6.015625 
Q 4.25 13.03125 4.25 26.46875 
Q 4.25 39.796875 10.109375 46.796875 
Q 15.96875 53.8125 26.90625 53.8125 
Q 35.015625 53.8125 40.359375 49.609375 
Q 45.703125 45.40625 47.078125 38.03125 
L 38.03125 37.359375 
Q 37.359375 41.75 34.5625 44.328125 
Q 31.78125 46.921875 26.65625 46.921875 
Q 19.671875 46.921875 16.546875 42.28125 
Q 13.421875 37.640625 13.421875 26.65625 
z
" id="LiberationSans-99"/>
      <path d="M 27.046875 0.390625 
Q 22.703125 -0.78125 18.171875 -0.78125 
Q 7.625 -0.78125 7.625 11.1875 
L 7.625 46.4375 
L 1.515625 46.4375 
L 1.515625 52.828125 
L 7.953125 52.828125 
L 10.546875 64.65625 
L 16.40625 64.65625 
L 16.40625 52.828125 
L 26.171875 52.828125 
L 26.171875 46.4375 
L 16.40625 46.4375 
L 16.40625 13.09375 
Q 16.40625 9.28125 17.640625 7.734375 
Q 18.890625 6.203125 21.96875 6.203125 
Q 23.734375 6.203125 27.046875 6.890625 
z
" id="LiberationSans-116"/>
      <path d="M 51.421875 26.46875 
Q 51.421875 12.59375 45.3125 5.796875 
Q 39.203125 -0.984375 27.59375 -0.984375 
Q 16.015625 -0.984375 10.109375 6.078125 
Q 4.203125 13.140625 4.203125 26.46875 
Q 4.203125 53.8125 27.875 53.8125 
Q 39.984375 53.8125 45.703125 47.140625 
Q 51.421875 40.484375 51.421875 26.46875 
z
M 42.1875 26.46875 
Q 42.1875 37.40625 38.9375 42.359375 
Q 35.6875 47.3125 28.03125 47.3125 
Q 20.3125 47.3125 16.859375 42.25 
Q 13.421875 37.203125 13.421875 26.46875 
Q 13.421875 16.015625 16.8125 10.765625 
Q 20.21875 5.515625 27.484375 5.515625 
Q 35.40625 5.515625 38.796875 10.59375 
Q 42.1875 15.671875 42.1875 26.46875 
z
" id="LiberationSans-111"/>
      <path d="M 40.28125 0 
L 40.28125 33.5 
Q 40.28125 38.71875 39.25 41.59375 
Q 38.234375 44.484375 35.984375 45.75 
Q 33.734375 47.015625 29.390625 47.015625 
Q 23.046875 47.015625 19.375 42.671875 
Q 15.71875 38.328125 15.71875 30.609375 
L 15.71875 0 
L 6.9375 0 
L 6.9375 41.546875 
Q 6.9375 50.78125 6.640625 52.828125 
L 14.9375 52.828125 
Q 14.984375 52.59375 15.03125 51.515625 
Q 15.09375 50.4375 15.15625 49.046875 
Q 15.234375 47.65625 15.328125 43.796875 
L 15.484375 43.796875 
Q 18.5 49.265625 22.484375 51.53125 
Q 26.46875 53.8125 32.375 53.8125 
Q 41.0625 53.8125 45.09375 49.484375 
Q 49.125 45.171875 49.125 35.203125 
L 49.125 0 
z
" id="LiberationSans-110"/>
     </defs>
     <g style="fill:#262626;" transform="translate(68.888125 247.971562)rotate(-90)scale(0.12 -0.12)">
      <use xlink:href="#LiberationSans-65"/>
      <use x="66.683594" xlink:href="#LiberationSans-118"/>
      <use x="116.683594" xlink:href="#LiberationSans-101"/>
      <use x="172.298828" xlink:href="#LiberationSans-114"/>
      <use x="205.599609" xlink:href="#LiberationSans-97"/>
      <use x="261.214844" xlink:href="#LiberationSans-103"/>
      <use x="316.830078" xlink:href="#LiberationSans-101"/>
      <use x="372.445312" xlink:href="#LiberationSans-32"/>
      <use x="400.228516" xlink:href="#LiberationSans-80"/>
      <use x="466.927734" xlink:href="#LiberationSans-114"/>
      <use x="500.228516" xlink:href="#LiberationSans-101"/>
      <use x="555.84375" xlink:href="#LiberationSans-100"/>
      <use x="611.458984" xlink:href="#LiberationSans-105"/>
      <use x="633.675781" xlink:href="#LiberationSans-99"/>
      <use x="683.675781" xlink:href="#LiberationSans-116"/>
      <use x="711.458984" xlink:href="#LiberationSans-105"/>
      <use x="733.675781" xlink:href="#LiberationSans-111"/>
      <use x="789.291016" xlink:href="#LiberationSans-110"/>
     </g>
    </g>
   </g>
   <g id="PolyCollection_1">
    <path clip-path="url(#p7cdb8532bb)" d="M 99.592657 96.48 
L 99.592657 135.674452 
L 102.844406 161.648356 
L 109.347902 298.08 
L 115.851399 247.663349 
L 119.103147 217.896226 
L 122.354895 234.382546 
L 125.606643 223.202844 
L 128.858392 221.973869 
L 132.11014 230.866699 
L 132.11014 157.549748 
L 132.11014 157.549748 
L 128.858392 140.359666 
L 125.606643 139.987632 
L 122.354895 115.342439 
L 119.103147 146.934972 
L 115.851399 156.653621 
L 109.347902 146.090621 
L 102.844406 146.090621 
L 99.592657 96.48 
z
" style="fill:#db5f57;fill-opacity:0.2;stroke:#db5f57;stroke-opacity:0.2;stroke-width:0.5;"/>
    <path clip-path="url(#p7cdb8532bb)" d="M 148.368881 99.683998 
L 148.368881 277.328902 
L 151.620629 274.600152 
L 161.375874 159.70172 
L 161.375874 154.59103 
L 161.375874 154.59103 
L 151.620629 230.975427 
L 148.368881 99.683998 
z
" style="fill:#db5f57;fill-opacity:0.2;stroke:#db5f57;stroke-opacity:0.2;stroke-width:0.5;"/>
   </g>
   <g id="line2d_17">
    <path clip-path="url(#p7cdb8532bb)" d="M 96.340909 249.719317 
L 99.592657 122.595828 
L 102.844406 153.869489 
L 109.347902 196.753747 
L 115.851399 202.158485 
L 119.103147 182.415599 
L 122.354895 174.862493 
L 125.606643 181.595238 
L 128.858392 181.166767 
L 132.11014 201.157208 
L 141.865385 246.678221 
L 148.368881 163.0458 
L 151.620629 252.512463 
L 161.375874 157.744637 
L 167.879371 173.46644 
L 174.382867 277.435745 
L 197.145105 255.46782 
L 223.159091 297.445856 
" style="fill:none;stroke:#db5f57;stroke-linecap:round;stroke-width:1.5;"/>
   </g>
   <g id="patch_3">
    <path d="M 90 308.16 
L 90 86.4 
" style="fill:none;stroke:#cccccc;stroke-linecap:square;stroke-linejoin:miter;"/>
   </g>
   <g id="patch_4">
    <path d="M 229.5 308.16 
L 229.5 86.4 
" style="fill:none;stroke:#cccccc;stroke-linecap:square;stroke-linejoin:miter;"/>
   </g>
   <g id="patch_5">
    <path d="M 90 308.16 
L 229.5 308.16 
" style="fill:none;stroke:#cccccc;stroke-linecap:square;stroke-linejoin:miter;"/>
   </g>
   <g id="patch_6">
    <path d="M 90 86.4 
L 229.5 86.4 
" style="fill:none;stroke:#cccccc;stroke-linecap:square;stroke-linejoin:miter;"/>
   </g>
   <g id="text_11">
    <!-- Age -->
    <g style="fill:#262626;" transform="translate(146.939625 80.4)scale(0.144 -0.144)">
     <use xlink:href="#LiberationSans-65"/>
     <use x="66.699219" xlink:href="#LiberationSans-103"/>
     <use x="122.314453" xlink:href="#LiberationSans-101"/>
    </g>
   </g>
  </g>
  <g id="axes_2">
   <g id="patch_7">
    <path d="M 299.25 308.16 
L 438.75 308.16 
L 438.75 86.4 
L 299.25 86.4 
z
" style="fill:#ffffff;"/>
   </g>
   <g id="matplotlib.axis_3">
    <g id="xtick_3">
     <g id="line2d_18">
      <path clip-path="url(#p7173991c2b)" d="M 303.339195 308.16 
L 303.339195 86.4 
" style="fill:none;stroke:#cccccc;stroke-linecap:round;stroke-width:0.8;"/>
     </g>
     <g id="line2d_19"/>
     <g id="text_12">
      <!-- 0 -->
      <g style="fill:#262626;" transform="translate(300.558727 318.906875)scale(0.1 -0.1)">
       <use xlink:href="#LiberationSans-48"/>
      </g>
     </g>
    </g>
    <g id="xtick_4">
     <g id="line2d_20">
      <path clip-path="url(#p7173991c2b)" d="M 351.67998 308.16 
L 351.67998 86.4 
" style="fill:none;stroke:#cccccc;stroke-linecap:round;stroke-width:0.8;"/>
     </g>
     <g id="line2d_21"/>
     <g id="text_13">
      <!-- 50 -->
      <defs>
       <path d="M 51.421875 22.40625 
Q 51.421875 11.53125 44.953125 5.265625 
Q 38.484375 -0.984375 27 -0.984375 
Q 17.390625 -0.984375 11.46875 3.21875 
Q 5.5625 7.421875 4 15.375 
L 12.890625 16.40625 
Q 15.671875 6.203125 27.203125 6.203125 
Q 34.28125 6.203125 38.28125 10.46875 
Q 42.28125 14.75 42.28125 22.21875 
Q 42.28125 28.71875 38.25 32.71875 
Q 34.234375 36.71875 27.390625 36.71875 
Q 23.828125 36.71875 20.75 35.59375 
Q 17.671875 34.46875 14.59375 31.78125 
L 6 31.78125 
L 8.296875 68.796875 
L 47.40625 68.796875 
L 47.40625 61.328125 
L 16.3125 61.328125 
L 14.984375 39.5 
Q 20.703125 43.890625 29.203125 43.890625 
Q 39.359375 43.890625 45.390625 37.9375 
Q 51.421875 31.984375 51.421875 22.40625 
z
" id="LiberationSans-53"/>
      </defs>
      <g style="fill:#262626;" transform="translate(346.119043 318.906875)scale(0.1 -0.1)">
       <use xlink:href="#LiberationSans-53"/>
       <use x="55.615234" xlink:href="#LiberationSans-48"/>
      </g>
     </g>
    </g>
    <g id="xtick_5">
     <g id="line2d_22">
      <path clip-path="url(#p7173991c2b)" d="M 400.020765 308.16 
L 400.020765 86.4 
" style="fill:none;stroke:#cccccc;stroke-linecap:round;stroke-width:0.8;"/>
     </g>
     <g id="line2d_23"/>
     <g id="text_14">
      <!-- 100 -->
      <g style="fill:#262626;" transform="translate(391.679359 318.906875)scale(0.1 -0.1)">
       <use xlink:href="#LiberationSans-49"/>
       <use x="55.615234" xlink:href="#LiberationSans-48"/>
       <use x="111.230469" xlink:href="#LiberationSans-48"/>
      </g>
     </g>
    </g>
    <g id="text_15">
     <!-- Value -->
     <g style="fill:#262626;" transform="translate(353.661563 333.678125)scale(0.12 -0.12)">
      <use xlink:href="#LiberationSans-86"/>
      <use x="66.589844" xlink:href="#LiberationSans-97"/>
      <use x="122.205078" xlink:href="#LiberationSans-108"/>
      <use x="144.421875" xlink:href="#LiberationSans-117"/>
      <use x="200.037109" xlink:href="#LiberationSans-101"/>
     </g>
    </g>
   </g>
   <g id="matplotlib.axis_4">
    <g id="ytick_7">
     <g id="line2d_24">
      <path clip-path="url(#p7173991c2b)" d="M 299.25 298.266958 
L 438.75 298.266958 
" style="fill:none;stroke:#cccccc;stroke-linecap:round;stroke-width:0.8;"/>
     </g>
     <g id="line2d_25"/>
     <g id="text_16">
      <!-- 4 -->
      <g style="fill:#262626;" transform="translate(290.189062 301.890395)scale(0.1 -0.1)">
       <use xlink:href="#LiberationSans-52"/>
      </g>
     </g>
    </g>
    <g id="ytick_8">
     <g id="line2d_26">
      <path clip-path="url(#p7173991c2b)" d="M 299.25 266.606019 
L 438.75 266.606019 
" style="fill:none;stroke:#cccccc;stroke-linecap:round;stroke-width:0.8;"/>
     </g>
     <g id="line2d_27"/>
     <g id="text_17">
      <!-- 5 -->
      <g style="fill:#262626;" transform="translate(290.189062 270.229456)scale(0.1 -0.1)">
       <use xlink:href="#LiberationSans-53"/>
      </g>
     </g>
    </g>
    <g id="ytick_9">
     <g id="line2d_28">
      <path clip-path="url(#p7173991c2b)" d="M 299.25 234.94508 
L 438.75 234.94508 
" style="fill:none;stroke:#cccccc;stroke-linecap:round;stroke-width:0.8;"/>
     </g>
     <g id="line2d_29"/>
     <g id="text_18">
      <!-- 6 -->
      <g style="fill:#262626;" transform="translate(290.189062 238.568517)scale(0.1 -0.1)">
       <use xlink:href="#LiberationSans-54"/>
      </g>
     </g>
    </g>
    <g id="ytick_10">
     <g id="line2d_30">
      <path clip-path="url(#p7173991c2b)" d="M 299.25 203.284141 
L 438.75 203.284141 
" style="fill:none;stroke:#cccccc;stroke-linecap:round;stroke-width:0.8;"/>
     </g>
     <g id="line2d_31"/>
     <g id="text_19">
      <!-- 7 -->
      <defs>
       <path d="M 50.59375 61.671875 
Q 40.046875 45.5625 35.6875 36.421875 
Q 31.34375 27.296875 29.171875 18.40625 
Q 27 9.515625 27 0 
L 17.828125 0 
Q 17.828125 13.1875 23.40625 27.75 
Q 29 42.328125 42.09375 61.328125 
L 5.125 61.328125 
L 5.125 68.796875 
L 50.59375 68.796875 
z
" id="LiberationSans-55"/>
      </defs>
      <g style="fill:#262626;" transform="translate(290.189062 206.907578)scale(0.1 -0.1)">
       <use xlink:href="#LiberationSans-55"/>
      </g>
     </g>
    </g>
    <g id="ytick_11">
     <g id="line2d_32">
      <path clip-path="url(#p7173991c2b)" d="M 299.25 171.623202 
L 438.75 171.623202 
" style="fill:none;stroke:#cccccc;stroke-linecap:round;stroke-width:0.8;"/>
     </g>
     <g id="line2d_33"/>
     <g id="text_20">
      <!-- 8 -->
      <g style="fill:#262626;" transform="translate(290.189062 175.246639)scale(0.1 -0.1)">
       <use xlink:href="#LiberationSans-56"/>
      </g>
     </g>
    </g>
    <g id="ytick_12">
     <g id="line2d_34">
      <path clip-path="url(#p7173991c2b)" d="M 299.25 139.962263 
L 438.75 139.962263 
" style="fill:none;stroke:#cccccc;stroke-linecap:round;stroke-width:0.8;"/>
     </g>
     <g id="line2d_35"/>
     <g id="text_21">
      <!-- 9 -->
      <defs>
       <path d="M 50.875 35.796875 
Q 50.875 18.0625 44.40625 8.53125 
Q 37.9375 -0.984375 25.984375 -0.984375 
Q 17.921875 -0.984375 13.0625 2.40625 
Q 8.203125 5.8125 6.109375 13.375 
L 14.5 14.703125 
Q 17.140625 6.109375 26.125 6.109375 
Q 33.6875 6.109375 37.84375 13.140625 
Q 42 20.171875 42.1875 33.203125 
Q 40.234375 28.8125 35.5 26.140625 
Q 30.765625 23.484375 25.09375 23.484375 
Q 15.828125 23.484375 10.25 29.828125 
Q 4.6875 36.1875 4.6875 46.6875 
Q 4.6875 57.46875 10.734375 63.640625 
Q 16.796875 69.828125 27.59375 69.828125 
Q 39.0625 69.828125 44.96875 61.328125 
Q 50.875 52.828125 50.875 35.796875 
z
M 41.3125 44.28125 
Q 41.3125 52.59375 37.5 57.640625 
Q 33.6875 62.703125 27.296875 62.703125 
Q 20.953125 62.703125 17.28125 58.375 
Q 13.625 54.046875 13.625 46.6875 
Q 13.625 39.15625 17.28125 34.78125 
Q 20.953125 30.421875 27.203125 30.421875 
Q 31 30.421875 34.265625 32.15625 
Q 37.546875 33.890625 39.421875 37.0625 
Q 41.3125 40.234375 41.3125 44.28125 
z
" id="LiberationSans-57"/>
      </defs>
      <g style="fill:#262626;" transform="translate(290.189062 143.5857)scale(0.1 -0.1)">
       <use xlink:href="#LiberationSans-57"/>
      </g>
     </g>
    </g>
    <g id="ytick_13">
     <g id="line2d_36">
      <path clip-path="url(#p7173991c2b)" d="M 299.25 108.301324 
L 438.75 108.301324 
" style="fill:none;stroke:#cccccc;stroke-linecap:round;stroke-width:0.8;"/>
     </g>
     <g id="line2d_37"/>
     <g id="text_22">
      <!-- 10 -->
      <g style="fill:#262626;" transform="translate(284.628125 111.924761)scale(0.1 -0.1)">
       <use xlink:href="#LiberationSans-49"/>
       <use x="55.615234" xlink:href="#LiberationSans-48"/>
      </g>
     </g>
    </g>
    <g id="text_23">
     <!-- Average Prediction -->
     <g style="fill:#262626;" transform="translate(278.138125 247.971562)rotate(-90)scale(0.12 -0.12)">
      <use xlink:href="#LiberationSans-65"/>
      <use x="66.683594" xlink:href="#LiberationSans-118"/>
      <use x="116.683594" xlink:href="#LiberationSans-101"/>
      <use x="172.298828" xlink:href="#LiberationSans-114"/>
      <use x="205.599609" xlink:href="#LiberationSans-97"/>
      <use x="261.214844" xlink:href="#LiberationSans-103"/>
      <use x="316.830078" xlink:href="#LiberationSans-101"/>
      <use x="372.445312" xlink:href="#LiberationSans-32"/>
      <use x="400.228516" xlink:href="#LiberationSans-80"/>
      <use x="466.927734" xlink:href="#LiberationSans-114"/>
      <use x="500.228516" xlink:href="#LiberationSans-101"/>
      <use x="555.84375" xlink:href="#LiberationSans-100"/>
      <use x="611.458984" xlink:href="#LiberationSans-105"/>
      <use x="633.675781" xlink:href="#LiberationSans-99"/>
      <use x="683.675781" xlink:href="#LiberationSans-116"/>
      <use x="711.458984" xlink:href="#LiberationSans-105"/>
      <use x="733.675781" xlink:href="#LiberationSans-111"/>
      <use x="789.291016" xlink:href="#LiberationSans-110"/>
     </g>
    </g>
   </g>
   <g id="PolyCollection_2">
    <path clip-path="url(#p7173991c2b)" d="M 332.611474 127.542943 
L 332.611474 297.510341 
L 332.611474 127.542943 
L 332.611474 127.542943 
z
" style="fill:#57d3db;fill-opacity:0.2;stroke:#57d3db;stroke-opacity:0.2;stroke-width:0.5;"/>
    <path clip-path="url(#p7173991c2b)" d="M 391.319424 256.572192 
L 391.319424 284.135493 
L 391.319424 256.572192 
L 391.319424 256.572192 
z
" style="fill:#57d3db;fill-opacity:0.2;stroke:#57d3db;stroke-opacity:0.2;stroke-width:0.5;"/>
    <path clip-path="url(#p7173991c2b)" d="M 401.47969 129.816198 
L 401.47969 142.020778 
L 401.47969 129.816198 
L 401.47969 129.816198 
z
" style="fill:#57d3db;fill-opacity:0.2;stroke:#57d3db;stroke-opacity:0.2;stroke-width:0.5;"/>
   </g>
   <g id="line2d_38">
    <path clip-path="url(#p7173991c2b)" d="M 305.590909 263.674612 
L 306.569327 127.870238 
L 315.424392 121.560609 
L 319.581699 122.146178 
L 319.631973 121.371514 
L 321.798607 152.921323 
L 321.902057 119.340464 
L 330.825766 119.290598 
L 332.611474 228.74104 
L 335.244113 230.038663 
L 336.133584 119.636969 
L 336.452633 150.155819 
L 340.078192 236.781335 
L 343.945455 232.403894 
L 351.67998 96.48 
L 354.508883 111.517838 
L 361.011685 261.033535 
L 371.332443 243.793204 
L 374.10237 113.023316 
L 374.826515 110.187841 
L 378.473344 243.141147 
L 379.225526 135.091702 
L 381.651267 216.743681 
L 386.116989 258.818378 
L 389.965882 260.171012 
L 390.352608 118.887238 
L 390.439621 124.405819 
L 391.319424 270.129908 
L 393.253055 282.838741 
L 401.47969 135.918488 
L 404.854844 144.415611 
L 408.591586 157.617986 
L 409.919991 285.05746 
L 415.489816 262.307888 
L 432.409091 298.08 
" style="fill:none;stroke:#57d3db;stroke-linecap:round;stroke-width:1.5;"/>
   </g>
   <g id="patch_8">
    <path d="M 299.25 308.16 
L 299.25 86.4 
" style="fill:none;stroke:#cccccc;stroke-linecap:square;stroke-linejoin:miter;"/>
   </g>
   <g id="patch_9">
    <path d="M 438.75 308.16 
L 438.75 86.4 
" style="fill:none;stroke:#cccccc;stroke-linecap:square;stroke-linejoin:miter;"/>
   </g>
   <g id="patch_10">
    <path d="M 299.25 308.16 
L 438.75 308.16 
" style="fill:none;stroke:#cccccc;stroke-linecap:square;stroke-linejoin:miter;"/>
   </g>
   <g id="patch_11">
    <path d="M 299.25 86.4 
L 438.75 86.4 
" style="fill:none;stroke:#cccccc;stroke-linecap:square;stroke-linejoin:miter;"/>
   </g>
   <g id="text_24">
    <!-- Tonnage -->
    <defs>
     <path d="M 35.15625 61.1875 
L 35.15625 0 
L 25.875 0 
L 25.875 61.1875 
L 2.25 61.1875 
L 2.25 68.796875 
L 58.796875 68.796875 
L 58.796875 61.1875 
z
" id="LiberationSans-84"/>
    </defs>
    <g style="fill:#262626;" transform="translate(340.5915 80.4)scale(0.144 -0.144)">
     <use xlink:href="#LiberationSans-84"/>
     <use x="60.912109" xlink:href="#LiberationSans-111"/>
     <use x="116.527344" xlink:href="#LiberationSans-110"/>
     <use x="172.142578" xlink:href="#LiberationSans-110"/>
     <use x="227.757812" xlink:href="#LiberationSans-97"/>
     <use x="283.373047" xlink:href="#LiberationSans-103"/>
     <use x="338.988281" xlink:href="#LiberationSans-101"/>
    </g>
   </g>
  </g>
  <g id="axes_3">
   <g id="patch_12">
    <path d="M 508.5 308.16 
L 648 308.16 
L 648 86.4 
L 508.5 86.4 
z
" style="fill:#ffffff;"/>
   </g>
   <g id="matplotlib.axis_5">
    <g id="xtick_6">
     <g id="line2d_39">
      <path clip-path="url(#p1832efadaf)" d="M 512.690896 308.16 
L 512.690896 86.4 
" style="fill:none;stroke:#cccccc;stroke-linecap:round;stroke-width:0.8;"/>
     </g>
     <g id="line2d_40"/>
     <g id="text_25">
      <!-- 0 -->
      <g style="fill:#262626;" transform="translate(509.910427 318.906875)scale(0.1 -0.1)">
       <use xlink:href="#LiberationSans-48"/>
      </g>
     </g>
    </g>
    <g id="xtick_7">
     <g id="line2d_41">
      <path clip-path="url(#p1832efadaf)" d="M 577.842801 308.16 
L 577.842801 86.4 
" style="fill:none;stroke:#cccccc;stroke-linecap:round;stroke-width:0.8;"/>
     </g>
     <g id="line2d_42"/>
     <g id="text_26">
      <!-- 20 -->
      <g style="fill:#262626;" transform="translate(572.281863 318.906875)scale(0.1 -0.1)">
       <use xlink:href="#LiberationSans-50"/>
       <use x="55.615234" xlink:href="#LiberationSans-48"/>
      </g>
     </g>
    </g>
    <g id="xtick_8">
     <g id="line2d_43">
      <path clip-path="url(#p1832efadaf)" d="M 642.994705 308.16 
L 642.994705 86.4 
" style="fill:none;stroke:#cccccc;stroke-linecap:round;stroke-width:0.8;"/>
     </g>
     <g id="line2d_44"/>
     <g id="text_27">
      <!-- 40 -->
      <g style="fill:#262626;" transform="translate(637.433767 318.906875)scale(0.1 -0.1)">
       <use xlink:href="#LiberationSans-52"/>
       <use x="55.615234" xlink:href="#LiberationSans-48"/>
      </g>
     </g>
    </g>
    <g id="text_28">
     <!-- Value -->
     <g style="fill:#262626;" transform="translate(562.911562 333.678125)scale(0.12 -0.12)">
      <use xlink:href="#LiberationSans-86"/>
      <use x="66.589844" xlink:href="#LiberationSans-97"/>
      <use x="122.205078" xlink:href="#LiberationSans-108"/>
      <use x="144.421875" xlink:href="#LiberationSans-117"/>
      <use x="200.037109" xlink:href="#LiberationSans-101"/>
     </g>
    </g>
   </g>
   <g id="matplotlib.axis_6">
    <g id="ytick_14">
     <g id="line2d_45">
      <path clip-path="url(#p1832efadaf)" d="M 508.5 301.297999 
L 648 301.297999 
" style="fill:none;stroke:#cccccc;stroke-linecap:round;stroke-width:0.8;"/>
     </g>
     <g id="line2d_46"/>
     <g id="text_29">
      <!-- 2 -->
      <g style="fill:#262626;" transform="translate(499.439063 304.921436)scale(0.1 -0.1)">
       <use xlink:href="#LiberationSans-50"/>
      </g>
     </g>
    </g>
    <g id="ytick_15">
     <g id="line2d_47">
      <path clip-path="url(#p1832efadaf)" d="M 508.5 263.347102 
L 648 263.347102 
" style="fill:none;stroke:#cccccc;stroke-linecap:round;stroke-width:0.8;"/>
     </g>
     <g id="line2d_48"/>
     <g id="text_30">
      <!-- 4 -->
      <g style="fill:#262626;" transform="translate(499.439063 266.97054)scale(0.1 -0.1)">
       <use xlink:href="#LiberationSans-52"/>
      </g>
     </g>
    </g>
    <g id="ytick_16">
     <g id="line2d_49">
      <path clip-path="url(#p1832efadaf)" d="M 508.5 225.396206 
L 648 225.396206 
" style="fill:none;stroke:#cccccc;stroke-linecap:round;stroke-width:0.8;"/>
     </g>
     <g id="line2d_50"/>
     <g id="text_31">
      <!-- 6 -->
      <g style="fill:#262626;" transform="translate(499.439063 229.019644)scale(0.1 -0.1)">
       <use xlink:href="#LiberationSans-54"/>
      </g>
     </g>
    </g>
    <g id="ytick_17">
     <g id="line2d_51">
      <path clip-path="url(#p1832efadaf)" d="M 508.5 187.44531 
L 648 187.44531 
" style="fill:none;stroke:#cccccc;stroke-linecap:round;stroke-width:0.8;"/>
     </g>
     <g id="line2d_52"/>
     <g id="text_32">
      <!-- 8 -->
      <g style="fill:#262626;" transform="translate(499.439063 191.068747)scale(0.1 -0.1)">
       <use xlink:href="#LiberationSans-56"/>
      </g>
     </g>
    </g>
    <g id="ytick_18">
     <g id="line2d_53">
      <path clip-path="url(#p1832efadaf)" d="M 508.5 149.494414 
L 648 149.494414 
" style="fill:none;stroke:#cccccc;stroke-linecap:round;stroke-width:0.8;"/>
     </g>
     <g id="line2d_54"/>
     <g id="text_33">
      <!-- 10 -->
      <g style="fill:#262626;" transform="translate(493.878125 153.117851)scale(0.1 -0.1)">
       <use xlink:href="#LiberationSans-49"/>
       <use x="55.615234" xlink:href="#LiberationSans-48"/>
      </g>
     </g>
    </g>
    <g id="ytick_19">
     <g id="line2d_55">
      <path clip-path="url(#p1832efadaf)" d="M 508.5 111.543517 
L 648 111.543517 
" style="fill:none;stroke:#cccccc;stroke-linecap:round;stroke-width:0.8;"/>
     </g>
     <g id="line2d_56"/>
     <g id="text_34">
      <!-- 12 -->
      <g style="fill:#262626;" transform="translate(493.878125 115.166955)scale(0.1 -0.1)">
       <use xlink:href="#LiberationSans-49"/>
       <use x="55.615234" xlink:href="#LiberationSans-50"/>
      </g>
     </g>
    </g>
    <g id="text_35">
     <!-- Average Prediction -->
     <g style="fill:#262626;" transform="translate(487.388125 247.971562)rotate(-90)scale(0.12 -0.12)">
      <use xlink:href="#LiberationSans-65"/>
      <use x="66.683594" xlink:href="#LiberationSans-118"/>
      <use x="116.683594" xlink:href="#LiberationSans-101"/>
      <use x="172.298828" xlink:href="#LiberationSans-114"/>
      <use x="205.599609" xlink:href="#LiberationSans-97"/>
      <use x="261.214844" xlink:href="#LiberationSans-103"/>
      <use x="316.830078" xlink:href="#LiberationSans-101"/>
      <use x="372.445312" xlink:href="#LiberationSans-32"/>
      <use x="400.228516" xlink:href="#LiberationSans-80"/>
      <use x="466.927734" xlink:href="#LiberationSans-114"/>
      <use x="500.228516" xlink:href="#LiberationSans-101"/>
      <use x="555.84375" xlink:href="#LiberationSans-100"/>
      <use x="611.458984" xlink:href="#LiberationSans-105"/>
      <use x="633.675781" xlink:href="#LiberationSans-99"/>
      <use x="683.675781" xlink:href="#LiberationSans-116"/>
      <use x="711.458984" xlink:href="#LiberationSans-105"/>
      <use x="733.675781" xlink:href="#LiberationSans-111"/>
      <use x="789.291016" xlink:href="#LiberationSans-110"/>
     </g>
    </g>
   </g>
   <g id="PolyCollection_3">
    <path clip-path="url(#p1832efadaf)" d="M 534.972848 157.533789 
L 534.972848 157.679947 
L 534.972848 157.533789 
L 534.972848 157.533789 
z
" style="fill:#5f57db;fill-opacity:0.2;stroke:#5f57db;stroke-opacity:0.2;stroke-width:0.5;"/>
    <path clip-path="url(#p1832efadaf)" d="M 578.885231 146.90621 
L 578.885231 233.285154 
L 578.885231 146.90621 
L 578.885231 146.90621 
z
" style="fill:#5f57db;fill-opacity:0.2;stroke:#5f57db;stroke-opacity:0.2;stroke-width:0.5;"/>
    <path clip-path="url(#p1832efadaf)" d="M 602.535372 160.96066 
L 602.535372 174.179574 
L 602.535372 160.96066 
L 602.535372 160.96066 
z
" style="fill:#5f57db;fill-opacity:0.2;stroke:#5f57db;stroke-opacity:0.2;stroke-width:0.5;"/>
   </g>
   <g id="line2d_57">
    <path clip-path="url(#p1832efadaf)" d="M 514.840909 269.475318 
L 515.753036 117.245639 
L 522.333378 147.687619 
L 523.115201 147.442788 
L 525.525821 159.446609 
L 528.653113 168.617775 
L 534.972848 157.606868 
L 535.298607 297.803148 
L 535.494063 266.747693 
L 538.751658 165.035211 
L 539.012266 227.273258 
L 543.703203 142.890531 
L 546.960798 170.601137 
L 547.091102 238.517823 
L 552.238102 227.344036 
L 555.104786 96.48 
L 555.691153 147.112046 
L 561.685128 278.644492 
L 571.034427 236.182278 
L 573.998838 150.123023 
L 578.885231 182.30543 
L 581.556459 218.894079 
L 582.533738 264.72695 
L 585.661029 266.301912 
L 590.677726 117.026852 
L 592.01334 119.083696 
L 594.163353 294.509959 
L 595.759574 242.965858 
L 601.297486 261.377261 
L 602.079309 283.689495 
L 602.535372 169.520453 
L 605.597512 179.001093 
L 613.676348 287.109677 
L 633.221919 274.975067 
L 641.659091 298.08 
" style="fill:none;stroke:#5f57db;stroke-linecap:round;stroke-width:1.5;"/>
   </g>
   <g id="patch_13">
    <path d="M 508.5 308.16 
L 508.5 86.4 
" style="fill:none;stroke:#cccccc;stroke-linecap:square;stroke-linejoin:miter;"/>
   </g>
   <g id="patch_14">
    <path d="M 648 308.16 
L 648 86.4 
" style="fill:none;stroke:#cccccc;stroke-linecap:square;stroke-linejoin:miter;"/>
   </g>
   <g id="patch_15">
    <path d="M 508.5 308.16 
L 648 308.16 
" style="fill:none;stroke:#cccccc;stroke-linecap:square;stroke-linejoin:miter;"/>
   </g>
   <g id="patch_16">
    <path d="M 508.5 86.4 
L 648 86.4 
" style="fill:none;stroke:#cccccc;stroke-linecap:square;stroke-linejoin:miter;"/>
   </g>
   <g id="text_36">
    <!-- passengers -->
    <defs>
     <path d="M 51.421875 26.65625 
Q 51.421875 -0.984375 31.984375 -0.984375 
Q 19.78125 -0.984375 15.578125 8.203125 
L 15.328125 8.203125 
Q 15.53125 7.8125 15.53125 -0.09375 
L 15.53125 -20.75 
L 6.734375 -20.75 
L 6.734375 42.046875 
Q 6.734375 50.203125 6.453125 52.828125 
L 14.9375 52.828125 
Q 14.984375 52.640625 15.078125 51.4375 
Q 15.1875 50.25 15.3125 47.75 
Q 15.4375 45.265625 15.4375 44.34375 
L 15.625 44.34375 
Q 17.96875 49.21875 21.828125 51.484375 
Q 25.6875 53.765625 31.984375 53.765625 
Q 41.75 53.765625 46.578125 47.21875 
Q 51.421875 40.671875 51.421875 26.65625 
z
M 42.1875 26.46875 
Q 42.1875 37.5 39.203125 42.234375 
Q 36.234375 46.96875 29.734375 46.96875 
Q 24.515625 46.96875 21.5625 44.765625 
Q 18.609375 42.578125 17.0625 37.90625 
Q 15.53125 33.25 15.53125 25.78125 
Q 15.53125 15.375 18.84375 10.4375 
Q 22.171875 5.515625 29.640625 5.515625 
Q 36.1875 5.515625 39.1875 10.328125 
Q 42.1875 15.140625 42.1875 26.46875 
z
" id="LiberationSans-112"/>
     <path d="M 46.390625 14.59375 
Q 46.390625 7.125 40.75 3.0625 
Q 35.109375 -0.984375 24.953125 -0.984375 
Q 15.09375 -0.984375 9.734375 2.265625 
Q 4.390625 5.515625 2.78125 12.40625 
L 10.546875 13.921875 
Q 11.671875 9.671875 15.1875 7.6875 
Q 18.703125 5.71875 24.953125 5.71875 
Q 31.640625 5.71875 34.734375 7.765625 
Q 37.84375 9.8125 37.84375 13.921875 
Q 37.84375 17.046875 35.6875 19 
Q 33.546875 20.953125 28.765625 22.21875 
L 22.46875 23.875 
Q 14.890625 25.828125 11.6875 27.703125 
Q 8.5 29.59375 6.6875 32.28125 
Q 4.890625 34.96875 4.890625 38.875 
Q 4.890625 46.09375 10.03125 49.875 
Q 15.1875 53.65625 25.046875 53.65625 
Q 33.796875 53.65625 38.9375 50.578125 
Q 44.09375 47.515625 45.453125 40.71875 
L 37.546875 39.75 
Q 36.8125 43.265625 33.609375 45.140625 
Q 30.421875 47.015625 25.046875 47.015625 
Q 19.09375 47.015625 16.25 45.203125 
Q 13.421875 43.40625 13.421875 39.75 
Q 13.421875 37.5 14.59375 36.03125 
Q 15.765625 34.578125 18.0625 33.546875 
Q 20.359375 32.515625 27.734375 30.71875 
Q 34.71875 28.953125 37.796875 27.46875 
Q 40.875 25.984375 42.65625 24.171875 
Q 44.4375 22.359375 45.40625 19.984375 
Q 46.390625 17.625 46.390625 14.59375 
z
" id="LiberationSans-115"/>
    </defs>
    <g style="fill:#262626;" transform="translate(541.029375 80.4)scale(0.144 -0.144)">
     <use xlink:href="#LiberationSans-112"/>
     <use x="55.615234" xlink:href="#LiberationSans-97"/>
     <use x="111.230469" xlink:href="#LiberationSans-115"/>
     <use x="161.230469" xlink:href="#LiberationSans-115"/>
     <use x="211.230469" xlink:href="#LiberationSans-101"/>
     <use x="266.845703" xlink:href="#LiberationSans-110"/>
     <use x="322.460938" xlink:href="#LiberationSans-103"/>
     <use x="378.076172" xlink:href="#LiberationSans-101"/>
     <use x="433.691406" xlink:href="#LiberationSans-114"/>
     <use x="466.992188" xlink:href="#LiberationSans-115"/>
    </g>
   </g>
  </g>
  <g id="axes_4">
   <g id="patch_17">
    <path d="M 90 640.8 
L 229.5 640.8 
L 229.5 419.04 
L 90 419.04 
z
" style="fill:#ffffff;"/>
   </g>
   <g id="matplotlib.axis_7">
    <g id="xtick_9">
     <g id="line2d_58">
      <path clip-path="url(#pdfcd3988c7)" d="M 91.822817 640.8 
L 91.822817 419.04 
" style="fill:none;stroke:#cccccc;stroke-linecap:round;stroke-width:0.8;"/>
     </g>
     <g id="line2d_59"/>
     <g id="text_37">
      <!-- 2.5 -->
      <defs>
       <path d="M 9.125 0 
L 9.125 10.6875 
L 18.65625 10.6875 
L 18.65625 0 
z
" id="LiberationSans-46"/>
      </defs>
      <g style="fill:#262626;" transform="translate(84.872817 651.546875)scale(0.1 -0.1)">
       <use xlink:href="#LiberationSans-50"/>
       <use x="55.615234" xlink:href="#LiberationSans-46"/>
       <use x="83.398438" xlink:href="#LiberationSans-53"/>
      </g>
     </g>
    </g>
    <g id="xtick_10">
     <g id="line2d_60">
      <path clip-path="url(#pdfcd3988c7)" d="M 130.77189 640.8 
L 130.77189 419.04 
" style="fill:none;stroke:#cccccc;stroke-linecap:round;stroke-width:0.8;"/>
     </g>
     <g id="line2d_61"/>
     <g id="text_38">
      <!-- 5.0 -->
      <g style="fill:#262626;" transform="translate(123.82189 651.546875)scale(0.1 -0.1)">
       <use xlink:href="#LiberationSans-53"/>
       <use x="55.615234" xlink:href="#LiberationSans-46"/>
       <use x="83.398438" xlink:href="#LiberationSans-48"/>
      </g>
     </g>
    </g>
    <g id="xtick_11">
     <g id="line2d_62">
      <path clip-path="url(#pdfcd3988c7)" d="M 169.720963 640.8 
L 169.720963 419.04 
" style="fill:none;stroke:#cccccc;stroke-linecap:round;stroke-width:0.8;"/>
     </g>
     <g id="line2d_63"/>
     <g id="text_39">
      <!-- 7.5 -->
      <g style="fill:#262626;" transform="translate(162.770963 651.546875)scale(0.1 -0.1)">
       <use xlink:href="#LiberationSans-55"/>
       <use x="55.615234" xlink:href="#LiberationSans-46"/>
       <use x="83.398438" xlink:href="#LiberationSans-53"/>
      </g>
     </g>
    </g>
    <g id="xtick_12">
     <g id="line2d_64">
      <path clip-path="url(#pdfcd3988c7)" d="M 208.670036 640.8 
L 208.670036 419.04 
" style="fill:none;stroke:#cccccc;stroke-linecap:round;stroke-width:0.8;"/>
     </g>
     <g id="line2d_65"/>
     <g id="text_40">
      <!-- 10.0 -->
      <g style="fill:#262626;" transform="translate(198.939567 651.546875)scale(0.1 -0.1)">
       <use xlink:href="#LiberationSans-49"/>
       <use x="55.615234" xlink:href="#LiberationSans-48"/>
       <use x="111.230469" xlink:href="#LiberationSans-46"/>
       <use x="139.013672" xlink:href="#LiberationSans-48"/>
      </g>
     </g>
    </g>
    <g id="text_41">
     <!-- Value -->
     <g style="fill:#262626;" transform="translate(144.411563 666.318125)scale(0.12 -0.12)">
      <use xlink:href="#LiberationSans-86"/>
      <use x="66.589844" xlink:href="#LiberationSans-97"/>
      <use x="122.205078" xlink:href="#LiberationSans-108"/>
      <use x="144.421875" xlink:href="#LiberationSans-117"/>
      <use x="200.037109" xlink:href="#LiberationSans-101"/>
     </g>
    </g>
   </g>
   <g id="matplotlib.axis_8">
    <g id="ytick_20">
     <g id="line2d_66">
      <path clip-path="url(#pdfcd3988c7)" d="M 90 618.693228 
L 229.5 618.693228 
" style="fill:none;stroke:#cccccc;stroke-linecap:round;stroke-width:0.8;"/>
     </g>
     <g id="line2d_67"/>
     <g id="text_42">
      <!-- 2 -->
      <g style="fill:#262626;" transform="translate(80.939063 622.316665)scale(0.1 -0.1)">
       <use xlink:href="#LiberationSans-50"/>
      </g>
     </g>
    </g>
    <g id="ytick_21">
     <g id="line2d_68">
      <path clip-path="url(#pdfcd3988c7)" d="M 90 582.289142 
L 229.5 582.289142 
" style="fill:none;stroke:#cccccc;stroke-linecap:round;stroke-width:0.8;"/>
     </g>
     <g id="line2d_69"/>
     <g id="text_43">
      <!-- 4 -->
      <g style="fill:#262626;" transform="translate(80.939063 585.91258)scale(0.1 -0.1)">
       <use xlink:href="#LiberationSans-52"/>
      </g>
     </g>
    </g>
    <g id="ytick_22">
     <g id="line2d_70">
      <path clip-path="url(#pdfcd3988c7)" d="M 90 545.885057 
L 229.5 545.885057 
" style="fill:none;stroke:#cccccc;stroke-linecap:round;stroke-width:0.8;"/>
     </g>
     <g id="line2d_71"/>
     <g id="text_44">
      <!-- 6 -->
      <g style="fill:#262626;" transform="translate(80.939063 549.508495)scale(0.1 -0.1)">
       <use xlink:href="#LiberationSans-54"/>
      </g>
     </g>
    </g>
    <g id="ytick_23">
     <g id="line2d_72">
      <path clip-path="url(#pdfcd3988c7)" d="M 90 509.480972 
L 229.5 509.480972 
" style="fill:none;stroke:#cccccc;stroke-linecap:round;stroke-width:0.8;"/>
     </g>
     <g id="line2d_73"/>
     <g id="text_45">
      <!-- 8 -->
      <g style="fill:#262626;" transform="translate(80.939063 513.104409)scale(0.1 -0.1)">
       <use xlink:href="#LiberationSans-56"/>
      </g>
     </g>
    </g>
    <g id="ytick_24">
     <g id="line2d_74">
      <path clip-path="url(#pdfcd3988c7)" d="M 90 473.076886 
L 229.5 473.076886 
" style="fill:none;stroke:#cccccc;stroke-linecap:round;stroke-width:0.8;"/>
     </g>
     <g id="line2d_75"/>
     <g id="text_46">
      <!-- 10 -->
      <g style="fill:#262626;" transform="translate(75.378125 476.700324)scale(0.1 -0.1)">
       <use xlink:href="#LiberationSans-49"/>
       <use x="55.615234" xlink:href="#LiberationSans-48"/>
      </g>
     </g>
    </g>
    <g id="ytick_25">
     <g id="line2d_76">
      <path clip-path="url(#pdfcd3988c7)" d="M 90 436.672801 
L 229.5 436.672801 
" style="fill:none;stroke:#cccccc;stroke-linecap:round;stroke-width:0.8;"/>
     </g>
     <g id="line2d_77"/>
     <g id="text_47">
      <!-- 12 -->
      <g style="fill:#262626;" transform="translate(75.378125 440.296239)scale(0.1 -0.1)">
       <use xlink:href="#LiberationSans-49"/>
       <use x="55.615234" xlink:href="#LiberationSans-50"/>
      </g>
     </g>
    </g>
    <g id="text_48">
     <!-- Average Prediction -->
     <g style="fill:#262626;" transform="translate(68.888125 580.611562)rotate(-90)scale(0.12 -0.12)">
      <use xlink:href="#LiberationSans-65"/>
      <use x="66.683594" xlink:href="#LiberationSans-118"/>
      <use x="116.683594" xlink:href="#LiberationSans-101"/>
      <use x="172.298828" xlink:href="#LiberationSans-114"/>
      <use x="205.599609" xlink:href="#LiberationSans-97"/>
      <use x="261.214844" xlink:href="#LiberationSans-103"/>
      <use x="316.830078" xlink:href="#LiberationSans-101"/>
      <use x="372.445312" xlink:href="#LiberationSans-32"/>
      <use x="400.228516" xlink:href="#LiberationSans-80"/>
      <use x="466.927734" xlink:href="#LiberationSans-114"/>
      <use x="500.228516" xlink:href="#LiberationSans-101"/>
      <use x="555.84375" xlink:href="#LiberationSans-100"/>
      <use x="611.458984" xlink:href="#LiberationSans-105"/>
      <use x="633.675781" xlink:href="#LiberationSans-99"/>
      <use x="683.675781" xlink:href="#LiberationSans-116"/>
      <use x="711.458984" xlink:href="#LiberationSans-105"/>
      <use x="733.675781" xlink:href="#LiberationSans-111"/>
      <use x="789.291016" xlink:href="#LiberationSans-110"/>
     </g>
    </g>
   </g>
   <g id="PolyCollection_4">
    <path clip-path="url(#pdfcd3988c7)" d="M 145.416741 486.406242 
L 145.416741 583.088758 
L 145.416741 486.406242 
L 145.416741 486.406242 
z
" style="fill:#a157db;fill-opacity:0.2;stroke:#a157db;stroke-opacity:0.2;stroke-width:0.5;"/>
    <path clip-path="url(#pdfcd3988c7)" d="M 189.974481 474.36641 
L 189.974481 478.862861 
L 189.974481 474.36641 
L 189.974481 474.36641 
z
" style="fill:#a157db;fill-opacity:0.2;stroke:#a157db;stroke-opacity:0.2;stroke-width:0.5;"/>
    <path clip-path="url(#pdfcd3988c7)" d="M 191.999832 484.429591 
L 191.999832 534.492308 
L 191.999832 484.429591 
L 191.999832 484.429591 
z
" style="fill:#a157db;fill-opacity:0.2;stroke:#a157db;stroke-opacity:0.2;stroke-width:0.5;"/>
    <path clip-path="url(#pdfcd3988c7)" d="M 201.036017 429.581422 
L 201.036017 612.361829 
L 201.036017 429.581422 
L 201.036017 429.581422 
z
" style="fill:#a157db;fill-opacity:0.2;stroke:#a157db;stroke-opacity:0.2;stroke-width:0.5;"/>
    <path clip-path="url(#pdfcd3988c7)" d="M 203.217166 493.887355 
L 203.217166 583.95391 
L 203.217166 493.887355 
L 203.217166 493.887355 
z
" style="fill:#a157db;fill-opacity:0.2;stroke:#a157db;stroke-opacity:0.2;stroke-width:0.5;"/>
   </g>
   <g id="line2d_78">
    <path clip-path="url(#pdfcd3988c7)" d="M 96.340909 586.118033 
L 98.989446 429.12 
L 120.800927 461.87089 
L 132.797241 461.816375 
L 132.953038 486.696019 
L 136.536352 497.191999 
L 137.159538 484.747308 
L 140.119667 484.681781 
L 141.210241 630.423352 
L 145.416741 538.153315 
L 148.688463 457.651565 
L 148.84426 502.665808 
L 162.554333 559.498092 
L 163.177518 545.985714 
L 163.333315 437.676325 
L 164.735481 475.387818 
L 173.927463 592.011172 
L 187.793333 557.631654 
L 189.974481 476.614635 
L 191.532444 555.104983 
L 191.999832 509.46095 
L 195.427351 580.765859 
L 196.362129 582.437216 
L 201.036017 491.025875 
L 201.970795 566.746782 
L 202.59398 586.645073 
L 202.749777 609.025122 
L 202.905573 481.153315 
L 203.217166 537.361887 
L 223.159091 630.72 
" style="fill:none;stroke:#a157db;stroke-linecap:round;stroke-width:1.5;"/>
   </g>
   <g id="patch_18">
    <path d="M 90 640.8 
L 90 419.04 
" style="fill:none;stroke:#cccccc;stroke-linecap:square;stroke-linejoin:miter;"/>
   </g>
   <g id="patch_19">
    <path d="M 229.5 640.8 
L 229.5 419.04 
" style="fill:none;stroke:#cccccc;stroke-linecap:square;stroke-linejoin:miter;"/>
   </g>
   <g id="patch_20">
    <path d="M 90 640.8 
L 229.5 640.8 
" style="fill:none;stroke:#cccccc;stroke-linecap:square;stroke-linejoin:miter;"/>
   </g>
   <g id="patch_21">
    <path d="M 90 419.04 
L 229.5 419.04 
" style="fill:none;stroke:#cccccc;stroke-linecap:square;stroke-linejoin:miter;"/>
   </g>
   <g id="text_49">
    <!-- length -->
    <defs>
     <path d="M 15.484375 43.796875 
Q 18.3125 48.96875 22.28125 51.390625 
Q 26.265625 53.8125 32.375 53.8125 
Q 40.96875 53.8125 45.046875 49.53125 
Q 49.125 45.265625 49.125 35.203125 
L 49.125 0 
L 40.28125 0 
L 40.28125 33.5 
Q 40.28125 39.0625 39.25 41.765625 
Q 38.234375 44.484375 35.890625 45.75 
Q 33.546875 47.015625 29.390625 47.015625 
Q 23.1875 47.015625 19.453125 42.71875 
Q 15.71875 38.421875 15.71875 31.15625 
L 15.71875 0 
L 6.9375 0 
L 6.9375 72.46875 
L 15.71875 72.46875 
L 15.71875 53.609375 
Q 15.71875 50.640625 15.546875 47.453125 
Q 15.375 44.28125 15.328125 43.796875 
z
" id="LiberationSans-104"/>
    </defs>
    <g style="fill:#262626;" transform="translate(140.1345 413.04)scale(0.144 -0.144)">
     <use xlink:href="#LiberationSans-108"/>
     <use x="22.216797" xlink:href="#LiberationSans-101"/>
     <use x="77.832031" xlink:href="#LiberationSans-110"/>
     <use x="133.447266" xlink:href="#LiberationSans-103"/>
     <use x="189.0625" xlink:href="#LiberationSans-116"/>
     <use x="216.845703" xlink:href="#LiberationSans-104"/>
    </g>
   </g>
  </g>
  <g id="axes_5">
   <g id="patch_22">
    <path d="M 299.25 640.8 
L 438.75 640.8 
L 438.75 419.04 
L 299.25 419.04 
z
" style="fill:#ffffff;"/>
   </g>
   <g id="matplotlib.axis_9">
    <g id="xtick_13">
     <g id="line2d_79">
      <path clip-path="url(#p5032421df5)" d="M 302.981807 640.8 
L 302.981807 419.04 
" style="fill:none;stroke:#cccccc;stroke-linecap:round;stroke-width:0.8;"/>
     </g>
     <g id="line2d_80"/>
     <g id="text_50">
      <!-- 0 -->
      <g style="fill:#262626;" transform="translate(300.201338 651.546875)scale(0.1 -0.1)">
       <use xlink:href="#LiberationSans-48"/>
      </g>
     </g>
    </g>
    <g id="xtick_14">
     <g id="line2d_81">
      <path clip-path="url(#p5032421df5)" d="M 342.513659 640.8 
L 342.513659 419.04 
" style="fill:none;stroke:#cccccc;stroke-linecap:round;stroke-width:0.8;"/>
     </g>
     <g id="line2d_82"/>
     <g id="text_51">
      <!-- 5 -->
      <g style="fill:#262626;" transform="translate(339.73319 651.546875)scale(0.1 -0.1)">
       <use xlink:href="#LiberationSans-53"/>
      </g>
     </g>
    </g>
    <g id="xtick_15">
     <g id="line2d_83">
      <path clip-path="url(#p5032421df5)" d="M 382.045511 640.8 
L 382.045511 419.04 
" style="fill:none;stroke:#cccccc;stroke-linecap:round;stroke-width:0.8;"/>
     </g>
     <g id="line2d_84"/>
     <g id="text_52">
      <!-- 10 -->
      <g style="fill:#262626;" transform="translate(376.484574 651.546875)scale(0.1 -0.1)">
       <use xlink:href="#LiberationSans-49"/>
       <use x="55.615234" xlink:href="#LiberationSans-48"/>
      </g>
     </g>
    </g>
    <g id="xtick_16">
     <g id="line2d_85">
      <path clip-path="url(#p5032421df5)" d="M 421.577363 640.8 
L 421.577363 419.04 
" style="fill:none;stroke:#cccccc;stroke-linecap:round;stroke-width:0.8;"/>
     </g>
     <g id="line2d_86"/>
     <g id="text_53">
      <!-- 15 -->
      <g style="fill:#262626;" transform="translate(416.016426 651.546875)scale(0.1 -0.1)">
       <use xlink:href="#LiberationSans-49"/>
       <use x="55.615234" xlink:href="#LiberationSans-53"/>
      </g>
     </g>
    </g>
    <g id="text_54">
     <!-- Value -->
     <g style="fill:#262626;" transform="translate(353.661563 666.318125)scale(0.12 -0.12)">
      <use xlink:href="#LiberationSans-86"/>
      <use x="66.589844" xlink:href="#LiberationSans-97"/>
      <use x="122.205078" xlink:href="#LiberationSans-108"/>
      <use x="144.421875" xlink:href="#LiberationSans-117"/>
      <use x="200.037109" xlink:href="#LiberationSans-101"/>
     </g>
    </g>
   </g>
   <g id="matplotlib.axis_10">
    <g id="ytick_26">
     <g id="line2d_87">
      <path clip-path="url(#p5032421df5)" d="M 299.25 616.772886 
L 438.75 616.772886 
" style="fill:none;stroke:#cccccc;stroke-linecap:round;stroke-width:0.8;"/>
     </g>
     <g id="line2d_88"/>
     <g id="text_55">
      <!-- 5 -->
      <g style="fill:#262626;" transform="translate(290.189062 620.396324)scale(0.1 -0.1)">
       <use xlink:href="#LiberationSans-53"/>
      </g>
     </g>
    </g>
    <g id="ytick_27">
     <g id="line2d_89">
      <path clip-path="url(#p5032421df5)" d="M 299.25 582.69611 
L 438.75 582.69611 
" style="fill:none;stroke:#cccccc;stroke-linecap:round;stroke-width:0.8;"/>
     </g>
     <g id="line2d_90"/>
     <g id="text_56">
      <!-- 6 -->
      <g style="fill:#262626;" transform="translate(290.189062 586.319547)scale(0.1 -0.1)">
       <use xlink:href="#LiberationSans-54"/>
      </g>
     </g>
    </g>
    <g id="ytick_28">
     <g id="line2d_91">
      <path clip-path="url(#p5032421df5)" d="M 299.25 548.619333 
L 438.75 548.619333 
" style="fill:none;stroke:#cccccc;stroke-linecap:round;stroke-width:0.8;"/>
     </g>
     <g id="line2d_92"/>
     <g id="text_57">
      <!-- 7 -->
      <g style="fill:#262626;" transform="translate(290.189062 552.242771)scale(0.1 -0.1)">
       <use xlink:href="#LiberationSans-55"/>
      </g>
     </g>
    </g>
    <g id="ytick_29">
     <g id="line2d_93">
      <path clip-path="url(#p5032421df5)" d="M 299.25 514.542556 
L 438.75 514.542556 
" style="fill:none;stroke:#cccccc;stroke-linecap:round;stroke-width:0.8;"/>
     </g>
     <g id="line2d_94"/>
     <g id="text_58">
      <!-- 8 -->
      <g style="fill:#262626;" transform="translate(290.189062 518.165994)scale(0.1 -0.1)">
       <use xlink:href="#LiberationSans-56"/>
      </g>
     </g>
    </g>
    <g id="ytick_30">
     <g id="line2d_95">
      <path clip-path="url(#p5032421df5)" d="M 299.25 480.46578 
L 438.75 480.46578 
" style="fill:none;stroke:#cccccc;stroke-linecap:round;stroke-width:0.8;"/>
     </g>
     <g id="line2d_96"/>
     <g id="text_59">
      <!-- 9 -->
      <g style="fill:#262626;" transform="translate(290.189062 484.089217)scale(0.1 -0.1)">
       <use xlink:href="#LiberationSans-57"/>
      </g>
     </g>
    </g>
    <g id="ytick_31">
     <g id="line2d_97">
      <path clip-path="url(#p5032421df5)" d="M 299.25 446.389003 
L 438.75 446.389003 
" style="fill:none;stroke:#cccccc;stroke-linecap:round;stroke-width:0.8;"/>
     </g>
     <g id="line2d_98"/>
     <g id="text_60">
      <!-- 10 -->
      <g style="fill:#262626;" transform="translate(284.628125 450.01244)scale(0.1 -0.1)">
       <use xlink:href="#LiberationSans-49"/>
       <use x="55.615234" xlink:href="#LiberationSans-48"/>
      </g>
     </g>
    </g>
    <g id="text_61">
     <!-- Average Prediction -->
     <g style="fill:#262626;" transform="translate(278.138125 580.611562)rotate(-90)scale(0.12 -0.12)">
      <use xlink:href="#LiberationSans-65"/>
      <use x="66.683594" xlink:href="#LiberationSans-118"/>
      <use x="116.683594" xlink:href="#LiberationSans-101"/>
      <use x="172.298828" xlink:href="#LiberationSans-114"/>
      <use x="205.599609" xlink:href="#LiberationSans-97"/>
      <use x="261.214844" xlink:href="#LiberationSans-103"/>
      <use x="316.830078" xlink:href="#LiberationSans-101"/>
      <use x="372.445312" xlink:href="#LiberationSans-32"/>
      <use x="400.228516" xlink:href="#LiberationSans-80"/>
      <use x="466.927734" xlink:href="#LiberationSans-114"/>
      <use x="500.228516" xlink:href="#LiberationSans-101"/>
      <use x="555.84375" xlink:href="#LiberationSans-100"/>
      <use x="611.458984" xlink:href="#LiberationSans-105"/>
      <use x="633.675781" xlink:href="#LiberationSans-99"/>
      <use x="683.675781" xlink:href="#LiberationSans-116"/>
      <use x="711.458984" xlink:href="#LiberationSans-105"/>
      <use x="733.675781" xlink:href="#LiberationSans-111"/>
      <use x="789.291016" xlink:href="#LiberationSans-110"/>
     </g>
    </g>
   </g>
   <g id="PolyCollection_5">
    <path clip-path="url(#p5032421df5)" d="M 330.021594 482.414205 
L 330.021594 482.88932 
L 330.021594 482.414205 
L 330.021594 482.414205 
z
" style="fill:#c957db;fill-opacity:0.2;stroke:#c957db;stroke-opacity:0.2;stroke-width:0.5;"/>
    <path clip-path="url(#p5032421df5)" d="M 380.068919 479.215503 
L 380.068919 567.119274 
L 380.068919 479.215503 
L 380.068919 479.215503 
z
" style="fill:#c957db;fill-opacity:0.2;stroke:#c957db;stroke-opacity:0.2;stroke-width:0.5;"/>
   </g>
   <g id="line2d_99">
    <path clip-path="url(#p5032421df5)" d="M 305.590909 589.619659 
L 306.539674 458.017618 
L 309.939413 486.831662 
L 314.683235 486.7975 
L 315.632 483.049992 
L 322.352414 507.623522 
L 330.021594 482.651762 
L 330.970358 630.313634 
L 331.049422 593.928838 
L 333.263206 500.677142 
L 334.607289 558.496742 
L 335.397926 481.426234 
L 344.569315 509.487863 
L 344.727443 577.01074 
L 350.973475 556.887041 
L 354.68947 429.12 
L 355.163852 504.282465 
L 362.437713 606.556669 
L 376.90637 571.177818 
L 378.092326 483.700177 
L 380.068919 517.131113 
L 382.045511 560.32888 
L 386.473079 583.724717 
L 387.738098 586.635215 
L 389.477499 454.693684 
L 391.533156 453.182464 
L 392.956302 616.443108 
L 396.039787 559.912547 
L 397.621061 577.899292 
L 403.78803 613.304978 
L 405.764623 502.246292 
L 407.42496 511.152513 
L 410.19219 511.578132 
L 412.010655 515.738396 
L 420.549535 617.465838 
L 426.083995 604.590354 
L 432.409091 630.72 
" style="fill:none;stroke:#c957db;stroke-linecap:round;stroke-width:1.5;"/>
   </g>
   <g id="patch_23">
    <path d="M 299.25 640.8 
L 299.25 419.04 
" style="fill:none;stroke:#cccccc;stroke-linecap:square;stroke-linejoin:miter;"/>
   </g>
   <g id="patch_24">
    <path d="M 438.75 640.8 
L 438.75 419.04 
" style="fill:none;stroke:#cccccc;stroke-linecap:square;stroke-linejoin:miter;"/>
   </g>
   <g id="patch_25">
    <path d="M 299.25 640.8 
L 438.75 640.8 
" style="fill:none;stroke:#cccccc;stroke-linecap:square;stroke-linejoin:miter;"/>
   </g>
   <g id="patch_26">
    <path d="M 299.25 419.04 
L 438.75 419.04 
" style="fill:none;stroke:#cccccc;stroke-linecap:square;stroke-linejoin:miter;"/>
   </g>
   <g id="text_62">
    <!-- cabins -->
    <defs>
     <path d="M 51.421875 26.65625 
Q 51.421875 -0.984375 31.984375 -0.984375 
Q 25.984375 -0.984375 22 1.1875 
Q 18.015625 3.375 15.53125 8.203125 
L 15.4375 8.203125 
Q 15.4375 6.6875 15.234375 3.578125 
Q 15.046875 0.484375 14.9375 0 
L 6.453125 0 
Q 6.734375 2.640625 6.734375 10.890625 
L 6.734375 72.46875 
L 15.53125 72.46875 
L 15.53125 51.8125 
Q 15.53125 48.640625 15.328125 44.34375 
L 15.53125 44.34375 
Q 17.96875 49.421875 22 51.609375 
Q 26.03125 53.8125 31.984375 53.8125 
Q 42 53.8125 46.703125 47.0625 
Q 51.421875 40.328125 51.421875 26.65625 
z
M 42.1875 26.375 
Q 42.1875 37.453125 39.25 42.234375 
Q 36.328125 47.015625 29.734375 47.015625 
Q 22.3125 47.015625 18.921875 41.9375 
Q 15.53125 36.859375 15.53125 25.828125 
Q 15.53125 15.4375 18.84375 10.46875 
Q 22.171875 5.515625 29.640625 5.515625 
Q 36.28125 5.515625 39.234375 10.421875 
Q 42.1875 15.328125 42.1875 26.375 
z
" id="LiberationSans-98"/>
    </defs>
    <g style="fill:#262626;" transform="translate(348.188625 413.04)scale(0.144 -0.144)">
     <use xlink:href="#LiberationSans-99"/>
     <use x="50" xlink:href="#LiberationSans-97"/>
     <use x="105.615234" xlink:href="#LiberationSans-98"/>
     <use x="161.230469" xlink:href="#LiberationSans-105"/>
     <use x="183.447266" xlink:href="#LiberationSans-110"/>
     <use x="239.0625" xlink:href="#LiberationSans-115"/>
    </g>
   </g>
  </g>
  <g id="axes_6">
   <g id="patch_27">
    <path d="M 508.5 640.8 
L 648 640.8 
L 648 419.04 
L 508.5 419.04 
z
" style="fill:#ffffff;"/>
   </g>
   <g id="matplotlib.axis_11">
    <g id="xtick_17">
     <g id="line2d_100">
      <path clip-path="url(#p7ff5bb528b)" d="M 520.269568 640.8 
L 520.269568 419.04 
" style="fill:none;stroke:#cccccc;stroke-linecap:round;stroke-width:0.8;"/>
     </g>
     <g id="line2d_101"/>
     <g id="text_63">
      <!-- 20 -->
      <g style="fill:#262626;" transform="translate(514.70863 651.546875)scale(0.1 -0.1)">
       <use xlink:href="#LiberationSans-50"/>
       <use x="55.615234" xlink:href="#LiberationSans-48"/>
      </g>
     </g>
    </g>
    <g id="xtick_18">
     <g id="line2d_102">
      <path clip-path="url(#p7ff5bb528b)" d="M 567.475293 640.8 
L 567.475293 419.04 
" style="fill:none;stroke:#cccccc;stroke-linecap:round;stroke-width:0.8;"/>
     </g>
     <g id="line2d_103"/>
     <g id="text_64">
      <!-- 40 -->
      <g style="fill:#262626;" transform="translate(561.914356 651.546875)scale(0.1 -0.1)">
       <use xlink:href="#LiberationSans-52"/>
       <use x="55.615234" xlink:href="#LiberationSans-48"/>
      </g>
     </g>
    </g>
    <g id="xtick_19">
     <g id="line2d_104">
      <path clip-path="url(#p7ff5bb528b)" d="M 614.681019 640.8 
L 614.681019 419.04 
" style="fill:none;stroke:#cccccc;stroke-linecap:round;stroke-width:0.8;"/>
     </g>
     <g id="line2d_105"/>
     <g id="text_65">
      <!-- 60 -->
      <g style="fill:#262626;" transform="translate(609.120081 651.546875)scale(0.1 -0.1)">
       <use xlink:href="#LiberationSans-54"/>
       <use x="55.615234" xlink:href="#LiberationSans-48"/>
      </g>
     </g>
    </g>
    <g id="text_66">
     <!-- Value -->
     <g style="fill:#262626;" transform="translate(562.911562 666.318125)scale(0.12 -0.12)">
      <use xlink:href="#LiberationSans-86"/>
      <use x="66.589844" xlink:href="#LiberationSans-97"/>
      <use x="122.205078" xlink:href="#LiberationSans-108"/>
      <use x="144.421875" xlink:href="#LiberationSans-117"/>
      <use x="200.037109" xlink:href="#LiberationSans-101"/>
     </g>
    </g>
   </g>
   <g id="matplotlib.axis_12">
    <g id="ytick_32">
     <g id="line2d_106">
      <path clip-path="url(#p7ff5bb528b)" d="M 508.5 609.951584 
L 648 609.951584 
" style="fill:none;stroke:#cccccc;stroke-linecap:round;stroke-width:0.8;"/>
     </g>
     <g id="line2d_107"/>
     <g id="text_67">
      <!-- 2 -->
      <g style="fill:#262626;" transform="translate(499.439063 613.575021)scale(0.1 -0.1)">
       <use xlink:href="#LiberationSans-50"/>
      </g>
     </g>
    </g>
    <g id="ytick_33">
     <g id="line2d_108">
      <path clip-path="url(#p7ff5bb528b)" d="M 508.5 576.17109 
L 648 576.17109 
" style="fill:none;stroke:#cccccc;stroke-linecap:round;stroke-width:0.8;"/>
     </g>
     <g id="line2d_109"/>
     <g id="text_68">
      <!-- 4 -->
      <g style="fill:#262626;" transform="translate(499.439063 579.794528)scale(0.1 -0.1)">
       <use xlink:href="#LiberationSans-52"/>
      </g>
     </g>
    </g>
    <g id="ytick_34">
     <g id="line2d_110">
      <path clip-path="url(#p7ff5bb528b)" d="M 508.5 542.390597 
L 648 542.390597 
" style="fill:none;stroke:#cccccc;stroke-linecap:round;stroke-width:0.8;"/>
     </g>
     <g id="line2d_111"/>
     <g id="text_69">
      <!-- 6 -->
      <g style="fill:#262626;" transform="translate(499.439063 546.014034)scale(0.1 -0.1)">
       <use xlink:href="#LiberationSans-54"/>
      </g>
     </g>
    </g>
    <g id="ytick_35">
     <g id="line2d_112">
      <path clip-path="url(#p7ff5bb528b)" d="M 508.5 508.610104 
L 648 508.610104 
" style="fill:none;stroke:#cccccc;stroke-linecap:round;stroke-width:0.8;"/>
     </g>
     <g id="line2d_113"/>
     <g id="text_70">
      <!-- 8 -->
      <g style="fill:#262626;" transform="translate(499.439063 512.233541)scale(0.1 -0.1)">
       <use xlink:href="#LiberationSans-56"/>
      </g>
     </g>
    </g>
    <g id="ytick_36">
     <g id="line2d_114">
      <path clip-path="url(#p7ff5bb528b)" d="M 508.5 474.82961 
L 648 474.82961 
" style="fill:none;stroke:#cccccc;stroke-linecap:round;stroke-width:0.8;"/>
     </g>
     <g id="line2d_115"/>
     <g id="text_71">
      <!-- 10 -->
      <g style="fill:#262626;" transform="translate(493.878125 478.453048)scale(0.1 -0.1)">
       <use xlink:href="#LiberationSans-49"/>
       <use x="55.615234" xlink:href="#LiberationSans-48"/>
      </g>
     </g>
    </g>
    <g id="ytick_37">
     <g id="line2d_116">
      <path clip-path="url(#p7ff5bb528b)" d="M 508.5 441.049117 
L 648 441.049117 
" style="fill:none;stroke:#cccccc;stroke-linecap:round;stroke-width:0.8;"/>
     </g>
     <g id="line2d_117"/>
     <g id="text_72">
      <!-- 12 -->
      <g style="fill:#262626;" transform="translate(493.878125 444.672554)scale(0.1 -0.1)">
       <use xlink:href="#LiberationSans-49"/>
       <use x="55.615234" xlink:href="#LiberationSans-50"/>
      </g>
     </g>
    </g>
    <g id="text_73">
     <!-- Average Prediction -->
     <g style="fill:#262626;" transform="translate(487.388125 580.611562)rotate(-90)scale(0.12 -0.12)">
      <use xlink:href="#LiberationSans-65"/>
      <use x="66.683594" xlink:href="#LiberationSans-118"/>
      <use x="116.683594" xlink:href="#LiberationSans-101"/>
      <use x="172.298828" xlink:href="#LiberationSans-114"/>
      <use x="205.599609" xlink:href="#LiberationSans-97"/>
      <use x="261.214844" xlink:href="#LiberationSans-103"/>
      <use x="316.830078" xlink:href="#LiberationSans-101"/>
      <use x="372.445312" xlink:href="#LiberationSans-32"/>
      <use x="400.228516" xlink:href="#LiberationSans-80"/>
      <use x="466.927734" xlink:href="#LiberationSans-114"/>
      <use x="500.228516" xlink:href="#LiberationSans-101"/>
      <use x="555.84375" xlink:href="#LiberationSans-100"/>
      <use x="611.458984" xlink:href="#LiberationSans-105"/>
      <use x="633.675781" xlink:href="#LiberationSans-99"/>
      <use x="683.675781" xlink:href="#LiberationSans-116"/>
      <use x="711.458984" xlink:href="#LiberationSans-105"/>
      <use x="733.675781" xlink:href="#LiberationSans-111"/>
      <use x="789.291016" xlink:href="#LiberationSans-110"/>
     </g>
    </g>
   </g>
   <g id="PolyCollection_6">
    <path clip-path="url(#p7ff5bb528b)" d="M 559.94598 429.12 
L 559.94598 468.823945 
L 559.94598 429.12 
L 559.94598 429.12 
z
" style="fill:#db57d3;fill-opacity:0.2;stroke:#db57d3;stroke-opacity:0.2;stroke-width:0.5;"/>
    <path clip-path="url(#p7ff5bb528b)" d="M 577.530113 562.878128 
L 577.530113 609.989333 
L 578.757462 606.575266 
L 578.757462 480.929903 
L 578.757462 480.929903 
L 577.530113 562.878128 
z
" style="fill:#db57d3;fill-opacity:0.2;stroke:#db57d3;stroke-opacity:0.2;stroke-width:0.5;"/>
   </g>
   <g id="line2d_118">
    <path clip-path="url(#p7ff5bb528b)" d="M 514.840909 582.946697 
L 529.403875 442.2786 
L 531.551736 466.89035 
L 533.628788 466.629902 
L 538.986638 480.783127 
L 539.010241 499.422949 
L 543.37677 479.268789 
L 546.091099 479.130036 
L 547.955726 629.475273 
L 549.135869 579.81077 
L 549.914763 488.492046 
L 552.652695 541.36177 
L 556.004302 464.189895 
L 556.122316 503.435059 
L 557.986942 556.441593 
L 558.081354 543.898051 
L 559.94598 448.971973 
L 561.385755 589.543394 
L 562.235458 556.747011 
L 564.170892 473.553848 
L 564.760964 468.987949 
L 565.752284 553.69241 
L 566.224341 486.237958 
L 567.900145 532.038185 
L 568.655436 578.416184 
L 569.009479 579.929255 
L 570.520062 441.684359 
L 573.706449 436.633415 
L 577.530113 586.433731 
L 578.757462 556.46797 
L 579.725179 490.002372 
L 592.541533 490.091933 
L 607.033691 498.468735 
L 614.681019 610.853692 
L 632.029123 587.33491 
L 641.659091 630.72 
" style="fill:none;stroke:#db57d3;stroke-linecap:round;stroke-width:1.5;"/>
   </g>
   <g id="patch_28">
    <path d="M 508.5 640.8 
L 508.5 419.04 
" style="fill:none;stroke:#cccccc;stroke-linecap:square;stroke-linejoin:miter;"/>
   </g>
   <g id="patch_29">
    <path d="M 648 640.8 
L 648 419.04 
" style="fill:none;stroke:#cccccc;stroke-linecap:square;stroke-linejoin:miter;"/>
   </g>
   <g id="patch_30">
    <path d="M 508.5 640.8 
L 648 640.8 
" style="fill:none;stroke:#cccccc;stroke-linecap:square;stroke-linejoin:miter;"/>
   </g>
   <g id="patch_31">
    <path d="M 508.5 419.04 
L 648 419.04 
" style="fill:none;stroke:#cccccc;stroke-linecap:square;stroke-linejoin:miter;"/>
   </g>
   <g id="text_74">
    <!-- passenger_density -->
    <defs>
     <path d="M -1.515625 -19.875 
L -1.515625 -13.53125 
L 56.734375 -13.53125 
L 56.734375 -19.875 
z
" id="LiberationSans-95"/>
     <path d="M 9.328125 -20.75 
Q 5.71875 -20.75 3.265625 -20.21875 
L 3.265625 -13.625 
Q 5.125 -13.921875 7.375 -13.921875 
Q 15.578125 -13.921875 20.359375 -1.859375 
L 21.1875 0.25 
L 0.25 52.828125 
L 9.625 52.828125 
L 20.75 23.640625 
Q 21 22.953125 21.34375 22 
Q 21.6875 21.046875 23.53125 15.625 
Q 25.390625 10.203125 25.53125 9.578125 
L 28.953125 19.1875 
L 40.53125 52.828125 
L 49.8125 52.828125 
L 29.5 0 
Q 26.21875 -8.453125 23.390625 -12.578125 
Q 20.5625 -16.703125 17.109375 -18.71875 
Q 13.671875 -20.75 9.328125 -20.75 
z
" id="LiberationSans-121"/>
    </defs>
    <g style="fill:#262626;" transform="translate(517.813875 413.04)scale(0.144 -0.144)">
     <use xlink:href="#LiberationSans-112"/>
     <use x="55.615234" xlink:href="#LiberationSans-97"/>
     <use x="111.230469" xlink:href="#LiberationSans-115"/>
     <use x="161.230469" xlink:href="#LiberationSans-115"/>
     <use x="211.230469" xlink:href="#LiberationSans-101"/>
     <use x="266.845703" xlink:href="#LiberationSans-110"/>
     <use x="322.460938" xlink:href="#LiberationSans-103"/>
     <use x="378.076172" xlink:href="#LiberationSans-101"/>
     <use x="433.691406" xlink:href="#LiberationSans-114"/>
     <use x="466.992188" xlink:href="#LiberationSans-95"/>
     <use x="522.607422" xlink:href="#LiberationSans-100"/>
     <use x="578.222656" xlink:href="#LiberationSans-101"/>
     <use x="633.837891" xlink:href="#LiberationSans-110"/>
     <use x="689.453125" xlink:href="#LiberationSans-115"/>
     <use x="739.453125" xlink:href="#LiberationSans-105"/>
     <use x="761.669922" xlink:href="#LiberationSans-116"/>
     <use x="789.453125" xlink:href="#LiberationSans-121"/>
    </g>
   </g>
  </g>
 </g>
 <defs>
  <clipPath id="p7cdb8532bb">
   <rect height="221.76" width="139.5" x="90" y="86.4"/>
  </clipPath>
  <clipPath id="p7173991c2b">
   <rect height="221.76" width="139.5" x="299.25" y="86.4"/>
  </clipPath>
  <clipPath id="p1832efadaf">
   <rect height="221.76" width="139.5" x="508.5" y="86.4"/>
  </clipPath>
  <clipPath id="pdfcd3988c7">
   <rect height="221.76" width="139.5" x="90" y="419.04"/>
  </clipPath>
  <clipPath id="p5032421df5">
   <rect height="221.76" width="139.5" x="299.25" y="419.04"/>
  </clipPath>
  <clipPath id="p7ff5bb528b">
   <rect height="221.76" width="139.5" x="508.5" y="419.04"/>
  </clipPath>
 </defs>
</svg>
