<?xml version="1.0" encoding="utf-8" standalone="no"?>
<!DOCTYPE svg PUBLIC "-//W3C//DTD SVG 1.1//EN"
  "http://www.w3.org/Graphics/SVG/1.1/DTD/svg11.dtd">
<!-- Created with matplotlib (https://matplotlib.org/) -->
<svg height="720pt" version="1.1" viewBox="0 0 720 720" width="720pt" xmlns="http://www.w3.org/2000/svg" xmlns:xlink="http://www.w3.org/1999/xlink">
 <defs>
  <style type="text/css">
*{stroke-linecap:butt;stroke-linejoin:round;}
  </style>
 </defs>
 <g id="figure_1">
  <g id="patch_1">
   <path d="M 0 720 
L 720 720 
L 720 0 
L 0 0 
z
" style="fill:#ffffff;"/>
  </g>
  <g id="axes_1">
   <g id="patch_2">
    <path d="M 90 308.16 
L 229.5 308.16 
L 229.5 86.4 
L 90 86.4 
z
" style="fill:#ffffff;"/>
   </g>
   <g id="matplotlib.axis_1">
    <g id="xtick_1">
     <g id="line2d_1">
      <path clip-path="url(#p28c393c459)" d="M 145.117133 308.16 
L 145.117133 86.4 
" style="fill:none;stroke:#cccccc;stroke-linecap:round;stroke-width:0.8;"/>
     </g>
     <g id="line2d_2"/>
     <g id="text_1">
      <!-- 20 -->
      <defs>
       <path d="M 5.03125 0 
L 5.03125 6.203125 
Q 7.515625 11.921875 11.109375 16.28125 
Q 14.703125 20.65625 18.65625 24.1875 
Q 22.609375 27.734375 26.484375 30.765625 
Q 30.375 33.796875 33.5 36.8125 
Q 36.625 39.84375 38.546875 43.15625 
Q 40.484375 46.484375 40.484375 50.6875 
Q 40.484375 56.34375 37.15625 59.46875 
Q 33.84375 62.59375 27.9375 62.59375 
Q 22.3125 62.59375 18.671875 59.546875 
Q 15.046875 56.5 14.40625 50.984375 
L 5.421875 51.8125 
Q 6.390625 60.0625 12.421875 64.9375 
Q 18.453125 69.828125 27.9375 69.828125 
Q 38.328125 69.828125 43.921875 64.921875 
Q 49.515625 60.015625 49.515625 50.984375 
Q 49.515625 46.96875 47.671875 43.015625 
Q 45.84375 39.0625 42.234375 35.109375 
Q 38.625 31.15625 28.421875 22.859375 
Q 22.796875 18.265625 19.46875 14.578125 
Q 16.15625 10.890625 14.703125 7.46875 
L 50.59375 7.46875 
L 50.59375 0 
z
" id="LiberationSans-50"/>
       <path d="M 51.703125 34.421875 
Q 51.703125 17.1875 45.625 8.09375 
Q 39.546875 -0.984375 27.6875 -0.984375 
Q 15.828125 -0.984375 9.859375 8.046875 
Q 3.90625 17.09375 3.90625 34.421875 
Q 3.90625 52.15625 9.6875 60.984375 
Q 15.484375 69.828125 27.984375 69.828125 
Q 40.140625 69.828125 45.921875 60.890625 
Q 51.703125 51.953125 51.703125 34.421875 
z
M 42.78125 34.421875 
Q 42.78125 49.3125 39.328125 56 
Q 35.890625 62.703125 27.984375 62.703125 
Q 19.875 62.703125 16.328125 56.109375 
Q 12.796875 49.515625 12.796875 34.421875 
Q 12.796875 19.78125 16.375 12.984375 
Q 19.96875 6.203125 27.78125 6.203125 
Q 35.546875 6.203125 39.15625 13.125 
Q 42.78125 20.0625 42.78125 34.421875 
z
" id="LiberationSans-48"/>
      </defs>
      <g style="fill:#262626;" transform="translate(139.556195 318.906875)scale(0.1 -0.1)">
       <use xlink:href="#LiberationSans-50"/>
       <use x="55.615234" xlink:href="#LiberationSans-48"/>
      </g>
     </g>
    </g>
    <g id="xtick_2">
     <g id="line2d_3">
      <path clip-path="url(#p28c393c459)" d="M 210.152098 308.16 
L 210.152098 86.4 
" style="fill:none;stroke:#cccccc;stroke-linecap:round;stroke-width:0.8;"/>
     </g>
     <g id="line2d_4"/>
     <g id="text_2">
      <!-- 40 -->
      <defs>
       <path d="M 43.015625 15.578125 
L 43.015625 0 
L 34.71875 0 
L 34.71875 15.578125 
L 2.296875 15.578125 
L 2.296875 22.40625 
L 33.796875 68.796875 
L 43.015625 68.796875 
L 43.015625 22.515625 
L 52.6875 22.515625 
L 52.6875 15.578125 
z
M 34.71875 58.890625 
Q 34.625 58.59375 33.34375 56.296875 
Q 32.078125 54 31.453125 53.078125 
L 13.8125 27.09375 
L 11.1875 23.484375 
L 10.40625 22.515625 
L 34.71875 22.515625 
z
" id="LiberationSans-52"/>
      </defs>
      <g style="fill:#262626;" transform="translate(204.59116 318.906875)scale(0.1 -0.1)">
       <use xlink:href="#LiberationSans-52"/>
       <use x="55.615234" xlink:href="#LiberationSans-48"/>
      </g>
     </g>
    </g>
    <g id="text_3">
     <!-- Value -->
     <defs>
      <path d="M 38.1875 0 
L 28.515625 0 
L 0.4375 68.796875 
L 10.25 68.796875 
L 29.296875 20.359375 
L 33.40625 8.203125 
L 37.5 20.359375 
L 56.453125 68.796875 
L 66.265625 68.796875 
z
" id="LiberationSans-86"/>
      <path d="M 20.21875 -0.984375 
Q 12.25 -0.984375 8.25 3.21875 
Q 4.25 7.421875 4.25 14.75 
Q 4.25 22.953125 9.640625 27.34375 
Q 15.046875 31.734375 27.046875 32.03125 
L 38.921875 32.234375 
L 38.921875 35.109375 
Q 38.921875 41.546875 36.1875 44.328125 
Q 33.453125 47.125 27.59375 47.125 
Q 21.6875 47.125 19 45.109375 
Q 16.3125 43.109375 15.765625 38.71875 
L 6.59375 39.546875 
Q 8.84375 53.8125 27.78125 53.8125 
Q 37.75 53.8125 42.765625 49.234375 
Q 47.796875 44.671875 47.796875 36.03125 
L 47.796875 13.28125 
Q 47.796875 9.375 48.828125 7.390625 
Q 49.859375 5.421875 52.734375 5.421875 
Q 54 5.421875 55.609375 5.765625 
L 55.609375 0.296875 
Q 52.296875 -0.484375 48.828125 -0.484375 
Q 43.953125 -0.484375 41.71875 2.078125 
Q 39.5 4.640625 39.203125 10.109375 
L 38.921875 10.109375 
Q 35.546875 4.046875 31.078125 1.53125 
Q 26.609375 -0.984375 20.21875 -0.984375 
z
M 22.21875 5.609375 
Q 27.046875 5.609375 30.8125 7.8125 
Q 34.578125 10.015625 36.75 13.84375 
Q 38.921875 17.671875 38.921875 21.734375 
L 38.921875 26.078125 
L 29.296875 25.875 
Q 23.09375 25.78125 19.890625 24.609375 
Q 16.703125 23.4375 14.984375 21 
Q 13.28125 18.5625 13.28125 14.59375 
Q 13.28125 10.296875 15.59375 7.953125 
Q 17.921875 5.609375 22.21875 5.609375 
z
" id="LiberationSans-97"/>
      <path d="M 6.734375 0 
L 6.734375 72.46875 
L 15.53125 72.46875 
L 15.53125 0 
z
" id="LiberationSans-108"/>
      <path d="M 15.328125 52.828125 
L 15.328125 19.34375 
Q 15.328125 14.109375 16.359375 11.21875 
Q 17.390625 8.34375 19.625 7.078125 
Q 21.875 5.8125 26.21875 5.8125 
Q 32.5625 5.8125 36.21875 10.15625 
Q 39.890625 14.5 39.890625 22.21875 
L 39.890625 52.828125 
L 48.6875 52.828125 
L 48.6875 11.28125 
Q 48.6875 2.046875 48.96875 0 
L 40.671875 0 
Q 40.625 0.25 40.578125 1.3125 
Q 40.53125 2.390625 40.453125 3.78125 
Q 40.375 5.171875 40.28125 9.03125 
L 40.140625 9.03125 
Q 37.109375 3.5625 33.125 1.28125 
Q 29.15625 -0.984375 23.25 -0.984375 
Q 14.546875 -0.984375 10.515625 3.34375 
Q 6.5 7.671875 6.5 17.625 
L 6.5 52.828125 
z
" id="LiberationSans-117"/>
      <path d="M 13.484375 24.5625 
Q 13.484375 15.484375 17.234375 10.546875 
Q 21 5.609375 28.21875 5.609375 
Q 33.9375 5.609375 37.375 7.90625 
Q 40.828125 10.203125 42.046875 13.71875 
L 49.75 11.53125 
Q 45.015625 -0.984375 28.21875 -0.984375 
Q 16.5 -0.984375 10.375 6 
Q 4.25 12.984375 4.25 26.765625 
Q 4.25 39.84375 10.375 46.828125 
Q 16.5 53.8125 27.875 53.8125 
Q 51.171875 53.8125 51.171875 25.734375 
L 51.171875 24.5625 
z
M 42.09375 31.296875 
Q 41.359375 39.65625 37.84375 43.484375 
Q 34.328125 47.3125 27.734375 47.3125 
Q 21.34375 47.3125 17.609375 43.03125 
Q 13.875 38.765625 13.578125 31.296875 
z
" id="LiberationSans-101"/>
     </defs>
     <g style="fill:#262626;" transform="translate(144.411563 333.678125)scale(0.12 -0.12)">
      <use xlink:href="#LiberationSans-86"/>
      <use x="66.589844" xlink:href="#LiberationSans-97"/>
      <use x="122.205078" xlink:href="#LiberationSans-108"/>
      <use x="144.421875" xlink:href="#LiberationSans-117"/>
      <use x="200.037109" xlink:href="#LiberationSans-101"/>
     </g>
    </g>
   </g>
   <g id="matplotlib.axis_2">
    <g id="ytick_1">
     <g id="line2d_5">
      <path clip-path="url(#p28c393c459)" d="M 90 277.226507 
L 229.5 277.226507 
" style="fill:none;stroke:#cccccc;stroke-linecap:round;stroke-width:0.8;"/>
     </g>
     <g id="line2d_6"/>
     <g id="text_4">
      <!-- 2 -->
      <g style="fill:#262626;" transform="translate(80.939063 280.849944)scale(0.1 -0.1)">
       <use xlink:href="#LiberationSans-50"/>
      </g>
     </g>
    </g>
    <g id="ytick_2">
     <g id="line2d_7">
      <path clip-path="url(#p28c393c459)" d="M 90 242.877929 
L 229.5 242.877929 
" style="fill:none;stroke:#cccccc;stroke-linecap:round;stroke-width:0.8;"/>
     </g>
     <g id="line2d_8"/>
     <g id="text_5">
      <!-- 4 -->
      <g style="fill:#262626;" transform="translate(80.939063 246.501367)scale(0.1 -0.1)">
       <use xlink:href="#LiberationSans-52"/>
      </g>
     </g>
    </g>
    <g id="ytick_3">
     <g id="line2d_9">
      <path clip-path="url(#p28c393c459)" d="M 90 208.529352 
L 229.5 208.529352 
" style="fill:none;stroke:#cccccc;stroke-linecap:round;stroke-width:0.8;"/>
     </g>
     <g id="line2d_10"/>
     <g id="text_6">
      <!-- 6 -->
      <defs>
       <path d="M 51.21875 22.515625 
Q 51.21875 11.625 45.3125 5.3125 
Q 39.40625 -0.984375 29 -0.984375 
Q 17.390625 -0.984375 11.234375 7.65625 
Q 5.078125 16.3125 5.078125 32.8125 
Q 5.078125 50.6875 11.46875 60.25 
Q 17.875 69.828125 29.6875 69.828125 
Q 45.265625 69.828125 49.3125 55.8125 
L 40.921875 54.296875 
Q 38.328125 62.703125 29.59375 62.703125 
Q 22.078125 62.703125 17.9375 55.6875 
Q 13.8125 48.6875 13.8125 35.40625 
Q 16.21875 39.84375 20.5625 42.15625 
Q 24.90625 44.484375 30.515625 44.484375 
Q 40.046875 44.484375 45.625 38.515625 
Q 51.21875 32.5625 51.21875 22.515625 
z
M 42.28125 22.125 
Q 42.28125 29.59375 38.625 33.640625 
Q 34.96875 37.703125 28.421875 37.703125 
Q 22.265625 37.703125 18.484375 34.109375 
Q 14.703125 30.515625 14.703125 24.21875 
Q 14.703125 16.265625 18.625 11.1875 
Q 22.5625 6.109375 28.71875 6.109375 
Q 35.0625 6.109375 38.671875 10.375 
Q 42.28125 14.65625 42.28125 22.125 
z
" id="LiberationSans-54"/>
      </defs>
      <g style="fill:#262626;" transform="translate(80.939063 212.15279)scale(0.1 -0.1)">
       <use xlink:href="#LiberationSans-54"/>
      </g>
     </g>
    </g>
    <g id="ytick_4">
     <g id="line2d_11">
      <path clip-path="url(#p28c393c459)" d="M 90 174.180775 
L 229.5 174.180775 
" style="fill:none;stroke:#cccccc;stroke-linecap:round;stroke-width:0.8;"/>
     </g>
     <g id="line2d_12"/>
     <g id="text_7">
      <!-- 8 -->
      <defs>
       <path d="M 51.265625 19.1875 
Q 51.265625 9.671875 45.203125 4.34375 
Q 39.15625 -0.984375 27.828125 -0.984375 
Q 16.796875 -0.984375 10.5625 4.234375 
Q 4.34375 9.46875 4.34375 19.09375 
Q 4.34375 25.828125 8.203125 30.421875 
Q 12.0625 35.015625 18.0625 35.984375 
L 18.0625 36.1875 
Q 12.453125 37.5 9.203125 41.890625 
Q 5.953125 46.296875 5.953125 52.203125 
Q 5.953125 60.0625 11.828125 64.9375 
Q 17.71875 69.828125 27.640625 69.828125 
Q 37.796875 69.828125 43.671875 65.03125 
Q 49.5625 60.25 49.5625 52.09375 
Q 49.5625 46.1875 46.28125 41.796875 
Q 43.015625 37.40625 37.359375 36.28125 
L 37.359375 36.078125 
Q 43.953125 35.015625 47.609375 30.5 
Q 51.265625 25.984375 51.265625 19.1875 
z
M 40.4375 51.609375 
Q 40.4375 63.28125 27.640625 63.28125 
Q 21.4375 63.28125 18.1875 60.34375 
Q 14.9375 57.421875 14.9375 51.609375 
Q 14.9375 45.703125 18.28125 42.59375 
Q 21.625 39.5 27.734375 39.5 
Q 33.9375 39.5 37.1875 42.359375 
Q 40.4375 45.21875 40.4375 51.609375 
z
M 42.140625 20.015625 
Q 42.140625 26.421875 38.328125 29.65625 
Q 34.515625 32.90625 27.640625 32.90625 
Q 20.953125 32.90625 17.1875 29.40625 
Q 13.421875 25.921875 13.421875 19.828125 
Q 13.421875 5.609375 27.9375 5.609375 
Q 35.109375 5.609375 38.625 9.046875 
Q 42.140625 12.5 42.140625 20.015625 
z
" id="LiberationSans-56"/>
      </defs>
      <g style="fill:#262626;" transform="translate(80.939063 177.804213)scale(0.1 -0.1)">
       <use xlink:href="#LiberationSans-56"/>
      </g>
     </g>
    </g>
    <g id="ytick_5">
     <g id="line2d_13">
      <path clip-path="url(#p28c393c459)" d="M 90 139.832198 
L 229.5 139.832198 
" style="fill:none;stroke:#cccccc;stroke-linecap:round;stroke-width:0.8;"/>
     </g>
     <g id="line2d_14"/>
     <g id="text_8">
      <!-- 10 -->
      <defs>
       <path d="M 7.625 0 
L 7.625 7.46875 
L 25.140625 7.46875 
L 25.140625 60.40625 
L 9.625 49.3125 
L 9.625 57.625 
L 25.875 68.796875 
L 33.984375 68.796875 
L 33.984375 7.46875 
L 50.734375 7.46875 
L 50.734375 0 
z
" id="LiberationSans-49"/>
      </defs>
      <g style="fill:#262626;" transform="translate(75.378125 143.455635)scale(0.1 -0.1)">
       <use xlink:href="#LiberationSans-49"/>
       <use x="55.615234" xlink:href="#LiberationSans-48"/>
      </g>
     </g>
    </g>
    <g id="ytick_6">
     <g id="line2d_15">
      <path clip-path="url(#p28c393c459)" d="M 90 105.483621 
L 229.5 105.483621 
" style="fill:none;stroke:#cccccc;stroke-linecap:round;stroke-width:0.8;"/>
     </g>
     <g id="line2d_16"/>
     <g id="text_9">
      <!-- 12 -->
      <g style="fill:#262626;" transform="translate(75.378125 109.107058)scale(0.1 -0.1)">
       <use xlink:href="#LiberationSans-49"/>
       <use x="55.615234" xlink:href="#LiberationSans-50"/>
      </g>
     </g>
    </g>
    <g id="text_10">
     <!-- Average Prediction -->
     <defs>
      <path d="M 56.984375 0 
L 49.125 20.125 
L 17.78125 20.125 
L 9.859375 0 
L 0.203125 0 
L 28.265625 68.796875 
L 38.875 68.796875 
L 66.5 0 
z
M 33.453125 61.765625 
L 33.015625 60.40625 
Q 31.78125 56.34375 29.390625 50 
L 20.609375 27.390625 
L 46.34375 27.390625 
L 37.5 50.09375 
Q 36.140625 53.46875 34.765625 57.71875 
z
" id="LiberationSans-65"/>
      <path d="M 29.9375 0 
L 19.53125 0 
L 0.34375 52.828125 
L 9.71875 52.828125 
L 21.34375 18.453125 
Q 21.96875 16.5 24.703125 6.890625 
L 26.421875 12.59375 
L 28.328125 18.359375 
L 40.328125 52.828125 
L 49.65625 52.828125 
z
" id="LiberationSans-118"/>
      <path d="M 6.9375 0 
L 6.9375 40.53125 
Q 6.9375 46.09375 6.640625 52.828125 
L 14.9375 52.828125 
Q 15.328125 43.84375 15.328125 42.046875 
L 15.53125 42.046875 
Q 17.625 48.828125 20.359375 51.3125 
Q 23.09375 53.8125 28.078125 53.8125 
Q 29.828125 53.8125 31.640625 53.328125 
L 31.640625 45.265625 
Q 29.890625 45.75 26.953125 45.75 
Q 21.484375 45.75 18.59375 41.03125 
Q 15.71875 36.328125 15.71875 27.546875 
L 15.71875 0 
z
" id="LiberationSans-114"/>
      <path d="M 26.765625 -20.75 
Q 18.109375 -20.75 12.984375 -17.359375 
Q 7.859375 -13.96875 6.390625 -7.71875 
L 15.234375 -6.453125 
Q 16.109375 -10.109375 19.109375 -12.078125 
Q 22.125 -14.0625 27 -14.0625 
Q 40.140625 -14.0625 40.140625 1.3125 
L 40.140625 9.8125 
L 40.046875 9.8125 
Q 37.546875 4.734375 33.203125 2.171875 
Q 28.859375 -0.390625 23.046875 -0.390625 
Q 13.328125 -0.390625 8.765625 6.046875 
Q 4.203125 12.5 4.203125 26.3125 
Q 4.203125 40.328125 9.109375 46.984375 
Q 14.015625 53.65625 24.03125 53.65625 
Q 29.640625 53.65625 33.765625 51.09375 
Q 37.890625 48.53125 40.140625 43.796875 
L 40.234375 43.796875 
Q 40.234375 45.265625 40.421875 48.875 
Q 40.625 52.484375 40.828125 52.828125 
L 49.171875 52.828125 
Q 48.875 50.203125 48.875 41.890625 
L 48.875 1.515625 
Q 48.875 -20.75 26.765625 -20.75 
z
M 40.140625 26.421875 
Q 40.140625 32.859375 38.375 37.515625 
Q 36.625 42.1875 33.421875 44.65625 
Q 30.21875 47.125 26.171875 47.125 
Q 19.4375 47.125 16.359375 42.234375 
Q 13.28125 37.359375 13.28125 26.421875 
Q 13.28125 15.578125 16.15625 10.84375 
Q 19.046875 6.109375 26.03125 6.109375 
Q 30.171875 6.109375 33.390625 8.546875 
Q 36.625 10.984375 38.375 15.546875 
Q 40.140625 20.125 40.140625 26.421875 
z
" id="LiberationSans-103"/>
      <path id="LiberationSans-32"/>
      <path d="M 61.421875 48.09375 
Q 61.421875 38.328125 55.046875 32.5625 
Q 48.6875 26.8125 37.75 26.8125 
L 17.53125 26.8125 
L 17.53125 0 
L 8.203125 0 
L 8.203125 68.796875 
L 37.15625 68.796875 
Q 48.734375 68.796875 55.078125 63.375 
Q 61.421875 57.953125 61.421875 48.09375 
z
M 52.046875 48 
Q 52.046875 61.328125 36.03125 61.328125 
L 17.53125 61.328125 
L 17.53125 34.1875 
L 36.421875 34.1875 
Q 52.046875 34.1875 52.046875 48 
z
" id="LiberationSans-80"/>
      <path d="M 40.09375 8.5 
Q 37.640625 3.421875 33.609375 1.21875 
Q 29.59375 -0.984375 23.640625 -0.984375 
Q 13.625 -0.984375 8.90625 5.75 
Q 4.203125 12.5 4.203125 26.171875 
Q 4.203125 53.8125 23.640625 53.8125 
Q 29.640625 53.8125 33.640625 51.609375 
Q 37.640625 49.421875 40.09375 44.625 
L 40.1875 44.625 
L 40.09375 50.53125 
L 40.09375 72.46875 
L 48.875 72.46875 
L 48.875 10.890625 
Q 48.875 2.640625 49.171875 0 
L 40.765625 0 
Q 40.625 0.78125 40.453125 3.609375 
Q 40.28125 6.453125 40.28125 8.5 
z
M 13.421875 26.46875 
Q 13.421875 15.375 16.34375 10.59375 
Q 19.28125 5.8125 25.875 5.8125 
Q 33.34375 5.8125 36.71875 10.984375 
Q 40.09375 16.15625 40.09375 27.046875 
Q 40.09375 37.546875 36.71875 42.421875 
Q 33.34375 47.3125 25.984375 47.3125 
Q 19.34375 47.3125 16.375 42.40625 
Q 13.421875 37.5 13.421875 26.46875 
z
" id="LiberationSans-100"/>
      <path d="M 6.6875 64.0625 
L 6.6875 72.46875 
L 15.484375 72.46875 
L 15.484375 64.0625 
z
M 6.6875 0 
L 6.6875 52.828125 
L 15.484375 52.828125 
L 15.484375 0 
z
" id="LiberationSans-105"/>
      <path d="M 13.421875 26.65625 
Q 13.421875 16.109375 16.734375 11.03125 
Q 20.0625 5.953125 26.765625 5.953125 
Q 31.453125 5.953125 34.59375 8.484375 
Q 37.75 11.03125 38.484375 16.3125 
L 47.359375 15.71875 
Q 46.34375 8.109375 40.875 3.5625 
Q 35.40625 -0.984375 27 -0.984375 
Q 15.921875 -0.984375 10.078125 6.015625 
Q 4.25 13.03125 4.25 26.46875 
Q 4.25 39.796875 10.109375 46.796875 
Q 15.96875 53.8125 26.90625 53.8125 
Q 35.015625 53.8125 40.359375 49.609375 
Q 45.703125 45.40625 47.078125 38.03125 
L 38.03125 37.359375 
Q 37.359375 41.75 34.5625 44.328125 
Q 31.78125 46.921875 26.65625 46.921875 
Q 19.671875 46.921875 16.546875 42.28125 
Q 13.421875 37.640625 13.421875 26.65625 
z
" id="LiberationSans-99"/>
      <path d="M 27.046875 0.390625 
Q 22.703125 -0.78125 18.171875 -0.78125 
Q 7.625 -0.78125 7.625 11.1875 
L 7.625 46.4375 
L 1.515625 46.4375 
L 1.515625 52.828125 
L 7.953125 52.828125 
L 10.546875 64.65625 
L 16.40625 64.65625 
L 16.40625 52.828125 
L 26.171875 52.828125 
L 26.171875 46.4375 
L 16.40625 46.4375 
L 16.40625 13.09375 
Q 16.40625 9.28125 17.640625 7.734375 
Q 18.890625 6.203125 21.96875 6.203125 
Q 23.734375 6.203125 27.046875 6.890625 
z
" id="LiberationSans-116"/>
      <path d="M 51.421875 26.46875 
Q 51.421875 12.59375 45.3125 5.796875 
Q 39.203125 -0.984375 27.59375 -0.984375 
Q 16.015625 -0.984375 10.109375 6.078125 
Q 4.203125 13.140625 4.203125 26.46875 
Q 4.203125 53.8125 27.875 53.8125 
Q 39.984375 53.8125 45.703125 47.140625 
Q 51.421875 40.484375 51.421875 26.46875 
z
M 42.1875 26.46875 
Q 42.1875 37.40625 38.9375 42.359375 
Q 35.6875 47.3125 28.03125 47.3125 
Q 20.3125 47.3125 16.859375 42.25 
Q 13.421875 37.203125 13.421875 26.46875 
Q 13.421875 16.015625 16.8125 10.765625 
Q 20.21875 5.515625 27.484375 5.515625 
Q 35.40625 5.515625 38.796875 10.59375 
Q 42.1875 15.671875 42.1875 26.46875 
z
" id="LiberationSans-111"/>
      <path d="M 40.28125 0 
L 40.28125 33.5 
Q 40.28125 38.71875 39.25 41.59375 
Q 38.234375 44.484375 35.984375 45.75 
Q 33.734375 47.015625 29.390625 47.015625 
Q 23.046875 47.015625 19.375 42.671875 
Q 15.71875 38.328125 15.71875 30.609375 
L 15.71875 0 
L 6.9375 0 
L 6.9375 41.546875 
Q 6.9375 50.78125 6.640625 52.828125 
L 14.9375 52.828125 
Q 14.984375 52.59375 15.03125 51.515625 
Q 15.09375 50.4375 15.15625 49.046875 
Q 15.234375 47.65625 15.328125 43.796875 
L 15.484375 43.796875 
Q 18.5 49.265625 22.484375 51.53125 
Q 26.46875 53.8125 32.375 53.8125 
Q 41.0625 53.8125 45.09375 49.484375 
Q 49.125 45.171875 49.125 35.203125 
L 49.125 0 
z
" id="LiberationSans-110"/>
     </defs>
     <g style="fill:#262626;" transform="translate(68.888125 247.971562)rotate(-90)scale(0.12 -0.12)">
      <use xlink:href="#LiberationSans-65"/>
      <use x="66.683594" xlink:href="#LiberationSans-118"/>
      <use x="116.683594" xlink:href="#LiberationSans-101"/>
      <use x="172.298828" xlink:href="#LiberationSans-114"/>
      <use x="205.599609" xlink:href="#LiberationSans-97"/>
      <use x="261.214844" xlink:href="#LiberationSans-103"/>
      <use x="316.830078" xlink:href="#LiberationSans-101"/>
      <use x="372.445312" xlink:href="#LiberationSans-32"/>
      <use x="400.228516" xlink:href="#LiberationSans-80"/>
      <use x="466.927734" xlink:href="#LiberationSans-114"/>
      <use x="500.228516" xlink:href="#LiberationSans-101"/>
      <use x="555.84375" xlink:href="#LiberationSans-100"/>
      <use x="611.458984" xlink:href="#LiberationSans-105"/>
      <use x="633.675781" xlink:href="#LiberationSans-99"/>
      <use x="683.675781" xlink:href="#LiberationSans-116"/>
      <use x="711.458984" xlink:href="#LiberationSans-105"/>
      <use x="733.675781" xlink:href="#LiberationSans-111"/>
      <use x="789.291016" xlink:href="#LiberationSans-110"/>
     </g>
    </g>
   </g>
   <g id="PolyCollection_1">
    <path clip-path="url(#p28c393c459)" d="M 99.592657 99.772182 
L 99.592657 134.531611 
L 102.844406 158.942544 
L 109.347902 298.08 
L 115.851399 246.073979 
L 119.103147 215.629074 
L 122.354895 234.064084 
L 125.606643 220.220577 
L 128.858392 218.46193 
L 132.11014 245.833796 
L 132.11014 156.416335 
L 132.11014 156.416335 
L 128.858392 134.844355 
L 125.606643 139.386869 
L 122.354895 118.739982 
L 119.103147 143.967273 
L 115.851399 152.7753 
L 109.347902 142.974191 
L 102.844406 142.974191 
L 99.592657 99.772182 
z
" style="fill:#db5f57;fill-opacity:0.2;stroke:#db5f57;stroke-opacity:0.2;stroke-width:0.5;"/>
    <path clip-path="url(#p28c393c459)" d="M 148.368881 96.48 
L 148.368881 278.165897 
L 151.620629 274.581237 
L 161.375874 155.324651 
L 161.375874 150.837053 
L 161.375874 150.837053 
L 151.620629 229.17216 
L 148.368881 96.48 
z
" style="fill:#db5f57;fill-opacity:0.2;stroke:#db5f57;stroke-opacity:0.2;stroke-width:0.5;"/>
   </g>
   <g id="line2d_17">
    <path clip-path="url(#p28c393c459)" d="M 96.340909 248.15181 
L 99.592657 122.416883 
L 102.844406 150.958368 
L 109.347902 194.676127 
L 115.851399 199.424639 
L 119.103147 179.798174 
L 122.354895 176.402033 
L 125.606643 179.803723 
L 128.858392 176.653143 
L 132.11014 199.66865 
L 141.865385 245.833796 
L 148.368881 161.681514 
L 151.620629 250.808529 
L 161.375874 153.579872 
L 167.879371 171.71356 
L 174.382867 277.348015 
L 197.145105 257.949913 
L 223.159091 297.554896 
" style="fill:none;stroke:#db5f57;stroke-linecap:round;stroke-width:1.5;"/>
   </g>
   <g id="patch_3">
    <path d="M 90 308.16 
L 90 86.4 
" style="fill:none;stroke:#cccccc;stroke-linecap:square;stroke-linejoin:miter;"/>
   </g>
   <g id="patch_4">
    <path d="M 229.5 308.16 
L 229.5 86.4 
" style="fill:none;stroke:#cccccc;stroke-linecap:square;stroke-linejoin:miter;"/>
   </g>
   <g id="patch_5">
    <path d="M 90 308.16 
L 229.5 308.16 
" style="fill:none;stroke:#cccccc;stroke-linecap:square;stroke-linejoin:miter;"/>
   </g>
   <g id="patch_6">
    <path d="M 90 86.4 
L 229.5 86.4 
" style="fill:none;stroke:#cccccc;stroke-linecap:square;stroke-linejoin:miter;"/>
   </g>
   <g id="text_11">
    <!-- Age -->
    <g style="fill:#262626;" transform="translate(146.939625 80.4)scale(0.144 -0.144)">
     <use xlink:href="#LiberationSans-65"/>
     <use x="66.699219" xlink:href="#LiberationSans-103"/>
     <use x="122.314453" xlink:href="#LiberationSans-101"/>
    </g>
   </g>
  </g>
  <g id="axes_2">
   <g id="patch_7">
    <path d="M 299.25 308.16 
L 438.75 308.16 
L 438.75 86.4 
L 299.25 86.4 
z
" style="fill:#ffffff;"/>
   </g>
   <g id="matplotlib.axis_3">
    <g id="xtick_3">
     <g id="line2d_18">
      <path clip-path="url(#p7b0c5587fa)" d="M 303.339195 308.16 
L 303.339195 86.4 
" style="fill:none;stroke:#cccccc;stroke-linecap:round;stroke-width:0.8;"/>
     </g>
     <g id="line2d_19"/>
     <g id="text_12">
      <!-- 0 -->
      <g style="fill:#262626;" transform="translate(300.558727 318.906875)scale(0.1 -0.1)">
       <use xlink:href="#LiberationSans-48"/>
      </g>
     </g>
    </g>
    <g id="xtick_4">
     <g id="line2d_20">
      <path clip-path="url(#p7b0c5587fa)" d="M 351.67998 308.16 
L 351.67998 86.4 
" style="fill:none;stroke:#cccccc;stroke-linecap:round;stroke-width:0.8;"/>
     </g>
     <g id="line2d_21"/>
     <g id="text_13">
      <!-- 50 -->
      <defs>
       <path d="M 51.421875 22.40625 
Q 51.421875 11.53125 44.953125 5.265625 
Q 38.484375 -0.984375 27 -0.984375 
Q 17.390625 -0.984375 11.46875 3.21875 
Q 5.5625 7.421875 4 15.375 
L 12.890625 16.40625 
Q 15.671875 6.203125 27.203125 6.203125 
Q 34.28125 6.203125 38.28125 10.46875 
Q 42.28125 14.75 42.28125 22.21875 
Q 42.28125 28.71875 38.25 32.71875 
Q 34.234375 36.71875 27.390625 36.71875 
Q 23.828125 36.71875 20.75 35.59375 
Q 17.671875 34.46875 14.59375 31.78125 
L 6 31.78125 
L 8.296875 68.796875 
L 47.40625 68.796875 
L 47.40625 61.328125 
L 16.3125 61.328125 
L 14.984375 39.5 
Q 20.703125 43.890625 29.203125 43.890625 
Q 39.359375 43.890625 45.390625 37.9375 
Q 51.421875 31.984375 51.421875 22.40625 
z
" id="LiberationSans-53"/>
      </defs>
      <g style="fill:#262626;" transform="translate(346.119043 318.906875)scale(0.1 -0.1)">
       <use xlink:href="#LiberationSans-53"/>
       <use x="55.615234" xlink:href="#LiberationSans-48"/>
      </g>
     </g>
    </g>
    <g id="xtick_5">
     <g id="line2d_22">
      <path clip-path="url(#p7b0c5587fa)" d="M 400.020765 308.16 
L 400.020765 86.4 
" style="fill:none;stroke:#cccccc;stroke-linecap:round;stroke-width:0.8;"/>
     </g>
     <g id="line2d_23"/>
     <g id="text_14">
      <!-- 100 -->
      <g style="fill:#262626;" transform="translate(391.679359 318.906875)scale(0.1 -0.1)">
       <use xlink:href="#LiberationSans-49"/>
       <use x="55.615234" xlink:href="#LiberationSans-48"/>
       <use x="111.230469" xlink:href="#LiberationSans-48"/>
      </g>
     </g>
    </g>
    <g id="text_15">
     <!-- Value -->
     <g style="fill:#262626;" transform="translate(353.661563 333.678125)scale(0.12 -0.12)">
      <use xlink:href="#LiberationSans-86"/>
      <use x="66.589844" xlink:href="#LiberationSans-97"/>
      <use x="122.205078" xlink:href="#LiberationSans-108"/>
      <use x="144.421875" xlink:href="#LiberationSans-117"/>
      <use x="200.037109" xlink:href="#LiberationSans-101"/>
     </g>
    </g>
   </g>
   <g id="matplotlib.axis_4">
    <g id="ytick_7">
     <g id="line2d_24">
      <path clip-path="url(#p7b0c5587fa)" d="M 299.25 300.085108 
L 438.75 300.085108 
" style="fill:none;stroke:#cccccc;stroke-linecap:round;stroke-width:0.8;"/>
     </g>
     <g id="line2d_25"/>
     <g id="text_16">
      <!-- 4 -->
      <g style="fill:#262626;" transform="translate(290.189062 303.708545)scale(0.1 -0.1)">
       <use xlink:href="#LiberationSans-52"/>
      </g>
     </g>
    </g>
    <g id="ytick_8">
     <g id="line2d_26">
      <path clip-path="url(#p7b0c5587fa)" d="M 299.25 264.716981 
L 438.75 264.716981 
" style="fill:none;stroke:#cccccc;stroke-linecap:round;stroke-width:0.8;"/>
     </g>
     <g id="line2d_27"/>
     <g id="text_17">
      <!-- 5 -->
      <g style="fill:#262626;" transform="translate(290.189062 268.340419)scale(0.1 -0.1)">
       <use xlink:href="#LiberationSans-53"/>
      </g>
     </g>
    </g>
    <g id="ytick_9">
     <g id="line2d_28">
      <path clip-path="url(#p7b0c5587fa)" d="M 299.25 229.348855 
L 438.75 229.348855 
" style="fill:none;stroke:#cccccc;stroke-linecap:round;stroke-width:0.8;"/>
     </g>
     <g id="line2d_29"/>
     <g id="text_18">
      <!-- 6 -->
      <g style="fill:#262626;" transform="translate(290.189062 232.972292)scale(0.1 -0.1)">
       <use xlink:href="#LiberationSans-54"/>
      </g>
     </g>
    </g>
    <g id="ytick_10">
     <g id="line2d_30">
      <path clip-path="url(#p7b0c5587fa)" d="M 299.25 193.980729 
L 438.75 193.980729 
" style="fill:none;stroke:#cccccc;stroke-linecap:round;stroke-width:0.8;"/>
     </g>
     <g id="line2d_31"/>
     <g id="text_19">
      <!-- 7 -->
      <defs>
       <path d="M 50.59375 61.671875 
Q 40.046875 45.5625 35.6875 36.421875 
Q 31.34375 27.296875 29.171875 18.40625 
Q 27 9.515625 27 0 
L 17.828125 0 
Q 17.828125 13.1875 23.40625 27.75 
Q 29 42.328125 42.09375 61.328125 
L 5.125 61.328125 
L 5.125 68.796875 
L 50.59375 68.796875 
z
" id="LiberationSans-55"/>
      </defs>
      <g style="fill:#262626;" transform="translate(290.189062 197.604166)scale(0.1 -0.1)">
       <use xlink:href="#LiberationSans-55"/>
      </g>
     </g>
    </g>
    <g id="ytick_11">
     <g id="line2d_32">
      <path clip-path="url(#p7b0c5587fa)" d="M 299.25 158.612602 
L 438.75 158.612602 
" style="fill:none;stroke:#cccccc;stroke-linecap:round;stroke-width:0.8;"/>
     </g>
     <g id="line2d_33"/>
     <g id="text_20">
      <!-- 8 -->
      <g style="fill:#262626;" transform="translate(290.189062 162.23604)scale(0.1 -0.1)">
       <use xlink:href="#LiberationSans-56"/>
      </g>
     </g>
    </g>
    <g id="ytick_12">
     <g id="line2d_34">
      <path clip-path="url(#p7b0c5587fa)" d="M 299.25 123.244476 
L 438.75 123.244476 
" style="fill:none;stroke:#cccccc;stroke-linecap:round;stroke-width:0.8;"/>
     </g>
     <g id="line2d_35"/>
     <g id="text_21">
      <!-- 9 -->
      <defs>
       <path d="M 50.875 35.796875 
Q 50.875 18.0625 44.40625 8.53125 
Q 37.9375 -0.984375 25.984375 -0.984375 
Q 17.921875 -0.984375 13.0625 2.40625 
Q 8.203125 5.8125 6.109375 13.375 
L 14.5 14.703125 
Q 17.140625 6.109375 26.125 6.109375 
Q 33.6875 6.109375 37.84375 13.140625 
Q 42 20.171875 42.1875 33.203125 
Q 40.234375 28.8125 35.5 26.140625 
Q 30.765625 23.484375 25.09375 23.484375 
Q 15.828125 23.484375 10.25 29.828125 
Q 4.6875 36.1875 4.6875 46.6875 
Q 4.6875 57.46875 10.734375 63.640625 
Q 16.796875 69.828125 27.59375 69.828125 
Q 39.0625 69.828125 44.96875 61.328125 
Q 50.875 52.828125 50.875 35.796875 
z
M 41.3125 44.28125 
Q 41.3125 52.59375 37.5 57.640625 
Q 33.6875 62.703125 27.296875 62.703125 
Q 20.953125 62.703125 17.28125 58.375 
Q 13.625 54.046875 13.625 46.6875 
Q 13.625 39.15625 17.28125 34.78125 
Q 20.953125 30.421875 27.203125 30.421875 
Q 31 30.421875 34.265625 32.15625 
Q 37.546875 33.890625 39.421875 37.0625 
Q 41.3125 40.234375 41.3125 44.28125 
z
" id="LiberationSans-57"/>
      </defs>
      <g style="fill:#262626;" transform="translate(290.189062 126.867913)scale(0.1 -0.1)">
       <use xlink:href="#LiberationSans-57"/>
      </g>
     </g>
    </g>
    <g id="ytick_13">
     <g id="line2d_36">
      <path clip-path="url(#p7b0c5587fa)" d="M 299.25 87.87635 
L 438.75 87.87635 
" style="fill:none;stroke:#cccccc;stroke-linecap:round;stroke-width:0.8;"/>
     </g>
     <g id="line2d_37"/>
     <g id="text_22">
      <!-- 10 -->
      <g style="fill:#262626;" transform="translate(284.628125 91.499787)scale(0.1 -0.1)">
       <use xlink:href="#LiberationSans-49"/>
       <use x="55.615234" xlink:href="#LiberationSans-48"/>
      </g>
     </g>
    </g>
    <g id="text_23">
     <!-- Average Prediction -->
     <g style="fill:#262626;" transform="translate(278.138125 247.971562)rotate(-90)scale(0.12 -0.12)">
      <use xlink:href="#LiberationSans-65"/>
      <use x="66.683594" xlink:href="#LiberationSans-118"/>
      <use x="116.683594" xlink:href="#LiberationSans-101"/>
      <use x="172.298828" xlink:href="#LiberationSans-114"/>
      <use x="205.599609" xlink:href="#LiberationSans-97"/>
      <use x="261.214844" xlink:href="#LiberationSans-103"/>
      <use x="316.830078" xlink:href="#LiberationSans-101"/>
      <use x="372.445312" xlink:href="#LiberationSans-32"/>
      <use x="400.228516" xlink:href="#LiberationSans-80"/>
      <use x="466.927734" xlink:href="#LiberationSans-114"/>
      <use x="500.228516" xlink:href="#LiberationSans-101"/>
      <use x="555.84375" xlink:href="#LiberationSans-100"/>
      <use x="611.458984" xlink:href="#LiberationSans-105"/>
      <use x="633.675781" xlink:href="#LiberationSans-99"/>
      <use x="683.675781" xlink:href="#LiberationSans-116"/>
      <use x="711.458984" xlink:href="#LiberationSans-105"/>
      <use x="733.675781" xlink:href="#LiberationSans-111"/>
      <use x="789.291016" xlink:href="#LiberationSans-110"/>
     </g>
    </g>
   </g>
   <g id="PolyCollection_2">
    <path clip-path="url(#p7b0c5587fa)" d="M 332.611474 116.791384 
L 332.611474 296.316103 
L 332.611474 116.791384 
L 332.611474 116.791384 
z
" style="fill:#57d3db;fill-opacity:0.2;stroke:#57d3db;stroke-opacity:0.2;stroke-width:0.5;"/>
    <path clip-path="url(#p7b0c5587fa)" d="M 391.319424 257.714711 
L 391.319424 286.233711 
L 391.319424 257.714711 
L 391.319424 257.714711 
z
" style="fill:#57d3db;fill-opacity:0.2;stroke:#57d3db;stroke-opacity:0.2;stroke-width:0.5;"/>
    <path clip-path="url(#p7b0c5587fa)" d="M 401.47969 116.713486 
L 401.47969 126.862105 
L 401.47969 116.713486 
L 401.47969 116.713486 
z
" style="fill:#57d3db;fill-opacity:0.2;stroke:#57d3db;stroke-opacity:0.2;stroke-width:0.5;"/>
   </g>
   <g id="line2d_38">
    <path clip-path="url(#p7b0c5587fa)" d="M 305.590909 262.681457 
L 306.569327 123.104507 
L 315.424392 114.197574 
L 319.581699 111.679187 
L 319.631973 113.509664 
L 321.798607 140.505094 
L 321.902057 112.591596 
L 330.825766 112.693545 
L 332.611474 223.946845 
L 335.244113 226.976538 
L 336.133584 106.101457 
L 336.452633 135.313318 
L 340.078192 232.457006 
L 343.945455 228.599404 
L 351.67998 96.48 
L 354.508883 108.287649 
L 361.011685 260.335666 
L 371.332443 238.170373 
L 374.10237 103.04459 
L 374.826515 97.73716 
L 378.473344 239.449108 
L 379.225526 130.468239 
L 381.651267 212.371182 
L 386.116989 259.186202 
L 389.965882 260.07067 
L 390.352608 110.742727 
L 390.439621 112.802656 
L 391.319424 272.485531 
L 393.253055 283.473229 
L 401.47969 121.787795 
L 404.854844 130.01031 
L 408.591586 152.217868 
L 409.919991 285.638466 
L 415.489816 262.710194 
L 432.409091 298.08 
" style="fill:none;stroke:#57d3db;stroke-linecap:round;stroke-width:1.5;"/>
   </g>
   <g id="patch_8">
    <path d="M 299.25 308.16 
L 299.25 86.4 
" style="fill:none;stroke:#cccccc;stroke-linecap:square;stroke-linejoin:miter;"/>
   </g>
   <g id="patch_9">
    <path d="M 438.75 308.16 
L 438.75 86.4 
" style="fill:none;stroke:#cccccc;stroke-linecap:square;stroke-linejoin:miter;"/>
   </g>
   <g id="patch_10">
    <path d="M 299.25 308.16 
L 438.75 308.16 
" style="fill:none;stroke:#cccccc;stroke-linecap:square;stroke-linejoin:miter;"/>
   </g>
   <g id="patch_11">
    <path d="M 299.25 86.4 
L 438.75 86.4 
" style="fill:none;stroke:#cccccc;stroke-linecap:square;stroke-linejoin:miter;"/>
   </g>
   <g id="text_24">
    <!-- Tonnage -->
    <defs>
     <path d="M 35.15625 61.1875 
L 35.15625 0 
L 25.875 0 
L 25.875 61.1875 
L 2.25 61.1875 
L 2.25 68.796875 
L 58.796875 68.796875 
L 58.796875 61.1875 
z
" id="LiberationSans-84"/>
    </defs>
    <g style="fill:#262626;" transform="translate(340.5915 80.4)scale(0.144 -0.144)">
     <use xlink:href="#LiberationSans-84"/>
     <use x="60.912109" xlink:href="#LiberationSans-111"/>
     <use x="116.527344" xlink:href="#LiberationSans-110"/>
     <use x="172.142578" xlink:href="#LiberationSans-110"/>
     <use x="227.757812" xlink:href="#LiberationSans-97"/>
     <use x="283.373047" xlink:href="#LiberationSans-103"/>
     <use x="338.988281" xlink:href="#LiberationSans-101"/>
    </g>
   </g>
  </g>
  <g id="axes_3">
   <g id="patch_12">
    <path d="M 508.5 308.16 
L 648 308.16 
L 648 86.4 
L 508.5 86.4 
z
" style="fill:#ffffff;"/>
   </g>
   <g id="matplotlib.axis_5">
    <g id="xtick_6">
     <g id="line2d_39">
      <path clip-path="url(#p7eaa0dabd2)" d="M 512.690896 308.16 
L 512.690896 86.4 
" style="fill:none;stroke:#cccccc;stroke-linecap:round;stroke-width:0.8;"/>
     </g>
     <g id="line2d_40"/>
     <g id="text_25">
      <!-- 0 -->
      <g style="fill:#262626;" transform="translate(509.910427 318.906875)scale(0.1 -0.1)">
       <use xlink:href="#LiberationSans-48"/>
      </g>
     </g>
    </g>
    <g id="xtick_7">
     <g id="line2d_41">
      <path clip-path="url(#p7eaa0dabd2)" d="M 577.842801 308.16 
L 577.842801 86.4 
" style="fill:none;stroke:#cccccc;stroke-linecap:round;stroke-width:0.8;"/>
     </g>
     <g id="line2d_42"/>
     <g id="text_26">
      <!-- 20 -->
      <g style="fill:#262626;" transform="translate(572.281863 318.906875)scale(0.1 -0.1)">
       <use xlink:href="#LiberationSans-50"/>
       <use x="55.615234" xlink:href="#LiberationSans-48"/>
      </g>
     </g>
    </g>
    <g id="xtick_8">
     <g id="line2d_43">
      <path clip-path="url(#p7eaa0dabd2)" d="M 642.994705 308.16 
L 642.994705 86.4 
" style="fill:none;stroke:#cccccc;stroke-linecap:round;stroke-width:0.8;"/>
     </g>
     <g id="line2d_44"/>
     <g id="text_27">
      <!-- 40 -->
      <g style="fill:#262626;" transform="translate(637.433767 318.906875)scale(0.1 -0.1)">
       <use xlink:href="#LiberationSans-52"/>
       <use x="55.615234" xlink:href="#LiberationSans-48"/>
      </g>
     </g>
    </g>
    <g id="text_28">
     <!-- Value -->
     <g style="fill:#262626;" transform="translate(562.911562 333.678125)scale(0.12 -0.12)">
      <use xlink:href="#LiberationSans-86"/>
      <use x="66.589844" xlink:href="#LiberationSans-97"/>
      <use x="122.205078" xlink:href="#LiberationSans-108"/>
      <use x="144.421875" xlink:href="#LiberationSans-117"/>
      <use x="200.037109" xlink:href="#LiberationSans-101"/>
     </g>
    </g>
   </g>
   <g id="matplotlib.axis_6">
    <g id="ytick_14">
     <g id="line2d_45">
      <path clip-path="url(#p7eaa0dabd2)" d="M 508.5 299.813137 
L 648 299.813137 
" style="fill:none;stroke:#cccccc;stroke-linecap:round;stroke-width:0.8;"/>
     </g>
     <g id="line2d_46"/>
     <g id="text_29">
      <!-- 2 -->
      <g style="fill:#262626;" transform="translate(499.439063 303.436575)scale(0.1 -0.1)">
       <use xlink:href="#LiberationSans-50"/>
      </g>
     </g>
    </g>
    <g id="ytick_15">
     <g id="line2d_47">
      <path clip-path="url(#p7eaa0dabd2)" d="M 508.5 260.748821 
L 648 260.748821 
" style="fill:none;stroke:#cccccc;stroke-linecap:round;stroke-width:0.8;"/>
     </g>
     <g id="line2d_48"/>
     <g id="text_30">
      <!-- 4 -->
      <g style="fill:#262626;" transform="translate(499.439063 264.372258)scale(0.1 -0.1)">
       <use xlink:href="#LiberationSans-52"/>
      </g>
     </g>
    </g>
    <g id="ytick_16">
     <g id="line2d_49">
      <path clip-path="url(#p7eaa0dabd2)" d="M 508.5 221.684504 
L 648 221.684504 
" style="fill:none;stroke:#cccccc;stroke-linecap:round;stroke-width:0.8;"/>
     </g>
     <g id="line2d_50"/>
     <g id="text_31">
      <!-- 6 -->
      <g style="fill:#262626;" transform="translate(499.439063 225.307942)scale(0.1 -0.1)">
       <use xlink:href="#LiberationSans-54"/>
      </g>
     </g>
    </g>
    <g id="ytick_17">
     <g id="line2d_51">
      <path clip-path="url(#p7eaa0dabd2)" d="M 508.5 182.620187 
L 648 182.620187 
" style="fill:none;stroke:#cccccc;stroke-linecap:round;stroke-width:0.8;"/>
     </g>
     <g id="line2d_52"/>
     <g id="text_32">
      <!-- 8 -->
      <g style="fill:#262626;" transform="translate(499.439063 186.243625)scale(0.1 -0.1)">
       <use xlink:href="#LiberationSans-56"/>
      </g>
     </g>
    </g>
    <g id="ytick_18">
     <g id="line2d_53">
      <path clip-path="url(#p7eaa0dabd2)" d="M 508.5 143.555871 
L 648 143.555871 
" style="fill:none;stroke:#cccccc;stroke-linecap:round;stroke-width:0.8;"/>
     </g>
     <g id="line2d_54"/>
     <g id="text_33">
      <!-- 10 -->
      <g style="fill:#262626;" transform="translate(493.878125 147.179308)scale(0.1 -0.1)">
       <use xlink:href="#LiberationSans-49"/>
       <use x="55.615234" xlink:href="#LiberationSans-48"/>
      </g>
     </g>
    </g>
    <g id="ytick_19">
     <g id="line2d_55">
      <path clip-path="url(#p7eaa0dabd2)" d="M 508.5 104.491554 
L 648 104.491554 
" style="fill:none;stroke:#cccccc;stroke-linecap:round;stroke-width:0.8;"/>
     </g>
     <g id="line2d_56"/>
     <g id="text_34">
      <!-- 12 -->
      <g style="fill:#262626;" transform="translate(493.878125 108.114992)scale(0.1 -0.1)">
       <use xlink:href="#LiberationSans-49"/>
       <use x="55.615234" xlink:href="#LiberationSans-50"/>
      </g>
     </g>
    </g>
    <g id="text_35">
     <!-- Average Prediction -->
     <g style="fill:#262626;" transform="translate(487.388125 247.971562)rotate(-90)scale(0.12 -0.12)">
      <use xlink:href="#LiberationSans-65"/>
      <use x="66.683594" xlink:href="#LiberationSans-118"/>
      <use x="116.683594" xlink:href="#LiberationSans-101"/>
      <use x="172.298828" xlink:href="#LiberationSans-114"/>
      <use x="205.599609" xlink:href="#LiberationSans-97"/>
      <use x="261.214844" xlink:href="#LiberationSans-103"/>
      <use x="316.830078" xlink:href="#LiberationSans-101"/>
      <use x="372.445312" xlink:href="#LiberationSans-32"/>
      <use x="400.228516" xlink:href="#LiberationSans-80"/>
      <use x="466.927734" xlink:href="#LiberationSans-114"/>
      <use x="500.228516" xlink:href="#LiberationSans-101"/>
      <use x="555.84375" xlink:href="#LiberationSans-100"/>
      <use x="611.458984" xlink:href="#LiberationSans-105"/>
      <use x="633.675781" xlink:href="#LiberationSans-99"/>
      <use x="683.675781" xlink:href="#LiberationSans-116"/>
      <use x="711.458984" xlink:href="#LiberationSans-105"/>
      <use x="733.675781" xlink:href="#LiberationSans-111"/>
      <use x="789.291016" xlink:href="#LiberationSans-110"/>
     </g>
    </g>
   </g>
   <g id="PolyCollection_3">
    <path clip-path="url(#p7eaa0dabd2)" d="M 534.972848 152.31287 
L 534.972848 152.957578 
L 534.972848 152.31287 
L 534.972848 152.31287 
z
" style="fill:#5f57db;fill-opacity:0.2;stroke:#5f57db;stroke-opacity:0.2;stroke-width:0.5;"/>
    <path clip-path="url(#p7eaa0dabd2)" d="M 578.885231 140.478482 
L 578.885231 231.055252 
L 578.885231 140.478482 
L 578.885231 140.478482 
z
" style="fill:#5f57db;fill-opacity:0.2;stroke:#5f57db;stroke-opacity:0.2;stroke-width:0.5;"/>
    <path clip-path="url(#p7eaa0dabd2)" d="M 602.535372 158.992038 
L 602.535372 164.444977 
L 602.535372 158.992038 
L 602.535372 158.992038 
z
" style="fill:#5f57db;fill-opacity:0.2;stroke:#5f57db;stroke-opacity:0.2;stroke-width:0.5;"/>
   </g>
   <g id="line2d_57">
    <path clip-path="url(#p7eaa0dabd2)" d="M 514.840909 266.673657 
L 515.753036 112.277317 
L 522.333378 144.534237 
L 523.115201 141.855255 
L 525.525821 153.982869 
L 528.653113 163.222166 
L 534.972848 152.635224 
L 535.298607 297.809382 
L 535.494063 262.364814 
L 538.751658 160.701053 
L 539.012266 224.940173 
L 543.703203 137.036964 
L 546.960798 160.323545 
L 547.091102 235.758596 
L 552.238102 225.506508 
L 555.104786 96.48 
L 555.691153 149.865832 
L 561.685128 278.301981 
L 571.034427 234.656933 
L 573.998838 147.702157 
L 578.885231 179.628137 
L 581.556459 212.09646 
L 582.533738 262.75155 
L 585.661029 263.39787 
L 590.677726 106.388371 
L 592.01334 115.513649 
L 594.163353 293.158629 
L 595.759574 239.338645 
L 601.297486 254.939468 
L 602.079309 283.959519 
L 602.535372 162.413453 
L 605.597512 179.909466 
L 613.676348 285.73177 
L 633.221919 275.843273 
L 641.659091 298.08 
" style="fill:none;stroke:#5f57db;stroke-linecap:round;stroke-width:1.5;"/>
   </g>
   <g id="patch_13">
    <path d="M 508.5 308.16 
L 508.5 86.4 
" style="fill:none;stroke:#cccccc;stroke-linecap:square;stroke-linejoin:miter;"/>
   </g>
   <g id="patch_14">
    <path d="M 648 308.16 
L 648 86.4 
" style="fill:none;stroke:#cccccc;stroke-linecap:square;stroke-linejoin:miter;"/>
   </g>
   <g id="patch_15">
    <path d="M 508.5 308.16 
L 648 308.16 
" style="fill:none;stroke:#cccccc;stroke-linecap:square;stroke-linejoin:miter;"/>
   </g>
   <g id="patch_16">
    <path d="M 508.5 86.4 
L 648 86.4 
" style="fill:none;stroke:#cccccc;stroke-linecap:square;stroke-linejoin:miter;"/>
   </g>
   <g id="text_36">
    <!-- passengers -->
    <defs>
     <path d="M 51.421875 26.65625 
Q 51.421875 -0.984375 31.984375 -0.984375 
Q 19.78125 -0.984375 15.578125 8.203125 
L 15.328125 8.203125 
Q 15.53125 7.8125 15.53125 -0.09375 
L 15.53125 -20.75 
L 6.734375 -20.75 
L 6.734375 42.046875 
Q 6.734375 50.203125 6.453125 52.828125 
L 14.9375 52.828125 
Q 14.984375 52.640625 15.078125 51.4375 
Q 15.1875 50.25 15.3125 47.75 
Q 15.4375 45.265625 15.4375 44.34375 
L 15.625 44.34375 
Q 17.96875 49.21875 21.828125 51.484375 
Q 25.6875 53.765625 31.984375 53.765625 
Q 41.75 53.765625 46.578125 47.21875 
Q 51.421875 40.671875 51.421875 26.65625 
z
M 42.1875 26.46875 
Q 42.1875 37.5 39.203125 42.234375 
Q 36.234375 46.96875 29.734375 46.96875 
Q 24.515625 46.96875 21.5625 44.765625 
Q 18.609375 42.578125 17.0625 37.90625 
Q 15.53125 33.25 15.53125 25.78125 
Q 15.53125 15.375 18.84375 10.4375 
Q 22.171875 5.515625 29.640625 5.515625 
Q 36.1875 5.515625 39.1875 10.328125 
Q 42.1875 15.140625 42.1875 26.46875 
z
" id="LiberationSans-112"/>
     <path d="M 46.390625 14.59375 
Q 46.390625 7.125 40.75 3.0625 
Q 35.109375 -0.984375 24.953125 -0.984375 
Q 15.09375 -0.984375 9.734375 2.265625 
Q 4.390625 5.515625 2.78125 12.40625 
L 10.546875 13.921875 
Q 11.671875 9.671875 15.1875 7.6875 
Q 18.703125 5.71875 24.953125 5.71875 
Q 31.640625 5.71875 34.734375 7.765625 
Q 37.84375 9.8125 37.84375 13.921875 
Q 37.84375 17.046875 35.6875 19 
Q 33.546875 20.953125 28.765625 22.21875 
L 22.46875 23.875 
Q 14.890625 25.828125 11.6875 27.703125 
Q 8.5 29.59375 6.6875 32.28125 
Q 4.890625 34.96875 4.890625 38.875 
Q 4.890625 46.09375 10.03125 49.875 
Q 15.1875 53.65625 25.046875 53.65625 
Q 33.796875 53.65625 38.9375 50.578125 
Q 44.09375 47.515625 45.453125 40.71875 
L 37.546875 39.75 
Q 36.8125 43.265625 33.609375 45.140625 
Q 30.421875 47.015625 25.046875 47.015625 
Q 19.09375 47.015625 16.25 45.203125 
Q 13.421875 43.40625 13.421875 39.75 
Q 13.421875 37.5 14.59375 36.03125 
Q 15.765625 34.578125 18.0625 33.546875 
Q 20.359375 32.515625 27.734375 30.71875 
Q 34.71875 28.953125 37.796875 27.46875 
Q 40.875 25.984375 42.65625 24.171875 
Q 44.4375 22.359375 45.40625 19.984375 
Q 46.390625 17.625 46.390625 14.59375 
z
" id="LiberationSans-115"/>
    </defs>
    <g style="fill:#262626;" transform="translate(541.029375 80.4)scale(0.144 -0.144)">
     <use xlink:href="#LiberationSans-112"/>
     <use x="55.615234" xlink:href="#LiberationSans-97"/>
     <use x="111.230469" xlink:href="#LiberationSans-115"/>
     <use x="161.230469" xlink:href="#LiberationSans-115"/>
     <use x="211.230469" xlink:href="#LiberationSans-101"/>
     <use x="266.845703" xlink:href="#LiberationSans-110"/>
     <use x="322.460938" xlink:href="#LiberationSans-103"/>
     <use x="378.076172" xlink:href="#LiberationSans-101"/>
     <use x="433.691406" xlink:href="#LiberationSans-114"/>
     <use x="466.992188" xlink:href="#LiberationSans-115"/>
    </g>
   </g>
  </g>
  <g id="axes_4">
   <g id="patch_17">
    <path d="M 90 640.8 
L 229.5 640.8 
L 229.5 419.04 
L 90 419.04 
z
" style="fill:#ffffff;"/>
   </g>
   <g id="matplotlib.axis_7">
    <g id="xtick_9">
     <g id="line2d_58">
      <path clip-path="url(#p83eba7aa1c)" d="M 91.822817 640.8 
L 91.822817 419.04 
" style="fill:none;stroke:#cccccc;stroke-linecap:round;stroke-width:0.8;"/>
     </g>
     <g id="line2d_59"/>
     <g id="text_37">
      <!-- 2.5 -->
      <defs>
       <path d="M 9.125 0 
L 9.125 10.6875 
L 18.65625 10.6875 
L 18.65625 0 
z
" id="LiberationSans-46"/>
      </defs>
      <g style="fill:#262626;" transform="translate(84.872817 651.546875)scale(0.1 -0.1)">
       <use xlink:href="#LiberationSans-50"/>
       <use x="55.615234" xlink:href="#LiberationSans-46"/>
       <use x="83.398438" xlink:href="#LiberationSans-53"/>
      </g>
     </g>
    </g>
    <g id="xtick_10">
     <g id="line2d_60">
      <path clip-path="url(#p83eba7aa1c)" d="M 130.77189 640.8 
L 130.77189 419.04 
" style="fill:none;stroke:#cccccc;stroke-linecap:round;stroke-width:0.8;"/>
     </g>
     <g id="line2d_61"/>
     <g id="text_38">
      <!-- 5.0 -->
      <g style="fill:#262626;" transform="translate(123.82189 651.546875)scale(0.1 -0.1)">
       <use xlink:href="#LiberationSans-53"/>
       <use x="55.615234" xlink:href="#LiberationSans-46"/>
       <use x="83.398438" xlink:href="#LiberationSans-48"/>
      </g>
     </g>
    </g>
    <g id="xtick_11">
     <g id="line2d_62">
      <path clip-path="url(#p83eba7aa1c)" d="M 169.720963 640.8 
L 169.720963 419.04 
" style="fill:none;stroke:#cccccc;stroke-linecap:round;stroke-width:0.8;"/>
     </g>
     <g id="line2d_63"/>
     <g id="text_39">
      <!-- 7.5 -->
      <g style="fill:#262626;" transform="translate(162.770963 651.546875)scale(0.1 -0.1)">
       <use xlink:href="#LiberationSans-55"/>
       <use x="55.615234" xlink:href="#LiberationSans-46"/>
       <use x="83.398438" xlink:href="#LiberationSans-53"/>
      </g>
     </g>
    </g>
    <g id="xtick_12">
     <g id="line2d_64">
      <path clip-path="url(#p83eba7aa1c)" d="M 208.670036 640.8 
L 208.670036 419.04 
" style="fill:none;stroke:#cccccc;stroke-linecap:round;stroke-width:0.8;"/>
     </g>
     <g id="line2d_65"/>
     <g id="text_40">
      <!-- 10.0 -->
      <g style="fill:#262626;" transform="translate(198.939567 651.546875)scale(0.1 -0.1)">
       <use xlink:href="#LiberationSans-49"/>
       <use x="55.615234" xlink:href="#LiberationSans-48"/>
       <use x="111.230469" xlink:href="#LiberationSans-46"/>
       <use x="139.013672" xlink:href="#LiberationSans-48"/>
      </g>
     </g>
    </g>
    <g id="text_41">
     <!-- Value -->
     <g style="fill:#262626;" transform="translate(144.411563 666.318125)scale(0.12 -0.12)">
      <use xlink:href="#LiberationSans-86"/>
      <use x="66.589844" xlink:href="#LiberationSans-97"/>
      <use x="122.205078" xlink:href="#LiberationSans-108"/>
      <use x="144.421875" xlink:href="#LiberationSans-117"/>
      <use x="200.037109" xlink:href="#LiberationSans-101"/>
     </g>
    </g>
   </g>
   <g id="matplotlib.axis_8">
    <g id="ytick_20">
     <g id="line2d_66">
      <path clip-path="url(#p83eba7aa1c)" d="M 90 619.669263 
L 229.5 619.669263 
" style="fill:none;stroke:#cccccc;stroke-linecap:round;stroke-width:0.8;"/>
     </g>
     <g id="line2d_67"/>
     <g id="text_42">
      <!-- 2 -->
      <g style="fill:#262626;" transform="translate(80.939063 623.2927)scale(0.1 -0.1)">
       <use xlink:href="#LiberationSans-50"/>
      </g>
     </g>
    </g>
    <g id="ytick_21">
     <g id="line2d_68">
      <path clip-path="url(#p83eba7aa1c)" d="M 90 582.8528 
L 229.5 582.8528 
" style="fill:none;stroke:#cccccc;stroke-linecap:round;stroke-width:0.8;"/>
     </g>
     <g id="line2d_69"/>
     <g id="text_43">
      <!-- 4 -->
      <g style="fill:#262626;" transform="translate(80.939063 586.476238)scale(0.1 -0.1)">
       <use xlink:href="#LiberationSans-52"/>
      </g>
     </g>
    </g>
    <g id="ytick_22">
     <g id="line2d_70">
      <path clip-path="url(#p83eba7aa1c)" d="M 90 546.036337 
L 229.5 546.036337 
" style="fill:none;stroke:#cccccc;stroke-linecap:round;stroke-width:0.8;"/>
     </g>
     <g id="line2d_71"/>
     <g id="text_44">
      <!-- 6 -->
      <g style="fill:#262626;" transform="translate(80.939063 549.659775)scale(0.1 -0.1)">
       <use xlink:href="#LiberationSans-54"/>
      </g>
     </g>
    </g>
    <g id="ytick_23">
     <g id="line2d_72">
      <path clip-path="url(#p83eba7aa1c)" d="M 90 509.219875 
L 229.5 509.219875 
" style="fill:none;stroke:#cccccc;stroke-linecap:round;stroke-width:0.8;"/>
     </g>
     <g id="line2d_73"/>
     <g id="text_45">
      <!-- 8 -->
      <g style="fill:#262626;" transform="translate(80.939063 512.843312)scale(0.1 -0.1)">
       <use xlink:href="#LiberationSans-56"/>
      </g>
     </g>
    </g>
    <g id="ytick_24">
     <g id="line2d_74">
      <path clip-path="url(#p83eba7aa1c)" d="M 90 472.403412 
L 229.5 472.403412 
" style="fill:none;stroke:#cccccc;stroke-linecap:round;stroke-width:0.8;"/>
     </g>
     <g id="line2d_75"/>
     <g id="text_46">
      <!-- 10 -->
      <g style="fill:#262626;" transform="translate(75.378125 476.02685)scale(0.1 -0.1)">
       <use xlink:href="#LiberationSans-49"/>
       <use x="55.615234" xlink:href="#LiberationSans-48"/>
      </g>
     </g>
    </g>
    <g id="ytick_25">
     <g id="line2d_76">
      <path clip-path="url(#p83eba7aa1c)" d="M 90 435.58695 
L 229.5 435.58695 
" style="fill:none;stroke:#cccccc;stroke-linecap:round;stroke-width:0.8;"/>
     </g>
     <g id="line2d_77"/>
     <g id="text_47">
      <!-- 12 -->
      <g style="fill:#262626;" transform="translate(75.378125 439.210387)scale(0.1 -0.1)">
       <use xlink:href="#LiberationSans-49"/>
       <use x="55.615234" xlink:href="#LiberationSans-50"/>
      </g>
     </g>
    </g>
    <g id="text_48">
     <!-- Average Prediction -->
     <g style="fill:#262626;" transform="translate(68.888125 580.611562)rotate(-90)scale(0.12 -0.12)">
      <use xlink:href="#LiberationSans-65"/>
      <use x="66.683594" xlink:href="#LiberationSans-118"/>
      <use x="116.683594" xlink:href="#LiberationSans-101"/>
      <use x="172.298828" xlink:href="#LiberationSans-114"/>
      <use x="205.599609" xlink:href="#LiberationSans-97"/>
      <use x="261.214844" xlink:href="#LiberationSans-103"/>
      <use x="316.830078" xlink:href="#LiberationSans-101"/>
      <use x="372.445312" xlink:href="#LiberationSans-32"/>
      <use x="400.228516" xlink:href="#LiberationSans-80"/>
      <use x="466.927734" xlink:href="#LiberationSans-114"/>
      <use x="500.228516" xlink:href="#LiberationSans-101"/>
      <use x="555.84375" xlink:href="#LiberationSans-100"/>
      <use x="611.458984" xlink:href="#LiberationSans-105"/>
      <use x="633.675781" xlink:href="#LiberationSans-99"/>
      <use x="683.675781" xlink:href="#LiberationSans-116"/>
      <use x="711.458984" xlink:href="#LiberationSans-105"/>
      <use x="733.675781" xlink:href="#LiberationSans-111"/>
      <use x="789.291016" xlink:href="#LiberationSans-110"/>
     </g>
    </g>
   </g>
   <g id="PolyCollection_4">
    <path clip-path="url(#p83eba7aa1c)" d="M 145.416741 487.135152 
L 145.416741 582.210123 
L 145.416741 487.135152 
L 145.416741 487.135152 
z
" style="fill:#a157db;fill-opacity:0.2;stroke:#a157db;stroke-opacity:0.2;stroke-width:0.5;"/>
    <path clip-path="url(#p83eba7aa1c)" d="M 189.974481 473.648545 
L 189.974481 480.321161 
L 189.974481 473.648545 
L 189.974481 473.648545 
z
" style="fill:#a157db;fill-opacity:0.2;stroke:#a157db;stroke-opacity:0.2;stroke-width:0.5;"/>
    <path clip-path="url(#p83eba7aa1c)" d="M 191.999832 488.057404 
L 191.999832 533.512067 
L 191.999832 488.057404 
L 191.999832 488.057404 
z
" style="fill:#a157db;fill-opacity:0.2;stroke:#a157db;stroke-opacity:0.2;stroke-width:0.5;"/>
    <path clip-path="url(#p83eba7aa1c)" d="M 201.036017 429.12 
L 201.036017 612.530228 
L 201.036017 429.12 
L 201.036017 429.12 
z
" style="fill:#a157db;fill-opacity:0.2;stroke:#a157db;stroke-opacity:0.2;stroke-width:0.5;"/>
    <path clip-path="url(#p83eba7aa1c)" d="M 203.217166 494.832093 
L 203.217166 583.888798 
L 203.217166 494.832093 
L 203.217166 494.832093 
z
" style="fill:#a157db;fill-opacity:0.2;stroke:#a157db;stroke-opacity:0.2;stroke-width:0.5;"/>
   </g>
   <g id="line2d_78">
    <path clip-path="url(#p83eba7aa1c)" d="M 96.340909 585.113285 
L 98.989446 433.284264 
L 120.800927 469.458141 
L 132.797241 466.69548 
L 132.953038 487.104226 
L 136.536352 497.367045 
L 137.159538 486.154269 
L 140.119667 486.070051 
L 141.210241 629.921543 
L 145.416741 538.113542 
L 148.688463 461.566441 
L 148.84426 499.558177 
L 162.554333 558.93632 
L 163.177518 545.642263 
L 163.333315 435.916365 
L 164.735481 479.097474 
L 173.927463 592.410032 
L 187.793333 557.001615 
L 189.974481 476.984853 
L 191.532444 553.419925 
L 191.999832 510.784736 
L 195.427351 581.441487 
L 196.362129 581.996219 
L 201.036017 491.999818 
L 201.970795 565.789014 
L 202.59398 583.831336 
L 202.749777 608.788479 
L 202.905573 484.053522 
L 203.217166 538.511283 
L 223.159091 630.72 
" style="fill:none;stroke:#a157db;stroke-linecap:round;stroke-width:1.5;"/>
   </g>
   <g id="patch_18">
    <path d="M 90 640.8 
L 90 419.04 
" style="fill:none;stroke:#cccccc;stroke-linecap:square;stroke-linejoin:miter;"/>
   </g>
   <g id="patch_19">
    <path d="M 229.5 640.8 
L 229.5 419.04 
" style="fill:none;stroke:#cccccc;stroke-linecap:square;stroke-linejoin:miter;"/>
   </g>
   <g id="patch_20">
    <path d="M 90 640.8 
L 229.5 640.8 
" style="fill:none;stroke:#cccccc;stroke-linecap:square;stroke-linejoin:miter;"/>
   </g>
   <g id="patch_21">
    <path d="M 90 419.04 
L 229.5 419.04 
" style="fill:none;stroke:#cccccc;stroke-linecap:square;stroke-linejoin:miter;"/>
   </g>
   <g id="text_49">
    <!-- length -->
    <defs>
     <path d="M 15.484375 43.796875 
Q 18.3125 48.96875 22.28125 51.390625 
Q 26.265625 53.8125 32.375 53.8125 
Q 40.96875 53.8125 45.046875 49.53125 
Q 49.125 45.265625 49.125 35.203125 
L 49.125 0 
L 40.28125 0 
L 40.28125 33.5 
Q 40.28125 39.0625 39.25 41.765625 
Q 38.234375 44.484375 35.890625 45.75 
Q 33.546875 47.015625 29.390625 47.015625 
Q 23.1875 47.015625 19.453125 42.71875 
Q 15.71875 38.421875 15.71875 31.15625 
L 15.71875 0 
L 6.9375 0 
L 6.9375 72.46875 
L 15.71875 72.46875 
L 15.71875 53.609375 
Q 15.71875 50.640625 15.546875 47.453125 
Q 15.375 44.28125 15.328125 43.796875 
z
" id="LiberationSans-104"/>
    </defs>
    <g style="fill:#262626;" transform="translate(140.1345 413.04)scale(0.144 -0.144)">
     <use xlink:href="#LiberationSans-108"/>
     <use x="22.216797" xlink:href="#LiberationSans-101"/>
     <use x="77.832031" xlink:href="#LiberationSans-110"/>
     <use x="133.447266" xlink:href="#LiberationSans-103"/>
     <use x="189.0625" xlink:href="#LiberationSans-116"/>
     <use x="216.845703" xlink:href="#LiberationSans-104"/>
    </g>
   </g>
  </g>
  <g id="axes_5">
   <g id="patch_22">
    <path d="M 299.25 640.8 
L 438.75 640.8 
L 438.75 419.04 
L 299.25 419.04 
z
" style="fill:#ffffff;"/>
   </g>
   <g id="matplotlib.axis_9">
    <g id="xtick_13">
     <g id="line2d_79">
      <path clip-path="url(#p7153e3b039)" d="M 302.981807 640.8 
L 302.981807 419.04 
" style="fill:none;stroke:#cccccc;stroke-linecap:round;stroke-width:0.8;"/>
     </g>
     <g id="line2d_80"/>
     <g id="text_50">
      <!-- 0 -->
      <g style="fill:#262626;" transform="translate(300.201338 651.546875)scale(0.1 -0.1)">
       <use xlink:href="#LiberationSans-48"/>
      </g>
     </g>
    </g>
    <g id="xtick_14">
     <g id="line2d_81">
      <path clip-path="url(#p7153e3b039)" d="M 342.513659 640.8 
L 342.513659 419.04 
" style="fill:none;stroke:#cccccc;stroke-linecap:round;stroke-width:0.8;"/>
     </g>
     <g id="line2d_82"/>
     <g id="text_51">
      <!-- 5 -->
      <g style="fill:#262626;" transform="translate(339.73319 651.546875)scale(0.1 -0.1)">
       <use xlink:href="#LiberationSans-53"/>
      </g>
     </g>
    </g>
    <g id="xtick_15">
     <g id="line2d_83">
      <path clip-path="url(#p7153e3b039)" d="M 382.045511 640.8 
L 382.045511 419.04 
" style="fill:none;stroke:#cccccc;stroke-linecap:round;stroke-width:0.8;"/>
     </g>
     <g id="line2d_84"/>
     <g id="text_52">
      <!-- 10 -->
      <g style="fill:#262626;" transform="translate(376.484574 651.546875)scale(0.1 -0.1)">
       <use xlink:href="#LiberationSans-49"/>
       <use x="55.615234" xlink:href="#LiberationSans-48"/>
      </g>
     </g>
    </g>
    <g id="xtick_16">
     <g id="line2d_85">
      <path clip-path="url(#p7153e3b039)" d="M 421.577363 640.8 
L 421.577363 419.04 
" style="fill:none;stroke:#cccccc;stroke-linecap:round;stroke-width:0.8;"/>
     </g>
     <g id="line2d_86"/>
     <g id="text_53">
      <!-- 15 -->
      <g style="fill:#262626;" transform="translate(416.016426 651.546875)scale(0.1 -0.1)">
       <use xlink:href="#LiberationSans-49"/>
       <use x="55.615234" xlink:href="#LiberationSans-53"/>
      </g>
     </g>
    </g>
    <g id="text_54">
     <!-- Value -->
     <g style="fill:#262626;" transform="translate(353.661563 666.318125)scale(0.12 -0.12)">
      <use xlink:href="#LiberationSans-86"/>
      <use x="66.589844" xlink:href="#LiberationSans-97"/>
      <use x="122.205078" xlink:href="#LiberationSans-108"/>
      <use x="144.421875" xlink:href="#LiberationSans-117"/>
      <use x="200.037109" xlink:href="#LiberationSans-101"/>
     </g>
    </g>
   </g>
   <g id="matplotlib.axis_10">
    <g id="ytick_26">
     <g id="line2d_87">
      <path clip-path="url(#p7153e3b039)" d="M 299.25 631.490926 
L 438.75 631.490926 
" style="fill:none;stroke:#cccccc;stroke-linecap:round;stroke-width:0.8;"/>
     </g>
     <g id="line2d_88"/>
     <g id="text_55">
      <!-- 4 -->
      <g style="fill:#262626;" transform="translate(290.189062 635.114363)scale(0.1 -0.1)">
       <use xlink:href="#LiberationSans-52"/>
      </g>
     </g>
    </g>
    <g id="ytick_27">
     <g id="line2d_89">
      <path clip-path="url(#p7153e3b039)" d="M 299.25 599.34557 
L 438.75 599.34557 
" style="fill:none;stroke:#cccccc;stroke-linecap:round;stroke-width:0.8;"/>
     </g>
     <g id="line2d_90"/>
     <g id="text_56">
      <!-- 5 -->
      <g style="fill:#262626;" transform="translate(290.189062 602.969008)scale(0.1 -0.1)">
       <use xlink:href="#LiberationSans-53"/>
      </g>
     </g>
    </g>
    <g id="ytick_28">
     <g id="line2d_91">
      <path clip-path="url(#p7153e3b039)" d="M 299.25 567.200215 
L 438.75 567.200215 
" style="fill:none;stroke:#cccccc;stroke-linecap:round;stroke-width:0.8;"/>
     </g>
     <g id="line2d_92"/>
     <g id="text_57">
      <!-- 6 -->
      <g style="fill:#262626;" transform="translate(290.189062 570.823652)scale(0.1 -0.1)">
       <use xlink:href="#LiberationSans-54"/>
      </g>
     </g>
    </g>
    <g id="ytick_29">
     <g id="line2d_93">
      <path clip-path="url(#p7153e3b039)" d="M 299.25 535.054859 
L 438.75 535.054859 
" style="fill:none;stroke:#cccccc;stroke-linecap:round;stroke-width:0.8;"/>
     </g>
     <g id="line2d_94"/>
     <g id="text_58">
      <!-- 7 -->
      <g style="fill:#262626;" transform="translate(290.189062 538.678296)scale(0.1 -0.1)">
       <use xlink:href="#LiberationSans-55"/>
      </g>
     </g>
    </g>
    <g id="ytick_30">
     <g id="line2d_95">
      <path clip-path="url(#p7153e3b039)" d="M 299.25 502.909503 
L 438.75 502.909503 
" style="fill:none;stroke:#cccccc;stroke-linecap:round;stroke-width:0.8;"/>
     </g>
     <g id="line2d_96"/>
     <g id="text_59">
      <!-- 8 -->
      <g style="fill:#262626;" transform="translate(290.189062 506.532941)scale(0.1 -0.1)">
       <use xlink:href="#LiberationSans-56"/>
      </g>
     </g>
    </g>
    <g id="ytick_31">
     <g id="line2d_97">
      <path clip-path="url(#p7153e3b039)" d="M 299.25 470.764148 
L 438.75 470.764148 
" style="fill:none;stroke:#cccccc;stroke-linecap:round;stroke-width:0.8;"/>
     </g>
     <g id="line2d_98"/>
     <g id="text_60">
      <!-- 9 -->
      <g style="fill:#262626;" transform="translate(290.189062 474.387585)scale(0.1 -0.1)">
       <use xlink:href="#LiberationSans-57"/>
      </g>
     </g>
    </g>
    <g id="ytick_32">
     <g id="line2d_99">
      <path clip-path="url(#p7153e3b039)" d="M 299.25 438.618792 
L 438.75 438.618792 
" style="fill:none;stroke:#cccccc;stroke-linecap:round;stroke-width:0.8;"/>
     </g>
     <g id="line2d_100"/>
     <g id="text_61">
      <!-- 10 -->
      <g style="fill:#262626;" transform="translate(284.628125 442.242229)scale(0.1 -0.1)">
       <use xlink:href="#LiberationSans-49"/>
       <use x="55.615234" xlink:href="#LiberationSans-48"/>
      </g>
     </g>
    </g>
    <g id="text_62">
     <!-- Average Prediction -->
     <g style="fill:#262626;" transform="translate(278.138125 580.611562)rotate(-90)scale(0.12 -0.12)">
      <use xlink:href="#LiberationSans-65"/>
      <use x="66.683594" xlink:href="#LiberationSans-118"/>
      <use x="116.683594" xlink:href="#LiberationSans-101"/>
      <use x="172.298828" xlink:href="#LiberationSans-114"/>
      <use x="205.599609" xlink:href="#LiberationSans-97"/>
      <use x="261.214844" xlink:href="#LiberationSans-103"/>
      <use x="316.830078" xlink:href="#LiberationSans-101"/>
      <use x="372.445312" xlink:href="#LiberationSans-32"/>
      <use x="400.228516" xlink:href="#LiberationSans-80"/>
      <use x="466.927734" xlink:href="#LiberationSans-114"/>
      <use x="500.228516" xlink:href="#LiberationSans-101"/>
      <use x="555.84375" xlink:href="#LiberationSans-100"/>
      <use x="611.458984" xlink:href="#LiberationSans-105"/>
      <use x="633.675781" xlink:href="#LiberationSans-99"/>
      <use x="683.675781" xlink:href="#LiberationSans-116"/>
      <use x="711.458984" xlink:href="#LiberationSans-105"/>
      <use x="733.675781" xlink:href="#LiberationSans-111"/>
      <use x="789.291016" xlink:href="#LiberationSans-110"/>
     </g>
    </g>
   </g>
   <g id="PolyCollection_5">
    <path clip-path="url(#p7153e3b039)" d="M 330.021594 475.802932 
L 330.021594 476.058809 
L 330.021594 475.802932 
L 330.021594 475.802932 
z
" style="fill:#c957db;fill-opacity:0.2;stroke:#c957db;stroke-opacity:0.2;stroke-width:0.5;"/>
    <path clip-path="url(#p7153e3b039)" d="M 380.068919 467.21522 
L 380.068919 552.424843 
L 380.068919 467.21522 
L 380.068919 467.21522 
z
" style="fill:#c957db;fill-opacity:0.2;stroke:#c957db;stroke-opacity:0.2;stroke-width:0.5;"/>
   </g>
   <g id="line2d_101">
    <path clip-path="url(#p7153e3b039)" d="M 305.590909 583.653172 
L 306.539674 443.029938 
L 309.939413 481.243453 
L 314.683235 480.844931 
L 315.632 475.07701 
L 322.352414 496.468619 
L 330.021594 475.930871 
L 330.970358 630.72 
L 331.049422 585.48168 
L 333.263206 490.410103 
L 334.607289 544.207606 
L 335.397926 467.710098 
L 344.569315 494.632637 
L 344.727443 563.599212 
L 350.973475 543.58712 
L 354.68947 429.12 
L 355.163852 491.952437 
L 362.437713 601.560225 
L 376.90637 557.628372 
L 378.092326 474.528128 
L 380.068919 504.840769 
L 382.045511 546.755206 
L 386.473079 582.575017 
L 387.738098 582.590125 
L 389.477499 439.420256 
L 391.533156 440.881021 
L 392.956302 613.137455 
L 396.039787 552.401457 
L 397.621061 575.687714 
L 403.78803 608.575145 
L 405.764623 491.620135 
L 407.42496 501.718759 
L 410.19219 502.641974 
L 412.010655 505.577568 
L 420.549535 612.943538 
L 426.083995 600.31853 
L 432.409091 630.008623 
" style="fill:none;stroke:#c957db;stroke-linecap:round;stroke-width:1.5;"/>
   </g>
   <g id="patch_23">
    <path d="M 299.25 640.8 
L 299.25 419.04 
" style="fill:none;stroke:#cccccc;stroke-linecap:square;stroke-linejoin:miter;"/>
   </g>
   <g id="patch_24">
    <path d="M 438.75 640.8 
L 438.75 419.04 
" style="fill:none;stroke:#cccccc;stroke-linecap:square;stroke-linejoin:miter;"/>
   </g>
   <g id="patch_25">
    <path d="M 299.25 640.8 
L 438.75 640.8 
" style="fill:none;stroke:#cccccc;stroke-linecap:square;stroke-linejoin:miter;"/>
   </g>
   <g id="patch_26">
    <path d="M 299.25 419.04 
L 438.75 419.04 
" style="fill:none;stroke:#cccccc;stroke-linecap:square;stroke-linejoin:miter;"/>
   </g>
   <g id="text_63">
    <!-- cabins -->
    <defs>
     <path d="M 51.421875 26.65625 
Q 51.421875 -0.984375 31.984375 -0.984375 
Q 25.984375 -0.984375 22 1.1875 
Q 18.015625 3.375 15.53125 8.203125 
L 15.4375 8.203125 
Q 15.4375 6.6875 15.234375 3.578125 
Q 15.046875 0.484375 14.9375 0 
L 6.453125 0 
Q 6.734375 2.640625 6.734375 10.890625 
L 6.734375 72.46875 
L 15.53125 72.46875 
L 15.53125 51.8125 
Q 15.53125 48.640625 15.328125 44.34375 
L 15.53125 44.34375 
Q 17.96875 49.421875 22 51.609375 
Q 26.03125 53.8125 31.984375 53.8125 
Q 42 53.8125 46.703125 47.0625 
Q 51.421875 40.328125 51.421875 26.65625 
z
M 42.1875 26.375 
Q 42.1875 37.453125 39.25 42.234375 
Q 36.328125 47.015625 29.734375 47.015625 
Q 22.3125 47.015625 18.921875 41.9375 
Q 15.53125 36.859375 15.53125 25.828125 
Q 15.53125 15.4375 18.84375 10.46875 
Q 22.171875 5.515625 29.640625 5.515625 
Q 36.28125 5.515625 39.234375 10.421875 
Q 42.1875 15.328125 42.1875 26.375 
z
" id="LiberationSans-98"/>
    </defs>
    <g style="fill:#262626;" transform="translate(348.188625 413.04)scale(0.144 -0.144)">
     <use xlink:href="#LiberationSans-99"/>
     <use x="50" xlink:href="#LiberationSans-97"/>
     <use x="105.615234" xlink:href="#LiberationSans-98"/>
     <use x="161.230469" xlink:href="#LiberationSans-105"/>
     <use x="183.447266" xlink:href="#LiberationSans-110"/>
     <use x="239.0625" xlink:href="#LiberationSans-115"/>
    </g>
   </g>
  </g>
  <g id="axes_6">
   <g id="patch_27">
    <path d="M 508.5 640.8 
L 648 640.8 
L 648 419.04 
L 508.5 419.04 
z
" style="fill:#ffffff;"/>
   </g>
   <g id="matplotlib.axis_11">
    <g id="xtick_17">
     <g id="line2d_102">
      <path clip-path="url(#p6bce6ec0ab)" d="M 520.269568 640.8 
L 520.269568 419.04 
" style="fill:none;stroke:#cccccc;stroke-linecap:round;stroke-width:0.8;"/>
     </g>
     <g id="line2d_103"/>
     <g id="text_64">
      <!-- 20 -->
      <g style="fill:#262626;" transform="translate(514.70863 651.546875)scale(0.1 -0.1)">
       <use xlink:href="#LiberationSans-50"/>
       <use x="55.615234" xlink:href="#LiberationSans-48"/>
      </g>
     </g>
    </g>
    <g id="xtick_18">
     <g id="line2d_104">
      <path clip-path="url(#p6bce6ec0ab)" d="M 567.475293 640.8 
L 567.475293 419.04 
" style="fill:none;stroke:#cccccc;stroke-linecap:round;stroke-width:0.8;"/>
     </g>
     <g id="line2d_105"/>
     <g id="text_65">
      <!-- 40 -->
      <g style="fill:#262626;" transform="translate(561.914356 651.546875)scale(0.1 -0.1)">
       <use xlink:href="#LiberationSans-52"/>
       <use x="55.615234" xlink:href="#LiberationSans-48"/>
      </g>
     </g>
    </g>
    <g id="xtick_19">
     <g id="line2d_106">
      <path clip-path="url(#p6bce6ec0ab)" d="M 614.681019 640.8 
L 614.681019 419.04 
" style="fill:none;stroke:#cccccc;stroke-linecap:round;stroke-width:0.8;"/>
     </g>
     <g id="line2d_107"/>
     <g id="text_66">
      <!-- 60 -->
      <g style="fill:#262626;" transform="translate(609.120081 651.546875)scale(0.1 -0.1)">
       <use xlink:href="#LiberationSans-54"/>
       <use x="55.615234" xlink:href="#LiberationSans-48"/>
      </g>
     </g>
    </g>
    <g id="text_67">
     <!-- Value -->
     <g style="fill:#262626;" transform="translate(562.911562 666.318125)scale(0.12 -0.12)">
      <use xlink:href="#LiberationSans-86"/>
      <use x="66.589844" xlink:href="#LiberationSans-97"/>
      <use x="122.205078" xlink:href="#LiberationSans-108"/>
      <use x="144.421875" xlink:href="#LiberationSans-117"/>
      <use x="200.037109" xlink:href="#LiberationSans-101"/>
     </g>
    </g>
   </g>
   <g id="matplotlib.axis_12">
    <g id="ytick_33">
     <g id="line2d_108">
      <path clip-path="url(#p6bce6ec0ab)" d="M 508.5 608.893018 
L 648 608.893018 
" style="fill:none;stroke:#cccccc;stroke-linecap:round;stroke-width:0.8;"/>
     </g>
     <g id="line2d_109"/>
     <g id="text_68">
      <!-- 2 -->
      <g style="fill:#262626;" transform="translate(499.439063 612.516455)scale(0.1 -0.1)">
       <use xlink:href="#LiberationSans-50"/>
      </g>
     </g>
    </g>
    <g id="ytick_34">
     <g id="line2d_110">
      <path clip-path="url(#p6bce6ec0ab)" d="M 508.5 574.248664 
L 648 574.248664 
" style="fill:none;stroke:#cccccc;stroke-linecap:round;stroke-width:0.8;"/>
     </g>
     <g id="line2d_111"/>
     <g id="text_69">
      <!-- 4 -->
      <g style="fill:#262626;" transform="translate(499.439063 577.872101)scale(0.1 -0.1)">
       <use xlink:href="#LiberationSans-52"/>
      </g>
     </g>
    </g>
    <g id="ytick_35">
     <g id="line2d_112">
      <path clip-path="url(#p6bce6ec0ab)" d="M 508.5 539.60431 
L 648 539.60431 
" style="fill:none;stroke:#cccccc;stroke-linecap:round;stroke-width:0.8;"/>
     </g>
     <g id="line2d_113"/>
     <g id="text_70">
      <!-- 6 -->
      <g style="fill:#262626;" transform="translate(499.439063 543.227747)scale(0.1 -0.1)">
       <use xlink:href="#LiberationSans-54"/>
      </g>
     </g>
    </g>
    <g id="ytick_36">
     <g id="line2d_114">
      <path clip-path="url(#p6bce6ec0ab)" d="M 508.5 504.959955 
L 648 504.959955 
" style="fill:none;stroke:#cccccc;stroke-linecap:round;stroke-width:0.8;"/>
     </g>
     <g id="line2d_115"/>
     <g id="text_71">
      <!-- 8 -->
      <g style="fill:#262626;" transform="translate(499.439063 508.583393)scale(0.1 -0.1)">
       <use xlink:href="#LiberationSans-56"/>
      </g>
     </g>
    </g>
    <g id="ytick_37">
     <g id="line2d_116">
      <path clip-path="url(#p6bce6ec0ab)" d="M 508.5 470.315601 
L 648 470.315601 
" style="fill:none;stroke:#cccccc;stroke-linecap:round;stroke-width:0.8;"/>
     </g>
     <g id="line2d_117"/>
     <g id="text_72">
      <!-- 10 -->
      <g style="fill:#262626;" transform="translate(493.878125 473.939039)scale(0.1 -0.1)">
       <use xlink:href="#LiberationSans-49"/>
       <use x="55.615234" xlink:href="#LiberationSans-48"/>
      </g>
     </g>
    </g>
    <g id="ytick_38">
     <g id="line2d_118">
      <path clip-path="url(#p6bce6ec0ab)" d="M 508.5 435.671247 
L 648 435.671247 
" style="fill:none;stroke:#cccccc;stroke-linecap:round;stroke-width:0.8;"/>
     </g>
     <g id="line2d_119"/>
     <g id="text_73">
      <!-- 12 -->
      <g style="fill:#262626;" transform="translate(493.878125 439.294685)scale(0.1 -0.1)">
       <use xlink:href="#LiberationSans-49"/>
       <use x="55.615234" xlink:href="#LiberationSans-50"/>
      </g>
     </g>
    </g>
    <g id="text_74">
     <!-- Average Prediction -->
     <g style="fill:#262626;" transform="translate(487.388125 580.611562)rotate(-90)scale(0.12 -0.12)">
      <use xlink:href="#LiberationSans-65"/>
      <use x="66.683594" xlink:href="#LiberationSans-118"/>
      <use x="116.683594" xlink:href="#LiberationSans-101"/>
      <use x="172.298828" xlink:href="#LiberationSans-114"/>
      <use x="205.599609" xlink:href="#LiberationSans-97"/>
      <use x="261.214844" xlink:href="#LiberationSans-103"/>
      <use x="316.830078" xlink:href="#LiberationSans-101"/>
      <use x="372.445312" xlink:href="#LiberationSans-32"/>
      <use x="400.228516" xlink:href="#LiberationSans-80"/>
      <use x="466.927734" xlink:href="#LiberationSans-114"/>
      <use x="500.228516" xlink:href="#LiberationSans-101"/>
      <use x="555.84375" xlink:href="#LiberationSans-100"/>
      <use x="611.458984" xlink:href="#LiberationSans-105"/>
      <use x="633.675781" xlink:href="#LiberationSans-99"/>
      <use x="683.675781" xlink:href="#LiberationSans-116"/>
      <use x="711.458984" xlink:href="#LiberationSans-105"/>
      <use x="733.675781" xlink:href="#LiberationSans-111"/>
      <use x="789.291016" xlink:href="#LiberationSans-110"/>
     </g>
    </g>
   </g>
   <g id="PolyCollection_6">
    <path clip-path="url(#p6bce6ec0ab)" d="M 559.94598 429.12 
L 559.94598 471.160014 
L 559.94598 429.12 
L 559.94598 429.12 
z
" style="fill:#db57d3;fill-opacity:0.2;stroke:#db57d3;stroke-opacity:0.2;stroke-width:0.5;"/>
    <path clip-path="url(#p6bce6ec0ab)" d="M 577.530113 558.615659 
L 577.530113 611.298851 
L 578.757462 606.028752 
L 578.757462 477.731658 
L 578.757462 477.731658 
L 577.530113 558.615659 
z
" style="fill:#db57d3;fill-opacity:0.2;stroke:#db57d3;stroke-opacity:0.2;stroke-width:0.5;"/>
   </g>
   <g id="line2d_120">
    <path clip-path="url(#p6bce6ec0ab)" d="M 514.840909 580.65146 
L 529.403875 440.032322 
L 531.551736 466.004588 
L 533.628788 464.629077 
L 538.986638 478.293676 
L 539.010241 493.58184 
L 543.37677 477.34611 
L 546.091099 477.34087 
L 547.955726 629.174429 
L 549.135869 577.219893 
L 549.914763 485.450854 
L 552.652695 539.096423 
L 556.004302 460.935599 
L 556.122316 494.571673 
L 557.986942 554.699591 
L 558.081354 540.175335 
L 559.94598 450.140007 
L 561.385755 590.611798 
L 562.235458 554.33903 
L 564.170892 472.241221 
L 564.760964 466.818167 
L 565.752284 550.072014 
L 566.224341 485.110863 
L 567.900145 529.649558 
L 568.655436 577.658188 
L 569.009479 578.208383 
L 570.520062 433.815393 
L 573.706449 435.584983 
L 577.530113 584.957255 
L 578.757462 553.968653 
L 579.725179 480.989484 
L 592.541533 481.265599 
L 607.033691 498.155415 
L 614.681019 609.473094 
L 632.029123 589.304883 
L 641.659091 630.72 
" style="fill:none;stroke:#db57d3;stroke-linecap:round;stroke-width:1.5;"/>
   </g>
   <g id="patch_28">
    <path d="M 508.5 640.8 
L 508.5 419.04 
" style="fill:none;stroke:#cccccc;stroke-linecap:square;stroke-linejoin:miter;"/>
   </g>
   <g id="patch_29">
    <path d="M 648 640.8 
L 648 419.04 
" style="fill:none;stroke:#cccccc;stroke-linecap:square;stroke-linejoin:miter;"/>
   </g>
   <g id="patch_30">
    <path d="M 508.5 640.8 
L 648 640.8 
" style="fill:none;stroke:#cccccc;stroke-linecap:square;stroke-linejoin:miter;"/>
   </g>
   <g id="patch_31">
    <path d="M 508.5 419.04 
L 648 419.04 
" style="fill:none;stroke:#cccccc;stroke-linecap:square;stroke-linejoin:miter;"/>
   </g>
   <g id="text_75">
    <!-- passenger_density -->
    <defs>
     <path d="M -1.515625 -19.875 
L -1.515625 -13.53125 
L 56.734375 -13.53125 
L 56.734375 -19.875 
z
" id="LiberationSans-95"/>
     <path d="M 9.328125 -20.75 
Q 5.71875 -20.75 3.265625 -20.21875 
L 3.265625 -13.625 
Q 5.125 -13.921875 7.375 -13.921875 
Q 15.578125 -13.921875 20.359375 -1.859375 
L 21.1875 0.25 
L 0.25 52.828125 
L 9.625 52.828125 
L 20.75 23.640625 
Q 21 22.953125 21.34375 22 
Q 21.6875 21.046875 23.53125 15.625 
Q 25.390625 10.203125 25.53125 9.578125 
L 28.953125 19.1875 
L 40.53125 52.828125 
L 49.8125 52.828125 
L 29.5 0 
Q 26.21875 -8.453125 23.390625 -12.578125 
Q 20.5625 -16.703125 17.109375 -18.71875 
Q 13.671875 -20.75 9.328125 -20.75 
z
" id="LiberationSans-121"/>
    </defs>
    <g style="fill:#262626;" transform="translate(517.813875 413.04)scale(0.144 -0.144)">
     <use xlink:href="#LiberationSans-112"/>
     <use x="55.615234" xlink:href="#LiberationSans-97"/>
     <use x="111.230469" xlink:href="#LiberationSans-115"/>
     <use x="161.230469" xlink:href="#LiberationSans-115"/>
     <use x="211.230469" xlink:href="#LiberationSans-101"/>
     <use x="266.845703" xlink:href="#LiberationSans-110"/>
     <use x="322.460938" xlink:href="#LiberationSans-103"/>
     <use x="378.076172" xlink:href="#LiberationSans-101"/>
     <use x="433.691406" xlink:href="#LiberationSans-114"/>
     <use x="466.992188" xlink:href="#LiberationSans-95"/>
     <use x="522.607422" xlink:href="#LiberationSans-100"/>
     <use x="578.222656" xlink:href="#LiberationSans-101"/>
     <use x="633.837891" xlink:href="#LiberationSans-110"/>
     <use x="689.453125" xlink:href="#LiberationSans-115"/>
     <use x="739.453125" xlink:href="#LiberationSans-105"/>
     <use x="761.669922" xlink:href="#LiberationSans-116"/>
     <use x="789.453125" xlink:href="#LiberationSans-121"/>
    </g>
   </g>
  </g>
 </g>
 <defs>
  <clipPath id="p28c393c459">
   <rect height="221.76" width="139.5" x="90" y="86.4"/>
  </clipPath>
  <clipPath id="p7b0c5587fa">
   <rect height="221.76" width="139.5" x="299.25" y="86.4"/>
  </clipPath>
  <clipPath id="p7eaa0dabd2">
   <rect height="221.76" width="139.5" x="508.5" y="86.4"/>
  </clipPath>
  <clipPath id="p83eba7aa1c">
   <rect height="221.76" width="139.5" x="90" y="419.04"/>
  </clipPath>
  <clipPath id="p7153e3b039">
   <rect height="221.76" width="139.5" x="299.25" y="419.04"/>
  </clipPath>
  <clipPath id="p6bce6ec0ab">
   <rect height="221.76" width="139.5" x="508.5" y="419.04"/>
  </clipPath>
 </defs>
</svg>
